%TF.GenerationSoftware,KiCad,Pcbnew,(5.1.6)-1*%
%TF.CreationDate,2020-09-01T17:51:17+09:00*%
%TF.ProjectId,attiny1614_accsupervisor,61747469-6e79-4313-9631-345f61636373,r01*%
%TF.SameCoordinates,Original*%
%TF.FileFunction,Copper,L2,Bot*%
%TF.FilePolarity,Positive*%
%FSLAX46Y46*%
G04 Gerber Fmt 4.6, Leading zero omitted, Abs format (unit mm)*
G04 Created by KiCad (PCBNEW (5.1.6)-1) date 2020-09-01 17:51:17*
%MOMM*%
%LPD*%
G01*
G04 APERTURE LIST*
%TA.AperFunction,ComponentPad*%
%ADD10C,3.000000*%
%TD*%
%TA.AperFunction,ComponentPad*%
%ADD11O,2.000000X3.600000*%
%TD*%
%TA.AperFunction,ComponentPad*%
%ADD12R,2.600000X2.600000*%
%TD*%
%TA.AperFunction,ComponentPad*%
%ADD13C,2.600000*%
%TD*%
%TA.AperFunction,ComponentPad*%
%ADD14R,1.700000X1.700000*%
%TD*%
%TA.AperFunction,ComponentPad*%
%ADD15O,1.700000X1.700000*%
%TD*%
%TA.AperFunction,ComponentPad*%
%ADD16R,2.500000X2.500000*%
%TD*%
%TA.AperFunction,ComponentPad*%
%ADD17O,2.500000X2.500000*%
%TD*%
G04 APERTURE END LIST*
D10*
%TO.P,F1,1*%
%TO.N,/12V_IN*%
X242000000Y-64000000D03*
%TO.P,F1,2*%
%TO.N,/12V*%
X242000000Y-84000000D03*
%TD*%
%TO.P,F2,2*%
%TO.N,/ACC*%
X231000000Y-84000000D03*
%TO.P,F2,1*%
%TO.N,/ACC_IN*%
X231000000Y-64000000D03*
%TD*%
%TO.P,J2,1*%
%TO.N,/12V_IN*%
%TA.AperFunction,ComponentPad*%
G36*
G01*
X244000000Y-56450000D02*
X244000000Y-59550000D01*
G75*
G02*
X243750000Y-59800000I-250000J0D01*
G01*
X242250000Y-59800000D01*
G75*
G02*
X242000000Y-59550000I0J250000D01*
G01*
X242000000Y-56450000D01*
G75*
G02*
X242250000Y-56200000I250000J0D01*
G01*
X243750000Y-56200000D01*
G75*
G02*
X244000000Y-56450000I0J-250000D01*
G01*
G37*
%TD.AperFunction*%
D11*
%TO.P,J2,2*%
%TO.N,/ACC_IN*%
X238000000Y-58000000D03*
%TO.P,J2,3*%
%TO.N,GND*%
X233000000Y-58000000D03*
%TD*%
D12*
%TO.P,J3,1*%
%TO.N,/JST_12V*%
X199000000Y-53000000D03*
D13*
%TO.P,J3,2*%
%TO.N,GND*%
X194000000Y-53000000D03*
%TD*%
D14*
%TO.P,J4,1*%
%TO.N,N/C*%
X243130000Y-96630000D03*
D15*
%TO.P,J4,2*%
X243130000Y-99170000D03*
%TO.P,J4,3*%
X240590000Y-96630000D03*
%TO.P,J4,4*%
X240590000Y-99170000D03*
%TO.P,J4,5*%
X238050000Y-96630000D03*
%TO.P,J4,6*%
%TO.N,GND*%
X238050000Y-99170000D03*
%TO.P,J4,7*%
%TO.N,N/C*%
X235510000Y-96630000D03*
%TO.P,J4,8*%
%TO.N,/JST_TX*%
X235510000Y-99170000D03*
%TO.P,J4,9*%
%TO.N,GND*%
X232970000Y-96630000D03*
%TO.P,J4,10*%
%TO.N,/JST_RX*%
X232970000Y-99170000D03*
%TO.P,J4,11*%
%TO.N,N/C*%
X230430000Y-96630000D03*
%TO.P,J4,12*%
X230430000Y-99170000D03*
%TO.P,J4,13*%
X227890000Y-96630000D03*
%TO.P,J4,14*%
%TO.N,GND*%
X227890000Y-99170000D03*
%TO.P,J4,15*%
%TO.N,N/C*%
X225350000Y-96630000D03*
%TO.P,J4,16*%
X225350000Y-99170000D03*
%TO.P,J4,17*%
X222810000Y-96630000D03*
%TO.P,J4,18*%
X222810000Y-99170000D03*
%TO.P,J4,19*%
X220270000Y-96630000D03*
%TO.P,J4,20*%
%TO.N,GND*%
X220270000Y-99170000D03*
%TO.P,J4,21*%
%TO.N,N/C*%
X217730000Y-96630000D03*
%TO.P,J4,22*%
X217730000Y-99170000D03*
%TO.P,J4,23*%
X215190000Y-96630000D03*
%TO.P,J4,24*%
X215190000Y-99170000D03*
%TO.P,J4,25*%
%TO.N,GND*%
X212650000Y-96630000D03*
%TO.P,J4,26*%
%TO.N,N/C*%
X212650000Y-99170000D03*
%TO.P,J4,27*%
X210110000Y-96630000D03*
%TO.P,J4,28*%
X210110000Y-99170000D03*
%TO.P,J4,29*%
X207570000Y-96630000D03*
%TO.P,J4,30*%
%TO.N,GND*%
X207570000Y-99170000D03*
%TO.P,J4,31*%
%TO.N,N/C*%
X205030000Y-96630000D03*
%TO.P,J4,32*%
X205030000Y-99170000D03*
%TO.P,J4,33*%
X202490000Y-96630000D03*
%TO.P,J4,34*%
%TO.N,GND*%
X202490000Y-99170000D03*
%TO.P,J4,35*%
%TO.N,N/C*%
X199950000Y-96630000D03*
%TO.P,J4,36*%
X199950000Y-99170000D03*
%TO.P,J4,37*%
X197410000Y-96630000D03*
%TO.P,J4,38*%
X197410000Y-99170000D03*
%TO.P,J4,39*%
%TO.N,GND*%
X194870000Y-96630000D03*
%TO.P,J4,40*%
%TO.N,N/C*%
X194870000Y-99170000D03*
%TD*%
D14*
%TO.P,J5,1*%
%TO.N,/UPDI_DATA*%
X200000000Y-89000000D03*
D15*
%TO.P,J5,2*%
%TO.N,/3V3*%
X200000000Y-91540000D03*
%TO.P,J5,3*%
%TO.N,N/C*%
X197460000Y-89000000D03*
%TO.P,J5,4*%
X197460000Y-91540000D03*
%TO.P,J5,5*%
X194920000Y-89000000D03*
%TO.P,J5,6*%
%TO.N,GND*%
X194920000Y-91540000D03*
%TD*%
D16*
%TO.P,K1,1*%
%TO.N,/12V*%
X200000000Y-65000000D03*
D17*
%TO.P,K1,2*%
%TO.N,Net-(D1-Pad2)*%
X194000000Y-67000000D03*
%TO.P,K1,3*%
%TO.N,/JST_12V*%
X194000000Y-79200000D03*
%TO.P,K1,4*%
%TO.N,N/C*%
X206000000Y-79200000D03*
%TO.P,K1,5*%
%TO.N,/12V*%
X206000000Y-67000000D03*
%TD*%
%TO.P,U1,1*%
%TO.N,/3V3*%
%TA.AperFunction,SMDPad,CuDef*%
G36*
G01*
X203550000Y-92960000D02*
X203550000Y-92660000D01*
G75*
G02*
X203700000Y-92510000I150000J0D01*
G01*
X205350000Y-92510000D01*
G75*
G02*
X205500000Y-92660000I0J-150000D01*
G01*
X205500000Y-92960000D01*
G75*
G02*
X205350000Y-93110000I-150000J0D01*
G01*
X203700000Y-93110000D01*
G75*
G02*
X203550000Y-92960000I0J150000D01*
G01*
G37*
%TD.AperFunction*%
%TO.P,U1,2*%
%TO.N,N/C*%
%TA.AperFunction,SMDPad,CuDef*%
G36*
G01*
X203550000Y-91690000D02*
X203550000Y-91390000D01*
G75*
G02*
X203700000Y-91240000I150000J0D01*
G01*
X205350000Y-91240000D01*
G75*
G02*
X205500000Y-91390000I0J-150000D01*
G01*
X205500000Y-91690000D01*
G75*
G02*
X205350000Y-91840000I-150000J0D01*
G01*
X203700000Y-91840000D01*
G75*
G02*
X203550000Y-91690000I0J150000D01*
G01*
G37*
%TD.AperFunction*%
%TO.P,U1,3*%
%TA.AperFunction,SMDPad,CuDef*%
G36*
G01*
X203550000Y-90420000D02*
X203550000Y-90120000D01*
G75*
G02*
X203700000Y-89970000I150000J0D01*
G01*
X205350000Y-89970000D01*
G75*
G02*
X205500000Y-90120000I0J-150000D01*
G01*
X205500000Y-90420000D01*
G75*
G02*
X205350000Y-90570000I-150000J0D01*
G01*
X203700000Y-90570000D01*
G75*
G02*
X203550000Y-90420000I0J150000D01*
G01*
G37*
%TD.AperFunction*%
%TO.P,U1,4*%
%TO.N,/ADC1_VIN*%
%TA.AperFunction,SMDPad,CuDef*%
G36*
G01*
X203550000Y-89150000D02*
X203550000Y-88850000D01*
G75*
G02*
X203700000Y-88700000I150000J0D01*
G01*
X205350000Y-88700000D01*
G75*
G02*
X205500000Y-88850000I0J-150000D01*
G01*
X205500000Y-89150000D01*
G75*
G02*
X205350000Y-89300000I-150000J0D01*
G01*
X203700000Y-89300000D01*
G75*
G02*
X203550000Y-89150000I0J150000D01*
G01*
G37*
%TD.AperFunction*%
%TO.P,U1,5*%
%TO.N,/ADC2_ACC*%
%TA.AperFunction,SMDPad,CuDef*%
G36*
G01*
X203550000Y-87880000D02*
X203550000Y-87580000D01*
G75*
G02*
X203700000Y-87430000I150000J0D01*
G01*
X205350000Y-87430000D01*
G75*
G02*
X205500000Y-87580000I0J-150000D01*
G01*
X205500000Y-87880000D01*
G75*
G02*
X205350000Y-88030000I-150000J0D01*
G01*
X203700000Y-88030000D01*
G75*
G02*
X203550000Y-87880000I0J150000D01*
G01*
G37*
%TD.AperFunction*%
%TO.P,U1,6*%
%TO.N,/AVR_RX*%
%TA.AperFunction,SMDPad,CuDef*%
G36*
G01*
X203550000Y-86610000D02*
X203550000Y-86310000D01*
G75*
G02*
X203700000Y-86160000I150000J0D01*
G01*
X205350000Y-86160000D01*
G75*
G02*
X205500000Y-86310000I0J-150000D01*
G01*
X205500000Y-86610000D01*
G75*
G02*
X205350000Y-86760000I-150000J0D01*
G01*
X203700000Y-86760000D01*
G75*
G02*
X203550000Y-86610000I0J150000D01*
G01*
G37*
%TD.AperFunction*%
%TO.P,U1,7*%
%TO.N,/AVR_TX*%
%TA.AperFunction,SMDPad,CuDef*%
G36*
G01*
X203550000Y-85340000D02*
X203550000Y-85040000D01*
G75*
G02*
X203700000Y-84890000I150000J0D01*
G01*
X205350000Y-84890000D01*
G75*
G02*
X205500000Y-85040000I0J-150000D01*
G01*
X205500000Y-85340000D01*
G75*
G02*
X205350000Y-85490000I-150000J0D01*
G01*
X203700000Y-85490000D01*
G75*
G02*
X203550000Y-85340000I0J150000D01*
G01*
G37*
%TD.AperFunction*%
%TO.P,U1,8*%
%TO.N,N/C*%
%TA.AperFunction,SMDPad,CuDef*%
G36*
G01*
X208500000Y-85340000D02*
X208500000Y-85040000D01*
G75*
G02*
X208650000Y-84890000I150000J0D01*
G01*
X210300000Y-84890000D01*
G75*
G02*
X210450000Y-85040000I0J-150000D01*
G01*
X210450000Y-85340000D01*
G75*
G02*
X210300000Y-85490000I-150000J0D01*
G01*
X208650000Y-85490000D01*
G75*
G02*
X208500000Y-85340000I0J150000D01*
G01*
G37*
%TD.AperFunction*%
%TO.P,U1,9*%
%TA.AperFunction,SMDPad,CuDef*%
G36*
G01*
X208500000Y-86610000D02*
X208500000Y-86310000D01*
G75*
G02*
X208650000Y-86160000I150000J0D01*
G01*
X210300000Y-86160000D01*
G75*
G02*
X210450000Y-86310000I0J-150000D01*
G01*
X210450000Y-86610000D01*
G75*
G02*
X210300000Y-86760000I-150000J0D01*
G01*
X208650000Y-86760000D01*
G75*
G02*
X208500000Y-86610000I0J150000D01*
G01*
G37*
%TD.AperFunction*%
%TO.P,U1,10*%
%TO.N,/UPDI_DATA*%
%TA.AperFunction,SMDPad,CuDef*%
G36*
G01*
X208500000Y-87880000D02*
X208500000Y-87580000D01*
G75*
G02*
X208650000Y-87430000I150000J0D01*
G01*
X210300000Y-87430000D01*
G75*
G02*
X210450000Y-87580000I0J-150000D01*
G01*
X210450000Y-87880000D01*
G75*
G02*
X210300000Y-88030000I-150000J0D01*
G01*
X208650000Y-88030000D01*
G75*
G02*
X208500000Y-87880000I0J150000D01*
G01*
G37*
%TD.AperFunction*%
%TO.P,U1,11*%
%TO.N,/RLY_ON*%
%TA.AperFunction,SMDPad,CuDef*%
G36*
G01*
X208500000Y-89150000D02*
X208500000Y-88850000D01*
G75*
G02*
X208650000Y-88700000I150000J0D01*
G01*
X210300000Y-88700000D01*
G75*
G02*
X210450000Y-88850000I0J-150000D01*
G01*
X210450000Y-89150000D01*
G75*
G02*
X210300000Y-89300000I-150000J0D01*
G01*
X208650000Y-89300000D01*
G75*
G02*
X208500000Y-89150000I0J150000D01*
G01*
G37*
%TD.AperFunction*%
%TO.P,U1,12*%
%TO.N,N/C*%
%TA.AperFunction,SMDPad,CuDef*%
G36*
G01*
X208500000Y-90420000D02*
X208500000Y-90120000D01*
G75*
G02*
X208650000Y-89970000I150000J0D01*
G01*
X210300000Y-89970000D01*
G75*
G02*
X210450000Y-90120000I0J-150000D01*
G01*
X210450000Y-90420000D01*
G75*
G02*
X210300000Y-90570000I-150000J0D01*
G01*
X208650000Y-90570000D01*
G75*
G02*
X208500000Y-90420000I0J150000D01*
G01*
G37*
%TD.AperFunction*%
%TO.P,U1,13*%
%TA.AperFunction,SMDPad,CuDef*%
G36*
G01*
X208500000Y-91690000D02*
X208500000Y-91390000D01*
G75*
G02*
X208650000Y-91240000I150000J0D01*
G01*
X210300000Y-91240000D01*
G75*
G02*
X210450000Y-91390000I0J-150000D01*
G01*
X210450000Y-91690000D01*
G75*
G02*
X210300000Y-91840000I-150000J0D01*
G01*
X208650000Y-91840000D01*
G75*
G02*
X208500000Y-91690000I0J150000D01*
G01*
G37*
%TD.AperFunction*%
%TO.P,U1,14*%
%TO.N,GND*%
%TA.AperFunction,SMDPad,CuDef*%
G36*
G01*
X208500000Y-92960000D02*
X208500000Y-92660000D01*
G75*
G02*
X208650000Y-92510000I150000J0D01*
G01*
X210300000Y-92510000D01*
G75*
G02*
X210450000Y-92660000I0J-150000D01*
G01*
X210450000Y-92960000D01*
G75*
G02*
X210300000Y-93110000I-150000J0D01*
G01*
X208650000Y-93110000D01*
G75*
G02*
X208500000Y-92960000I0J150000D01*
G01*
G37*
%TD.AperFunction*%
%TD*%
M02*
