%TF.GenerationSoftware,KiCad,Pcbnew,(5.1.6)-1*%
%TF.CreationDate,2020-09-02T10:45:19+09:00*%
%TF.ProjectId,attiny1614_accsupervisor,61747469-6e79-4313-9631-345f61636373,r01*%
%TF.SameCoordinates,Original*%
%TF.FileFunction,Paste,Bot*%
%TF.FilePolarity,Positive*%
%FSLAX46Y46*%
G04 Gerber Fmt 4.6, Leading zero omitted, Abs format (unit mm)*
G04 Created by KiCad (PCBNEW (5.1.6)-1) date 2020-09-02 10:45:19*
%MOMM*%
%LPD*%
G01*
G04 APERTURE LIST*
%ADD10R,2.500000X1.800000*%
%ADD11R,0.800000X0.900000*%
%ADD12R,0.900000X0.800000*%
G04 APERTURE END LIST*
%TO.C,C3*%
G36*
G01*
X202200000Y-92375000D02*
X202200000Y-93625000D01*
G75*
G02*
X201950000Y-93875000I-250000J0D01*
G01*
X201025000Y-93875000D01*
G75*
G02*
X200775000Y-93625000I0J250000D01*
G01*
X200775000Y-92375000D01*
G75*
G02*
X201025000Y-92125000I250000J0D01*
G01*
X201950000Y-92125000D01*
G75*
G02*
X202200000Y-92375000I0J-250000D01*
G01*
G37*
G36*
G01*
X199225000Y-92375000D02*
X199225000Y-93625000D01*
G75*
G02*
X198975000Y-93875000I-250000J0D01*
G01*
X198050000Y-93875000D01*
G75*
G02*
X197800000Y-93625000I0J250000D01*
G01*
X197800000Y-92375000D01*
G75*
G02*
X198050000Y-92125000I250000J0D01*
G01*
X198975000Y-92125000D01*
G75*
G02*
X199225000Y-92375000I0J-250000D01*
G01*
G37*
%TD*%
D10*
%TO.C,D1*%
X207500000Y-64000000D03*
X203500000Y-64000000D03*
%TD*%
D11*
%TO.C,Q1*%
X200450000Y-68000000D03*
X198550000Y-68000000D03*
X199500000Y-66000000D03*
%TD*%
D12*
%TO.C,Q2*%
X223500000Y-78000000D03*
X221500000Y-77050000D03*
X221500000Y-78950000D03*
%TD*%
%TO.C,Q3*%
X221500000Y-92450000D03*
X221500000Y-90550000D03*
X223500000Y-91500000D03*
%TD*%
%TO.C,Q4*%
X221500000Y-74950000D03*
X221500000Y-73050000D03*
X223500000Y-74000000D03*
%TD*%
%TO.C,Q5*%
X223500000Y-87500000D03*
X221500000Y-86550000D03*
X221500000Y-88450000D03*
%TD*%
%TO.C,R1*%
G36*
G01*
X202375000Y-67300000D02*
X203625000Y-67300000D01*
G75*
G02*
X203875000Y-67550000I0J-250000D01*
G01*
X203875000Y-68475000D01*
G75*
G02*
X203625000Y-68725000I-250000J0D01*
G01*
X202375000Y-68725000D01*
G75*
G02*
X202125000Y-68475000I0J250000D01*
G01*
X202125000Y-67550000D01*
G75*
G02*
X202375000Y-67300000I250000J0D01*
G01*
G37*
G36*
G01*
X202375000Y-70275000D02*
X203625000Y-70275000D01*
G75*
G02*
X203875000Y-70525000I0J-250000D01*
G01*
X203875000Y-71450000D01*
G75*
G02*
X203625000Y-71700000I-250000J0D01*
G01*
X202375000Y-71700000D01*
G75*
G02*
X202125000Y-71450000I0J250000D01*
G01*
X202125000Y-70525000D01*
G75*
G02*
X202375000Y-70275000I250000J0D01*
G01*
G37*
%TD*%
%TO.C,R2*%
G36*
G01*
X213375000Y-80275000D02*
X214625000Y-80275000D01*
G75*
G02*
X214875000Y-80525000I0J-250000D01*
G01*
X214875000Y-81450000D01*
G75*
G02*
X214625000Y-81700000I-250000J0D01*
G01*
X213375000Y-81700000D01*
G75*
G02*
X213125000Y-81450000I0J250000D01*
G01*
X213125000Y-80525000D01*
G75*
G02*
X213375000Y-80275000I250000J0D01*
G01*
G37*
G36*
G01*
X213375000Y-77300000D02*
X214625000Y-77300000D01*
G75*
G02*
X214875000Y-77550000I0J-250000D01*
G01*
X214875000Y-78475000D01*
G75*
G02*
X214625000Y-78725000I-250000J0D01*
G01*
X213375000Y-78725000D01*
G75*
G02*
X213125000Y-78475000I0J250000D01*
G01*
X213125000Y-77550000D01*
G75*
G02*
X213375000Y-77300000I250000J0D01*
G01*
G37*
%TD*%
%TO.C,R3*%
G36*
G01*
X214625000Y-92200000D02*
X213375000Y-92200000D01*
G75*
G02*
X213125000Y-91950000I0J250000D01*
G01*
X213125000Y-91025000D01*
G75*
G02*
X213375000Y-90775000I250000J0D01*
G01*
X214625000Y-90775000D01*
G75*
G02*
X214875000Y-91025000I0J-250000D01*
G01*
X214875000Y-91950000D01*
G75*
G02*
X214625000Y-92200000I-250000J0D01*
G01*
G37*
G36*
G01*
X214625000Y-89225000D02*
X213375000Y-89225000D01*
G75*
G02*
X213125000Y-88975000I0J250000D01*
G01*
X213125000Y-88050000D01*
G75*
G02*
X213375000Y-87800000I250000J0D01*
G01*
X214625000Y-87800000D01*
G75*
G02*
X214875000Y-88050000I0J-250000D01*
G01*
X214875000Y-88975000D01*
G75*
G02*
X214625000Y-89225000I-250000J0D01*
G01*
G37*
%TD*%
%TO.C,R4*%
G36*
G01*
X226125000Y-78200000D02*
X224875000Y-78200000D01*
G75*
G02*
X224625000Y-77950000I0J250000D01*
G01*
X224625000Y-77025000D01*
G75*
G02*
X224875000Y-76775000I250000J0D01*
G01*
X226125000Y-76775000D01*
G75*
G02*
X226375000Y-77025000I0J-250000D01*
G01*
X226375000Y-77950000D01*
G75*
G02*
X226125000Y-78200000I-250000J0D01*
G01*
G37*
G36*
G01*
X226125000Y-75225000D02*
X224875000Y-75225000D01*
G75*
G02*
X224625000Y-74975000I0J250000D01*
G01*
X224625000Y-74050000D01*
G75*
G02*
X224875000Y-73800000I250000J0D01*
G01*
X226125000Y-73800000D01*
G75*
G02*
X226375000Y-74050000I0J-250000D01*
G01*
X226375000Y-74975000D01*
G75*
G02*
X226125000Y-75225000I-250000J0D01*
G01*
G37*
%TD*%
%TO.C,R5*%
G36*
G01*
X226125000Y-88725000D02*
X224875000Y-88725000D01*
G75*
G02*
X224625000Y-88475000I0J250000D01*
G01*
X224625000Y-87550000D01*
G75*
G02*
X224875000Y-87300000I250000J0D01*
G01*
X226125000Y-87300000D01*
G75*
G02*
X226375000Y-87550000I0J-250000D01*
G01*
X226375000Y-88475000D01*
G75*
G02*
X226125000Y-88725000I-250000J0D01*
G01*
G37*
G36*
G01*
X226125000Y-91700000D02*
X224875000Y-91700000D01*
G75*
G02*
X224625000Y-91450000I0J250000D01*
G01*
X224625000Y-90525000D01*
G75*
G02*
X224875000Y-90275000I250000J0D01*
G01*
X226125000Y-90275000D01*
G75*
G02*
X226375000Y-90525000I0J-250000D01*
G01*
X226375000Y-91450000D01*
G75*
G02*
X226125000Y-91700000I-250000J0D01*
G01*
G37*
%TD*%
%TO.C,R6*%
G36*
G01*
X220800000Y-71625000D02*
X220800000Y-70375000D01*
G75*
G02*
X221050000Y-70125000I250000J0D01*
G01*
X221975000Y-70125000D01*
G75*
G02*
X222225000Y-70375000I0J-250000D01*
G01*
X222225000Y-71625000D01*
G75*
G02*
X221975000Y-71875000I-250000J0D01*
G01*
X221050000Y-71875000D01*
G75*
G02*
X220800000Y-71625000I0J250000D01*
G01*
G37*
G36*
G01*
X223775000Y-71625000D02*
X223775000Y-70375000D01*
G75*
G02*
X224025000Y-70125000I250000J0D01*
G01*
X224950000Y-70125000D01*
G75*
G02*
X225200000Y-70375000I0J-250000D01*
G01*
X225200000Y-71625000D01*
G75*
G02*
X224950000Y-71875000I-250000J0D01*
G01*
X224025000Y-71875000D01*
G75*
G02*
X223775000Y-71625000I0J250000D01*
G01*
G37*
%TD*%
%TO.C,R7*%
G36*
G01*
X223775000Y-85125000D02*
X223775000Y-83875000D01*
G75*
G02*
X224025000Y-83625000I250000J0D01*
G01*
X224950000Y-83625000D01*
G75*
G02*
X225200000Y-83875000I0J-250000D01*
G01*
X225200000Y-85125000D01*
G75*
G02*
X224950000Y-85375000I-250000J0D01*
G01*
X224025000Y-85375000D01*
G75*
G02*
X223775000Y-85125000I0J250000D01*
G01*
G37*
G36*
G01*
X220800000Y-85125000D02*
X220800000Y-83875000D01*
G75*
G02*
X221050000Y-83625000I250000J0D01*
G01*
X221975000Y-83625000D01*
G75*
G02*
X222225000Y-83875000I0J-250000D01*
G01*
X222225000Y-85125000D01*
G75*
G02*
X221975000Y-85375000I-250000J0D01*
G01*
X221050000Y-85375000D01*
G75*
G02*
X220800000Y-85125000I0J250000D01*
G01*
G37*
%TD*%
%TO.C,R8*%
G36*
G01*
X219125000Y-74700000D02*
X217875000Y-74700000D01*
G75*
G02*
X217625000Y-74450000I0J250000D01*
G01*
X217625000Y-73525000D01*
G75*
G02*
X217875000Y-73275000I250000J0D01*
G01*
X219125000Y-73275000D01*
G75*
G02*
X219375000Y-73525000I0J-250000D01*
G01*
X219375000Y-74450000D01*
G75*
G02*
X219125000Y-74700000I-250000J0D01*
G01*
G37*
G36*
G01*
X219125000Y-71725000D02*
X217875000Y-71725000D01*
G75*
G02*
X217625000Y-71475000I0J250000D01*
G01*
X217625000Y-70550000D01*
G75*
G02*
X217875000Y-70300000I250000J0D01*
G01*
X219125000Y-70300000D01*
G75*
G02*
X219375000Y-70550000I0J-250000D01*
G01*
X219375000Y-71475000D01*
G75*
G02*
X219125000Y-71725000I-250000J0D01*
G01*
G37*
%TD*%
%TO.C,R9*%
G36*
G01*
X219125000Y-85225000D02*
X217875000Y-85225000D01*
G75*
G02*
X217625000Y-84975000I0J250000D01*
G01*
X217625000Y-84050000D01*
G75*
G02*
X217875000Y-83800000I250000J0D01*
G01*
X219125000Y-83800000D01*
G75*
G02*
X219375000Y-84050000I0J-250000D01*
G01*
X219375000Y-84975000D01*
G75*
G02*
X219125000Y-85225000I-250000J0D01*
G01*
G37*
G36*
G01*
X219125000Y-88200000D02*
X217875000Y-88200000D01*
G75*
G02*
X217625000Y-87950000I0J250000D01*
G01*
X217625000Y-87025000D01*
G75*
G02*
X217875000Y-86775000I250000J0D01*
G01*
X219125000Y-86775000D01*
G75*
G02*
X219375000Y-87025000I0J-250000D01*
G01*
X219375000Y-87950000D01*
G75*
G02*
X219125000Y-88200000I-250000J0D01*
G01*
G37*
%TD*%
%TO.C,R10*%
G36*
G01*
X219125000Y-77225000D02*
X217875000Y-77225000D01*
G75*
G02*
X217625000Y-76975000I0J250000D01*
G01*
X217625000Y-76050000D01*
G75*
G02*
X217875000Y-75800000I250000J0D01*
G01*
X219125000Y-75800000D01*
G75*
G02*
X219375000Y-76050000I0J-250000D01*
G01*
X219375000Y-76975000D01*
G75*
G02*
X219125000Y-77225000I-250000J0D01*
G01*
G37*
G36*
G01*
X219125000Y-80200000D02*
X217875000Y-80200000D01*
G75*
G02*
X217625000Y-79950000I0J250000D01*
G01*
X217625000Y-79025000D01*
G75*
G02*
X217875000Y-78775000I250000J0D01*
G01*
X219125000Y-78775000D01*
G75*
G02*
X219375000Y-79025000I0J-250000D01*
G01*
X219375000Y-79950000D01*
G75*
G02*
X219125000Y-80200000I-250000J0D01*
G01*
G37*
%TD*%
%TO.C,R11*%
G36*
G01*
X219125000Y-93700000D02*
X217875000Y-93700000D01*
G75*
G02*
X217625000Y-93450000I0J250000D01*
G01*
X217625000Y-92525000D01*
G75*
G02*
X217875000Y-92275000I250000J0D01*
G01*
X219125000Y-92275000D01*
G75*
G02*
X219375000Y-92525000I0J-250000D01*
G01*
X219375000Y-93450000D01*
G75*
G02*
X219125000Y-93700000I-250000J0D01*
G01*
G37*
G36*
G01*
X219125000Y-90725000D02*
X217875000Y-90725000D01*
G75*
G02*
X217625000Y-90475000I0J250000D01*
G01*
X217625000Y-89550000D01*
G75*
G02*
X217875000Y-89300000I250000J0D01*
G01*
X219125000Y-89300000D01*
G75*
G02*
X219375000Y-89550000I0J-250000D01*
G01*
X219375000Y-90475000D01*
G75*
G02*
X219125000Y-90725000I-250000J0D01*
G01*
G37*
%TD*%
%TO.C,R12*%
G36*
G01*
X241125000Y-94200000D02*
X239875000Y-94200000D01*
G75*
G02*
X239625000Y-93950000I0J250000D01*
G01*
X239625000Y-93025000D01*
G75*
G02*
X239875000Y-92775000I250000J0D01*
G01*
X241125000Y-92775000D01*
G75*
G02*
X241375000Y-93025000I0J-250000D01*
G01*
X241375000Y-93950000D01*
G75*
G02*
X241125000Y-94200000I-250000J0D01*
G01*
G37*
G36*
G01*
X241125000Y-91225000D02*
X239875000Y-91225000D01*
G75*
G02*
X239625000Y-90975000I0J250000D01*
G01*
X239625000Y-90050000D01*
G75*
G02*
X239875000Y-89800000I250000J0D01*
G01*
X241125000Y-89800000D01*
G75*
G02*
X241375000Y-90050000I0J-250000D01*
G01*
X241375000Y-90975000D01*
G75*
G02*
X241125000Y-91225000I-250000J0D01*
G01*
G37*
%TD*%
%TO.C,R13*%
G36*
G01*
X244125000Y-91225000D02*
X242875000Y-91225000D01*
G75*
G02*
X242625000Y-90975000I0J250000D01*
G01*
X242625000Y-90050000D01*
G75*
G02*
X242875000Y-89800000I250000J0D01*
G01*
X244125000Y-89800000D01*
G75*
G02*
X244375000Y-90050000I0J-250000D01*
G01*
X244375000Y-90975000D01*
G75*
G02*
X244125000Y-91225000I-250000J0D01*
G01*
G37*
G36*
G01*
X244125000Y-94200000D02*
X242875000Y-94200000D01*
G75*
G02*
X242625000Y-93950000I0J250000D01*
G01*
X242625000Y-93025000D01*
G75*
G02*
X242875000Y-92775000I250000J0D01*
G01*
X244125000Y-92775000D01*
G75*
G02*
X244375000Y-93025000I0J-250000D01*
G01*
X244375000Y-93950000D01*
G75*
G02*
X244125000Y-94200000I-250000J0D01*
G01*
G37*
%TD*%
%TO.C,R14*%
G36*
G01*
X235125000Y-94187500D02*
X233875000Y-94187500D01*
G75*
G02*
X233625000Y-93937500I0J250000D01*
G01*
X233625000Y-93012500D01*
G75*
G02*
X233875000Y-92762500I250000J0D01*
G01*
X235125000Y-92762500D01*
G75*
G02*
X235375000Y-93012500I0J-250000D01*
G01*
X235375000Y-93937500D01*
G75*
G02*
X235125000Y-94187500I-250000J0D01*
G01*
G37*
G36*
G01*
X235125000Y-91212500D02*
X233875000Y-91212500D01*
G75*
G02*
X233625000Y-90962500I0J250000D01*
G01*
X233625000Y-90037500D01*
G75*
G02*
X233875000Y-89787500I250000J0D01*
G01*
X235125000Y-89787500D01*
G75*
G02*
X235375000Y-90037500I0J-250000D01*
G01*
X235375000Y-90962500D01*
G75*
G02*
X235125000Y-91212500I-250000J0D01*
G01*
G37*
%TD*%
%TO.C,R15*%
G36*
G01*
X238125000Y-91212500D02*
X236875000Y-91212500D01*
G75*
G02*
X236625000Y-90962500I0J250000D01*
G01*
X236625000Y-90037500D01*
G75*
G02*
X236875000Y-89787500I250000J0D01*
G01*
X238125000Y-89787500D01*
G75*
G02*
X238375000Y-90037500I0J-250000D01*
G01*
X238375000Y-90962500D01*
G75*
G02*
X238125000Y-91212500I-250000J0D01*
G01*
G37*
G36*
G01*
X238125000Y-94187500D02*
X236875000Y-94187500D01*
G75*
G02*
X236625000Y-93937500I0J250000D01*
G01*
X236625000Y-93012500D01*
G75*
G02*
X236875000Y-92762500I250000J0D01*
G01*
X238125000Y-92762500D01*
G75*
G02*
X238375000Y-93012500I0J-250000D01*
G01*
X238375000Y-93937500D01*
G75*
G02*
X238125000Y-94187500I-250000J0D01*
G01*
G37*
%TD*%
%TO.C,U1*%
G36*
G01*
X203550000Y-92960000D02*
X203550000Y-92660000D01*
G75*
G02*
X203700000Y-92510000I150000J0D01*
G01*
X205350000Y-92510000D01*
G75*
G02*
X205500000Y-92660000I0J-150000D01*
G01*
X205500000Y-92960000D01*
G75*
G02*
X205350000Y-93110000I-150000J0D01*
G01*
X203700000Y-93110000D01*
G75*
G02*
X203550000Y-92960000I0J150000D01*
G01*
G37*
G36*
G01*
X203550000Y-91690000D02*
X203550000Y-91390000D01*
G75*
G02*
X203700000Y-91240000I150000J0D01*
G01*
X205350000Y-91240000D01*
G75*
G02*
X205500000Y-91390000I0J-150000D01*
G01*
X205500000Y-91690000D01*
G75*
G02*
X205350000Y-91840000I-150000J0D01*
G01*
X203700000Y-91840000D01*
G75*
G02*
X203550000Y-91690000I0J150000D01*
G01*
G37*
G36*
G01*
X203550000Y-90420000D02*
X203550000Y-90120000D01*
G75*
G02*
X203700000Y-89970000I150000J0D01*
G01*
X205350000Y-89970000D01*
G75*
G02*
X205500000Y-90120000I0J-150000D01*
G01*
X205500000Y-90420000D01*
G75*
G02*
X205350000Y-90570000I-150000J0D01*
G01*
X203700000Y-90570000D01*
G75*
G02*
X203550000Y-90420000I0J150000D01*
G01*
G37*
G36*
G01*
X203550000Y-89150000D02*
X203550000Y-88850000D01*
G75*
G02*
X203700000Y-88700000I150000J0D01*
G01*
X205350000Y-88700000D01*
G75*
G02*
X205500000Y-88850000I0J-150000D01*
G01*
X205500000Y-89150000D01*
G75*
G02*
X205350000Y-89300000I-150000J0D01*
G01*
X203700000Y-89300000D01*
G75*
G02*
X203550000Y-89150000I0J150000D01*
G01*
G37*
G36*
G01*
X203550000Y-87880000D02*
X203550000Y-87580000D01*
G75*
G02*
X203700000Y-87430000I150000J0D01*
G01*
X205350000Y-87430000D01*
G75*
G02*
X205500000Y-87580000I0J-150000D01*
G01*
X205500000Y-87880000D01*
G75*
G02*
X205350000Y-88030000I-150000J0D01*
G01*
X203700000Y-88030000D01*
G75*
G02*
X203550000Y-87880000I0J150000D01*
G01*
G37*
G36*
G01*
X203550000Y-86610000D02*
X203550000Y-86310000D01*
G75*
G02*
X203700000Y-86160000I150000J0D01*
G01*
X205350000Y-86160000D01*
G75*
G02*
X205500000Y-86310000I0J-150000D01*
G01*
X205500000Y-86610000D01*
G75*
G02*
X205350000Y-86760000I-150000J0D01*
G01*
X203700000Y-86760000D01*
G75*
G02*
X203550000Y-86610000I0J150000D01*
G01*
G37*
G36*
G01*
X203550000Y-85340000D02*
X203550000Y-85040000D01*
G75*
G02*
X203700000Y-84890000I150000J0D01*
G01*
X205350000Y-84890000D01*
G75*
G02*
X205500000Y-85040000I0J-150000D01*
G01*
X205500000Y-85340000D01*
G75*
G02*
X205350000Y-85490000I-150000J0D01*
G01*
X203700000Y-85490000D01*
G75*
G02*
X203550000Y-85340000I0J150000D01*
G01*
G37*
G36*
G01*
X208500000Y-85340000D02*
X208500000Y-85040000D01*
G75*
G02*
X208650000Y-84890000I150000J0D01*
G01*
X210300000Y-84890000D01*
G75*
G02*
X210450000Y-85040000I0J-150000D01*
G01*
X210450000Y-85340000D01*
G75*
G02*
X210300000Y-85490000I-150000J0D01*
G01*
X208650000Y-85490000D01*
G75*
G02*
X208500000Y-85340000I0J150000D01*
G01*
G37*
G36*
G01*
X208500000Y-86610000D02*
X208500000Y-86310000D01*
G75*
G02*
X208650000Y-86160000I150000J0D01*
G01*
X210300000Y-86160000D01*
G75*
G02*
X210450000Y-86310000I0J-150000D01*
G01*
X210450000Y-86610000D01*
G75*
G02*
X210300000Y-86760000I-150000J0D01*
G01*
X208650000Y-86760000D01*
G75*
G02*
X208500000Y-86610000I0J150000D01*
G01*
G37*
G36*
G01*
X208500000Y-87880000D02*
X208500000Y-87580000D01*
G75*
G02*
X208650000Y-87430000I150000J0D01*
G01*
X210300000Y-87430000D01*
G75*
G02*
X210450000Y-87580000I0J-150000D01*
G01*
X210450000Y-87880000D01*
G75*
G02*
X210300000Y-88030000I-150000J0D01*
G01*
X208650000Y-88030000D01*
G75*
G02*
X208500000Y-87880000I0J150000D01*
G01*
G37*
G36*
G01*
X208500000Y-89150000D02*
X208500000Y-88850000D01*
G75*
G02*
X208650000Y-88700000I150000J0D01*
G01*
X210300000Y-88700000D01*
G75*
G02*
X210450000Y-88850000I0J-150000D01*
G01*
X210450000Y-89150000D01*
G75*
G02*
X210300000Y-89300000I-150000J0D01*
G01*
X208650000Y-89300000D01*
G75*
G02*
X208500000Y-89150000I0J150000D01*
G01*
G37*
G36*
G01*
X208500000Y-90420000D02*
X208500000Y-90120000D01*
G75*
G02*
X208650000Y-89970000I150000J0D01*
G01*
X210300000Y-89970000D01*
G75*
G02*
X210450000Y-90120000I0J-150000D01*
G01*
X210450000Y-90420000D01*
G75*
G02*
X210300000Y-90570000I-150000J0D01*
G01*
X208650000Y-90570000D01*
G75*
G02*
X208500000Y-90420000I0J150000D01*
G01*
G37*
G36*
G01*
X208500000Y-91690000D02*
X208500000Y-91390000D01*
G75*
G02*
X208650000Y-91240000I150000J0D01*
G01*
X210300000Y-91240000D01*
G75*
G02*
X210450000Y-91390000I0J-150000D01*
G01*
X210450000Y-91690000D01*
G75*
G02*
X210300000Y-91840000I-150000J0D01*
G01*
X208650000Y-91840000D01*
G75*
G02*
X208500000Y-91690000I0J150000D01*
G01*
G37*
G36*
G01*
X208500000Y-92960000D02*
X208500000Y-92660000D01*
G75*
G02*
X208650000Y-92510000I150000J0D01*
G01*
X210300000Y-92510000D01*
G75*
G02*
X210450000Y-92660000I0J-150000D01*
G01*
X210450000Y-92960000D01*
G75*
G02*
X210300000Y-93110000I-150000J0D01*
G01*
X208650000Y-93110000D01*
G75*
G02*
X208500000Y-92960000I0J150000D01*
G01*
G37*
%TD*%
M02*
