%TF.GenerationSoftware,KiCad,Pcbnew,(5.1.6)-1*%
%TF.CreationDate,2020-09-02T10:45:19+09:00*%
%TF.ProjectId,attiny1614_accsupervisor,61747469-6e79-4313-9631-345f61636373,r01*%
%TF.SameCoordinates,Original*%
%TF.FileFunction,Legend,Top*%
%TF.FilePolarity,Positive*%
%FSLAX46Y46*%
G04 Gerber Fmt 4.6, Leading zero omitted, Abs format (unit mm)*
G04 Created by KiCad (PCBNEW (5.1.6)-1) date 2020-09-02 10:45:19*
%MOMM*%
%LPD*%
G01*
G04 APERTURE LIST*
%ADD10C,0.120000*%
%ADD11C,0.200000*%
%ADD12C,0.100000*%
%ADD13C,0.150000*%
%ADD14C,0.254000*%
G04 APERTURE END LIST*
D10*
%TO.C,C1*%
X222114564Y-72590000D02*
X220910436Y-72590000D01*
X222114564Y-74410000D02*
X220910436Y-74410000D01*
%TO.C,C2*%
X211897936Y-91590000D02*
X213102064Y-91590000D01*
X211897936Y-93410000D02*
X213102064Y-93410000D01*
%TO.C,F1*%
X206000000Y-47700000D02*
X206000000Y-50500000D01*
X206000000Y-54500000D02*
X206000000Y-57300000D01*
X226000000Y-54500000D02*
X226000000Y-57300000D01*
X226000000Y-57300000D02*
X206000000Y-57300000D01*
X226000000Y-47700000D02*
X206000000Y-47700000D01*
X226000000Y-47700000D02*
X226000000Y-50500000D01*
%TO.C,F2*%
X237200000Y-64000000D02*
X240000000Y-64000000D01*
X237200000Y-64000000D02*
X237200000Y-84000000D01*
X246800000Y-64000000D02*
X246800000Y-84000000D01*
X244000000Y-64000000D02*
X246800000Y-64000000D01*
X244000000Y-84000000D02*
X246800000Y-84000000D01*
X237200000Y-84000000D02*
X240000000Y-84000000D01*
D11*
%TO.C,J1*%
X223500000Y-76200000D02*
X223500000Y-76200000D01*
X223500000Y-76000000D02*
X223500000Y-76000000D01*
D12*
X221500000Y-89750000D02*
X212500000Y-89750000D01*
X210250000Y-79500000D02*
X210250000Y-87500000D01*
X221500000Y-77250000D02*
X212500000Y-77250000D01*
X223750000Y-79500000D02*
X223750000Y-87500000D01*
D11*
X223500000Y-76200000D02*
G75*
G02*
X223500000Y-76000000I0J100000D01*
G01*
X223500000Y-76000000D02*
G75*
G02*
X223500000Y-76200000I0J-100000D01*
G01*
D10*
%TO.C,J2*%
X243300000Y-60910000D02*
X242700000Y-60910000D01*
X243000000Y-60310000D02*
X243300000Y-60910000D01*
X242700000Y-60910000D02*
X243000000Y-60310000D01*
X233750000Y-49390000D02*
X234000000Y-47890000D01*
X232250000Y-49390000D02*
X233750000Y-49390000D01*
X232000000Y-47890000D02*
X232250000Y-49390000D01*
X234000000Y-47890000D02*
X232000000Y-47890000D01*
X238750000Y-49390000D02*
X239000000Y-47890000D01*
X237250000Y-49390000D02*
X238750000Y-49390000D01*
X237000000Y-47890000D02*
X237250000Y-49390000D01*
X239000000Y-47890000D02*
X237000000Y-47890000D01*
X243750000Y-49390000D02*
X244000000Y-47890000D01*
X242250000Y-49390000D02*
X243750000Y-49390000D01*
X242000000Y-47890000D02*
X242250000Y-49390000D01*
X244000000Y-47890000D02*
X242000000Y-47890000D01*
X229390000Y-49390000D02*
X246610000Y-49390000D01*
X229390000Y-51190000D02*
X229390000Y-49390000D01*
X246610000Y-51190000D02*
X229390000Y-51190000D01*
X246610000Y-49390000D02*
X246610000Y-51190000D01*
X229390000Y-60110000D02*
X246610000Y-60110000D01*
X229390000Y-47890000D02*
X229390000Y-60110000D01*
X246610000Y-47890000D02*
X229390000Y-47890000D01*
X246610000Y-60110000D02*
X246610000Y-47890000D01*
%TO.C,J3*%
X201800000Y-47700000D02*
X201400000Y-47700000D01*
X201800000Y-48340000D02*
X201800000Y-47700000D01*
X195258000Y-52008000D02*
X195653000Y-51612000D01*
X192612000Y-54654000D02*
X192992000Y-54274000D01*
X195007000Y-51726000D02*
X195387000Y-51346000D01*
X192346000Y-54388000D02*
X192741000Y-53992000D01*
X200548000Y-51719000D02*
X200654000Y-51612000D01*
X197612000Y-54654000D02*
X197719000Y-54547000D01*
X200282000Y-51453000D02*
X200388000Y-51346000D01*
X197346000Y-54388000D02*
X197453000Y-54281000D01*
X191440000Y-57060000D02*
X191440000Y-47940000D01*
X201560000Y-57060000D02*
X201560000Y-47940000D01*
X201560000Y-47940000D02*
X191440000Y-47940000D01*
X201560000Y-57060000D02*
X191440000Y-57060000D01*
X201560000Y-49500000D02*
X191440000Y-49500000D01*
X201560000Y-48400000D02*
X191440000Y-48400000D01*
X196180000Y-53000000D02*
G75*
G03*
X196180000Y-53000000I-2180000J0D01*
G01*
X201180000Y-53000000D02*
G75*
G03*
X201180000Y-53000000I-2180000J0D01*
G01*
%TO.C,J4*%
X244460000Y-95300000D02*
X244460000Y-96630000D01*
X243130000Y-95300000D02*
X244460000Y-95300000D01*
X244460000Y-97900000D02*
X244460000Y-100500000D01*
X241860000Y-97900000D02*
X244460000Y-97900000D01*
X241860000Y-95300000D02*
X241860000Y-97900000D01*
X244460000Y-100500000D02*
X193540000Y-100500000D01*
X241860000Y-95300000D02*
X193540000Y-95300000D01*
X193540000Y-95300000D02*
X193540000Y-100500000D01*
%TO.C,J5*%
X200330000Y-85670000D02*
X200330000Y-87000000D01*
X199000000Y-85670000D02*
X200330000Y-85670000D01*
X200330000Y-88270000D02*
X200330000Y-90870000D01*
X197730000Y-88270000D02*
X200330000Y-88270000D01*
X197730000Y-85670000D02*
X197730000Y-88270000D01*
X200330000Y-90870000D02*
X192590000Y-90870000D01*
X197730000Y-85670000D02*
X192590000Y-85670000D01*
X192590000Y-85670000D02*
X192590000Y-90870000D01*
%TO.C,K1*%
X209800000Y-67350000D02*
X209800000Y-70500000D01*
X209800000Y-61500000D02*
X209800000Y-64650000D01*
X214910000Y-65000000D02*
X214910000Y-67000000D01*
X209200000Y-65650000D02*
X209200000Y-66350000D01*
X210400000Y-65650000D02*
X209200000Y-65650000D01*
X210400000Y-66350000D02*
X210400000Y-65650000D01*
X209200000Y-66350000D02*
X210400000Y-66350000D01*
X209600000Y-65650000D02*
X210000000Y-66350000D01*
X191950000Y-57650000D02*
X191950000Y-74350000D01*
X214650000Y-57650000D02*
X191950000Y-57650000D01*
X214650000Y-74350000D02*
X214650000Y-57650000D01*
X191950000Y-74350000D02*
X214650000Y-74350000D01*
%TO.C,C1*%
D13*
X221345833Y-71857142D02*
X221298214Y-71904761D01*
X221155357Y-71952380D01*
X221060119Y-71952380D01*
X220917261Y-71904761D01*
X220822023Y-71809523D01*
X220774404Y-71714285D01*
X220726785Y-71523809D01*
X220726785Y-71380952D01*
X220774404Y-71190476D01*
X220822023Y-71095238D01*
X220917261Y-71000000D01*
X221060119Y-70952380D01*
X221155357Y-70952380D01*
X221298214Y-71000000D01*
X221345833Y-71047619D01*
X222298214Y-71952380D02*
X221726785Y-71952380D01*
X222012500Y-71952380D02*
X222012500Y-70952380D01*
X221917261Y-71095238D01*
X221822023Y-71190476D01*
X221726785Y-71238095D01*
%TO.C,C2*%
X212333333Y-94857142D02*
X212285714Y-94904761D01*
X212142857Y-94952380D01*
X212047619Y-94952380D01*
X211904761Y-94904761D01*
X211809523Y-94809523D01*
X211761904Y-94714285D01*
X211714285Y-94523809D01*
X211714285Y-94380952D01*
X211761904Y-94190476D01*
X211809523Y-94095238D01*
X211904761Y-94000000D01*
X212047619Y-93952380D01*
X212142857Y-93952380D01*
X212285714Y-94000000D01*
X212333333Y-94047619D01*
X212714285Y-94047619D02*
X212761904Y-94000000D01*
X212857142Y-93952380D01*
X213095238Y-93952380D01*
X213190476Y-94000000D01*
X213238095Y-94047619D01*
X213285714Y-94142857D01*
X213285714Y-94238095D01*
X213238095Y-94380952D01*
X212666666Y-94952380D01*
X213285714Y-94952380D01*
%TO.C,J1*%
D14*
X216304523Y-83548333D02*
X217211666Y-83548333D01*
X217393095Y-83608809D01*
X217514047Y-83729761D01*
X217574523Y-83911190D01*
X217574523Y-84032142D01*
X217574523Y-82278333D02*
X217574523Y-83004047D01*
X217574523Y-82641190D02*
X216304523Y-82641190D01*
X216485952Y-82762142D01*
X216606904Y-82883095D01*
X216667380Y-83004047D01*
%TO.C,J4*%
D13*
X244912380Y-98233333D02*
X245626666Y-98233333D01*
X245769523Y-98280952D01*
X245864761Y-98376190D01*
X245912380Y-98519047D01*
X245912380Y-98614285D01*
X245245714Y-97328571D02*
X245912380Y-97328571D01*
X244864761Y-97566666D02*
X245579047Y-97804761D01*
X245579047Y-97185714D01*
%TO.C,J5*%
X200782380Y-88603333D02*
X201496666Y-88603333D01*
X201639523Y-88650952D01*
X201734761Y-88746190D01*
X201782380Y-88889047D01*
X201782380Y-88984285D01*
X200782380Y-87650952D02*
X200782380Y-88127142D01*
X201258571Y-88174761D01*
X201210952Y-88127142D01*
X201163333Y-88031904D01*
X201163333Y-87793809D01*
X201210952Y-87698571D01*
X201258571Y-87650952D01*
X201353809Y-87603333D01*
X201591904Y-87603333D01*
X201687142Y-87650952D01*
X201734761Y-87698571D01*
X201782380Y-87793809D01*
X201782380Y-88031904D01*
X201734761Y-88127142D01*
X201687142Y-88174761D01*
%TO.C,K1*%
X203261904Y-56952380D02*
X203261904Y-55952380D01*
X203833333Y-56952380D02*
X203404761Y-56380952D01*
X203833333Y-55952380D02*
X203261904Y-56523809D01*
X204785714Y-56952380D02*
X204214285Y-56952380D01*
X204500000Y-56952380D02*
X204500000Y-55952380D01*
X204404761Y-56095238D01*
X204309523Y-56190476D01*
X204214285Y-56238095D01*
%TD*%
M02*
