%TF.GenerationSoftware,KiCad,Pcbnew,(5.1.6)-1*%
%TF.CreationDate,2020-09-02T14:56:51+09:00*%
%TF.ProjectId,attiny1614_accsupervisor,61747469-6e79-4313-9631-345f61636373,r01*%
%TF.SameCoordinates,Original*%
%TF.FileFunction,Legend,Top*%
%TF.FilePolarity,Positive*%
%FSLAX46Y46*%
G04 Gerber Fmt 4.6, Leading zero omitted, Abs format (unit mm)*
G04 Created by KiCad (PCBNEW (5.1.6)-1) date 2020-09-02 14:56:51*
%MOMM*%
%LPD*%
G01*
G04 APERTURE LIST*
%ADD10C,0.150000*%
%ADD11C,0.120000*%
%ADD12C,0.100000*%
%ADD13C,0.200000*%
%ADD14C,0.254000*%
G04 APERTURE END LIST*
D10*
X231483333Y-72287976D02*
X231483333Y-72764166D01*
X231197619Y-72192738D02*
X232197619Y-72526071D01*
X231197619Y-72859404D01*
X231292857Y-73764166D02*
X231245238Y-73716547D01*
X231197619Y-73573690D01*
X231197619Y-73478452D01*
X231245238Y-73335595D01*
X231340476Y-73240357D01*
X231435714Y-73192738D01*
X231626190Y-73145119D01*
X231769047Y-73145119D01*
X231959523Y-73192738D01*
X232054761Y-73240357D01*
X232150000Y-73335595D01*
X232197619Y-73478452D01*
X232197619Y-73573690D01*
X232150000Y-73716547D01*
X232102380Y-73764166D01*
X231292857Y-74764166D02*
X231245238Y-74716547D01*
X231197619Y-74573690D01*
X231197619Y-74478452D01*
X231245238Y-74335595D01*
X231340476Y-74240357D01*
X231435714Y-74192738D01*
X231626190Y-74145119D01*
X231769047Y-74145119D01*
X231959523Y-74192738D01*
X232054761Y-74240357D01*
X232150000Y-74335595D01*
X232197619Y-74478452D01*
X232197619Y-74573690D01*
X232150000Y-74716547D01*
X232102380Y-74764166D01*
X231245238Y-75907023D02*
X231197619Y-76049880D01*
X231197619Y-76287976D01*
X231245238Y-76383214D01*
X231292857Y-76430833D01*
X231388095Y-76478452D01*
X231483333Y-76478452D01*
X231578571Y-76430833D01*
X231626190Y-76383214D01*
X231673809Y-76287976D01*
X231721428Y-76097500D01*
X231769047Y-76002261D01*
X231816666Y-75954642D01*
X231911904Y-75907023D01*
X232007142Y-75907023D01*
X232102380Y-75954642D01*
X232150000Y-76002261D01*
X232197619Y-76097500D01*
X232197619Y-76335595D01*
X232150000Y-76478452D01*
X231864285Y-77335595D02*
X231197619Y-77335595D01*
X231864285Y-76907023D02*
X231340476Y-76907023D01*
X231245238Y-76954642D01*
X231197619Y-77049880D01*
X231197619Y-77192738D01*
X231245238Y-77287976D01*
X231292857Y-77335595D01*
X231864285Y-77811785D02*
X230864285Y-77811785D01*
X231816666Y-77811785D02*
X231864285Y-77907023D01*
X231864285Y-78097500D01*
X231816666Y-78192738D01*
X231769047Y-78240357D01*
X231673809Y-78287976D01*
X231388095Y-78287976D01*
X231292857Y-78240357D01*
X231245238Y-78192738D01*
X231197619Y-78097500D01*
X231197619Y-77907023D01*
X231245238Y-77811785D01*
X231245238Y-79097500D02*
X231197619Y-79002261D01*
X231197619Y-78811785D01*
X231245238Y-78716547D01*
X231340476Y-78668928D01*
X231721428Y-78668928D01*
X231816666Y-78716547D01*
X231864285Y-78811785D01*
X231864285Y-79002261D01*
X231816666Y-79097500D01*
X231721428Y-79145119D01*
X231626190Y-79145119D01*
X231530952Y-78668928D01*
X231197619Y-79573690D02*
X231864285Y-79573690D01*
X231673809Y-79573690D02*
X231769047Y-79621309D01*
X231816666Y-79668928D01*
X231864285Y-79764166D01*
X231864285Y-79859404D01*
X231864285Y-80097500D02*
X231197619Y-80335595D01*
X231864285Y-80573690D01*
X231197619Y-80954642D02*
X231864285Y-80954642D01*
X232197619Y-80954642D02*
X232150000Y-80907023D01*
X232102380Y-80954642D01*
X232150000Y-81002261D01*
X232197619Y-80954642D01*
X232102380Y-80954642D01*
X231245238Y-81383214D02*
X231197619Y-81478452D01*
X231197619Y-81668928D01*
X231245238Y-81764166D01*
X231340476Y-81811785D01*
X231388095Y-81811785D01*
X231483333Y-81764166D01*
X231530952Y-81668928D01*
X231530952Y-81526071D01*
X231578571Y-81430833D01*
X231673809Y-81383214D01*
X231721428Y-81383214D01*
X231816666Y-81430833D01*
X231864285Y-81526071D01*
X231864285Y-81668928D01*
X231816666Y-81764166D01*
X231197619Y-82383214D02*
X231245238Y-82287976D01*
X231292857Y-82240357D01*
X231388095Y-82192738D01*
X231673809Y-82192738D01*
X231769047Y-82240357D01*
X231816666Y-82287976D01*
X231864285Y-82383214D01*
X231864285Y-82526071D01*
X231816666Y-82621309D01*
X231769047Y-82668928D01*
X231673809Y-82716547D01*
X231388095Y-82716547D01*
X231292857Y-82668928D01*
X231245238Y-82621309D01*
X231197619Y-82526071D01*
X231197619Y-82383214D01*
X231197619Y-83145119D02*
X231864285Y-83145119D01*
X231673809Y-83145119D02*
X231769047Y-83192738D01*
X231816666Y-83240357D01*
X231864285Y-83335595D01*
X231864285Y-83430833D01*
X229833333Y-72287976D02*
X229833333Y-72764166D01*
X229547619Y-72192738D02*
X230547619Y-72526071D01*
X229547619Y-72859404D01*
X230547619Y-73049880D02*
X230547619Y-73621309D01*
X229547619Y-73335595D02*
X230547619Y-73335595D01*
X230547619Y-73811785D02*
X230547619Y-74383214D01*
X229547619Y-74097500D02*
X230547619Y-74097500D01*
X229547619Y-74716547D02*
X230547619Y-74716547D01*
X229547619Y-75192738D02*
X230547619Y-75192738D01*
X229547619Y-75764166D01*
X230547619Y-75764166D01*
X230023809Y-76430833D02*
X229547619Y-76430833D01*
X230547619Y-76097500D02*
X230023809Y-76430833D01*
X230547619Y-76764166D01*
X229547619Y-77859404D02*
X230214285Y-77859404D01*
X230023809Y-77859404D02*
X230119047Y-77907023D01*
X230166666Y-77954642D01*
X230214285Y-78049880D01*
X230214285Y-78145119D01*
X230547619Y-78668928D02*
X230547619Y-78764166D01*
X230500000Y-78859404D01*
X230452380Y-78907023D01*
X230357142Y-78954642D01*
X230166666Y-79002261D01*
X229928571Y-79002261D01*
X229738095Y-78954642D01*
X229642857Y-78907023D01*
X229595238Y-78859404D01*
X229547619Y-78764166D01*
X229547619Y-78668928D01*
X229595238Y-78573690D01*
X229642857Y-78526071D01*
X229738095Y-78478452D01*
X229928571Y-78430833D01*
X230166666Y-78430833D01*
X230357142Y-78478452D01*
X230452380Y-78526071D01*
X230500000Y-78573690D01*
X230547619Y-78668928D01*
X229547619Y-79954642D02*
X229547619Y-79383214D01*
X229547619Y-79668928D02*
X230547619Y-79668928D01*
X230404761Y-79573690D01*
X230309523Y-79478452D01*
X230261904Y-79383214D01*
X227516666Y-72621309D02*
X227564285Y-72573690D01*
X227707142Y-72478452D01*
X227802380Y-72430833D01*
X227945238Y-72383214D01*
X228183333Y-72335595D01*
X228373809Y-72335595D01*
X228611904Y-72383214D01*
X228754761Y-72430833D01*
X228850000Y-72478452D01*
X228992857Y-72573690D01*
X229040476Y-72621309D01*
X227945238Y-73430833D02*
X227897619Y-73335595D01*
X227897619Y-73145119D01*
X227945238Y-73049880D01*
X227992857Y-73002261D01*
X228088095Y-72954642D01*
X228373809Y-72954642D01*
X228469047Y-73002261D01*
X228516666Y-73049880D01*
X228564285Y-73145119D01*
X228564285Y-73335595D01*
X228516666Y-73430833D01*
X227516666Y-73764166D02*
X227564285Y-73811785D01*
X227707142Y-73907023D01*
X227802380Y-73954642D01*
X227945238Y-74002261D01*
X228183333Y-74049880D01*
X228373809Y-74049880D01*
X228611904Y-74002261D01*
X228754761Y-73954642D01*
X228850000Y-73907023D01*
X228992857Y-73811785D01*
X229040476Y-73764166D01*
X228802380Y-75240357D02*
X228850000Y-75287976D01*
X228897619Y-75383214D01*
X228897619Y-75621309D01*
X228850000Y-75716547D01*
X228802380Y-75764166D01*
X228707142Y-75811785D01*
X228611904Y-75811785D01*
X228469047Y-75764166D01*
X227897619Y-75192738D01*
X227897619Y-75811785D01*
X228897619Y-76430833D02*
X228897619Y-76526071D01*
X228850000Y-76621309D01*
X228802380Y-76668928D01*
X228707142Y-76716547D01*
X228516666Y-76764166D01*
X228278571Y-76764166D01*
X228088095Y-76716547D01*
X227992857Y-76668928D01*
X227945238Y-76621309D01*
X227897619Y-76526071D01*
X227897619Y-76430833D01*
X227945238Y-76335595D01*
X227992857Y-76287976D01*
X228088095Y-76240357D01*
X228278571Y-76192738D01*
X228516666Y-76192738D01*
X228707142Y-76240357D01*
X228802380Y-76287976D01*
X228850000Y-76335595D01*
X228897619Y-76430833D01*
X228802380Y-77145119D02*
X228850000Y-77192738D01*
X228897619Y-77287976D01*
X228897619Y-77526071D01*
X228850000Y-77621309D01*
X228802380Y-77668928D01*
X228707142Y-77716547D01*
X228611904Y-77716547D01*
X228469047Y-77668928D01*
X227897619Y-77097500D01*
X227897619Y-77716547D01*
X228897619Y-78335595D02*
X228897619Y-78430833D01*
X228850000Y-78526071D01*
X228802380Y-78573690D01*
X228707142Y-78621309D01*
X228516666Y-78668928D01*
X228278571Y-78668928D01*
X228088095Y-78621309D01*
X227992857Y-78573690D01*
X227945238Y-78526071D01*
X227897619Y-78430833D01*
X227897619Y-78335595D01*
X227945238Y-78240357D01*
X227992857Y-78192738D01*
X228088095Y-78145119D01*
X228278571Y-78097500D01*
X228516666Y-78097500D01*
X228707142Y-78145119D01*
X228802380Y-78192738D01*
X228850000Y-78240357D01*
X228897619Y-78335595D01*
X227945238Y-79145119D02*
X227897619Y-79145119D01*
X227802380Y-79097500D01*
X227754761Y-79049880D01*
X228897619Y-80621309D02*
X228183333Y-80621309D01*
X228040476Y-80573690D01*
X227945238Y-80478452D01*
X227897619Y-80335595D01*
X227897619Y-80240357D01*
X227897619Y-81526071D02*
X228421428Y-81526071D01*
X228516666Y-81478452D01*
X228564285Y-81383214D01*
X228564285Y-81192738D01*
X228516666Y-81097500D01*
X227945238Y-81526071D02*
X227897619Y-81430833D01*
X227897619Y-81192738D01*
X227945238Y-81097500D01*
X228040476Y-81049880D01*
X228135714Y-81049880D01*
X228230952Y-81097500D01*
X228278571Y-81192738D01*
X228278571Y-81430833D01*
X228326190Y-81526071D01*
X227945238Y-81954642D02*
X227897619Y-82049880D01*
X227897619Y-82240357D01*
X227945238Y-82335595D01*
X228040476Y-82383214D01*
X228088095Y-82383214D01*
X228183333Y-82335595D01*
X228230952Y-82240357D01*
X228230952Y-82097500D01*
X228278571Y-82002261D01*
X228373809Y-81954642D01*
X228421428Y-81954642D01*
X228516666Y-82002261D01*
X228564285Y-82097500D01*
X228564285Y-82240357D01*
X228516666Y-82335595D01*
X227897619Y-82954642D02*
X227945238Y-82859404D01*
X227992857Y-82811785D01*
X228088095Y-82764166D01*
X228373809Y-82764166D01*
X228469047Y-82811785D01*
X228516666Y-82859404D01*
X228564285Y-82954642D01*
X228564285Y-83097500D01*
X228516666Y-83192738D01*
X228469047Y-83240357D01*
X228373809Y-83287976D01*
X228088095Y-83287976D01*
X227992857Y-83240357D01*
X227945238Y-83192738D01*
X227897619Y-83097500D01*
X227897619Y-82954642D01*
X228564285Y-83716547D02*
X227897619Y-83716547D01*
X228469047Y-83716547D02*
X228516666Y-83764166D01*
X228564285Y-83859404D01*
X228564285Y-84002261D01*
X228516666Y-84097500D01*
X228421428Y-84145119D01*
X227897619Y-84145119D01*
X227897619Y-85383214D02*
X228897619Y-85383214D01*
X227897619Y-85954642D02*
X228469047Y-85526071D01*
X228897619Y-85954642D02*
X228326190Y-85383214D01*
X228564285Y-86287976D02*
X227897619Y-86478452D01*
X228373809Y-86668928D01*
X227897619Y-86859404D01*
X228564285Y-87049880D01*
X227897619Y-87573690D02*
X227945238Y-87478452D01*
X227992857Y-87430833D01*
X228088095Y-87383214D01*
X228373809Y-87383214D01*
X228469047Y-87430833D01*
X228516666Y-87478452D01*
X228564285Y-87573690D01*
X228564285Y-87716547D01*
X228516666Y-87811785D01*
X228469047Y-87859404D01*
X228373809Y-87907023D01*
X228088095Y-87907023D01*
X227992857Y-87859404D01*
X227945238Y-87811785D01*
X227897619Y-87716547D01*
X227897619Y-87573690D01*
X228564285Y-88335595D02*
X227897619Y-88335595D01*
X228469047Y-88335595D02*
X228516666Y-88383214D01*
X228564285Y-88478452D01*
X228564285Y-88621309D01*
X228516666Y-88716547D01*
X228421428Y-88764166D01*
X227897619Y-88764166D01*
D11*
%TO.C,F1*%
X226000000Y-47700000D02*
X226000000Y-50500000D01*
X226000000Y-47700000D02*
X206000000Y-47700000D01*
X226000000Y-57300000D02*
X206000000Y-57300000D01*
X226000000Y-54500000D02*
X226000000Y-57300000D01*
X206000000Y-54500000D02*
X206000000Y-57300000D01*
X206000000Y-47700000D02*
X206000000Y-50500000D01*
%TO.C,F2*%
X237200000Y-84000000D02*
X240000000Y-84000000D01*
X244000000Y-84000000D02*
X246800000Y-84000000D01*
X244000000Y-64000000D02*
X246800000Y-64000000D01*
X246800000Y-64000000D02*
X246800000Y-84000000D01*
X237200000Y-64000000D02*
X237200000Y-84000000D01*
X237200000Y-64000000D02*
X240000000Y-64000000D01*
D12*
%TO.C,J1*%
X223750000Y-79500000D02*
X223750000Y-87500000D01*
X221500000Y-77250000D02*
X212500000Y-77250000D01*
X210250000Y-79500000D02*
X210250000Y-87500000D01*
X221500000Y-89750000D02*
X212500000Y-89750000D01*
D13*
X223500000Y-76000000D02*
X223500000Y-76000000D01*
X223500000Y-76200000D02*
X223500000Y-76200000D01*
X223500000Y-76200000D02*
G75*
G02*
X223500000Y-76000000I0J100000D01*
G01*
X223500000Y-76000000D02*
G75*
G02*
X223500000Y-76200000I0J-100000D01*
G01*
D11*
%TO.C,J2*%
X246610000Y-60110000D02*
X246610000Y-47890000D01*
X246610000Y-47890000D02*
X229390000Y-47890000D01*
X229390000Y-47890000D02*
X229390000Y-60110000D01*
X229390000Y-60110000D02*
X246610000Y-60110000D01*
X246610000Y-49390000D02*
X246610000Y-51190000D01*
X246610000Y-51190000D02*
X229390000Y-51190000D01*
X229390000Y-51190000D02*
X229390000Y-49390000D01*
X229390000Y-49390000D02*
X246610000Y-49390000D01*
X244000000Y-47890000D02*
X242000000Y-47890000D01*
X242000000Y-47890000D02*
X242250000Y-49390000D01*
X242250000Y-49390000D02*
X243750000Y-49390000D01*
X243750000Y-49390000D02*
X244000000Y-47890000D01*
X239000000Y-47890000D02*
X237000000Y-47890000D01*
X237000000Y-47890000D02*
X237250000Y-49390000D01*
X237250000Y-49390000D02*
X238750000Y-49390000D01*
X238750000Y-49390000D02*
X239000000Y-47890000D01*
X234000000Y-47890000D02*
X232000000Y-47890000D01*
X232000000Y-47890000D02*
X232250000Y-49390000D01*
X232250000Y-49390000D02*
X233750000Y-49390000D01*
X233750000Y-49390000D02*
X234000000Y-47890000D01*
X242700000Y-60910000D02*
X243000000Y-60310000D01*
X243000000Y-60310000D02*
X243300000Y-60910000D01*
X243300000Y-60910000D02*
X242700000Y-60910000D01*
%TO.C,J3*%
X201180000Y-53000000D02*
G75*
G03*
X201180000Y-53000000I-2180000J0D01*
G01*
X196180000Y-53000000D02*
G75*
G03*
X196180000Y-53000000I-2180000J0D01*
G01*
X201560000Y-48400000D02*
X191440000Y-48400000D01*
X201560000Y-49500000D02*
X191440000Y-49500000D01*
X201560000Y-57060000D02*
X191440000Y-57060000D01*
X201560000Y-47940000D02*
X191440000Y-47940000D01*
X201560000Y-57060000D02*
X201560000Y-47940000D01*
X191440000Y-57060000D02*
X191440000Y-47940000D01*
X197346000Y-54388000D02*
X197453000Y-54281000D01*
X200282000Y-51453000D02*
X200388000Y-51346000D01*
X197612000Y-54654000D02*
X197719000Y-54547000D01*
X200548000Y-51719000D02*
X200654000Y-51612000D01*
X192346000Y-54388000D02*
X192741000Y-53992000D01*
X195007000Y-51726000D02*
X195387000Y-51346000D01*
X192612000Y-54654000D02*
X192992000Y-54274000D01*
X195258000Y-52008000D02*
X195653000Y-51612000D01*
X201800000Y-48340000D02*
X201800000Y-47700000D01*
X201800000Y-47700000D02*
X201400000Y-47700000D01*
%TO.C,J4*%
X244460000Y-100500000D02*
X244460000Y-95300000D01*
X196140000Y-100500000D02*
X244460000Y-100500000D01*
X193540000Y-95300000D02*
X244460000Y-95300000D01*
X196140000Y-100500000D02*
X196140000Y-97900000D01*
X196140000Y-97900000D02*
X193540000Y-97900000D01*
X193540000Y-97900000D02*
X193540000Y-95300000D01*
X194870000Y-100500000D02*
X193540000Y-100500000D01*
X193540000Y-100500000D02*
X193540000Y-99170000D01*
%TO.C,J5*%
X192590000Y-85670000D02*
X192590000Y-90870000D01*
X197730000Y-85670000D02*
X192590000Y-85670000D01*
X200330000Y-90870000D02*
X192590000Y-90870000D01*
X197730000Y-85670000D02*
X197730000Y-88270000D01*
X197730000Y-88270000D02*
X200330000Y-88270000D01*
X200330000Y-88270000D02*
X200330000Y-90870000D01*
X199000000Y-85670000D02*
X200330000Y-85670000D01*
X200330000Y-85670000D02*
X200330000Y-87000000D01*
%TO.C,K1*%
X191950000Y-74350000D02*
X214650000Y-74350000D01*
X214650000Y-74350000D02*
X214650000Y-57650000D01*
X214650000Y-57650000D02*
X191950000Y-57650000D01*
X191950000Y-57650000D02*
X191950000Y-74350000D01*
X209600000Y-65650000D02*
X210000000Y-66350000D01*
X209200000Y-66350000D02*
X210400000Y-66350000D01*
X210400000Y-66350000D02*
X210400000Y-65650000D01*
X210400000Y-65650000D02*
X209200000Y-65650000D01*
X209200000Y-65650000D02*
X209200000Y-66350000D01*
X214910000Y-65000000D02*
X214910000Y-67000000D01*
X209800000Y-61500000D02*
X209800000Y-64650000D01*
X209800000Y-67350000D02*
X209800000Y-70500000D01*
%TO.C,C4*%
X222261252Y-72610000D02*
X221738748Y-72610000D01*
X222261252Y-71190000D02*
X221738748Y-71190000D01*
%TO.C,C5*%
X204890000Y-91638748D02*
X204890000Y-92161252D01*
X206310000Y-91638748D02*
X206310000Y-92161252D01*
%TO.C,C6*%
X208310000Y-91638748D02*
X208310000Y-92161252D01*
X206890000Y-91638748D02*
X206890000Y-92161252D01*
%TO.C,C7*%
X210338748Y-93010000D02*
X210861252Y-93010000D01*
X210338748Y-91590000D02*
X210861252Y-91590000D01*
%TO.C,C1*%
X222261252Y-74610000D02*
X221738748Y-74610000D01*
X222261252Y-73190000D02*
X221738748Y-73190000D01*
%TO.C,C2*%
X208310000Y-87461252D02*
X208310000Y-86938748D01*
X206890000Y-87461252D02*
X206890000Y-86938748D01*
%TO.C,J1*%
D14*
X216304523Y-83548333D02*
X217211666Y-83548333D01*
X217393095Y-83608809D01*
X217514047Y-83729761D01*
X217574523Y-83911190D01*
X217574523Y-84032142D01*
X217574523Y-82278333D02*
X217574523Y-83004047D01*
X217574523Y-82641190D02*
X216304523Y-82641190D01*
X216485952Y-82762142D01*
X216606904Y-82883095D01*
X216667380Y-83004047D01*
%TO.C,J4*%
D10*
X191992380Y-98233333D02*
X192706666Y-98233333D01*
X192849523Y-98280952D01*
X192944761Y-98376190D01*
X192992380Y-98519047D01*
X192992380Y-98614285D01*
X192325714Y-97328571D02*
X192992380Y-97328571D01*
X191944761Y-97566666D02*
X192659047Y-97804761D01*
X192659047Y-97185714D01*
%TO.C,J5*%
X200782380Y-88603333D02*
X201496666Y-88603333D01*
X201639523Y-88650952D01*
X201734761Y-88746190D01*
X201782380Y-88889047D01*
X201782380Y-88984285D01*
X200782380Y-87650952D02*
X200782380Y-88127142D01*
X201258571Y-88174761D01*
X201210952Y-88127142D01*
X201163333Y-88031904D01*
X201163333Y-87793809D01*
X201210952Y-87698571D01*
X201258571Y-87650952D01*
X201353809Y-87603333D01*
X201591904Y-87603333D01*
X201687142Y-87650952D01*
X201734761Y-87698571D01*
X201782380Y-87793809D01*
X201782380Y-88031904D01*
X201734761Y-88127142D01*
X201687142Y-88174761D01*
%TO.C,K1*%
X203261904Y-56952380D02*
X203261904Y-55952380D01*
X203833333Y-56952380D02*
X203404761Y-56380952D01*
X203833333Y-55952380D02*
X203261904Y-56523809D01*
X204785714Y-56952380D02*
X204214285Y-56952380D01*
X204500000Y-56952380D02*
X204500000Y-55952380D01*
X204404761Y-56095238D01*
X204309523Y-56190476D01*
X204214285Y-56238095D01*
%TO.C,R13*%
X196857142Y-77452380D02*
X196523809Y-76976190D01*
X196285714Y-77452380D02*
X196285714Y-76452380D01*
X196666666Y-76452380D01*
X196761904Y-76500000D01*
X196809523Y-76547619D01*
X196857142Y-76642857D01*
X196857142Y-76785714D01*
X196809523Y-76880952D01*
X196761904Y-76928571D01*
X196666666Y-76976190D01*
X196285714Y-76976190D01*
X197809523Y-77452380D02*
X197238095Y-77452380D01*
X197523809Y-77452380D02*
X197523809Y-76452380D01*
X197428571Y-76595238D01*
X197333333Y-76690476D01*
X197238095Y-76738095D01*
X198142857Y-76452380D02*
X198761904Y-76452380D01*
X198428571Y-76833333D01*
X198571428Y-76833333D01*
X198666666Y-76880952D01*
X198714285Y-76928571D01*
X198761904Y-77023809D01*
X198761904Y-77261904D01*
X198714285Y-77357142D01*
X198666666Y-77404761D01*
X198571428Y-77452380D01*
X198285714Y-77452380D01*
X198190476Y-77404761D01*
X198142857Y-77357142D01*
%TO.C,R14*%
X196857142Y-79952380D02*
X196523809Y-79476190D01*
X196285714Y-79952380D02*
X196285714Y-78952380D01*
X196666666Y-78952380D01*
X196761904Y-79000000D01*
X196809523Y-79047619D01*
X196857142Y-79142857D01*
X196857142Y-79285714D01*
X196809523Y-79380952D01*
X196761904Y-79428571D01*
X196666666Y-79476190D01*
X196285714Y-79476190D01*
X197809523Y-79952380D02*
X197238095Y-79952380D01*
X197523809Y-79952380D02*
X197523809Y-78952380D01*
X197428571Y-79095238D01*
X197333333Y-79190476D01*
X197238095Y-79238095D01*
X198666666Y-79285714D02*
X198666666Y-79952380D01*
X198428571Y-78904761D02*
X198190476Y-79619047D01*
X198809523Y-79619047D01*
%TO.C,C4*%
X218933333Y-72257142D02*
X218885714Y-72304761D01*
X218742857Y-72352380D01*
X218647619Y-72352380D01*
X218504761Y-72304761D01*
X218409523Y-72209523D01*
X218361904Y-72114285D01*
X218314285Y-71923809D01*
X218314285Y-71780952D01*
X218361904Y-71590476D01*
X218409523Y-71495238D01*
X218504761Y-71400000D01*
X218647619Y-71352380D01*
X218742857Y-71352380D01*
X218885714Y-71400000D01*
X218933333Y-71447619D01*
X219790476Y-71685714D02*
X219790476Y-72352380D01*
X219552380Y-71304761D02*
X219314285Y-72019047D01*
X219933333Y-72019047D01*
%TO.C,C5*%
X203057142Y-92066666D02*
X203104761Y-92114285D01*
X203152380Y-92257142D01*
X203152380Y-92352380D01*
X203104761Y-92495238D01*
X203009523Y-92590476D01*
X202914285Y-92638095D01*
X202723809Y-92685714D01*
X202580952Y-92685714D01*
X202390476Y-92638095D01*
X202295238Y-92590476D01*
X202200000Y-92495238D01*
X202152380Y-92352380D01*
X202152380Y-92257142D01*
X202200000Y-92114285D01*
X202247619Y-92066666D01*
X202152380Y-91161904D02*
X202152380Y-91638095D01*
X202628571Y-91685714D01*
X202580952Y-91638095D01*
X202533333Y-91542857D01*
X202533333Y-91304761D01*
X202580952Y-91209523D01*
X202628571Y-91161904D01*
X202723809Y-91114285D01*
X202961904Y-91114285D01*
X203057142Y-91161904D01*
X203104761Y-91209523D01*
X203152380Y-91304761D01*
X203152380Y-91542857D01*
X203104761Y-91638095D01*
X203057142Y-91685714D01*
%TO.C,C6*%
X204357142Y-92066666D02*
X204404761Y-92114285D01*
X204452380Y-92257142D01*
X204452380Y-92352380D01*
X204404761Y-92495238D01*
X204309523Y-92590476D01*
X204214285Y-92638095D01*
X204023809Y-92685714D01*
X203880952Y-92685714D01*
X203690476Y-92638095D01*
X203595238Y-92590476D01*
X203500000Y-92495238D01*
X203452380Y-92352380D01*
X203452380Y-92257142D01*
X203500000Y-92114285D01*
X203547619Y-92066666D01*
X203452380Y-91209523D02*
X203452380Y-91400000D01*
X203500000Y-91495238D01*
X203547619Y-91542857D01*
X203690476Y-91638095D01*
X203880952Y-91685714D01*
X204261904Y-91685714D01*
X204357142Y-91638095D01*
X204404761Y-91590476D01*
X204452380Y-91495238D01*
X204452380Y-91304761D01*
X204404761Y-91209523D01*
X204357142Y-91161904D01*
X204261904Y-91114285D01*
X204023809Y-91114285D01*
X203928571Y-91161904D01*
X203880952Y-91209523D01*
X203833333Y-91304761D01*
X203833333Y-91495238D01*
X203880952Y-91590476D01*
X203928571Y-91638095D01*
X204023809Y-91685714D01*
%TO.C,C7*%
X210433333Y-94357142D02*
X210385714Y-94404761D01*
X210242857Y-94452380D01*
X210147619Y-94452380D01*
X210004761Y-94404761D01*
X209909523Y-94309523D01*
X209861904Y-94214285D01*
X209814285Y-94023809D01*
X209814285Y-93880952D01*
X209861904Y-93690476D01*
X209909523Y-93595238D01*
X210004761Y-93500000D01*
X210147619Y-93452380D01*
X210242857Y-93452380D01*
X210385714Y-93500000D01*
X210433333Y-93547619D01*
X210766666Y-93452380D02*
X211433333Y-93452380D01*
X211004761Y-94452380D01*
%TO.C,C1*%
X219033333Y-74257142D02*
X218985714Y-74304761D01*
X218842857Y-74352380D01*
X218747619Y-74352380D01*
X218604761Y-74304761D01*
X218509523Y-74209523D01*
X218461904Y-74114285D01*
X218414285Y-73923809D01*
X218414285Y-73780952D01*
X218461904Y-73590476D01*
X218509523Y-73495238D01*
X218604761Y-73400000D01*
X218747619Y-73352380D01*
X218842857Y-73352380D01*
X218985714Y-73400000D01*
X219033333Y-73447619D01*
X219985714Y-74352380D02*
X219414285Y-74352380D01*
X219700000Y-74352380D02*
X219700000Y-73352380D01*
X219604761Y-73495238D01*
X219509523Y-73590476D01*
X219414285Y-73638095D01*
%TO.C,C2*%
X207957142Y-84466666D02*
X208004761Y-84514285D01*
X208052380Y-84657142D01*
X208052380Y-84752380D01*
X208004761Y-84895238D01*
X207909523Y-84990476D01*
X207814285Y-85038095D01*
X207623809Y-85085714D01*
X207480952Y-85085714D01*
X207290476Y-85038095D01*
X207195238Y-84990476D01*
X207100000Y-84895238D01*
X207052380Y-84752380D01*
X207052380Y-84657142D01*
X207100000Y-84514285D01*
X207147619Y-84466666D01*
X207147619Y-84085714D02*
X207100000Y-84038095D01*
X207052380Y-83942857D01*
X207052380Y-83704761D01*
X207100000Y-83609523D01*
X207147619Y-83561904D01*
X207242857Y-83514285D01*
X207338095Y-83514285D01*
X207480952Y-83561904D01*
X208052380Y-84133333D01*
X208052380Y-83514285D01*
%TD*%
M02*
