%TF.GenerationSoftware,KiCad,Pcbnew,(5.1.6)-1*%
%TF.CreationDate,2020-09-01T17:51:17+09:00*%
%TF.ProjectId,attiny1614_accsupervisor,61747469-6e79-4313-9631-345f61636373,r01*%
%TF.SameCoordinates,Original*%
%TF.FileFunction,Soldermask,Bot*%
%TF.FilePolarity,Negative*%
%FSLAX46Y46*%
G04 Gerber Fmt 4.6, Leading zero omitted, Abs format (unit mm)*
G04 Created by KiCad (PCBNEW (5.1.6)-1) date 2020-09-01 17:51:17*
%MOMM*%
%LPD*%
G01*
G04 APERTURE LIST*
%ADD10C,3.100000*%
%ADD11O,2.100000X3.700000*%
%ADD12R,2.700000X2.700000*%
%ADD13C,2.700000*%
%ADD14R,1.800000X1.800000*%
%ADD15O,1.800000X1.800000*%
%ADD16R,2.600000X2.600000*%
%ADD17O,2.600000X2.600000*%
%ADD18C,3.300000*%
G04 APERTURE END LIST*
D10*
%TO.C,F1*%
X242000000Y-64000000D03*
X242000000Y-84000000D03*
%TD*%
%TO.C,F2*%
X231000000Y-84000000D03*
X231000000Y-64000000D03*
%TD*%
%TO.C,J2*%
G36*
G01*
X244050000Y-56412500D02*
X244050000Y-59587500D01*
G75*
G02*
X243787500Y-59850000I-262500J0D01*
G01*
X242212500Y-59850000D01*
G75*
G02*
X241950000Y-59587500I0J262500D01*
G01*
X241950000Y-56412500D01*
G75*
G02*
X242212500Y-56150000I262500J0D01*
G01*
X243787500Y-56150000D01*
G75*
G02*
X244050000Y-56412500I0J-262500D01*
G01*
G37*
D11*
X238000000Y-58000000D03*
X233000000Y-58000000D03*
%TD*%
D12*
%TO.C,J3*%
X199000000Y-53000000D03*
D13*
X194000000Y-53000000D03*
%TD*%
D14*
%TO.C,J4*%
X243130000Y-96630000D03*
D15*
X243130000Y-99170000D03*
X240590000Y-96630000D03*
X240590000Y-99170000D03*
X238050000Y-96630000D03*
X238050000Y-99170000D03*
X235510000Y-96630000D03*
X235510000Y-99170000D03*
X232970000Y-96630000D03*
X232970000Y-99170000D03*
X230430000Y-96630000D03*
X230430000Y-99170000D03*
X227890000Y-96630000D03*
X227890000Y-99170000D03*
X225350000Y-96630000D03*
X225350000Y-99170000D03*
X222810000Y-96630000D03*
X222810000Y-99170000D03*
X220270000Y-96630000D03*
X220270000Y-99170000D03*
X217730000Y-96630000D03*
X217730000Y-99170000D03*
X215190000Y-96630000D03*
X215190000Y-99170000D03*
X212650000Y-96630000D03*
X212650000Y-99170000D03*
X210110000Y-96630000D03*
X210110000Y-99170000D03*
X207570000Y-96630000D03*
X207570000Y-99170000D03*
X205030000Y-96630000D03*
X205030000Y-99170000D03*
X202490000Y-96630000D03*
X202490000Y-99170000D03*
X199950000Y-96630000D03*
X199950000Y-99170000D03*
X197410000Y-96630000D03*
X197410000Y-99170000D03*
X194870000Y-96630000D03*
X194870000Y-99170000D03*
%TD*%
D14*
%TO.C,J5*%
X200000000Y-89000000D03*
D15*
X200000000Y-91540000D03*
X197460000Y-89000000D03*
X197460000Y-91540000D03*
X194920000Y-89000000D03*
X194920000Y-91540000D03*
%TD*%
D16*
%TO.C,K1*%
X200000000Y-65000000D03*
D17*
X194000000Y-67000000D03*
X194000000Y-79200000D03*
X206000000Y-79200000D03*
X206000000Y-67000000D03*
%TD*%
%TO.C,U1*%
G36*
G01*
X203500000Y-92985000D02*
X203500000Y-92635000D01*
G75*
G02*
X203675000Y-92460000I175000J0D01*
G01*
X205375000Y-92460000D01*
G75*
G02*
X205550000Y-92635000I0J-175000D01*
G01*
X205550000Y-92985000D01*
G75*
G02*
X205375000Y-93160000I-175000J0D01*
G01*
X203675000Y-93160000D01*
G75*
G02*
X203500000Y-92985000I0J175000D01*
G01*
G37*
G36*
G01*
X203500000Y-91715000D02*
X203500000Y-91365000D01*
G75*
G02*
X203675000Y-91190000I175000J0D01*
G01*
X205375000Y-91190000D01*
G75*
G02*
X205550000Y-91365000I0J-175000D01*
G01*
X205550000Y-91715000D01*
G75*
G02*
X205375000Y-91890000I-175000J0D01*
G01*
X203675000Y-91890000D01*
G75*
G02*
X203500000Y-91715000I0J175000D01*
G01*
G37*
G36*
G01*
X203500000Y-90445000D02*
X203500000Y-90095000D01*
G75*
G02*
X203675000Y-89920000I175000J0D01*
G01*
X205375000Y-89920000D01*
G75*
G02*
X205550000Y-90095000I0J-175000D01*
G01*
X205550000Y-90445000D01*
G75*
G02*
X205375000Y-90620000I-175000J0D01*
G01*
X203675000Y-90620000D01*
G75*
G02*
X203500000Y-90445000I0J175000D01*
G01*
G37*
G36*
G01*
X203500000Y-89175000D02*
X203500000Y-88825000D01*
G75*
G02*
X203675000Y-88650000I175000J0D01*
G01*
X205375000Y-88650000D01*
G75*
G02*
X205550000Y-88825000I0J-175000D01*
G01*
X205550000Y-89175000D01*
G75*
G02*
X205375000Y-89350000I-175000J0D01*
G01*
X203675000Y-89350000D01*
G75*
G02*
X203500000Y-89175000I0J175000D01*
G01*
G37*
G36*
G01*
X203500000Y-87905000D02*
X203500000Y-87555000D01*
G75*
G02*
X203675000Y-87380000I175000J0D01*
G01*
X205375000Y-87380000D01*
G75*
G02*
X205550000Y-87555000I0J-175000D01*
G01*
X205550000Y-87905000D01*
G75*
G02*
X205375000Y-88080000I-175000J0D01*
G01*
X203675000Y-88080000D01*
G75*
G02*
X203500000Y-87905000I0J175000D01*
G01*
G37*
G36*
G01*
X203500000Y-86635000D02*
X203500000Y-86285000D01*
G75*
G02*
X203675000Y-86110000I175000J0D01*
G01*
X205375000Y-86110000D01*
G75*
G02*
X205550000Y-86285000I0J-175000D01*
G01*
X205550000Y-86635000D01*
G75*
G02*
X205375000Y-86810000I-175000J0D01*
G01*
X203675000Y-86810000D01*
G75*
G02*
X203500000Y-86635000I0J175000D01*
G01*
G37*
G36*
G01*
X203500000Y-85365000D02*
X203500000Y-85015000D01*
G75*
G02*
X203675000Y-84840000I175000J0D01*
G01*
X205375000Y-84840000D01*
G75*
G02*
X205550000Y-85015000I0J-175000D01*
G01*
X205550000Y-85365000D01*
G75*
G02*
X205375000Y-85540000I-175000J0D01*
G01*
X203675000Y-85540000D01*
G75*
G02*
X203500000Y-85365000I0J175000D01*
G01*
G37*
G36*
G01*
X208450000Y-85365000D02*
X208450000Y-85015000D01*
G75*
G02*
X208625000Y-84840000I175000J0D01*
G01*
X210325000Y-84840000D01*
G75*
G02*
X210500000Y-85015000I0J-175000D01*
G01*
X210500000Y-85365000D01*
G75*
G02*
X210325000Y-85540000I-175000J0D01*
G01*
X208625000Y-85540000D01*
G75*
G02*
X208450000Y-85365000I0J175000D01*
G01*
G37*
G36*
G01*
X208450000Y-86635000D02*
X208450000Y-86285000D01*
G75*
G02*
X208625000Y-86110000I175000J0D01*
G01*
X210325000Y-86110000D01*
G75*
G02*
X210500000Y-86285000I0J-175000D01*
G01*
X210500000Y-86635000D01*
G75*
G02*
X210325000Y-86810000I-175000J0D01*
G01*
X208625000Y-86810000D01*
G75*
G02*
X208450000Y-86635000I0J175000D01*
G01*
G37*
G36*
G01*
X208450000Y-87905000D02*
X208450000Y-87555000D01*
G75*
G02*
X208625000Y-87380000I175000J0D01*
G01*
X210325000Y-87380000D01*
G75*
G02*
X210500000Y-87555000I0J-175000D01*
G01*
X210500000Y-87905000D01*
G75*
G02*
X210325000Y-88080000I-175000J0D01*
G01*
X208625000Y-88080000D01*
G75*
G02*
X208450000Y-87905000I0J175000D01*
G01*
G37*
G36*
G01*
X208450000Y-89175000D02*
X208450000Y-88825000D01*
G75*
G02*
X208625000Y-88650000I175000J0D01*
G01*
X210325000Y-88650000D01*
G75*
G02*
X210500000Y-88825000I0J-175000D01*
G01*
X210500000Y-89175000D01*
G75*
G02*
X210325000Y-89350000I-175000J0D01*
G01*
X208625000Y-89350000D01*
G75*
G02*
X208450000Y-89175000I0J175000D01*
G01*
G37*
G36*
G01*
X208450000Y-90445000D02*
X208450000Y-90095000D01*
G75*
G02*
X208625000Y-89920000I175000J0D01*
G01*
X210325000Y-89920000D01*
G75*
G02*
X210500000Y-90095000I0J-175000D01*
G01*
X210500000Y-90445000D01*
G75*
G02*
X210325000Y-90620000I-175000J0D01*
G01*
X208625000Y-90620000D01*
G75*
G02*
X208450000Y-90445000I0J175000D01*
G01*
G37*
G36*
G01*
X208450000Y-91715000D02*
X208450000Y-91365000D01*
G75*
G02*
X208625000Y-91190000I175000J0D01*
G01*
X210325000Y-91190000D01*
G75*
G02*
X210500000Y-91365000I0J-175000D01*
G01*
X210500000Y-91715000D01*
G75*
G02*
X210325000Y-91890000I-175000J0D01*
G01*
X208625000Y-91890000D01*
G75*
G02*
X208450000Y-91715000I0J175000D01*
G01*
G37*
G36*
G01*
X208450000Y-92985000D02*
X208450000Y-92635000D01*
G75*
G02*
X208625000Y-92460000I175000J0D01*
G01*
X210325000Y-92460000D01*
G75*
G02*
X210500000Y-92635000I0J-175000D01*
G01*
X210500000Y-92985000D01*
G75*
G02*
X210325000Y-93160000I-175000J0D01*
G01*
X208625000Y-93160000D01*
G75*
G02*
X208450000Y-92985000I0J175000D01*
G01*
G37*
%TD*%
D18*
%TO.C,H1*%
X221500000Y-63600000D03*
%TD*%
M02*
