%TF.GenerationSoftware,KiCad,Pcbnew,(5.1.6)-1*%
%TF.CreationDate,2020-09-01T17:51:17+09:00*%
%TF.ProjectId,attiny1614_accsupervisor,61747469-6e79-4313-9631-345f61636373,r01*%
%TF.SameCoordinates,Original*%
%TF.FileFunction,Copper,L1,Top*%
%TF.FilePolarity,Positive*%
%FSLAX46Y46*%
G04 Gerber Fmt 4.6, Leading zero omitted, Abs format (unit mm)*
G04 Created by KiCad (PCBNEW (5.1.6)-1) date 2020-09-01 17:51:17*
%MOMM*%
%LPD*%
G01*
G04 APERTURE LIST*
%TA.AperFunction,SMDPad,CuDef*%
%ADD10R,2.500000X1.800000*%
%TD*%
%TA.AperFunction,ComponentPad*%
%ADD11C,3.000000*%
%TD*%
%TA.AperFunction,SMDPad,CuDef*%
%ADD12R,2.500000X2.500000*%
%TD*%
%TA.AperFunction,ComponentPad*%
%ADD13O,2.000000X3.600000*%
%TD*%
%TA.AperFunction,ComponentPad*%
%ADD14R,2.600000X2.600000*%
%TD*%
%TA.AperFunction,ComponentPad*%
%ADD15C,2.600000*%
%TD*%
%TA.AperFunction,ComponentPad*%
%ADD16R,1.700000X1.700000*%
%TD*%
%TA.AperFunction,ComponentPad*%
%ADD17O,1.700000X1.700000*%
%TD*%
%TA.AperFunction,ComponentPad*%
%ADD18R,2.500000X2.500000*%
%TD*%
%TA.AperFunction,ComponentPad*%
%ADD19O,2.500000X2.500000*%
%TD*%
%TA.AperFunction,SMDPad,CuDef*%
%ADD20R,0.900000X0.800000*%
%TD*%
G04 APERTURE END LIST*
%TO.P,C1,1*%
%TO.N,/12V*%
%TA.AperFunction,SMDPad,CuDef*%
G36*
G01*
X128845001Y-97758001D02*
X128845001Y-96508001D01*
G75*
G02*
X129095001Y-96258001I250000J0D01*
G01*
X130020001Y-96258001D01*
G75*
G02*
X130270001Y-96508001I0J-250000D01*
G01*
X130270001Y-97758001D01*
G75*
G02*
X130020001Y-98008001I-250000J0D01*
G01*
X129095001Y-98008001D01*
G75*
G02*
X128845001Y-97758001I0J250000D01*
G01*
G37*
%TD.AperFunction*%
%TO.P,C1,2*%
%TO.N,GND*%
%TA.AperFunction,SMDPad,CuDef*%
G36*
G01*
X131820001Y-97758001D02*
X131820001Y-96508001D01*
G75*
G02*
X132070001Y-96258001I250000J0D01*
G01*
X132995001Y-96258001D01*
G75*
G02*
X133245001Y-96508001I0J-250000D01*
G01*
X133245001Y-97758001D01*
G75*
G02*
X132995001Y-98008001I-250000J0D01*
G01*
X132070001Y-98008001D01*
G75*
G02*
X131820001Y-97758001I0J250000D01*
G01*
G37*
%TD.AperFunction*%
%TD*%
%TO.P,C2,2*%
%TO.N,GND*%
%TA.AperFunction,SMDPad,CuDef*%
G36*
G01*
X112570001Y-112228001D02*
X112570001Y-110978001D01*
G75*
G02*
X112820001Y-110728001I250000J0D01*
G01*
X113745001Y-110728001D01*
G75*
G02*
X113995001Y-110978001I0J-250000D01*
G01*
X113995001Y-112228001D01*
G75*
G02*
X113745001Y-112478001I-250000J0D01*
G01*
X112820001Y-112478001D01*
G75*
G02*
X112570001Y-112228001I0J250000D01*
G01*
G37*
%TD.AperFunction*%
%TO.P,C2,1*%
%TO.N,/3V3*%
%TA.AperFunction,SMDPad,CuDef*%
G36*
G01*
X109595001Y-112228001D02*
X109595001Y-110978001D01*
G75*
G02*
X109845001Y-110728001I250000J0D01*
G01*
X110770001Y-110728001D01*
G75*
G02*
X111020001Y-110978001I0J-250000D01*
G01*
X111020001Y-112228001D01*
G75*
G02*
X110770001Y-112478001I-250000J0D01*
G01*
X109845001Y-112478001D01*
G75*
G02*
X109595001Y-112228001I0J250000D01*
G01*
G37*
%TD.AperFunction*%
%TD*%
%TO.P,C3,1*%
%TO.N,/3V3*%
%TA.AperFunction,SMDPad,CuDef*%
G36*
G01*
X128845001Y-102368001D02*
X128845001Y-101118001D01*
G75*
G02*
X129095001Y-100868001I250000J0D01*
G01*
X130020001Y-100868001D01*
G75*
G02*
X130270001Y-101118001I0J-250000D01*
G01*
X130270001Y-102368001D01*
G75*
G02*
X130020001Y-102618001I-250000J0D01*
G01*
X129095001Y-102618001D01*
G75*
G02*
X128845001Y-102368001I0J250000D01*
G01*
G37*
%TD.AperFunction*%
%TO.P,C3,2*%
%TO.N,GND*%
%TA.AperFunction,SMDPad,CuDef*%
G36*
G01*
X131820001Y-102368001D02*
X131820001Y-101118001D01*
G75*
G02*
X132070001Y-100868001I250000J0D01*
G01*
X132995001Y-100868001D01*
G75*
G02*
X133245001Y-101118001I0J-250000D01*
G01*
X133245001Y-102368001D01*
G75*
G02*
X132995001Y-102618001I-250000J0D01*
G01*
X132070001Y-102618001D01*
G75*
G02*
X131820001Y-102368001I0J250000D01*
G01*
G37*
%TD.AperFunction*%
%TD*%
D10*
%TO.P,D1,1*%
%TO.N,/12V*%
X155145001Y-70283001D03*
%TO.P,D1,2*%
%TO.N,Net-(D1-Pad2)*%
X159145001Y-70283001D03*
%TD*%
D11*
%TO.P,F1,1*%
%TO.N,/12V_IN*%
X242000000Y-64000000D03*
%TO.P,F1,2*%
%TO.N,/12V*%
X242000000Y-84000000D03*
%TD*%
%TO.P,F2,2*%
%TO.N,/ACC*%
X231000000Y-84000000D03*
%TO.P,F2,1*%
%TO.N,/ACC_IN*%
X231000000Y-64000000D03*
%TD*%
D12*
%TO.P,J1,1*%
%TO.N,/12V*%
X223000000Y-79500000D03*
%TO.P,J1,2*%
%TO.N,GND*%
X223000000Y-90500000D03*
%TO.P,J1,3*%
%TO.N,/3V3*%
X211000000Y-90500000D03*
%TO.P,J1,4*%
%TO.N,N/C*%
X211000000Y-79500000D03*
%TD*%
%TO.P,J2,1*%
%TO.N,/12V_IN*%
%TA.AperFunction,ComponentPad*%
G36*
G01*
X244000000Y-56450000D02*
X244000000Y-59550000D01*
G75*
G02*
X243750000Y-59800000I-250000J0D01*
G01*
X242250000Y-59800000D01*
G75*
G02*
X242000000Y-59550000I0J250000D01*
G01*
X242000000Y-56450000D01*
G75*
G02*
X242250000Y-56200000I250000J0D01*
G01*
X243750000Y-56200000D01*
G75*
G02*
X244000000Y-56450000I0J-250000D01*
G01*
G37*
%TD.AperFunction*%
D13*
%TO.P,J2,2*%
%TO.N,/ACC_IN*%
X238000000Y-58000000D03*
%TO.P,J2,3*%
%TO.N,GND*%
X233000000Y-58000000D03*
%TD*%
D14*
%TO.P,J3,1*%
%TO.N,/JST_12V*%
X199000000Y-53000000D03*
D15*
%TO.P,J3,2*%
%TO.N,GND*%
X194000000Y-53000000D03*
%TD*%
D16*
%TO.P,J4,1*%
%TO.N,N/C*%
X243130000Y-96630000D03*
D17*
%TO.P,J4,2*%
X243130000Y-99170000D03*
%TO.P,J4,3*%
X240590000Y-96630000D03*
%TO.P,J4,4*%
X240590000Y-99170000D03*
%TO.P,J4,5*%
X238050000Y-96630000D03*
%TO.P,J4,6*%
%TO.N,GND*%
X238050000Y-99170000D03*
%TO.P,J4,7*%
%TO.N,N/C*%
X235510000Y-96630000D03*
%TO.P,J4,8*%
%TO.N,/JST_TX*%
X235510000Y-99170000D03*
%TO.P,J4,9*%
%TO.N,GND*%
X232970000Y-96630000D03*
%TO.P,J4,10*%
%TO.N,/JST_RX*%
X232970000Y-99170000D03*
%TO.P,J4,11*%
%TO.N,N/C*%
X230430000Y-96630000D03*
%TO.P,J4,12*%
X230430000Y-99170000D03*
%TO.P,J4,13*%
X227890000Y-96630000D03*
%TO.P,J4,14*%
%TO.N,GND*%
X227890000Y-99170000D03*
%TO.P,J4,15*%
%TO.N,N/C*%
X225350000Y-96630000D03*
%TO.P,J4,16*%
X225350000Y-99170000D03*
%TO.P,J4,17*%
X222810000Y-96630000D03*
%TO.P,J4,18*%
X222810000Y-99170000D03*
%TO.P,J4,19*%
X220270000Y-96630000D03*
%TO.P,J4,20*%
%TO.N,GND*%
X220270000Y-99170000D03*
%TO.P,J4,21*%
%TO.N,N/C*%
X217730000Y-96630000D03*
%TO.P,J4,22*%
X217730000Y-99170000D03*
%TO.P,J4,23*%
X215190000Y-96630000D03*
%TO.P,J4,24*%
X215190000Y-99170000D03*
%TO.P,J4,25*%
%TO.N,GND*%
X212650000Y-96630000D03*
%TO.P,J4,26*%
%TO.N,N/C*%
X212650000Y-99170000D03*
%TO.P,J4,27*%
X210110000Y-96630000D03*
%TO.P,J4,28*%
X210110000Y-99170000D03*
%TO.P,J4,29*%
X207570000Y-96630000D03*
%TO.P,J4,30*%
%TO.N,GND*%
X207570000Y-99170000D03*
%TO.P,J4,31*%
%TO.N,N/C*%
X205030000Y-96630000D03*
%TO.P,J4,32*%
X205030000Y-99170000D03*
%TO.P,J4,33*%
X202490000Y-96630000D03*
%TO.P,J4,34*%
%TO.N,GND*%
X202490000Y-99170000D03*
%TO.P,J4,35*%
%TO.N,N/C*%
X199950000Y-96630000D03*
%TO.P,J4,36*%
X199950000Y-99170000D03*
%TO.P,J4,37*%
X197410000Y-96630000D03*
%TO.P,J4,38*%
X197410000Y-99170000D03*
%TO.P,J4,39*%
%TO.N,GND*%
X194870000Y-96630000D03*
%TO.P,J4,40*%
%TO.N,N/C*%
X194870000Y-99170000D03*
%TD*%
D16*
%TO.P,J5,1*%
%TO.N,/UPDI_DATA*%
X200000000Y-89000000D03*
D17*
%TO.P,J5,2*%
%TO.N,/3V3*%
X200000000Y-91540000D03*
%TO.P,J5,3*%
%TO.N,N/C*%
X197460000Y-89000000D03*
%TO.P,J5,4*%
X197460000Y-91540000D03*
%TO.P,J5,5*%
X194920000Y-89000000D03*
%TO.P,J5,6*%
%TO.N,GND*%
X194920000Y-91540000D03*
%TD*%
D18*
%TO.P,K1,1*%
%TO.N,/12V*%
X200000000Y-65000000D03*
D19*
%TO.P,K1,2*%
%TO.N,Net-(D1-Pad2)*%
X194000000Y-67000000D03*
%TO.P,K1,3*%
%TO.N,/JST_12V*%
X194000000Y-79200000D03*
%TO.P,K1,4*%
%TO.N,N/C*%
X206000000Y-79200000D03*
%TO.P,K1,5*%
%TO.N,/12V*%
X206000000Y-67000000D03*
%TD*%
D20*
%TO.P,Q1,1*%
%TO.N,Net-(Q1-Pad1)*%
X181145001Y-58383001D03*
%TO.P,Q1,2*%
%TO.N,GND*%
X181145001Y-60283001D03*
%TO.P,Q1,3*%
%TO.N,Net-(D1-Pad2)*%
X183145001Y-59333001D03*
%TD*%
%TO.P,Q2,3*%
%TO.N,Net-(Q2-Pad3)*%
X132395001Y-108953001D03*
%TO.P,Q2,2*%
%TO.N,GND*%
X130395001Y-109903001D03*
%TO.P,Q2,1*%
%TO.N,Net-(Q2-Pad1)*%
X130395001Y-108003001D03*
%TD*%
%TO.P,Q3,1*%
%TO.N,Net-(Q3-Pad1)*%
X160295001Y-80463001D03*
%TO.P,Q3,2*%
%TO.N,GND*%
X160295001Y-82363001D03*
%TO.P,Q3,3*%
%TO.N,Net-(Q3-Pad3)*%
X162295001Y-81413001D03*
%TD*%
%TO.P,Q4,1*%
%TO.N,Net-(Q2-Pad3)*%
X168345001Y-71883001D03*
%TO.P,Q4,2*%
%TO.N,Net-(Q4-Pad2)*%
X168345001Y-73783001D03*
%TO.P,Q4,3*%
%TO.N,/12V*%
X170345001Y-72833001D03*
%TD*%
%TO.P,Q5,3*%
%TO.N,/ACC*%
X177195001Y-62623001D03*
%TO.P,Q5,2*%
%TO.N,Net-(Q5-Pad2)*%
X175195001Y-63573001D03*
%TO.P,Q5,1*%
%TO.N,Net-(Q3-Pad3)*%
X175195001Y-61673001D03*
%TD*%
%TO.P,R1,1*%
%TO.N,Net-(Q1-Pad1)*%
%TA.AperFunction,SMDPad,CuDef*%
G36*
G01*
X174745001Y-59328001D02*
X174745001Y-58078001D01*
G75*
G02*
X174995001Y-57828001I250000J0D01*
G01*
X175920001Y-57828001D01*
G75*
G02*
X176170001Y-58078001I0J-250000D01*
G01*
X176170001Y-59328001D01*
G75*
G02*
X175920001Y-59578001I-250000J0D01*
G01*
X174995001Y-59578001D01*
G75*
G02*
X174745001Y-59328001I0J250000D01*
G01*
G37*
%TD.AperFunction*%
%TO.P,R1,2*%
%TO.N,/RLY_ON*%
%TA.AperFunction,SMDPad,CuDef*%
G36*
G01*
X177720001Y-59328001D02*
X177720001Y-58078001D01*
G75*
G02*
X177970001Y-57828001I250000J0D01*
G01*
X178895001Y-57828001D01*
G75*
G02*
X179145001Y-58078001I0J-250000D01*
G01*
X179145001Y-59328001D01*
G75*
G02*
X178895001Y-59578001I-250000J0D01*
G01*
X177970001Y-59578001D01*
G75*
G02*
X177720001Y-59328001I0J250000D01*
G01*
G37*
%TD.AperFunction*%
%TD*%
%TO.P,R2,2*%
%TO.N,/ADC_ON*%
%TA.AperFunction,SMDPad,CuDef*%
G36*
G01*
X156870001Y-78118001D02*
X156870001Y-76868001D01*
G75*
G02*
X157120001Y-76618001I250000J0D01*
G01*
X158045001Y-76618001D01*
G75*
G02*
X158295001Y-76868001I0J-250000D01*
G01*
X158295001Y-78118001D01*
G75*
G02*
X158045001Y-78368001I-250000J0D01*
G01*
X157120001Y-78368001D01*
G75*
G02*
X156870001Y-78118001I0J250000D01*
G01*
G37*
%TD.AperFunction*%
%TO.P,R2,1*%
%TO.N,Net-(Q2-Pad1)*%
%TA.AperFunction,SMDPad,CuDef*%
G36*
G01*
X153895001Y-78118001D02*
X153895001Y-76868001D01*
G75*
G02*
X154145001Y-76618001I250000J0D01*
G01*
X155070001Y-76618001D01*
G75*
G02*
X155320001Y-76868001I0J-250000D01*
G01*
X155320001Y-78118001D01*
G75*
G02*
X155070001Y-78368001I-250000J0D01*
G01*
X154145001Y-78368001D01*
G75*
G02*
X153895001Y-78118001I0J250000D01*
G01*
G37*
%TD.AperFunction*%
%TD*%
%TO.P,R3,1*%
%TO.N,Net-(Q3-Pad1)*%
%TA.AperFunction,SMDPad,CuDef*%
G36*
G01*
X153895001Y-81408001D02*
X153895001Y-80158001D01*
G75*
G02*
X154145001Y-79908001I250000J0D01*
G01*
X155070001Y-79908001D01*
G75*
G02*
X155320001Y-80158001I0J-250000D01*
G01*
X155320001Y-81408001D01*
G75*
G02*
X155070001Y-81658001I-250000J0D01*
G01*
X154145001Y-81658001D01*
G75*
G02*
X153895001Y-81408001I0J250000D01*
G01*
G37*
%TD.AperFunction*%
%TO.P,R3,2*%
%TO.N,/ADC_ON*%
%TA.AperFunction,SMDPad,CuDef*%
G36*
G01*
X156870001Y-81408001D02*
X156870001Y-80158001D01*
G75*
G02*
X157120001Y-79908001I250000J0D01*
G01*
X158045001Y-79908001D01*
G75*
G02*
X158295001Y-80158001I0J-250000D01*
G01*
X158295001Y-81408001D01*
G75*
G02*
X158045001Y-81658001I-250000J0D01*
G01*
X157120001Y-81658001D01*
G75*
G02*
X156870001Y-81408001I0J250000D01*
G01*
G37*
%TD.AperFunction*%
%TD*%
%TO.P,R4,1*%
%TO.N,Net-(Q2-Pad3)*%
%TA.AperFunction,SMDPad,CuDef*%
G36*
G01*
X159845001Y-74828001D02*
X159845001Y-73578001D01*
G75*
G02*
X160095001Y-73328001I250000J0D01*
G01*
X161020001Y-73328001D01*
G75*
G02*
X161270001Y-73578001I0J-250000D01*
G01*
X161270001Y-74828001D01*
G75*
G02*
X161020001Y-75078001I-250000J0D01*
G01*
X160095001Y-75078001D01*
G75*
G02*
X159845001Y-74828001I0J250000D01*
G01*
G37*
%TD.AperFunction*%
%TO.P,R4,2*%
%TO.N,/12V*%
%TA.AperFunction,SMDPad,CuDef*%
G36*
G01*
X162820001Y-74828001D02*
X162820001Y-73578001D01*
G75*
G02*
X163070001Y-73328001I250000J0D01*
G01*
X163995001Y-73328001D01*
G75*
G02*
X164245001Y-73578001I0J-250000D01*
G01*
X164245001Y-74828001D01*
G75*
G02*
X163995001Y-75078001I-250000J0D01*
G01*
X163070001Y-75078001D01*
G75*
G02*
X162820001Y-74828001I0J250000D01*
G01*
G37*
%TD.AperFunction*%
%TD*%
%TO.P,R5,2*%
%TO.N,/ACC*%
%TA.AperFunction,SMDPad,CuDef*%
G36*
G01*
X126970001Y-105658001D02*
X126970001Y-104408001D01*
G75*
G02*
X127220001Y-104158001I250000J0D01*
G01*
X128145001Y-104158001D01*
G75*
G02*
X128395001Y-104408001I0J-250000D01*
G01*
X128395001Y-105658001D01*
G75*
G02*
X128145001Y-105908001I-250000J0D01*
G01*
X127220001Y-105908001D01*
G75*
G02*
X126970001Y-105658001I0J250000D01*
G01*
G37*
%TD.AperFunction*%
%TO.P,R5,1*%
%TO.N,Net-(Q3-Pad3)*%
%TA.AperFunction,SMDPad,CuDef*%
G36*
G01*
X123995001Y-105658001D02*
X123995001Y-104408001D01*
G75*
G02*
X124245001Y-104158001I250000J0D01*
G01*
X125170001Y-104158001D01*
G75*
G02*
X125420001Y-104408001I0J-250000D01*
G01*
X125420001Y-105658001D01*
G75*
G02*
X125170001Y-105908001I-250000J0D01*
G01*
X124245001Y-105908001D01*
G75*
G02*
X123995001Y-105658001I0J250000D01*
G01*
G37*
%TD.AperFunction*%
%TD*%
%TO.P,R6,1*%
%TO.N,Net-(Q4-Pad2)*%
%TA.AperFunction,SMDPad,CuDef*%
G36*
G01*
X129945001Y-105658001D02*
X129945001Y-104408001D01*
G75*
G02*
X130195001Y-104158001I250000J0D01*
G01*
X131120001Y-104158001D01*
G75*
G02*
X131370001Y-104408001I0J-250000D01*
G01*
X131370001Y-105658001D01*
G75*
G02*
X131120001Y-105908001I-250000J0D01*
G01*
X130195001Y-105908001D01*
G75*
G02*
X129945001Y-105658001I0J250000D01*
G01*
G37*
%TD.AperFunction*%
%TO.P,R6,2*%
%TO.N,/12V*%
%TA.AperFunction,SMDPad,CuDef*%
G36*
G01*
X132920001Y-105658001D02*
X132920001Y-104408001D01*
G75*
G02*
X133170001Y-104158001I250000J0D01*
G01*
X134095001Y-104158001D01*
G75*
G02*
X134345001Y-104408001I0J-250000D01*
G01*
X134345001Y-105658001D01*
G75*
G02*
X134095001Y-105908001I-250000J0D01*
G01*
X133170001Y-105908001D01*
G75*
G02*
X132920001Y-105658001I0J250000D01*
G01*
G37*
%TD.AperFunction*%
%TD*%
%TO.P,R7,2*%
%TO.N,/ACC*%
%TA.AperFunction,SMDPad,CuDef*%
G36*
G01*
X126970001Y-108948001D02*
X126970001Y-107698001D01*
G75*
G02*
X127220001Y-107448001I250000J0D01*
G01*
X128145001Y-107448001D01*
G75*
G02*
X128395001Y-107698001I0J-250000D01*
G01*
X128395001Y-108948001D01*
G75*
G02*
X128145001Y-109198001I-250000J0D01*
G01*
X127220001Y-109198001D01*
G75*
G02*
X126970001Y-108948001I0J250000D01*
G01*
G37*
%TD.AperFunction*%
%TO.P,R7,1*%
%TO.N,Net-(Q5-Pad2)*%
%TA.AperFunction,SMDPad,CuDef*%
G36*
G01*
X123995001Y-108948001D02*
X123995001Y-107698001D01*
G75*
G02*
X124245001Y-107448001I250000J0D01*
G01*
X125170001Y-107448001D01*
G75*
G02*
X125420001Y-107698001I0J-250000D01*
G01*
X125420001Y-108948001D01*
G75*
G02*
X125170001Y-109198001I-250000J0D01*
G01*
X124245001Y-109198001D01*
G75*
G02*
X123995001Y-108948001I0J250000D01*
G01*
G37*
%TD.AperFunction*%
%TD*%
%TO.P,R8,1*%
%TO.N,/ADC1_VIN*%
%TA.AperFunction,SMDPad,CuDef*%
G36*
G01*
X152195001Y-84768001D02*
X152195001Y-83518001D01*
G75*
G02*
X152445001Y-83268001I250000J0D01*
G01*
X153370001Y-83268001D01*
G75*
G02*
X153620001Y-83518001I0J-250000D01*
G01*
X153620001Y-84768001D01*
G75*
G02*
X153370001Y-85018001I-250000J0D01*
G01*
X152445001Y-85018001D01*
G75*
G02*
X152195001Y-84768001I0J250000D01*
G01*
G37*
%TD.AperFunction*%
%TO.P,R8,2*%
%TO.N,Net-(Q4-Pad2)*%
%TA.AperFunction,SMDPad,CuDef*%
G36*
G01*
X155170001Y-84768001D02*
X155170001Y-83518001D01*
G75*
G02*
X155420001Y-83268001I250000J0D01*
G01*
X156345001Y-83268001D01*
G75*
G02*
X156595001Y-83518001I0J-250000D01*
G01*
X156595001Y-84768001D01*
G75*
G02*
X156345001Y-85018001I-250000J0D01*
G01*
X155420001Y-85018001D01*
G75*
G02*
X155170001Y-84768001I0J250000D01*
G01*
G37*
%TD.AperFunction*%
%TD*%
%TO.P,R9,2*%
%TO.N,Net-(Q5-Pad2)*%
%TA.AperFunction,SMDPad,CuDef*%
G36*
G01*
X131820001Y-94468001D02*
X131820001Y-93218001D01*
G75*
G02*
X132070001Y-92968001I250000J0D01*
G01*
X132995001Y-92968001D01*
G75*
G02*
X133245001Y-93218001I0J-250000D01*
G01*
X133245001Y-94468001D01*
G75*
G02*
X132995001Y-94718001I-250000J0D01*
G01*
X132070001Y-94718001D01*
G75*
G02*
X131820001Y-94468001I0J250000D01*
G01*
G37*
%TD.AperFunction*%
%TO.P,R9,1*%
%TO.N,/ADC2_ACC*%
%TA.AperFunction,SMDPad,CuDef*%
G36*
G01*
X128845001Y-94468001D02*
X128845001Y-93218001D01*
G75*
G02*
X129095001Y-92968001I250000J0D01*
G01*
X130020001Y-92968001D01*
G75*
G02*
X130270001Y-93218001I0J-250000D01*
G01*
X130270001Y-94468001D01*
G75*
G02*
X130020001Y-94718001I-250000J0D01*
G01*
X129095001Y-94718001D01*
G75*
G02*
X128845001Y-94468001I0J250000D01*
G01*
G37*
%TD.AperFunction*%
%TD*%
%TO.P,R10,2*%
%TO.N,/ADC1_VIN*%
%TA.AperFunction,SMDPad,CuDef*%
G36*
G01*
X126970001Y-112238001D02*
X126970001Y-110988001D01*
G75*
G02*
X127220001Y-110738001I250000J0D01*
G01*
X128145001Y-110738001D01*
G75*
G02*
X128395001Y-110988001I0J-250000D01*
G01*
X128395001Y-112238001D01*
G75*
G02*
X128145001Y-112488001I-250000J0D01*
G01*
X127220001Y-112488001D01*
G75*
G02*
X126970001Y-112238001I0J250000D01*
G01*
G37*
%TD.AperFunction*%
%TO.P,R10,1*%
%TO.N,GND*%
%TA.AperFunction,SMDPad,CuDef*%
G36*
G01*
X123995001Y-112238001D02*
X123995001Y-110988001D01*
G75*
G02*
X124245001Y-110738001I250000J0D01*
G01*
X125170001Y-110738001D01*
G75*
G02*
X125420001Y-110988001I0J-250000D01*
G01*
X125420001Y-112238001D01*
G75*
G02*
X125170001Y-112488001I-250000J0D01*
G01*
X124245001Y-112488001D01*
G75*
G02*
X123995001Y-112238001I0J250000D01*
G01*
G37*
%TD.AperFunction*%
%TD*%
%TO.P,R11,1*%
%TO.N,GND*%
%TA.AperFunction,SMDPad,CuDef*%
G36*
G01*
X134795001Y-102368001D02*
X134795001Y-101118001D01*
G75*
G02*
X135045001Y-100868001I250000J0D01*
G01*
X135970001Y-100868001D01*
G75*
G02*
X136220001Y-101118001I0J-250000D01*
G01*
X136220001Y-102368001D01*
G75*
G02*
X135970001Y-102618001I-250000J0D01*
G01*
X135045001Y-102618001D01*
G75*
G02*
X134795001Y-102368001I0J250000D01*
G01*
G37*
%TD.AperFunction*%
%TO.P,R11,2*%
%TO.N,/ADC2_ACC*%
%TA.AperFunction,SMDPad,CuDef*%
G36*
G01*
X137770001Y-102368001D02*
X137770001Y-101118001D01*
G75*
G02*
X138020001Y-100868001I250000J0D01*
G01*
X138945001Y-100868001D01*
G75*
G02*
X139195001Y-101118001I0J-250000D01*
G01*
X139195001Y-102368001D01*
G75*
G02*
X138945001Y-102618001I-250000J0D01*
G01*
X138020001Y-102618001D01*
G75*
G02*
X137770001Y-102368001I0J250000D01*
G01*
G37*
%TD.AperFunction*%
%TD*%
%TO.P,R12,1*%
%TO.N,/JST_RX*%
%TA.AperFunction,SMDPad,CuDef*%
G36*
G01*
X167895001Y-69538001D02*
X167895001Y-68288001D01*
G75*
G02*
X168145001Y-68038001I250000J0D01*
G01*
X169070001Y-68038001D01*
G75*
G02*
X169320001Y-68288001I0J-250000D01*
G01*
X169320001Y-69538001D01*
G75*
G02*
X169070001Y-69788001I-250000J0D01*
G01*
X168145001Y-69788001D01*
G75*
G02*
X167895001Y-69538001I0J250000D01*
G01*
G37*
%TD.AperFunction*%
%TO.P,R12,2*%
%TO.N,/AVR_TX*%
%TA.AperFunction,SMDPad,CuDef*%
G36*
G01*
X170870001Y-69538001D02*
X170870001Y-68288001D01*
G75*
G02*
X171120001Y-68038001I250000J0D01*
G01*
X172045001Y-68038001D01*
G75*
G02*
X172295001Y-68288001I0J-250000D01*
G01*
X172295001Y-69538001D01*
G75*
G02*
X172045001Y-69788001I-250000J0D01*
G01*
X171120001Y-69788001D01*
G75*
G02*
X170870001Y-69538001I0J250000D01*
G01*
G37*
%TD.AperFunction*%
%TD*%
%TO.P,R13,2*%
%TO.N,/AVR_TX*%
%TA.AperFunction,SMDPad,CuDef*%
G36*
G01*
X156870001Y-74828001D02*
X156870001Y-73578001D01*
G75*
G02*
X157120001Y-73328001I250000J0D01*
G01*
X158045001Y-73328001D01*
G75*
G02*
X158295001Y-73578001I0J-250000D01*
G01*
X158295001Y-74828001D01*
G75*
G02*
X158045001Y-75078001I-250000J0D01*
G01*
X157120001Y-75078001D01*
G75*
G02*
X156870001Y-74828001I0J250000D01*
G01*
G37*
%TD.AperFunction*%
%TO.P,R13,1*%
%TO.N,/JST_RX*%
%TA.AperFunction,SMDPad,CuDef*%
G36*
G01*
X153895001Y-74828001D02*
X153895001Y-73578001D01*
G75*
G02*
X154145001Y-73328001I250000J0D01*
G01*
X155070001Y-73328001D01*
G75*
G02*
X155320001Y-73578001I0J-250000D01*
G01*
X155320001Y-74828001D01*
G75*
G02*
X155070001Y-75078001I-250000J0D01*
G01*
X154145001Y-75078001D01*
G75*
G02*
X153895001Y-74828001I0J250000D01*
G01*
G37*
%TD.AperFunction*%
%TD*%
%TO.P,R14,1*%
%TO.N,/JST_TX*%
%TA.AperFunction,SMDPad,CuDef*%
G36*
G01*
X159845001Y-78118001D02*
X159845001Y-76868001D01*
G75*
G02*
X160095001Y-76618001I250000J0D01*
G01*
X161020001Y-76618001D01*
G75*
G02*
X161270001Y-76868001I0J-250000D01*
G01*
X161270001Y-78118001D01*
G75*
G02*
X161020001Y-78368001I-250000J0D01*
G01*
X160095001Y-78368001D01*
G75*
G02*
X159845001Y-78118001I0J250000D01*
G01*
G37*
%TD.AperFunction*%
%TO.P,R14,2*%
%TO.N,/AVR_RX*%
%TA.AperFunction,SMDPad,CuDef*%
G36*
G01*
X162820001Y-78118001D02*
X162820001Y-76868001D01*
G75*
G02*
X163070001Y-76618001I250000J0D01*
G01*
X163995001Y-76618001D01*
G75*
G02*
X164245001Y-76868001I0J-250000D01*
G01*
X164245001Y-78118001D01*
G75*
G02*
X163995001Y-78368001I-250000J0D01*
G01*
X163070001Y-78368001D01*
G75*
G02*
X162820001Y-78118001I0J250000D01*
G01*
G37*
%TD.AperFunction*%
%TD*%
%TO.P,R15,2*%
%TO.N,/AVR_RX*%
%TA.AperFunction,SMDPad,CuDef*%
G36*
G01*
X164920001Y-70278001D02*
X164920001Y-69028001D01*
G75*
G02*
X165170001Y-68778001I250000J0D01*
G01*
X166095001Y-68778001D01*
G75*
G02*
X166345001Y-69028001I0J-250000D01*
G01*
X166345001Y-70278001D01*
G75*
G02*
X166095001Y-70528001I-250000J0D01*
G01*
X165170001Y-70528001D01*
G75*
G02*
X164920001Y-70278001I0J250000D01*
G01*
G37*
%TD.AperFunction*%
%TO.P,R15,1*%
%TO.N,/JST_TX*%
%TA.AperFunction,SMDPad,CuDef*%
G36*
G01*
X161945001Y-70278001D02*
X161945001Y-69028001D01*
G75*
G02*
X162195001Y-68778001I250000J0D01*
G01*
X163120001Y-68778001D01*
G75*
G02*
X163370001Y-69028001I0J-250000D01*
G01*
X163370001Y-70278001D01*
G75*
G02*
X163120001Y-70528001I-250000J0D01*
G01*
X162195001Y-70528001D01*
G75*
G02*
X161945001Y-70278001I0J250000D01*
G01*
G37*
%TD.AperFunction*%
%TD*%
M02*
