%TF.GenerationSoftware,KiCad,Pcbnew,(5.1.6)-1*%
%TF.CreationDate,2020-09-02T10:45:19+09:00*%
%TF.ProjectId,attiny1614_accsupervisor,61747469-6e79-4313-9631-345f61636373,r01*%
%TF.SameCoordinates,Original*%
%TF.FileFunction,Copper,L1,Top*%
%TF.FilePolarity,Positive*%
%FSLAX46Y46*%
G04 Gerber Fmt 4.6, Leading zero omitted, Abs format (unit mm)*
G04 Created by KiCad (PCBNEW (5.1.6)-1) date 2020-09-02 10:45:19*
%MOMM*%
%LPD*%
G01*
G04 APERTURE LIST*
%TA.AperFunction,ComponentPad*%
%ADD10C,3.000000*%
%TD*%
%TA.AperFunction,SMDPad,CuDef*%
%ADD11R,2.500000X2.500000*%
%TD*%
%TA.AperFunction,ComponentPad*%
%ADD12O,2.000000X3.600000*%
%TD*%
%TA.AperFunction,ComponentPad*%
%ADD13R,2.600000X2.600000*%
%TD*%
%TA.AperFunction,ComponentPad*%
%ADD14C,2.600000*%
%TD*%
%TA.AperFunction,ComponentPad*%
%ADD15R,1.700000X1.700000*%
%TD*%
%TA.AperFunction,ComponentPad*%
%ADD16O,1.700000X1.700000*%
%TD*%
%TA.AperFunction,ComponentPad*%
%ADD17R,2.500000X2.500000*%
%TD*%
%TA.AperFunction,ComponentPad*%
%ADD18O,2.500000X2.500000*%
%TD*%
%TA.AperFunction,ViaPad*%
%ADD19C,0.800000*%
%TD*%
%TA.AperFunction,Conductor*%
%ADD20C,0.750000*%
%TD*%
%TA.AperFunction,Conductor*%
%ADD21C,5.000000*%
%TD*%
%TA.AperFunction,Conductor*%
%ADD22C,1.000000*%
%TD*%
%TA.AperFunction,Conductor*%
%ADD23C,0.254000*%
%TD*%
G04 APERTURE END LIST*
%TO.P,C1,1*%
%TO.N,/12V*%
%TA.AperFunction,SMDPad,CuDef*%
G36*
G01*
X223712500Y-72875000D02*
X223712500Y-74125000D01*
G75*
G02*
X223462500Y-74375000I-250000J0D01*
G01*
X222537500Y-74375000D01*
G75*
G02*
X222287500Y-74125000I0J250000D01*
G01*
X222287500Y-72875000D01*
G75*
G02*
X222537500Y-72625000I250000J0D01*
G01*
X223462500Y-72625000D01*
G75*
G02*
X223712500Y-72875000I0J-250000D01*
G01*
G37*
%TD.AperFunction*%
%TO.P,C1,2*%
%TO.N,GND*%
%TA.AperFunction,SMDPad,CuDef*%
G36*
G01*
X220737500Y-72875000D02*
X220737500Y-74125000D01*
G75*
G02*
X220487500Y-74375000I-250000J0D01*
G01*
X219562500Y-74375000D01*
G75*
G02*
X219312500Y-74125000I0J250000D01*
G01*
X219312500Y-72875000D01*
G75*
G02*
X219562500Y-72625000I250000J0D01*
G01*
X220487500Y-72625000D01*
G75*
G02*
X220737500Y-72875000I0J-250000D01*
G01*
G37*
%TD.AperFunction*%
%TD*%
%TO.P,C2,2*%
%TO.N,GND*%
%TA.AperFunction,SMDPad,CuDef*%
G36*
G01*
X213275000Y-93125000D02*
X213275000Y-91875000D01*
G75*
G02*
X213525000Y-91625000I250000J0D01*
G01*
X214450000Y-91625000D01*
G75*
G02*
X214700000Y-91875000I0J-250000D01*
G01*
X214700000Y-93125000D01*
G75*
G02*
X214450000Y-93375000I-250000J0D01*
G01*
X213525000Y-93375000D01*
G75*
G02*
X213275000Y-93125000I0J250000D01*
G01*
G37*
%TD.AperFunction*%
%TO.P,C2,1*%
%TO.N,/3V3*%
%TA.AperFunction,SMDPad,CuDef*%
G36*
G01*
X210300000Y-93125000D02*
X210300000Y-91875000D01*
G75*
G02*
X210550000Y-91625000I250000J0D01*
G01*
X211475000Y-91625000D01*
G75*
G02*
X211725000Y-91875000I0J-250000D01*
G01*
X211725000Y-93125000D01*
G75*
G02*
X211475000Y-93375000I-250000J0D01*
G01*
X210550000Y-93375000D01*
G75*
G02*
X210300000Y-93125000I0J250000D01*
G01*
G37*
%TD.AperFunction*%
%TD*%
D10*
%TO.P,F1,1*%
%TO.N,/12V_IN*%
X226000000Y-52500000D03*
%TO.P,F1,2*%
%TO.N,/12V*%
X206000000Y-52500000D03*
%TD*%
%TO.P,F2,2*%
%TO.N,/ACC*%
X242000000Y-84000000D03*
%TO.P,F2,1*%
%TO.N,/ACC_IN*%
X242000000Y-64000000D03*
%TD*%
D11*
%TO.P,J1,1*%
%TO.N,/12V*%
X223000000Y-78000000D03*
%TO.P,J1,2*%
%TO.N,GND*%
X223000000Y-89000000D03*
%TO.P,J1,3*%
%TO.N,/3V3*%
X211000000Y-89000000D03*
%TO.P,J1,4*%
%TO.N,N/C*%
X211000000Y-78000000D03*
%TD*%
%TO.P,J2,1*%
%TO.N,/12V_IN*%
%TA.AperFunction,ComponentPad*%
G36*
G01*
X244000000Y-56450000D02*
X244000000Y-59550000D01*
G75*
G02*
X243750000Y-59800000I-250000J0D01*
G01*
X242250000Y-59800000D01*
G75*
G02*
X242000000Y-59550000I0J250000D01*
G01*
X242000000Y-56450000D01*
G75*
G02*
X242250000Y-56200000I250000J0D01*
G01*
X243750000Y-56200000D01*
G75*
G02*
X244000000Y-56450000I0J-250000D01*
G01*
G37*
%TD.AperFunction*%
D12*
%TO.P,J2,2*%
%TO.N,/ACC_IN*%
X238000000Y-58000000D03*
%TO.P,J2,3*%
%TO.N,GND*%
X233000000Y-58000000D03*
%TD*%
D13*
%TO.P,J3,1*%
%TO.N,/JST_12V*%
X199000000Y-53000000D03*
D14*
%TO.P,J3,2*%
%TO.N,GND*%
X194000000Y-53000000D03*
%TD*%
D15*
%TO.P,J4,1*%
%TO.N,N/C*%
X243130000Y-96630000D03*
D16*
%TO.P,J4,2*%
X243130000Y-99170000D03*
%TO.P,J4,3*%
X240590000Y-96630000D03*
%TO.P,J4,4*%
X240590000Y-99170000D03*
%TO.P,J4,5*%
X238050000Y-96630000D03*
%TO.P,J4,6*%
%TO.N,GND*%
X238050000Y-99170000D03*
%TO.P,J4,7*%
%TO.N,N/C*%
X235510000Y-96630000D03*
%TO.P,J4,8*%
%TO.N,/JST_TX*%
X235510000Y-99170000D03*
%TO.P,J4,9*%
%TO.N,GND*%
X232970000Y-96630000D03*
%TO.P,J4,10*%
%TO.N,/JST_RX*%
X232970000Y-99170000D03*
%TO.P,J4,11*%
%TO.N,N/C*%
X230430000Y-96630000D03*
%TO.P,J4,12*%
X230430000Y-99170000D03*
%TO.P,J4,13*%
X227890000Y-96630000D03*
%TO.P,J4,14*%
%TO.N,GND*%
X227890000Y-99170000D03*
%TO.P,J4,15*%
%TO.N,N/C*%
X225350000Y-96630000D03*
%TO.P,J4,16*%
X225350000Y-99170000D03*
%TO.P,J4,17*%
X222810000Y-96630000D03*
%TO.P,J4,18*%
X222810000Y-99170000D03*
%TO.P,J4,19*%
X220270000Y-96630000D03*
%TO.P,J4,20*%
%TO.N,GND*%
X220270000Y-99170000D03*
%TO.P,J4,21*%
%TO.N,N/C*%
X217730000Y-96630000D03*
%TO.P,J4,22*%
X217730000Y-99170000D03*
%TO.P,J4,23*%
X215190000Y-96630000D03*
%TO.P,J4,24*%
X215190000Y-99170000D03*
%TO.P,J4,25*%
%TO.N,GND*%
X212650000Y-96630000D03*
%TO.P,J4,26*%
%TO.N,N/C*%
X212650000Y-99170000D03*
%TO.P,J4,27*%
X210110000Y-96630000D03*
%TO.P,J4,28*%
X210110000Y-99170000D03*
%TO.P,J4,29*%
X207570000Y-96630000D03*
%TO.P,J4,30*%
%TO.N,GND*%
X207570000Y-99170000D03*
%TO.P,J4,31*%
%TO.N,N/C*%
X205030000Y-96630000D03*
%TO.P,J4,32*%
X205030000Y-99170000D03*
%TO.P,J4,33*%
X202490000Y-96630000D03*
%TO.P,J4,34*%
%TO.N,GND*%
X202490000Y-99170000D03*
%TO.P,J4,35*%
%TO.N,N/C*%
X199950000Y-96630000D03*
%TO.P,J4,36*%
X199950000Y-99170000D03*
%TO.P,J4,37*%
X197410000Y-96630000D03*
%TO.P,J4,38*%
X197410000Y-99170000D03*
%TO.P,J4,39*%
%TO.N,GND*%
X194870000Y-96630000D03*
%TO.P,J4,40*%
%TO.N,N/C*%
X194870000Y-99170000D03*
%TD*%
D15*
%TO.P,J5,1*%
%TO.N,/UPDI_DATA*%
X199000000Y-87000000D03*
D16*
%TO.P,J5,2*%
%TO.N,/3V3*%
X199000000Y-89540000D03*
%TO.P,J5,3*%
%TO.N,N/C*%
X196460000Y-87000000D03*
%TO.P,J5,4*%
X196460000Y-89540000D03*
%TO.P,J5,5*%
X193920000Y-87000000D03*
%TO.P,J5,6*%
%TO.N,GND*%
X193920000Y-89540000D03*
%TD*%
D17*
%TO.P,K1,1*%
%TO.N,/12V*%
X212000000Y-66000000D03*
D18*
%TO.P,K1,2*%
%TO.N,Net-(D1-Pad2)*%
X210000000Y-60000000D03*
%TO.P,K1,3*%
%TO.N,/JST_12V*%
X197800000Y-60000000D03*
%TO.P,K1,4*%
%TO.N,N/C*%
X197800000Y-72000000D03*
%TO.P,K1,5*%
%TO.N,/12V*%
X210000000Y-72000000D03*
%TD*%
D19*
%TO.N,GND*%
X198500000Y-80500000D03*
X195000000Y-79500000D03*
X197000000Y-79500000D03*
X198000000Y-79500000D03*
X194500000Y-80500000D03*
X195500000Y-80500000D03*
X198000000Y-81500000D03*
X195000000Y-81500000D03*
X194000000Y-81500000D03*
X196000000Y-79500000D03*
X194000000Y-79500000D03*
X196500000Y-80500000D03*
X196000000Y-81500000D03*
X197500000Y-80500000D03*
X197000000Y-81500000D03*
X197000000Y-77500000D03*
X196000000Y-77500000D03*
X197500000Y-78500000D03*
X194000000Y-77500000D03*
X195000000Y-77500000D03*
X198000000Y-77500000D03*
X195500000Y-78500000D03*
X196500000Y-78500000D03*
X194500000Y-78500000D03*
X198500000Y-78500000D03*
X201000000Y-85000000D03*
X202000000Y-85000000D03*
X201500000Y-86000000D03*
X201500000Y-87000000D03*
X206500000Y-85500000D03*
X206500000Y-86500000D03*
X209500000Y-84000000D03*
X208500000Y-84000000D03*
X213000000Y-83000000D03*
X213000000Y-84000000D03*
X213000000Y-85000000D03*
X213000000Y-86000000D03*
X215500000Y-93000000D03*
X216000000Y-92500000D03*
X216500000Y-93000000D03*
X217000000Y-92500000D03*
X217500000Y-93000000D03*
X234500000Y-69500000D03*
X235500000Y-69500000D03*
X236500000Y-69500000D03*
X237500000Y-69500000D03*
X238500000Y-69500000D03*
X235000000Y-70500000D03*
X236000000Y-70500000D03*
X237000000Y-70500000D03*
X238000000Y-70500000D03*
X239000000Y-70500000D03*
X234500000Y-71500000D03*
X235500000Y-71500000D03*
X236500000Y-71500000D03*
X237500000Y-71500000D03*
X238500000Y-71500000D03*
X235000000Y-72500000D03*
X236000000Y-72500000D03*
X237000000Y-72500000D03*
X238000000Y-72500000D03*
X239000000Y-72500000D03*
X234500000Y-73500000D03*
X235500000Y-73500000D03*
X236500000Y-73500000D03*
X237500000Y-73500000D03*
X238500000Y-73500000D03*
X218500000Y-51000000D03*
X219500000Y-51000000D03*
X220500000Y-51000000D03*
X219000000Y-52000000D03*
X220000000Y-52000000D03*
X219500000Y-53000000D03*
X220500000Y-53000000D03*
X221000000Y-52000000D03*
X221500000Y-53000000D03*
X232500000Y-86500000D03*
X233500000Y-86500000D03*
X234500000Y-86500000D03*
X235500000Y-86500000D03*
X236500000Y-86500000D03*
X233000000Y-87500000D03*
X234000000Y-87500000D03*
X235000000Y-87500000D03*
X236000000Y-87500000D03*
X237000000Y-87500000D03*
X237500000Y-86500000D03*
X238000000Y-87500000D03*
X238500000Y-86500000D03*
X239000000Y-87500000D03*
%TD*%
D20*
%TO.N,/12V*%
X223000000Y-78000000D02*
X223000000Y-73500000D01*
D21*
X206000000Y-52500000D02*
X212000000Y-52500000D01*
X212000000Y-52500000D02*
X214500000Y-55000000D01*
X214500000Y-63500000D02*
X212000000Y-66000000D01*
X214500000Y-55000000D02*
X214500000Y-63500000D01*
D22*
X210000000Y-68000000D02*
X212000000Y-66000000D01*
X210000000Y-72000000D02*
X210000000Y-68000000D01*
D20*
X223000000Y-73500000D02*
X223000000Y-69000000D01*
X223000000Y-69000000D02*
X222500000Y-68500000D01*
X214500000Y-68500000D02*
X212000000Y-66000000D01*
X222500000Y-68500000D02*
X214500000Y-68500000D01*
%TO.N,/3V3*%
X211000000Y-92487500D02*
X211012500Y-92500000D01*
X211000000Y-89000000D02*
X211000000Y-92487500D01*
X210460000Y-89540000D02*
X211000000Y-89000000D01*
X199000000Y-89540000D02*
X210460000Y-89540000D01*
D21*
%TO.N,/12V_IN*%
X239300000Y-52500000D02*
X226000000Y-52500000D01*
X243000000Y-56200000D02*
X239300000Y-52500000D01*
X243000000Y-58000000D02*
X243000000Y-56200000D01*
D22*
%TO.N,/ACC_IN*%
X238000000Y-60000000D02*
X242000000Y-64000000D01*
X238000000Y-58000000D02*
X238000000Y-60000000D01*
D21*
%TO.N,/JST_12V*%
X199000000Y-58800000D02*
X197800000Y-60000000D01*
X199000000Y-53000000D02*
X199000000Y-58800000D01*
%TD*%
D23*
%TO.N,GND*%
G36*
X246873000Y-103873000D02*
G01*
X191127000Y-103873000D01*
X191127000Y-99023740D01*
X193385000Y-99023740D01*
X193385000Y-99316260D01*
X193442068Y-99603158D01*
X193554010Y-99873411D01*
X193716525Y-100116632D01*
X193923368Y-100323475D01*
X194166589Y-100485990D01*
X194436842Y-100597932D01*
X194723740Y-100655000D01*
X195016260Y-100655000D01*
X195303158Y-100597932D01*
X195573411Y-100485990D01*
X195816632Y-100323475D01*
X196023475Y-100116632D01*
X196140000Y-99942240D01*
X196256525Y-100116632D01*
X196463368Y-100323475D01*
X196706589Y-100485990D01*
X196976842Y-100597932D01*
X197263740Y-100655000D01*
X197556260Y-100655000D01*
X197843158Y-100597932D01*
X198113411Y-100485990D01*
X198356632Y-100323475D01*
X198563475Y-100116632D01*
X198680000Y-99942240D01*
X198796525Y-100116632D01*
X199003368Y-100323475D01*
X199246589Y-100485990D01*
X199516842Y-100597932D01*
X199803740Y-100655000D01*
X200096260Y-100655000D01*
X200383158Y-100597932D01*
X200653411Y-100485990D01*
X200896632Y-100323475D01*
X201103475Y-100116632D01*
X201265990Y-99873411D01*
X201377932Y-99603158D01*
X201435000Y-99316260D01*
X201435000Y-99023740D01*
X201377932Y-98736842D01*
X201265990Y-98466589D01*
X201103475Y-98223368D01*
X200896632Y-98016525D01*
X200722240Y-97900000D01*
X200896632Y-97783475D01*
X201103475Y-97576632D01*
X201220000Y-97402240D01*
X201336525Y-97576632D01*
X201543368Y-97783475D01*
X201786589Y-97945990D01*
X202056842Y-98057932D01*
X202343740Y-98115000D01*
X202636260Y-98115000D01*
X202923158Y-98057932D01*
X203193411Y-97945990D01*
X203436632Y-97783475D01*
X203643475Y-97576632D01*
X203760000Y-97402240D01*
X203876525Y-97576632D01*
X204083368Y-97783475D01*
X204257760Y-97900000D01*
X204083368Y-98016525D01*
X203876525Y-98223368D01*
X203714010Y-98466589D01*
X203602068Y-98736842D01*
X203545000Y-99023740D01*
X203545000Y-99316260D01*
X203602068Y-99603158D01*
X203714010Y-99873411D01*
X203876525Y-100116632D01*
X204083368Y-100323475D01*
X204326589Y-100485990D01*
X204596842Y-100597932D01*
X204883740Y-100655000D01*
X205176260Y-100655000D01*
X205463158Y-100597932D01*
X205733411Y-100485990D01*
X205976632Y-100323475D01*
X206183475Y-100116632D01*
X206345990Y-99873411D01*
X206457932Y-99603158D01*
X206515000Y-99316260D01*
X206515000Y-99023740D01*
X206457932Y-98736842D01*
X206345990Y-98466589D01*
X206183475Y-98223368D01*
X205976632Y-98016525D01*
X205802240Y-97900000D01*
X205976632Y-97783475D01*
X206183475Y-97576632D01*
X206300000Y-97402240D01*
X206416525Y-97576632D01*
X206623368Y-97783475D01*
X206866589Y-97945990D01*
X207136842Y-98057932D01*
X207423740Y-98115000D01*
X207716260Y-98115000D01*
X208003158Y-98057932D01*
X208273411Y-97945990D01*
X208516632Y-97783475D01*
X208723475Y-97576632D01*
X208840000Y-97402240D01*
X208956525Y-97576632D01*
X209163368Y-97783475D01*
X209337760Y-97900000D01*
X209163368Y-98016525D01*
X208956525Y-98223368D01*
X208794010Y-98466589D01*
X208682068Y-98736842D01*
X208625000Y-99023740D01*
X208625000Y-99316260D01*
X208682068Y-99603158D01*
X208794010Y-99873411D01*
X208956525Y-100116632D01*
X209163368Y-100323475D01*
X209406589Y-100485990D01*
X209676842Y-100597932D01*
X209963740Y-100655000D01*
X210256260Y-100655000D01*
X210543158Y-100597932D01*
X210813411Y-100485990D01*
X211056632Y-100323475D01*
X211263475Y-100116632D01*
X211380000Y-99942240D01*
X211496525Y-100116632D01*
X211703368Y-100323475D01*
X211946589Y-100485990D01*
X212216842Y-100597932D01*
X212503740Y-100655000D01*
X212796260Y-100655000D01*
X213083158Y-100597932D01*
X213353411Y-100485990D01*
X213596632Y-100323475D01*
X213803475Y-100116632D01*
X213920000Y-99942240D01*
X214036525Y-100116632D01*
X214243368Y-100323475D01*
X214486589Y-100485990D01*
X214756842Y-100597932D01*
X215043740Y-100655000D01*
X215336260Y-100655000D01*
X215623158Y-100597932D01*
X215893411Y-100485990D01*
X216136632Y-100323475D01*
X216343475Y-100116632D01*
X216460000Y-99942240D01*
X216576525Y-100116632D01*
X216783368Y-100323475D01*
X217026589Y-100485990D01*
X217296842Y-100597932D01*
X217583740Y-100655000D01*
X217876260Y-100655000D01*
X218163158Y-100597932D01*
X218433411Y-100485990D01*
X218676632Y-100323475D01*
X218883475Y-100116632D01*
X219045990Y-99873411D01*
X219157932Y-99603158D01*
X219215000Y-99316260D01*
X219215000Y-99023740D01*
X219157932Y-98736842D01*
X219045990Y-98466589D01*
X218883475Y-98223368D01*
X218676632Y-98016525D01*
X218502240Y-97900000D01*
X218676632Y-97783475D01*
X218883475Y-97576632D01*
X219000000Y-97402240D01*
X219116525Y-97576632D01*
X219323368Y-97783475D01*
X219566589Y-97945990D01*
X219836842Y-98057932D01*
X220123740Y-98115000D01*
X220416260Y-98115000D01*
X220703158Y-98057932D01*
X220973411Y-97945990D01*
X221216632Y-97783475D01*
X221423475Y-97576632D01*
X221540000Y-97402240D01*
X221656525Y-97576632D01*
X221863368Y-97783475D01*
X222037760Y-97900000D01*
X221863368Y-98016525D01*
X221656525Y-98223368D01*
X221494010Y-98466589D01*
X221382068Y-98736842D01*
X221325000Y-99023740D01*
X221325000Y-99316260D01*
X221382068Y-99603158D01*
X221494010Y-99873411D01*
X221656525Y-100116632D01*
X221863368Y-100323475D01*
X222106589Y-100485990D01*
X222376842Y-100597932D01*
X222663740Y-100655000D01*
X222956260Y-100655000D01*
X223243158Y-100597932D01*
X223513411Y-100485990D01*
X223756632Y-100323475D01*
X223963475Y-100116632D01*
X224080000Y-99942240D01*
X224196525Y-100116632D01*
X224403368Y-100323475D01*
X224646589Y-100485990D01*
X224916842Y-100597932D01*
X225203740Y-100655000D01*
X225496260Y-100655000D01*
X225783158Y-100597932D01*
X226053411Y-100485990D01*
X226296632Y-100323475D01*
X226503475Y-100116632D01*
X226665990Y-99873411D01*
X226777932Y-99603158D01*
X226835000Y-99316260D01*
X226835000Y-99023740D01*
X226777932Y-98736842D01*
X226665990Y-98466589D01*
X226503475Y-98223368D01*
X226296632Y-98016525D01*
X226122240Y-97900000D01*
X226296632Y-97783475D01*
X226503475Y-97576632D01*
X226620000Y-97402240D01*
X226736525Y-97576632D01*
X226943368Y-97783475D01*
X227186589Y-97945990D01*
X227456842Y-98057932D01*
X227743740Y-98115000D01*
X228036260Y-98115000D01*
X228323158Y-98057932D01*
X228593411Y-97945990D01*
X228836632Y-97783475D01*
X229043475Y-97576632D01*
X229160000Y-97402240D01*
X229276525Y-97576632D01*
X229483368Y-97783475D01*
X229657760Y-97900000D01*
X229483368Y-98016525D01*
X229276525Y-98223368D01*
X229114010Y-98466589D01*
X229002068Y-98736842D01*
X228945000Y-99023740D01*
X228945000Y-99316260D01*
X229002068Y-99603158D01*
X229114010Y-99873411D01*
X229276525Y-100116632D01*
X229483368Y-100323475D01*
X229726589Y-100485990D01*
X229996842Y-100597932D01*
X230283740Y-100655000D01*
X230576260Y-100655000D01*
X230863158Y-100597932D01*
X231133411Y-100485990D01*
X231376632Y-100323475D01*
X231583475Y-100116632D01*
X231700000Y-99942240D01*
X231816525Y-100116632D01*
X232023368Y-100323475D01*
X232266589Y-100485990D01*
X232536842Y-100597932D01*
X232823740Y-100655000D01*
X233116260Y-100655000D01*
X233403158Y-100597932D01*
X233673411Y-100485990D01*
X233916632Y-100323475D01*
X234123475Y-100116632D01*
X234240000Y-99942240D01*
X234356525Y-100116632D01*
X234563368Y-100323475D01*
X234806589Y-100485990D01*
X235076842Y-100597932D01*
X235363740Y-100655000D01*
X235656260Y-100655000D01*
X235943158Y-100597932D01*
X236213411Y-100485990D01*
X236456632Y-100323475D01*
X236663475Y-100116632D01*
X236825990Y-99873411D01*
X236937932Y-99603158D01*
X236995000Y-99316260D01*
X236995000Y-99023740D01*
X236937932Y-98736842D01*
X236825990Y-98466589D01*
X236663475Y-98223368D01*
X236456632Y-98016525D01*
X236282240Y-97900000D01*
X236456632Y-97783475D01*
X236663475Y-97576632D01*
X236780000Y-97402240D01*
X236896525Y-97576632D01*
X237103368Y-97783475D01*
X237346589Y-97945990D01*
X237616842Y-98057932D01*
X237903740Y-98115000D01*
X238196260Y-98115000D01*
X238483158Y-98057932D01*
X238753411Y-97945990D01*
X238996632Y-97783475D01*
X239203475Y-97576632D01*
X239320000Y-97402240D01*
X239436525Y-97576632D01*
X239643368Y-97783475D01*
X239817760Y-97900000D01*
X239643368Y-98016525D01*
X239436525Y-98223368D01*
X239274010Y-98466589D01*
X239162068Y-98736842D01*
X239105000Y-99023740D01*
X239105000Y-99316260D01*
X239162068Y-99603158D01*
X239274010Y-99873411D01*
X239436525Y-100116632D01*
X239643368Y-100323475D01*
X239886589Y-100485990D01*
X240156842Y-100597932D01*
X240443740Y-100655000D01*
X240736260Y-100655000D01*
X241023158Y-100597932D01*
X241293411Y-100485990D01*
X241536632Y-100323475D01*
X241743475Y-100116632D01*
X241860000Y-99942240D01*
X241976525Y-100116632D01*
X242183368Y-100323475D01*
X242426589Y-100485990D01*
X242696842Y-100597932D01*
X242983740Y-100655000D01*
X243276260Y-100655000D01*
X243563158Y-100597932D01*
X243833411Y-100485990D01*
X244076632Y-100323475D01*
X244283475Y-100116632D01*
X244445990Y-99873411D01*
X244557932Y-99603158D01*
X244615000Y-99316260D01*
X244615000Y-99023740D01*
X244557932Y-98736842D01*
X244445990Y-98466589D01*
X244283475Y-98223368D01*
X244151620Y-98091513D01*
X244224180Y-98069502D01*
X244334494Y-98010537D01*
X244431185Y-97931185D01*
X244510537Y-97834494D01*
X244569502Y-97724180D01*
X244605812Y-97604482D01*
X244618072Y-97480000D01*
X244618072Y-95780000D01*
X244605812Y-95655518D01*
X244569502Y-95535820D01*
X244510537Y-95425506D01*
X244431185Y-95328815D01*
X244334494Y-95249463D01*
X244224180Y-95190498D01*
X244104482Y-95154188D01*
X243980000Y-95141928D01*
X242280000Y-95141928D01*
X242155518Y-95154188D01*
X242035820Y-95190498D01*
X241925506Y-95249463D01*
X241828815Y-95328815D01*
X241749463Y-95425506D01*
X241690498Y-95535820D01*
X241668487Y-95608380D01*
X241536632Y-95476525D01*
X241293411Y-95314010D01*
X241023158Y-95202068D01*
X240736260Y-95145000D01*
X240443740Y-95145000D01*
X240156842Y-95202068D01*
X239886589Y-95314010D01*
X239643368Y-95476525D01*
X239436525Y-95683368D01*
X239320000Y-95857760D01*
X239203475Y-95683368D01*
X238996632Y-95476525D01*
X238753411Y-95314010D01*
X238483158Y-95202068D01*
X238196260Y-95145000D01*
X237903740Y-95145000D01*
X237616842Y-95202068D01*
X237346589Y-95314010D01*
X237103368Y-95476525D01*
X236896525Y-95683368D01*
X236780000Y-95857760D01*
X236663475Y-95683368D01*
X236456632Y-95476525D01*
X236213411Y-95314010D01*
X235943158Y-95202068D01*
X235656260Y-95145000D01*
X235363740Y-95145000D01*
X235076842Y-95202068D01*
X234806589Y-95314010D01*
X234563368Y-95476525D01*
X234356525Y-95683368D01*
X234194010Y-95926589D01*
X234082068Y-96196842D01*
X234025000Y-96483740D01*
X234025000Y-96776260D01*
X234082068Y-97063158D01*
X234194010Y-97333411D01*
X234356525Y-97576632D01*
X234563368Y-97783475D01*
X234737760Y-97900000D01*
X234563368Y-98016525D01*
X234356525Y-98223368D01*
X234240000Y-98397760D01*
X234123475Y-98223368D01*
X233916632Y-98016525D01*
X233673411Y-97854010D01*
X233403158Y-97742068D01*
X233116260Y-97685000D01*
X232823740Y-97685000D01*
X232536842Y-97742068D01*
X232266589Y-97854010D01*
X232023368Y-98016525D01*
X231816525Y-98223368D01*
X231700000Y-98397760D01*
X231583475Y-98223368D01*
X231376632Y-98016525D01*
X231202240Y-97900000D01*
X231376632Y-97783475D01*
X231583475Y-97576632D01*
X231745990Y-97333411D01*
X231857932Y-97063158D01*
X231915000Y-96776260D01*
X231915000Y-96483740D01*
X231857932Y-96196842D01*
X231745990Y-95926589D01*
X231583475Y-95683368D01*
X231376632Y-95476525D01*
X231133411Y-95314010D01*
X230863158Y-95202068D01*
X230576260Y-95145000D01*
X230283740Y-95145000D01*
X229996842Y-95202068D01*
X229726589Y-95314010D01*
X229483368Y-95476525D01*
X229276525Y-95683368D01*
X229160000Y-95857760D01*
X229043475Y-95683368D01*
X228836632Y-95476525D01*
X228593411Y-95314010D01*
X228323158Y-95202068D01*
X228036260Y-95145000D01*
X227743740Y-95145000D01*
X227456842Y-95202068D01*
X227186589Y-95314010D01*
X226943368Y-95476525D01*
X226736525Y-95683368D01*
X226620000Y-95857760D01*
X226503475Y-95683368D01*
X226296632Y-95476525D01*
X226053411Y-95314010D01*
X225783158Y-95202068D01*
X225496260Y-95145000D01*
X225203740Y-95145000D01*
X224916842Y-95202068D01*
X224646589Y-95314010D01*
X224403368Y-95476525D01*
X224196525Y-95683368D01*
X224080000Y-95857760D01*
X223963475Y-95683368D01*
X223756632Y-95476525D01*
X223513411Y-95314010D01*
X223243158Y-95202068D01*
X222956260Y-95145000D01*
X222663740Y-95145000D01*
X222376842Y-95202068D01*
X222106589Y-95314010D01*
X221863368Y-95476525D01*
X221656525Y-95683368D01*
X221540000Y-95857760D01*
X221423475Y-95683368D01*
X221216632Y-95476525D01*
X220973411Y-95314010D01*
X220703158Y-95202068D01*
X220416260Y-95145000D01*
X220123740Y-95145000D01*
X219836842Y-95202068D01*
X219566589Y-95314010D01*
X219323368Y-95476525D01*
X219116525Y-95683368D01*
X219000000Y-95857760D01*
X218883475Y-95683368D01*
X218676632Y-95476525D01*
X218433411Y-95314010D01*
X218163158Y-95202068D01*
X217876260Y-95145000D01*
X217583740Y-95145000D01*
X217296842Y-95202068D01*
X217026589Y-95314010D01*
X216783368Y-95476525D01*
X216576525Y-95683368D01*
X216460000Y-95857760D01*
X216343475Y-95683368D01*
X216136632Y-95476525D01*
X215893411Y-95314010D01*
X215623158Y-95202068D01*
X215336260Y-95145000D01*
X215043740Y-95145000D01*
X214756842Y-95202068D01*
X214486589Y-95314010D01*
X214243368Y-95476525D01*
X214036525Y-95683368D01*
X213874010Y-95926589D01*
X213762068Y-96196842D01*
X213705000Y-96483740D01*
X213705000Y-96776260D01*
X213762068Y-97063158D01*
X213874010Y-97333411D01*
X214036525Y-97576632D01*
X214243368Y-97783475D01*
X214417760Y-97900000D01*
X214243368Y-98016525D01*
X214036525Y-98223368D01*
X213920000Y-98397760D01*
X213803475Y-98223368D01*
X213596632Y-98016525D01*
X213353411Y-97854010D01*
X213083158Y-97742068D01*
X212796260Y-97685000D01*
X212503740Y-97685000D01*
X212216842Y-97742068D01*
X211946589Y-97854010D01*
X211703368Y-98016525D01*
X211496525Y-98223368D01*
X211380000Y-98397760D01*
X211263475Y-98223368D01*
X211056632Y-98016525D01*
X210882240Y-97900000D01*
X211056632Y-97783475D01*
X211263475Y-97576632D01*
X211425990Y-97333411D01*
X211537932Y-97063158D01*
X211595000Y-96776260D01*
X211595000Y-96483740D01*
X211537932Y-96196842D01*
X211425990Y-95926589D01*
X211263475Y-95683368D01*
X211056632Y-95476525D01*
X210813411Y-95314010D01*
X210543158Y-95202068D01*
X210256260Y-95145000D01*
X209963740Y-95145000D01*
X209676842Y-95202068D01*
X209406589Y-95314010D01*
X209163368Y-95476525D01*
X208956525Y-95683368D01*
X208840000Y-95857760D01*
X208723475Y-95683368D01*
X208516632Y-95476525D01*
X208273411Y-95314010D01*
X208003158Y-95202068D01*
X207716260Y-95145000D01*
X207423740Y-95145000D01*
X207136842Y-95202068D01*
X206866589Y-95314010D01*
X206623368Y-95476525D01*
X206416525Y-95683368D01*
X206300000Y-95857760D01*
X206183475Y-95683368D01*
X205976632Y-95476525D01*
X205733411Y-95314010D01*
X205463158Y-95202068D01*
X205176260Y-95145000D01*
X204883740Y-95145000D01*
X204596842Y-95202068D01*
X204326589Y-95314010D01*
X204083368Y-95476525D01*
X203876525Y-95683368D01*
X203760000Y-95857760D01*
X203643475Y-95683368D01*
X203436632Y-95476525D01*
X203193411Y-95314010D01*
X202923158Y-95202068D01*
X202636260Y-95145000D01*
X202343740Y-95145000D01*
X202056842Y-95202068D01*
X201786589Y-95314010D01*
X201543368Y-95476525D01*
X201336525Y-95683368D01*
X201220000Y-95857760D01*
X201103475Y-95683368D01*
X200896632Y-95476525D01*
X200653411Y-95314010D01*
X200383158Y-95202068D01*
X200096260Y-95145000D01*
X199803740Y-95145000D01*
X199516842Y-95202068D01*
X199246589Y-95314010D01*
X199003368Y-95476525D01*
X198796525Y-95683368D01*
X198680000Y-95857760D01*
X198563475Y-95683368D01*
X198356632Y-95476525D01*
X198113411Y-95314010D01*
X197843158Y-95202068D01*
X197556260Y-95145000D01*
X197263740Y-95145000D01*
X196976842Y-95202068D01*
X196706589Y-95314010D01*
X196463368Y-95476525D01*
X196256525Y-95683368D01*
X196094010Y-95926589D01*
X195982068Y-96196842D01*
X195925000Y-96483740D01*
X195925000Y-96776260D01*
X195982068Y-97063158D01*
X196094010Y-97333411D01*
X196256525Y-97576632D01*
X196463368Y-97783475D01*
X196637760Y-97900000D01*
X196463368Y-98016525D01*
X196256525Y-98223368D01*
X196140000Y-98397760D01*
X196023475Y-98223368D01*
X195816632Y-98016525D01*
X195573411Y-97854010D01*
X195303158Y-97742068D01*
X195016260Y-97685000D01*
X194723740Y-97685000D01*
X194436842Y-97742068D01*
X194166589Y-97854010D01*
X193923368Y-98016525D01*
X193716525Y-98223368D01*
X193554010Y-98466589D01*
X193442068Y-98736842D01*
X193385000Y-99023740D01*
X191127000Y-99023740D01*
X191127000Y-86853740D01*
X192435000Y-86853740D01*
X192435000Y-87146260D01*
X192492068Y-87433158D01*
X192604010Y-87703411D01*
X192766525Y-87946632D01*
X192973368Y-88153475D01*
X193216589Y-88315990D01*
X193486842Y-88427932D01*
X193773740Y-88485000D01*
X194066260Y-88485000D01*
X194353158Y-88427932D01*
X194623411Y-88315990D01*
X194866632Y-88153475D01*
X195073475Y-87946632D01*
X195190000Y-87772240D01*
X195306525Y-87946632D01*
X195513368Y-88153475D01*
X195687760Y-88270000D01*
X195513368Y-88386525D01*
X195306525Y-88593368D01*
X195144010Y-88836589D01*
X195032068Y-89106842D01*
X194975000Y-89393740D01*
X194975000Y-89686260D01*
X195032068Y-89973158D01*
X195144010Y-90243411D01*
X195306525Y-90486632D01*
X195513368Y-90693475D01*
X195756589Y-90855990D01*
X196026842Y-90967932D01*
X196313740Y-91025000D01*
X196606260Y-91025000D01*
X196893158Y-90967932D01*
X197163411Y-90855990D01*
X197406632Y-90693475D01*
X197613475Y-90486632D01*
X197730000Y-90312240D01*
X197846525Y-90486632D01*
X198053368Y-90693475D01*
X198296589Y-90855990D01*
X198566842Y-90967932D01*
X198853740Y-91025000D01*
X199146260Y-91025000D01*
X199433158Y-90967932D01*
X199703411Y-90855990D01*
X199946632Y-90693475D01*
X200090107Y-90550000D01*
X209190335Y-90550000D01*
X209219463Y-90604494D01*
X209298815Y-90701185D01*
X209395506Y-90780537D01*
X209505820Y-90839502D01*
X209625518Y-90875812D01*
X209750000Y-90888072D01*
X209990001Y-90888072D01*
X209990001Y-91191263D01*
X209922038Y-91247038D01*
X209811595Y-91381614D01*
X209729528Y-91535150D01*
X209678992Y-91701746D01*
X209661928Y-91875000D01*
X209661928Y-93125000D01*
X209678992Y-93298254D01*
X209729528Y-93464850D01*
X209811595Y-93618386D01*
X209922038Y-93752962D01*
X210056614Y-93863405D01*
X210210150Y-93945472D01*
X210376746Y-93996008D01*
X210550000Y-94013072D01*
X211475000Y-94013072D01*
X211648254Y-93996008D01*
X211814850Y-93945472D01*
X211968386Y-93863405D01*
X212102962Y-93752962D01*
X212213405Y-93618386D01*
X212295472Y-93464850D01*
X212346008Y-93298254D01*
X212363072Y-93125000D01*
X212363072Y-91875000D01*
X212346008Y-91701746D01*
X212295472Y-91535150D01*
X212213405Y-91381614D01*
X212102962Y-91247038D01*
X212010000Y-91170747D01*
X212010000Y-90888072D01*
X212250000Y-90888072D01*
X212374482Y-90875812D01*
X212494180Y-90839502D01*
X212604494Y-90780537D01*
X212701185Y-90701185D01*
X212780537Y-90604494D01*
X212839502Y-90494180D01*
X212875812Y-90374482D01*
X212888072Y-90250000D01*
X212888072Y-87750000D01*
X212875812Y-87625518D01*
X212839502Y-87505820D01*
X212780537Y-87395506D01*
X212701185Y-87298815D01*
X212604494Y-87219463D01*
X212494180Y-87160498D01*
X212374482Y-87124188D01*
X212250000Y-87111928D01*
X209750000Y-87111928D01*
X209625518Y-87124188D01*
X209505820Y-87160498D01*
X209395506Y-87219463D01*
X209298815Y-87298815D01*
X209219463Y-87395506D01*
X209160498Y-87505820D01*
X209124188Y-87625518D01*
X209111928Y-87750000D01*
X209111928Y-88530000D01*
X200090107Y-88530000D01*
X200021620Y-88461513D01*
X200094180Y-88439502D01*
X200204494Y-88380537D01*
X200301185Y-88301185D01*
X200380537Y-88204494D01*
X200439502Y-88094180D01*
X200475812Y-87974482D01*
X200488072Y-87850000D01*
X200488072Y-86150000D01*
X200475812Y-86025518D01*
X200439502Y-85905820D01*
X200380537Y-85795506D01*
X200301185Y-85698815D01*
X200204494Y-85619463D01*
X200094180Y-85560498D01*
X199974482Y-85524188D01*
X199850000Y-85511928D01*
X198150000Y-85511928D01*
X198025518Y-85524188D01*
X197905820Y-85560498D01*
X197795506Y-85619463D01*
X197698815Y-85698815D01*
X197619463Y-85795506D01*
X197560498Y-85905820D01*
X197538487Y-85978380D01*
X197406632Y-85846525D01*
X197163411Y-85684010D01*
X196893158Y-85572068D01*
X196606260Y-85515000D01*
X196313740Y-85515000D01*
X196026842Y-85572068D01*
X195756589Y-85684010D01*
X195513368Y-85846525D01*
X195306525Y-86053368D01*
X195190000Y-86227760D01*
X195073475Y-86053368D01*
X194866632Y-85846525D01*
X194623411Y-85684010D01*
X194353158Y-85572068D01*
X194066260Y-85515000D01*
X193773740Y-85515000D01*
X193486842Y-85572068D01*
X193216589Y-85684010D01*
X192973368Y-85846525D01*
X192766525Y-86053368D01*
X192604010Y-86296589D01*
X192492068Y-86566842D01*
X192435000Y-86853740D01*
X191127000Y-86853740D01*
X191127000Y-83789721D01*
X239865000Y-83789721D01*
X239865000Y-84210279D01*
X239947047Y-84622756D01*
X240107988Y-85011302D01*
X240341637Y-85360983D01*
X240639017Y-85658363D01*
X240988698Y-85892012D01*
X241377244Y-86052953D01*
X241789721Y-86135000D01*
X242210279Y-86135000D01*
X242622756Y-86052953D01*
X243011302Y-85892012D01*
X243360983Y-85658363D01*
X243658363Y-85360983D01*
X243892012Y-85011302D01*
X244052953Y-84622756D01*
X244135000Y-84210279D01*
X244135000Y-83789721D01*
X244052953Y-83377244D01*
X243892012Y-82988698D01*
X243658363Y-82639017D01*
X243360983Y-82341637D01*
X243011302Y-82107988D01*
X242622756Y-81947047D01*
X242210279Y-81865000D01*
X241789721Y-81865000D01*
X241377244Y-81947047D01*
X240988698Y-82107988D01*
X240639017Y-82341637D01*
X240341637Y-82639017D01*
X240107988Y-82988698D01*
X239947047Y-83377244D01*
X239865000Y-83789721D01*
X191127000Y-83789721D01*
X191127000Y-76750000D01*
X209111928Y-76750000D01*
X209111928Y-79250000D01*
X209124188Y-79374482D01*
X209160498Y-79494180D01*
X209219463Y-79604494D01*
X209298815Y-79701185D01*
X209395506Y-79780537D01*
X209505820Y-79839502D01*
X209625518Y-79875812D01*
X209750000Y-79888072D01*
X212250000Y-79888072D01*
X212374482Y-79875812D01*
X212494180Y-79839502D01*
X212604494Y-79780537D01*
X212701185Y-79701185D01*
X212780537Y-79604494D01*
X212839502Y-79494180D01*
X212875812Y-79374482D01*
X212888072Y-79250000D01*
X212888072Y-76750000D01*
X212875812Y-76625518D01*
X212839502Y-76505820D01*
X212780537Y-76395506D01*
X212701185Y-76298815D01*
X212604494Y-76219463D01*
X212494180Y-76160498D01*
X212374482Y-76124188D01*
X212250000Y-76111928D01*
X209750000Y-76111928D01*
X209625518Y-76124188D01*
X209505820Y-76160498D01*
X209395506Y-76219463D01*
X209298815Y-76298815D01*
X209219463Y-76395506D01*
X209160498Y-76505820D01*
X209124188Y-76625518D01*
X209111928Y-76750000D01*
X191127000Y-76750000D01*
X191127000Y-71814344D01*
X195915000Y-71814344D01*
X195915000Y-72185656D01*
X195987439Y-72549834D01*
X196129534Y-72892882D01*
X196335825Y-73201618D01*
X196598382Y-73464175D01*
X196907118Y-73670466D01*
X197250166Y-73812561D01*
X197614344Y-73885000D01*
X197985656Y-73885000D01*
X198349834Y-73812561D01*
X198692882Y-73670466D01*
X199001618Y-73464175D01*
X199264175Y-73201618D01*
X199470466Y-72892882D01*
X199612561Y-72549834D01*
X199685000Y-72185656D01*
X199685000Y-71814344D01*
X199612561Y-71450166D01*
X199470466Y-71107118D01*
X199264175Y-70798382D01*
X199001618Y-70535825D01*
X198692882Y-70329534D01*
X198349834Y-70187439D01*
X197985656Y-70115000D01*
X197614344Y-70115000D01*
X197250166Y-70187439D01*
X196907118Y-70329534D01*
X196598382Y-70535825D01*
X196335825Y-70798382D01*
X196129534Y-71107118D01*
X195987439Y-71450166D01*
X195915000Y-71814344D01*
X191127000Y-71814344D01*
X191127000Y-60000000D01*
X194649833Y-60000000D01*
X194710362Y-60614567D01*
X194889625Y-61205517D01*
X195180732Y-61750139D01*
X195572495Y-62227505D01*
X196049861Y-62619268D01*
X196594483Y-62910375D01*
X197185433Y-63089638D01*
X197800000Y-63150167D01*
X198414567Y-63089638D01*
X199005517Y-62910375D01*
X199550139Y-62619268D01*
X199907883Y-62325675D01*
X201107880Y-61125679D01*
X201227505Y-61027505D01*
X201619269Y-60550140D01*
X201910376Y-60005517D01*
X202078839Y-59450166D01*
X202089638Y-59414568D01*
X202095981Y-59350167D01*
X202135000Y-58954002D01*
X202135000Y-58953996D01*
X202150167Y-58800001D01*
X202135000Y-58646006D01*
X202135000Y-52845998D01*
X202100922Y-52500000D01*
X202849832Y-52500000D01*
X202910362Y-53114567D01*
X203089624Y-53705517D01*
X203380731Y-54250140D01*
X203772495Y-54727505D01*
X204249860Y-55119269D01*
X204794483Y-55410376D01*
X205385433Y-55589638D01*
X205845998Y-55635000D01*
X210701442Y-55635000D01*
X211365000Y-56298559D01*
X211365000Y-58699207D01*
X211201618Y-58535825D01*
X210892882Y-58329534D01*
X210549834Y-58187439D01*
X210185656Y-58115000D01*
X209814344Y-58115000D01*
X209450166Y-58187439D01*
X209107118Y-58329534D01*
X208798382Y-58535825D01*
X208535825Y-58798382D01*
X208329534Y-59107118D01*
X208187439Y-59450166D01*
X208115000Y-59814344D01*
X208115000Y-60185656D01*
X208187439Y-60549834D01*
X208329534Y-60892882D01*
X208535825Y-61201618D01*
X208798382Y-61464175D01*
X209107118Y-61670466D01*
X209450166Y-61812561D01*
X209814344Y-61885000D01*
X210185656Y-61885000D01*
X210549834Y-61812561D01*
X210892882Y-61670466D01*
X211201618Y-61464175D01*
X211365001Y-61300792D01*
X211365001Y-62201441D01*
X209674325Y-63892117D01*
X209380732Y-64249861D01*
X209089625Y-64794483D01*
X208910362Y-65385433D01*
X208849833Y-66000000D01*
X208910362Y-66614567D01*
X209089625Y-67205517D01*
X209126742Y-67274959D01*
X209051717Y-67366377D01*
X209047385Y-67374482D01*
X208946324Y-67563554D01*
X208881423Y-67777502D01*
X208859509Y-68000000D01*
X208865001Y-68055761D01*
X208865000Y-70491312D01*
X208798382Y-70535825D01*
X208535825Y-70798382D01*
X208329534Y-71107118D01*
X208187439Y-71450166D01*
X208115000Y-71814344D01*
X208115000Y-72185656D01*
X208187439Y-72549834D01*
X208329534Y-72892882D01*
X208535825Y-73201618D01*
X208798382Y-73464175D01*
X209107118Y-73670466D01*
X209450166Y-73812561D01*
X209814344Y-73885000D01*
X210185656Y-73885000D01*
X210549834Y-73812561D01*
X210892882Y-73670466D01*
X211201618Y-73464175D01*
X211464175Y-73201618D01*
X211670466Y-72892882D01*
X211812561Y-72549834D01*
X211885000Y-72185656D01*
X211885000Y-71814344D01*
X211812561Y-71450166D01*
X211670466Y-71107118D01*
X211464175Y-70798382D01*
X211201618Y-70535825D01*
X211135000Y-70491312D01*
X211135000Y-69013670D01*
X211385433Y-69089638D01*
X212000000Y-69150167D01*
X212614567Y-69089638D01*
X213205517Y-68910375D01*
X213385706Y-68814062D01*
X213750743Y-69179099D01*
X213782367Y-69217633D01*
X213936160Y-69343847D01*
X214019474Y-69388379D01*
X214111620Y-69437632D01*
X214302005Y-69495385D01*
X214500000Y-69514886D01*
X214549608Y-69510000D01*
X221990001Y-69510000D01*
X221990000Y-72181005D01*
X221909538Y-72247038D01*
X221799095Y-72381614D01*
X221717028Y-72535150D01*
X221666492Y-72701746D01*
X221649428Y-72875000D01*
X221649428Y-74125000D01*
X221666492Y-74298254D01*
X221717028Y-74464850D01*
X221799095Y-74618386D01*
X221909538Y-74752962D01*
X221990001Y-74818996D01*
X221990000Y-76111928D01*
X221750000Y-76111928D01*
X221625518Y-76124188D01*
X221505820Y-76160498D01*
X221395506Y-76219463D01*
X221298815Y-76298815D01*
X221219463Y-76395506D01*
X221160498Y-76505820D01*
X221124188Y-76625518D01*
X221111928Y-76750000D01*
X221111928Y-79250000D01*
X221124188Y-79374482D01*
X221160498Y-79494180D01*
X221219463Y-79604494D01*
X221298815Y-79701185D01*
X221395506Y-79780537D01*
X221505820Y-79839502D01*
X221625518Y-79875812D01*
X221750000Y-79888072D01*
X224250000Y-79888072D01*
X224374482Y-79875812D01*
X224494180Y-79839502D01*
X224604494Y-79780537D01*
X224701185Y-79701185D01*
X224780537Y-79604494D01*
X224839502Y-79494180D01*
X224875812Y-79374482D01*
X224888072Y-79250000D01*
X224888072Y-76750000D01*
X224875812Y-76625518D01*
X224839502Y-76505820D01*
X224780537Y-76395506D01*
X224701185Y-76298815D01*
X224604494Y-76219463D01*
X224494180Y-76160498D01*
X224374482Y-76124188D01*
X224250000Y-76111928D01*
X224010000Y-76111928D01*
X224010000Y-74818995D01*
X224090462Y-74752962D01*
X224200905Y-74618386D01*
X224282972Y-74464850D01*
X224333508Y-74298254D01*
X224350572Y-74125000D01*
X224350572Y-72875000D01*
X224333508Y-72701746D01*
X224282972Y-72535150D01*
X224200905Y-72381614D01*
X224090462Y-72247038D01*
X224010000Y-72181005D01*
X224010000Y-69049608D01*
X224014886Y-69000000D01*
X223995385Y-68802005D01*
X223937632Y-68611620D01*
X223843847Y-68436160D01*
X223717633Y-68282367D01*
X223679094Y-68250739D01*
X223249261Y-67820906D01*
X223217633Y-67782367D01*
X223063840Y-67656153D01*
X222888380Y-67562368D01*
X222697994Y-67504615D01*
X222549608Y-67490000D01*
X222500000Y-67485114D01*
X222450392Y-67490000D01*
X214943558Y-67490000D01*
X216607880Y-65825679D01*
X216727505Y-65727505D01*
X217119269Y-65250140D01*
X217410376Y-64705517D01*
X217589638Y-64114567D01*
X217635000Y-63654002D01*
X217635000Y-63653995D01*
X217650167Y-63500000D01*
X217638336Y-63379872D01*
X219265000Y-63379872D01*
X219265000Y-63820128D01*
X219350890Y-64251925D01*
X219519369Y-64658669D01*
X219763962Y-65024729D01*
X220075271Y-65336038D01*
X220441331Y-65580631D01*
X220848075Y-65749110D01*
X221279872Y-65835000D01*
X221720128Y-65835000D01*
X222151925Y-65749110D01*
X222558669Y-65580631D01*
X222924729Y-65336038D01*
X223236038Y-65024729D01*
X223480631Y-64658669D01*
X223649110Y-64251925D01*
X223735000Y-63820128D01*
X223735000Y-63379872D01*
X223649110Y-62948075D01*
X223480631Y-62541331D01*
X223236038Y-62175271D01*
X222924729Y-61863962D01*
X222558669Y-61619369D01*
X222151925Y-61450890D01*
X221720128Y-61365000D01*
X221279872Y-61365000D01*
X220848075Y-61450890D01*
X220441331Y-61619369D01*
X220075271Y-61863962D01*
X219763962Y-62175271D01*
X219519369Y-62541331D01*
X219350890Y-62948075D01*
X219265000Y-63379872D01*
X217638336Y-63379872D01*
X217635000Y-63346005D01*
X217635000Y-55153995D01*
X217650167Y-55000000D01*
X217635000Y-54846005D01*
X217635000Y-54845998D01*
X217589638Y-54385433D01*
X217410376Y-53794483D01*
X217119269Y-53249860D01*
X216727505Y-52772495D01*
X216607881Y-52674323D01*
X216433558Y-52500000D01*
X222849832Y-52500000D01*
X222910362Y-53114567D01*
X223089624Y-53705517D01*
X223380731Y-54250140D01*
X223772495Y-54727505D01*
X224249860Y-55119269D01*
X224794483Y-55410376D01*
X225385433Y-55589638D01*
X225845998Y-55635000D01*
X237526712Y-55635000D01*
X237371286Y-55682148D01*
X237087249Y-55833969D01*
X236838287Y-56038286D01*
X236633970Y-56287248D01*
X236482149Y-56571285D01*
X236388658Y-56879484D01*
X236365000Y-57119678D01*
X236365000Y-58880321D01*
X236388657Y-59120515D01*
X236482148Y-59428714D01*
X236633969Y-59712751D01*
X236838286Y-59961714D01*
X236861411Y-59980692D01*
X236859509Y-60000000D01*
X236881423Y-60222498D01*
X236946324Y-60436446D01*
X236949780Y-60442911D01*
X237051717Y-60633623D01*
X237193552Y-60806449D01*
X237236860Y-60841991D01*
X239918023Y-63523155D01*
X239865000Y-63789721D01*
X239865000Y-64210279D01*
X239947047Y-64622756D01*
X240107988Y-65011302D01*
X240341637Y-65360983D01*
X240639017Y-65658363D01*
X240988698Y-65892012D01*
X241377244Y-66052953D01*
X241789721Y-66135000D01*
X242210279Y-66135000D01*
X242622756Y-66052953D01*
X243011302Y-65892012D01*
X243360983Y-65658363D01*
X243658363Y-65360983D01*
X243892012Y-65011302D01*
X244052953Y-64622756D01*
X244135000Y-64210279D01*
X244135000Y-63789721D01*
X244052953Y-63377244D01*
X243892012Y-62988698D01*
X243658363Y-62639017D01*
X243360983Y-62341637D01*
X243011302Y-62107988D01*
X242622756Y-61947047D01*
X242210279Y-61865000D01*
X241789721Y-61865000D01*
X241523155Y-61918023D01*
X239344328Y-59739197D01*
X239366031Y-59712752D01*
X239517852Y-59428715D01*
X239611343Y-59120516D01*
X239635000Y-58880322D01*
X239635000Y-57268559D01*
X239865000Y-57498559D01*
X239865000Y-58154001D01*
X239910362Y-58614566D01*
X240089624Y-59205516D01*
X240380731Y-59750139D01*
X240772495Y-60227505D01*
X241249860Y-60619269D01*
X241794483Y-60910376D01*
X242385433Y-61089638D01*
X243000000Y-61150168D01*
X243614566Y-61089638D01*
X244205516Y-60910376D01*
X244750139Y-60619269D01*
X245227505Y-60227505D01*
X245619269Y-59750140D01*
X245910376Y-59205517D01*
X246089638Y-58614567D01*
X246135000Y-58154002D01*
X246135000Y-56353994D01*
X246150167Y-56199999D01*
X246135000Y-56046004D01*
X246135000Y-56045999D01*
X246093981Y-55629528D01*
X246089638Y-55585432D01*
X245948229Y-55119269D01*
X245910376Y-54994483D01*
X245619269Y-54449860D01*
X245227505Y-53972495D01*
X245107886Y-53874326D01*
X241625682Y-50392124D01*
X241527505Y-50272495D01*
X241050140Y-49880731D01*
X240505517Y-49589624D01*
X239914567Y-49410362D01*
X239454002Y-49365000D01*
X239453995Y-49365000D01*
X239300000Y-49349833D01*
X239146005Y-49365000D01*
X225845998Y-49365000D01*
X225385433Y-49410362D01*
X224794483Y-49589624D01*
X224249860Y-49880731D01*
X223772495Y-50272495D01*
X223380731Y-50749860D01*
X223089624Y-51294483D01*
X222910362Y-51885433D01*
X222849832Y-52500000D01*
X216433558Y-52500000D01*
X214325682Y-50392124D01*
X214227505Y-50272495D01*
X213750140Y-49880731D01*
X213205517Y-49589624D01*
X212614567Y-49410362D01*
X212154002Y-49365000D01*
X212153995Y-49365000D01*
X212000000Y-49349833D01*
X211846005Y-49365000D01*
X205845998Y-49365000D01*
X205385433Y-49410362D01*
X204794483Y-49589624D01*
X204249860Y-49880731D01*
X203772495Y-50272495D01*
X203380731Y-50749860D01*
X203089624Y-51294483D01*
X202910362Y-51885433D01*
X202849832Y-52500000D01*
X202100922Y-52500000D01*
X202089638Y-52385433D01*
X201910376Y-51794483D01*
X201619269Y-51249860D01*
X201227505Y-50772495D01*
X200750139Y-50380731D01*
X200205516Y-50089624D01*
X199614566Y-49910362D01*
X199000000Y-49849832D01*
X198385433Y-49910362D01*
X197794483Y-50089624D01*
X197249860Y-50380731D01*
X196772495Y-50772495D01*
X196380731Y-51249861D01*
X196089624Y-51794484D01*
X195910362Y-52385434D01*
X195865000Y-52845999D01*
X195865001Y-57501441D01*
X195474325Y-57892117D01*
X195180732Y-58249861D01*
X194889625Y-58794483D01*
X194710362Y-59385433D01*
X194649833Y-60000000D01*
X191127000Y-60000000D01*
X191127000Y-48127000D01*
X246873000Y-48127000D01*
X246873000Y-103873000D01*
G37*
X246873000Y-103873000D02*
X191127000Y-103873000D01*
X191127000Y-99023740D01*
X193385000Y-99023740D01*
X193385000Y-99316260D01*
X193442068Y-99603158D01*
X193554010Y-99873411D01*
X193716525Y-100116632D01*
X193923368Y-100323475D01*
X194166589Y-100485990D01*
X194436842Y-100597932D01*
X194723740Y-100655000D01*
X195016260Y-100655000D01*
X195303158Y-100597932D01*
X195573411Y-100485990D01*
X195816632Y-100323475D01*
X196023475Y-100116632D01*
X196140000Y-99942240D01*
X196256525Y-100116632D01*
X196463368Y-100323475D01*
X196706589Y-100485990D01*
X196976842Y-100597932D01*
X197263740Y-100655000D01*
X197556260Y-100655000D01*
X197843158Y-100597932D01*
X198113411Y-100485990D01*
X198356632Y-100323475D01*
X198563475Y-100116632D01*
X198680000Y-99942240D01*
X198796525Y-100116632D01*
X199003368Y-100323475D01*
X199246589Y-100485990D01*
X199516842Y-100597932D01*
X199803740Y-100655000D01*
X200096260Y-100655000D01*
X200383158Y-100597932D01*
X200653411Y-100485990D01*
X200896632Y-100323475D01*
X201103475Y-100116632D01*
X201265990Y-99873411D01*
X201377932Y-99603158D01*
X201435000Y-99316260D01*
X201435000Y-99023740D01*
X201377932Y-98736842D01*
X201265990Y-98466589D01*
X201103475Y-98223368D01*
X200896632Y-98016525D01*
X200722240Y-97900000D01*
X200896632Y-97783475D01*
X201103475Y-97576632D01*
X201220000Y-97402240D01*
X201336525Y-97576632D01*
X201543368Y-97783475D01*
X201786589Y-97945990D01*
X202056842Y-98057932D01*
X202343740Y-98115000D01*
X202636260Y-98115000D01*
X202923158Y-98057932D01*
X203193411Y-97945990D01*
X203436632Y-97783475D01*
X203643475Y-97576632D01*
X203760000Y-97402240D01*
X203876525Y-97576632D01*
X204083368Y-97783475D01*
X204257760Y-97900000D01*
X204083368Y-98016525D01*
X203876525Y-98223368D01*
X203714010Y-98466589D01*
X203602068Y-98736842D01*
X203545000Y-99023740D01*
X203545000Y-99316260D01*
X203602068Y-99603158D01*
X203714010Y-99873411D01*
X203876525Y-100116632D01*
X204083368Y-100323475D01*
X204326589Y-100485990D01*
X204596842Y-100597932D01*
X204883740Y-100655000D01*
X205176260Y-100655000D01*
X205463158Y-100597932D01*
X205733411Y-100485990D01*
X205976632Y-100323475D01*
X206183475Y-100116632D01*
X206345990Y-99873411D01*
X206457932Y-99603158D01*
X206515000Y-99316260D01*
X206515000Y-99023740D01*
X206457932Y-98736842D01*
X206345990Y-98466589D01*
X206183475Y-98223368D01*
X205976632Y-98016525D01*
X205802240Y-97900000D01*
X205976632Y-97783475D01*
X206183475Y-97576632D01*
X206300000Y-97402240D01*
X206416525Y-97576632D01*
X206623368Y-97783475D01*
X206866589Y-97945990D01*
X207136842Y-98057932D01*
X207423740Y-98115000D01*
X207716260Y-98115000D01*
X208003158Y-98057932D01*
X208273411Y-97945990D01*
X208516632Y-97783475D01*
X208723475Y-97576632D01*
X208840000Y-97402240D01*
X208956525Y-97576632D01*
X209163368Y-97783475D01*
X209337760Y-97900000D01*
X209163368Y-98016525D01*
X208956525Y-98223368D01*
X208794010Y-98466589D01*
X208682068Y-98736842D01*
X208625000Y-99023740D01*
X208625000Y-99316260D01*
X208682068Y-99603158D01*
X208794010Y-99873411D01*
X208956525Y-100116632D01*
X209163368Y-100323475D01*
X209406589Y-100485990D01*
X209676842Y-100597932D01*
X209963740Y-100655000D01*
X210256260Y-100655000D01*
X210543158Y-100597932D01*
X210813411Y-100485990D01*
X211056632Y-100323475D01*
X211263475Y-100116632D01*
X211380000Y-99942240D01*
X211496525Y-100116632D01*
X211703368Y-100323475D01*
X211946589Y-100485990D01*
X212216842Y-100597932D01*
X212503740Y-100655000D01*
X212796260Y-100655000D01*
X213083158Y-100597932D01*
X213353411Y-100485990D01*
X213596632Y-100323475D01*
X213803475Y-100116632D01*
X213920000Y-99942240D01*
X214036525Y-100116632D01*
X214243368Y-100323475D01*
X214486589Y-100485990D01*
X214756842Y-100597932D01*
X215043740Y-100655000D01*
X215336260Y-100655000D01*
X215623158Y-100597932D01*
X215893411Y-100485990D01*
X216136632Y-100323475D01*
X216343475Y-100116632D01*
X216460000Y-99942240D01*
X216576525Y-100116632D01*
X216783368Y-100323475D01*
X217026589Y-100485990D01*
X217296842Y-100597932D01*
X217583740Y-100655000D01*
X217876260Y-100655000D01*
X218163158Y-100597932D01*
X218433411Y-100485990D01*
X218676632Y-100323475D01*
X218883475Y-100116632D01*
X219045990Y-99873411D01*
X219157932Y-99603158D01*
X219215000Y-99316260D01*
X219215000Y-99023740D01*
X219157932Y-98736842D01*
X219045990Y-98466589D01*
X218883475Y-98223368D01*
X218676632Y-98016525D01*
X218502240Y-97900000D01*
X218676632Y-97783475D01*
X218883475Y-97576632D01*
X219000000Y-97402240D01*
X219116525Y-97576632D01*
X219323368Y-97783475D01*
X219566589Y-97945990D01*
X219836842Y-98057932D01*
X220123740Y-98115000D01*
X220416260Y-98115000D01*
X220703158Y-98057932D01*
X220973411Y-97945990D01*
X221216632Y-97783475D01*
X221423475Y-97576632D01*
X221540000Y-97402240D01*
X221656525Y-97576632D01*
X221863368Y-97783475D01*
X222037760Y-97900000D01*
X221863368Y-98016525D01*
X221656525Y-98223368D01*
X221494010Y-98466589D01*
X221382068Y-98736842D01*
X221325000Y-99023740D01*
X221325000Y-99316260D01*
X221382068Y-99603158D01*
X221494010Y-99873411D01*
X221656525Y-100116632D01*
X221863368Y-100323475D01*
X222106589Y-100485990D01*
X222376842Y-100597932D01*
X222663740Y-100655000D01*
X222956260Y-100655000D01*
X223243158Y-100597932D01*
X223513411Y-100485990D01*
X223756632Y-100323475D01*
X223963475Y-100116632D01*
X224080000Y-99942240D01*
X224196525Y-100116632D01*
X224403368Y-100323475D01*
X224646589Y-100485990D01*
X224916842Y-100597932D01*
X225203740Y-100655000D01*
X225496260Y-100655000D01*
X225783158Y-100597932D01*
X226053411Y-100485990D01*
X226296632Y-100323475D01*
X226503475Y-100116632D01*
X226665990Y-99873411D01*
X226777932Y-99603158D01*
X226835000Y-99316260D01*
X226835000Y-99023740D01*
X226777932Y-98736842D01*
X226665990Y-98466589D01*
X226503475Y-98223368D01*
X226296632Y-98016525D01*
X226122240Y-97900000D01*
X226296632Y-97783475D01*
X226503475Y-97576632D01*
X226620000Y-97402240D01*
X226736525Y-97576632D01*
X226943368Y-97783475D01*
X227186589Y-97945990D01*
X227456842Y-98057932D01*
X227743740Y-98115000D01*
X228036260Y-98115000D01*
X228323158Y-98057932D01*
X228593411Y-97945990D01*
X228836632Y-97783475D01*
X229043475Y-97576632D01*
X229160000Y-97402240D01*
X229276525Y-97576632D01*
X229483368Y-97783475D01*
X229657760Y-97900000D01*
X229483368Y-98016525D01*
X229276525Y-98223368D01*
X229114010Y-98466589D01*
X229002068Y-98736842D01*
X228945000Y-99023740D01*
X228945000Y-99316260D01*
X229002068Y-99603158D01*
X229114010Y-99873411D01*
X229276525Y-100116632D01*
X229483368Y-100323475D01*
X229726589Y-100485990D01*
X229996842Y-100597932D01*
X230283740Y-100655000D01*
X230576260Y-100655000D01*
X230863158Y-100597932D01*
X231133411Y-100485990D01*
X231376632Y-100323475D01*
X231583475Y-100116632D01*
X231700000Y-99942240D01*
X231816525Y-100116632D01*
X232023368Y-100323475D01*
X232266589Y-100485990D01*
X232536842Y-100597932D01*
X232823740Y-100655000D01*
X233116260Y-100655000D01*
X233403158Y-100597932D01*
X233673411Y-100485990D01*
X233916632Y-100323475D01*
X234123475Y-100116632D01*
X234240000Y-99942240D01*
X234356525Y-100116632D01*
X234563368Y-100323475D01*
X234806589Y-100485990D01*
X235076842Y-100597932D01*
X235363740Y-100655000D01*
X235656260Y-100655000D01*
X235943158Y-100597932D01*
X236213411Y-100485990D01*
X236456632Y-100323475D01*
X236663475Y-100116632D01*
X236825990Y-99873411D01*
X236937932Y-99603158D01*
X236995000Y-99316260D01*
X236995000Y-99023740D01*
X236937932Y-98736842D01*
X236825990Y-98466589D01*
X236663475Y-98223368D01*
X236456632Y-98016525D01*
X236282240Y-97900000D01*
X236456632Y-97783475D01*
X236663475Y-97576632D01*
X236780000Y-97402240D01*
X236896525Y-97576632D01*
X237103368Y-97783475D01*
X237346589Y-97945990D01*
X237616842Y-98057932D01*
X237903740Y-98115000D01*
X238196260Y-98115000D01*
X238483158Y-98057932D01*
X238753411Y-97945990D01*
X238996632Y-97783475D01*
X239203475Y-97576632D01*
X239320000Y-97402240D01*
X239436525Y-97576632D01*
X239643368Y-97783475D01*
X239817760Y-97900000D01*
X239643368Y-98016525D01*
X239436525Y-98223368D01*
X239274010Y-98466589D01*
X239162068Y-98736842D01*
X239105000Y-99023740D01*
X239105000Y-99316260D01*
X239162068Y-99603158D01*
X239274010Y-99873411D01*
X239436525Y-100116632D01*
X239643368Y-100323475D01*
X239886589Y-100485990D01*
X240156842Y-100597932D01*
X240443740Y-100655000D01*
X240736260Y-100655000D01*
X241023158Y-100597932D01*
X241293411Y-100485990D01*
X241536632Y-100323475D01*
X241743475Y-100116632D01*
X241860000Y-99942240D01*
X241976525Y-100116632D01*
X242183368Y-100323475D01*
X242426589Y-100485990D01*
X242696842Y-100597932D01*
X242983740Y-100655000D01*
X243276260Y-100655000D01*
X243563158Y-100597932D01*
X243833411Y-100485990D01*
X244076632Y-100323475D01*
X244283475Y-100116632D01*
X244445990Y-99873411D01*
X244557932Y-99603158D01*
X244615000Y-99316260D01*
X244615000Y-99023740D01*
X244557932Y-98736842D01*
X244445990Y-98466589D01*
X244283475Y-98223368D01*
X244151620Y-98091513D01*
X244224180Y-98069502D01*
X244334494Y-98010537D01*
X244431185Y-97931185D01*
X244510537Y-97834494D01*
X244569502Y-97724180D01*
X244605812Y-97604482D01*
X244618072Y-97480000D01*
X244618072Y-95780000D01*
X244605812Y-95655518D01*
X244569502Y-95535820D01*
X244510537Y-95425506D01*
X244431185Y-95328815D01*
X244334494Y-95249463D01*
X244224180Y-95190498D01*
X244104482Y-95154188D01*
X243980000Y-95141928D01*
X242280000Y-95141928D01*
X242155518Y-95154188D01*
X242035820Y-95190498D01*
X241925506Y-95249463D01*
X241828815Y-95328815D01*
X241749463Y-95425506D01*
X241690498Y-95535820D01*
X241668487Y-95608380D01*
X241536632Y-95476525D01*
X241293411Y-95314010D01*
X241023158Y-95202068D01*
X240736260Y-95145000D01*
X240443740Y-95145000D01*
X240156842Y-95202068D01*
X239886589Y-95314010D01*
X239643368Y-95476525D01*
X239436525Y-95683368D01*
X239320000Y-95857760D01*
X239203475Y-95683368D01*
X238996632Y-95476525D01*
X238753411Y-95314010D01*
X238483158Y-95202068D01*
X238196260Y-95145000D01*
X237903740Y-95145000D01*
X237616842Y-95202068D01*
X237346589Y-95314010D01*
X237103368Y-95476525D01*
X236896525Y-95683368D01*
X236780000Y-95857760D01*
X236663475Y-95683368D01*
X236456632Y-95476525D01*
X236213411Y-95314010D01*
X235943158Y-95202068D01*
X235656260Y-95145000D01*
X235363740Y-95145000D01*
X235076842Y-95202068D01*
X234806589Y-95314010D01*
X234563368Y-95476525D01*
X234356525Y-95683368D01*
X234194010Y-95926589D01*
X234082068Y-96196842D01*
X234025000Y-96483740D01*
X234025000Y-96776260D01*
X234082068Y-97063158D01*
X234194010Y-97333411D01*
X234356525Y-97576632D01*
X234563368Y-97783475D01*
X234737760Y-97900000D01*
X234563368Y-98016525D01*
X234356525Y-98223368D01*
X234240000Y-98397760D01*
X234123475Y-98223368D01*
X233916632Y-98016525D01*
X233673411Y-97854010D01*
X233403158Y-97742068D01*
X233116260Y-97685000D01*
X232823740Y-97685000D01*
X232536842Y-97742068D01*
X232266589Y-97854010D01*
X232023368Y-98016525D01*
X231816525Y-98223368D01*
X231700000Y-98397760D01*
X231583475Y-98223368D01*
X231376632Y-98016525D01*
X231202240Y-97900000D01*
X231376632Y-97783475D01*
X231583475Y-97576632D01*
X231745990Y-97333411D01*
X231857932Y-97063158D01*
X231915000Y-96776260D01*
X231915000Y-96483740D01*
X231857932Y-96196842D01*
X231745990Y-95926589D01*
X231583475Y-95683368D01*
X231376632Y-95476525D01*
X231133411Y-95314010D01*
X230863158Y-95202068D01*
X230576260Y-95145000D01*
X230283740Y-95145000D01*
X229996842Y-95202068D01*
X229726589Y-95314010D01*
X229483368Y-95476525D01*
X229276525Y-95683368D01*
X229160000Y-95857760D01*
X229043475Y-95683368D01*
X228836632Y-95476525D01*
X228593411Y-95314010D01*
X228323158Y-95202068D01*
X228036260Y-95145000D01*
X227743740Y-95145000D01*
X227456842Y-95202068D01*
X227186589Y-95314010D01*
X226943368Y-95476525D01*
X226736525Y-95683368D01*
X226620000Y-95857760D01*
X226503475Y-95683368D01*
X226296632Y-95476525D01*
X226053411Y-95314010D01*
X225783158Y-95202068D01*
X225496260Y-95145000D01*
X225203740Y-95145000D01*
X224916842Y-95202068D01*
X224646589Y-95314010D01*
X224403368Y-95476525D01*
X224196525Y-95683368D01*
X224080000Y-95857760D01*
X223963475Y-95683368D01*
X223756632Y-95476525D01*
X223513411Y-95314010D01*
X223243158Y-95202068D01*
X222956260Y-95145000D01*
X222663740Y-95145000D01*
X222376842Y-95202068D01*
X222106589Y-95314010D01*
X221863368Y-95476525D01*
X221656525Y-95683368D01*
X221540000Y-95857760D01*
X221423475Y-95683368D01*
X221216632Y-95476525D01*
X220973411Y-95314010D01*
X220703158Y-95202068D01*
X220416260Y-95145000D01*
X220123740Y-95145000D01*
X219836842Y-95202068D01*
X219566589Y-95314010D01*
X219323368Y-95476525D01*
X219116525Y-95683368D01*
X219000000Y-95857760D01*
X218883475Y-95683368D01*
X218676632Y-95476525D01*
X218433411Y-95314010D01*
X218163158Y-95202068D01*
X217876260Y-95145000D01*
X217583740Y-95145000D01*
X217296842Y-95202068D01*
X217026589Y-95314010D01*
X216783368Y-95476525D01*
X216576525Y-95683368D01*
X216460000Y-95857760D01*
X216343475Y-95683368D01*
X216136632Y-95476525D01*
X215893411Y-95314010D01*
X215623158Y-95202068D01*
X215336260Y-95145000D01*
X215043740Y-95145000D01*
X214756842Y-95202068D01*
X214486589Y-95314010D01*
X214243368Y-95476525D01*
X214036525Y-95683368D01*
X213874010Y-95926589D01*
X213762068Y-96196842D01*
X213705000Y-96483740D01*
X213705000Y-96776260D01*
X213762068Y-97063158D01*
X213874010Y-97333411D01*
X214036525Y-97576632D01*
X214243368Y-97783475D01*
X214417760Y-97900000D01*
X214243368Y-98016525D01*
X214036525Y-98223368D01*
X213920000Y-98397760D01*
X213803475Y-98223368D01*
X213596632Y-98016525D01*
X213353411Y-97854010D01*
X213083158Y-97742068D01*
X212796260Y-97685000D01*
X212503740Y-97685000D01*
X212216842Y-97742068D01*
X211946589Y-97854010D01*
X211703368Y-98016525D01*
X211496525Y-98223368D01*
X211380000Y-98397760D01*
X211263475Y-98223368D01*
X211056632Y-98016525D01*
X210882240Y-97900000D01*
X211056632Y-97783475D01*
X211263475Y-97576632D01*
X211425990Y-97333411D01*
X211537932Y-97063158D01*
X211595000Y-96776260D01*
X211595000Y-96483740D01*
X211537932Y-96196842D01*
X211425990Y-95926589D01*
X211263475Y-95683368D01*
X211056632Y-95476525D01*
X210813411Y-95314010D01*
X210543158Y-95202068D01*
X210256260Y-95145000D01*
X209963740Y-95145000D01*
X209676842Y-95202068D01*
X209406589Y-95314010D01*
X209163368Y-95476525D01*
X208956525Y-95683368D01*
X208840000Y-95857760D01*
X208723475Y-95683368D01*
X208516632Y-95476525D01*
X208273411Y-95314010D01*
X208003158Y-95202068D01*
X207716260Y-95145000D01*
X207423740Y-95145000D01*
X207136842Y-95202068D01*
X206866589Y-95314010D01*
X206623368Y-95476525D01*
X206416525Y-95683368D01*
X206300000Y-95857760D01*
X206183475Y-95683368D01*
X205976632Y-95476525D01*
X205733411Y-95314010D01*
X205463158Y-95202068D01*
X205176260Y-95145000D01*
X204883740Y-95145000D01*
X204596842Y-95202068D01*
X204326589Y-95314010D01*
X204083368Y-95476525D01*
X203876525Y-95683368D01*
X203760000Y-95857760D01*
X203643475Y-95683368D01*
X203436632Y-95476525D01*
X203193411Y-95314010D01*
X202923158Y-95202068D01*
X202636260Y-95145000D01*
X202343740Y-95145000D01*
X202056842Y-95202068D01*
X201786589Y-95314010D01*
X201543368Y-95476525D01*
X201336525Y-95683368D01*
X201220000Y-95857760D01*
X201103475Y-95683368D01*
X200896632Y-95476525D01*
X200653411Y-95314010D01*
X200383158Y-95202068D01*
X200096260Y-95145000D01*
X199803740Y-95145000D01*
X199516842Y-95202068D01*
X199246589Y-95314010D01*
X199003368Y-95476525D01*
X198796525Y-95683368D01*
X198680000Y-95857760D01*
X198563475Y-95683368D01*
X198356632Y-95476525D01*
X198113411Y-95314010D01*
X197843158Y-95202068D01*
X197556260Y-95145000D01*
X197263740Y-95145000D01*
X196976842Y-95202068D01*
X196706589Y-95314010D01*
X196463368Y-95476525D01*
X196256525Y-95683368D01*
X196094010Y-95926589D01*
X195982068Y-96196842D01*
X195925000Y-96483740D01*
X195925000Y-96776260D01*
X195982068Y-97063158D01*
X196094010Y-97333411D01*
X196256525Y-97576632D01*
X196463368Y-97783475D01*
X196637760Y-97900000D01*
X196463368Y-98016525D01*
X196256525Y-98223368D01*
X196140000Y-98397760D01*
X196023475Y-98223368D01*
X195816632Y-98016525D01*
X195573411Y-97854010D01*
X195303158Y-97742068D01*
X195016260Y-97685000D01*
X194723740Y-97685000D01*
X194436842Y-97742068D01*
X194166589Y-97854010D01*
X193923368Y-98016525D01*
X193716525Y-98223368D01*
X193554010Y-98466589D01*
X193442068Y-98736842D01*
X193385000Y-99023740D01*
X191127000Y-99023740D01*
X191127000Y-86853740D01*
X192435000Y-86853740D01*
X192435000Y-87146260D01*
X192492068Y-87433158D01*
X192604010Y-87703411D01*
X192766525Y-87946632D01*
X192973368Y-88153475D01*
X193216589Y-88315990D01*
X193486842Y-88427932D01*
X193773740Y-88485000D01*
X194066260Y-88485000D01*
X194353158Y-88427932D01*
X194623411Y-88315990D01*
X194866632Y-88153475D01*
X195073475Y-87946632D01*
X195190000Y-87772240D01*
X195306525Y-87946632D01*
X195513368Y-88153475D01*
X195687760Y-88270000D01*
X195513368Y-88386525D01*
X195306525Y-88593368D01*
X195144010Y-88836589D01*
X195032068Y-89106842D01*
X194975000Y-89393740D01*
X194975000Y-89686260D01*
X195032068Y-89973158D01*
X195144010Y-90243411D01*
X195306525Y-90486632D01*
X195513368Y-90693475D01*
X195756589Y-90855990D01*
X196026842Y-90967932D01*
X196313740Y-91025000D01*
X196606260Y-91025000D01*
X196893158Y-90967932D01*
X197163411Y-90855990D01*
X197406632Y-90693475D01*
X197613475Y-90486632D01*
X197730000Y-90312240D01*
X197846525Y-90486632D01*
X198053368Y-90693475D01*
X198296589Y-90855990D01*
X198566842Y-90967932D01*
X198853740Y-91025000D01*
X199146260Y-91025000D01*
X199433158Y-90967932D01*
X199703411Y-90855990D01*
X199946632Y-90693475D01*
X200090107Y-90550000D01*
X209190335Y-90550000D01*
X209219463Y-90604494D01*
X209298815Y-90701185D01*
X209395506Y-90780537D01*
X209505820Y-90839502D01*
X209625518Y-90875812D01*
X209750000Y-90888072D01*
X209990001Y-90888072D01*
X209990001Y-91191263D01*
X209922038Y-91247038D01*
X209811595Y-91381614D01*
X209729528Y-91535150D01*
X209678992Y-91701746D01*
X209661928Y-91875000D01*
X209661928Y-93125000D01*
X209678992Y-93298254D01*
X209729528Y-93464850D01*
X209811595Y-93618386D01*
X209922038Y-93752962D01*
X210056614Y-93863405D01*
X210210150Y-93945472D01*
X210376746Y-93996008D01*
X210550000Y-94013072D01*
X211475000Y-94013072D01*
X211648254Y-93996008D01*
X211814850Y-93945472D01*
X211968386Y-93863405D01*
X212102962Y-93752962D01*
X212213405Y-93618386D01*
X212295472Y-93464850D01*
X212346008Y-93298254D01*
X212363072Y-93125000D01*
X212363072Y-91875000D01*
X212346008Y-91701746D01*
X212295472Y-91535150D01*
X212213405Y-91381614D01*
X212102962Y-91247038D01*
X212010000Y-91170747D01*
X212010000Y-90888072D01*
X212250000Y-90888072D01*
X212374482Y-90875812D01*
X212494180Y-90839502D01*
X212604494Y-90780537D01*
X212701185Y-90701185D01*
X212780537Y-90604494D01*
X212839502Y-90494180D01*
X212875812Y-90374482D01*
X212888072Y-90250000D01*
X212888072Y-87750000D01*
X212875812Y-87625518D01*
X212839502Y-87505820D01*
X212780537Y-87395506D01*
X212701185Y-87298815D01*
X212604494Y-87219463D01*
X212494180Y-87160498D01*
X212374482Y-87124188D01*
X212250000Y-87111928D01*
X209750000Y-87111928D01*
X209625518Y-87124188D01*
X209505820Y-87160498D01*
X209395506Y-87219463D01*
X209298815Y-87298815D01*
X209219463Y-87395506D01*
X209160498Y-87505820D01*
X209124188Y-87625518D01*
X209111928Y-87750000D01*
X209111928Y-88530000D01*
X200090107Y-88530000D01*
X200021620Y-88461513D01*
X200094180Y-88439502D01*
X200204494Y-88380537D01*
X200301185Y-88301185D01*
X200380537Y-88204494D01*
X200439502Y-88094180D01*
X200475812Y-87974482D01*
X200488072Y-87850000D01*
X200488072Y-86150000D01*
X200475812Y-86025518D01*
X200439502Y-85905820D01*
X200380537Y-85795506D01*
X200301185Y-85698815D01*
X200204494Y-85619463D01*
X200094180Y-85560498D01*
X199974482Y-85524188D01*
X199850000Y-85511928D01*
X198150000Y-85511928D01*
X198025518Y-85524188D01*
X197905820Y-85560498D01*
X197795506Y-85619463D01*
X197698815Y-85698815D01*
X197619463Y-85795506D01*
X197560498Y-85905820D01*
X197538487Y-85978380D01*
X197406632Y-85846525D01*
X197163411Y-85684010D01*
X196893158Y-85572068D01*
X196606260Y-85515000D01*
X196313740Y-85515000D01*
X196026842Y-85572068D01*
X195756589Y-85684010D01*
X195513368Y-85846525D01*
X195306525Y-86053368D01*
X195190000Y-86227760D01*
X195073475Y-86053368D01*
X194866632Y-85846525D01*
X194623411Y-85684010D01*
X194353158Y-85572068D01*
X194066260Y-85515000D01*
X193773740Y-85515000D01*
X193486842Y-85572068D01*
X193216589Y-85684010D01*
X192973368Y-85846525D01*
X192766525Y-86053368D01*
X192604010Y-86296589D01*
X192492068Y-86566842D01*
X192435000Y-86853740D01*
X191127000Y-86853740D01*
X191127000Y-83789721D01*
X239865000Y-83789721D01*
X239865000Y-84210279D01*
X239947047Y-84622756D01*
X240107988Y-85011302D01*
X240341637Y-85360983D01*
X240639017Y-85658363D01*
X240988698Y-85892012D01*
X241377244Y-86052953D01*
X241789721Y-86135000D01*
X242210279Y-86135000D01*
X242622756Y-86052953D01*
X243011302Y-85892012D01*
X243360983Y-85658363D01*
X243658363Y-85360983D01*
X243892012Y-85011302D01*
X244052953Y-84622756D01*
X244135000Y-84210279D01*
X244135000Y-83789721D01*
X244052953Y-83377244D01*
X243892012Y-82988698D01*
X243658363Y-82639017D01*
X243360983Y-82341637D01*
X243011302Y-82107988D01*
X242622756Y-81947047D01*
X242210279Y-81865000D01*
X241789721Y-81865000D01*
X241377244Y-81947047D01*
X240988698Y-82107988D01*
X240639017Y-82341637D01*
X240341637Y-82639017D01*
X240107988Y-82988698D01*
X239947047Y-83377244D01*
X239865000Y-83789721D01*
X191127000Y-83789721D01*
X191127000Y-76750000D01*
X209111928Y-76750000D01*
X209111928Y-79250000D01*
X209124188Y-79374482D01*
X209160498Y-79494180D01*
X209219463Y-79604494D01*
X209298815Y-79701185D01*
X209395506Y-79780537D01*
X209505820Y-79839502D01*
X209625518Y-79875812D01*
X209750000Y-79888072D01*
X212250000Y-79888072D01*
X212374482Y-79875812D01*
X212494180Y-79839502D01*
X212604494Y-79780537D01*
X212701185Y-79701185D01*
X212780537Y-79604494D01*
X212839502Y-79494180D01*
X212875812Y-79374482D01*
X212888072Y-79250000D01*
X212888072Y-76750000D01*
X212875812Y-76625518D01*
X212839502Y-76505820D01*
X212780537Y-76395506D01*
X212701185Y-76298815D01*
X212604494Y-76219463D01*
X212494180Y-76160498D01*
X212374482Y-76124188D01*
X212250000Y-76111928D01*
X209750000Y-76111928D01*
X209625518Y-76124188D01*
X209505820Y-76160498D01*
X209395506Y-76219463D01*
X209298815Y-76298815D01*
X209219463Y-76395506D01*
X209160498Y-76505820D01*
X209124188Y-76625518D01*
X209111928Y-76750000D01*
X191127000Y-76750000D01*
X191127000Y-71814344D01*
X195915000Y-71814344D01*
X195915000Y-72185656D01*
X195987439Y-72549834D01*
X196129534Y-72892882D01*
X196335825Y-73201618D01*
X196598382Y-73464175D01*
X196907118Y-73670466D01*
X197250166Y-73812561D01*
X197614344Y-73885000D01*
X197985656Y-73885000D01*
X198349834Y-73812561D01*
X198692882Y-73670466D01*
X199001618Y-73464175D01*
X199264175Y-73201618D01*
X199470466Y-72892882D01*
X199612561Y-72549834D01*
X199685000Y-72185656D01*
X199685000Y-71814344D01*
X199612561Y-71450166D01*
X199470466Y-71107118D01*
X199264175Y-70798382D01*
X199001618Y-70535825D01*
X198692882Y-70329534D01*
X198349834Y-70187439D01*
X197985656Y-70115000D01*
X197614344Y-70115000D01*
X197250166Y-70187439D01*
X196907118Y-70329534D01*
X196598382Y-70535825D01*
X196335825Y-70798382D01*
X196129534Y-71107118D01*
X195987439Y-71450166D01*
X195915000Y-71814344D01*
X191127000Y-71814344D01*
X191127000Y-60000000D01*
X194649833Y-60000000D01*
X194710362Y-60614567D01*
X194889625Y-61205517D01*
X195180732Y-61750139D01*
X195572495Y-62227505D01*
X196049861Y-62619268D01*
X196594483Y-62910375D01*
X197185433Y-63089638D01*
X197800000Y-63150167D01*
X198414567Y-63089638D01*
X199005517Y-62910375D01*
X199550139Y-62619268D01*
X199907883Y-62325675D01*
X201107880Y-61125679D01*
X201227505Y-61027505D01*
X201619269Y-60550140D01*
X201910376Y-60005517D01*
X202078839Y-59450166D01*
X202089638Y-59414568D01*
X202095981Y-59350167D01*
X202135000Y-58954002D01*
X202135000Y-58953996D01*
X202150167Y-58800001D01*
X202135000Y-58646006D01*
X202135000Y-52845998D01*
X202100922Y-52500000D01*
X202849832Y-52500000D01*
X202910362Y-53114567D01*
X203089624Y-53705517D01*
X203380731Y-54250140D01*
X203772495Y-54727505D01*
X204249860Y-55119269D01*
X204794483Y-55410376D01*
X205385433Y-55589638D01*
X205845998Y-55635000D01*
X210701442Y-55635000D01*
X211365000Y-56298559D01*
X211365000Y-58699207D01*
X211201618Y-58535825D01*
X210892882Y-58329534D01*
X210549834Y-58187439D01*
X210185656Y-58115000D01*
X209814344Y-58115000D01*
X209450166Y-58187439D01*
X209107118Y-58329534D01*
X208798382Y-58535825D01*
X208535825Y-58798382D01*
X208329534Y-59107118D01*
X208187439Y-59450166D01*
X208115000Y-59814344D01*
X208115000Y-60185656D01*
X208187439Y-60549834D01*
X208329534Y-60892882D01*
X208535825Y-61201618D01*
X208798382Y-61464175D01*
X209107118Y-61670466D01*
X209450166Y-61812561D01*
X209814344Y-61885000D01*
X210185656Y-61885000D01*
X210549834Y-61812561D01*
X210892882Y-61670466D01*
X211201618Y-61464175D01*
X211365001Y-61300792D01*
X211365001Y-62201441D01*
X209674325Y-63892117D01*
X209380732Y-64249861D01*
X209089625Y-64794483D01*
X208910362Y-65385433D01*
X208849833Y-66000000D01*
X208910362Y-66614567D01*
X209089625Y-67205517D01*
X209126742Y-67274959D01*
X209051717Y-67366377D01*
X209047385Y-67374482D01*
X208946324Y-67563554D01*
X208881423Y-67777502D01*
X208859509Y-68000000D01*
X208865001Y-68055761D01*
X208865000Y-70491312D01*
X208798382Y-70535825D01*
X208535825Y-70798382D01*
X208329534Y-71107118D01*
X208187439Y-71450166D01*
X208115000Y-71814344D01*
X208115000Y-72185656D01*
X208187439Y-72549834D01*
X208329534Y-72892882D01*
X208535825Y-73201618D01*
X208798382Y-73464175D01*
X209107118Y-73670466D01*
X209450166Y-73812561D01*
X209814344Y-73885000D01*
X210185656Y-73885000D01*
X210549834Y-73812561D01*
X210892882Y-73670466D01*
X211201618Y-73464175D01*
X211464175Y-73201618D01*
X211670466Y-72892882D01*
X211812561Y-72549834D01*
X211885000Y-72185656D01*
X211885000Y-71814344D01*
X211812561Y-71450166D01*
X211670466Y-71107118D01*
X211464175Y-70798382D01*
X211201618Y-70535825D01*
X211135000Y-70491312D01*
X211135000Y-69013670D01*
X211385433Y-69089638D01*
X212000000Y-69150167D01*
X212614567Y-69089638D01*
X213205517Y-68910375D01*
X213385706Y-68814062D01*
X213750743Y-69179099D01*
X213782367Y-69217633D01*
X213936160Y-69343847D01*
X214019474Y-69388379D01*
X214111620Y-69437632D01*
X214302005Y-69495385D01*
X214500000Y-69514886D01*
X214549608Y-69510000D01*
X221990001Y-69510000D01*
X221990000Y-72181005D01*
X221909538Y-72247038D01*
X221799095Y-72381614D01*
X221717028Y-72535150D01*
X221666492Y-72701746D01*
X221649428Y-72875000D01*
X221649428Y-74125000D01*
X221666492Y-74298254D01*
X221717028Y-74464850D01*
X221799095Y-74618386D01*
X221909538Y-74752962D01*
X221990001Y-74818996D01*
X221990000Y-76111928D01*
X221750000Y-76111928D01*
X221625518Y-76124188D01*
X221505820Y-76160498D01*
X221395506Y-76219463D01*
X221298815Y-76298815D01*
X221219463Y-76395506D01*
X221160498Y-76505820D01*
X221124188Y-76625518D01*
X221111928Y-76750000D01*
X221111928Y-79250000D01*
X221124188Y-79374482D01*
X221160498Y-79494180D01*
X221219463Y-79604494D01*
X221298815Y-79701185D01*
X221395506Y-79780537D01*
X221505820Y-79839502D01*
X221625518Y-79875812D01*
X221750000Y-79888072D01*
X224250000Y-79888072D01*
X224374482Y-79875812D01*
X224494180Y-79839502D01*
X224604494Y-79780537D01*
X224701185Y-79701185D01*
X224780537Y-79604494D01*
X224839502Y-79494180D01*
X224875812Y-79374482D01*
X224888072Y-79250000D01*
X224888072Y-76750000D01*
X224875812Y-76625518D01*
X224839502Y-76505820D01*
X224780537Y-76395506D01*
X224701185Y-76298815D01*
X224604494Y-76219463D01*
X224494180Y-76160498D01*
X224374482Y-76124188D01*
X224250000Y-76111928D01*
X224010000Y-76111928D01*
X224010000Y-74818995D01*
X224090462Y-74752962D01*
X224200905Y-74618386D01*
X224282972Y-74464850D01*
X224333508Y-74298254D01*
X224350572Y-74125000D01*
X224350572Y-72875000D01*
X224333508Y-72701746D01*
X224282972Y-72535150D01*
X224200905Y-72381614D01*
X224090462Y-72247038D01*
X224010000Y-72181005D01*
X224010000Y-69049608D01*
X224014886Y-69000000D01*
X223995385Y-68802005D01*
X223937632Y-68611620D01*
X223843847Y-68436160D01*
X223717633Y-68282367D01*
X223679094Y-68250739D01*
X223249261Y-67820906D01*
X223217633Y-67782367D01*
X223063840Y-67656153D01*
X222888380Y-67562368D01*
X222697994Y-67504615D01*
X222549608Y-67490000D01*
X222500000Y-67485114D01*
X222450392Y-67490000D01*
X214943558Y-67490000D01*
X216607880Y-65825679D01*
X216727505Y-65727505D01*
X217119269Y-65250140D01*
X217410376Y-64705517D01*
X217589638Y-64114567D01*
X217635000Y-63654002D01*
X217635000Y-63653995D01*
X217650167Y-63500000D01*
X217638336Y-63379872D01*
X219265000Y-63379872D01*
X219265000Y-63820128D01*
X219350890Y-64251925D01*
X219519369Y-64658669D01*
X219763962Y-65024729D01*
X220075271Y-65336038D01*
X220441331Y-65580631D01*
X220848075Y-65749110D01*
X221279872Y-65835000D01*
X221720128Y-65835000D01*
X222151925Y-65749110D01*
X222558669Y-65580631D01*
X222924729Y-65336038D01*
X223236038Y-65024729D01*
X223480631Y-64658669D01*
X223649110Y-64251925D01*
X223735000Y-63820128D01*
X223735000Y-63379872D01*
X223649110Y-62948075D01*
X223480631Y-62541331D01*
X223236038Y-62175271D01*
X222924729Y-61863962D01*
X222558669Y-61619369D01*
X222151925Y-61450890D01*
X221720128Y-61365000D01*
X221279872Y-61365000D01*
X220848075Y-61450890D01*
X220441331Y-61619369D01*
X220075271Y-61863962D01*
X219763962Y-62175271D01*
X219519369Y-62541331D01*
X219350890Y-62948075D01*
X219265000Y-63379872D01*
X217638336Y-63379872D01*
X217635000Y-63346005D01*
X217635000Y-55153995D01*
X217650167Y-55000000D01*
X217635000Y-54846005D01*
X217635000Y-54845998D01*
X217589638Y-54385433D01*
X217410376Y-53794483D01*
X217119269Y-53249860D01*
X216727505Y-52772495D01*
X216607881Y-52674323D01*
X216433558Y-52500000D01*
X222849832Y-52500000D01*
X222910362Y-53114567D01*
X223089624Y-53705517D01*
X223380731Y-54250140D01*
X223772495Y-54727505D01*
X224249860Y-55119269D01*
X224794483Y-55410376D01*
X225385433Y-55589638D01*
X225845998Y-55635000D01*
X237526712Y-55635000D01*
X237371286Y-55682148D01*
X237087249Y-55833969D01*
X236838287Y-56038286D01*
X236633970Y-56287248D01*
X236482149Y-56571285D01*
X236388658Y-56879484D01*
X236365000Y-57119678D01*
X236365000Y-58880321D01*
X236388657Y-59120515D01*
X236482148Y-59428714D01*
X236633969Y-59712751D01*
X236838286Y-59961714D01*
X236861411Y-59980692D01*
X236859509Y-60000000D01*
X236881423Y-60222498D01*
X236946324Y-60436446D01*
X236949780Y-60442911D01*
X237051717Y-60633623D01*
X237193552Y-60806449D01*
X237236860Y-60841991D01*
X239918023Y-63523155D01*
X239865000Y-63789721D01*
X239865000Y-64210279D01*
X239947047Y-64622756D01*
X240107988Y-65011302D01*
X240341637Y-65360983D01*
X240639017Y-65658363D01*
X240988698Y-65892012D01*
X241377244Y-66052953D01*
X241789721Y-66135000D01*
X242210279Y-66135000D01*
X242622756Y-66052953D01*
X243011302Y-65892012D01*
X243360983Y-65658363D01*
X243658363Y-65360983D01*
X243892012Y-65011302D01*
X244052953Y-64622756D01*
X244135000Y-64210279D01*
X244135000Y-63789721D01*
X244052953Y-63377244D01*
X243892012Y-62988698D01*
X243658363Y-62639017D01*
X243360983Y-62341637D01*
X243011302Y-62107988D01*
X242622756Y-61947047D01*
X242210279Y-61865000D01*
X241789721Y-61865000D01*
X241523155Y-61918023D01*
X239344328Y-59739197D01*
X239366031Y-59712752D01*
X239517852Y-59428715D01*
X239611343Y-59120516D01*
X239635000Y-58880322D01*
X239635000Y-57268559D01*
X239865000Y-57498559D01*
X239865000Y-58154001D01*
X239910362Y-58614566D01*
X240089624Y-59205516D01*
X240380731Y-59750139D01*
X240772495Y-60227505D01*
X241249860Y-60619269D01*
X241794483Y-60910376D01*
X242385433Y-61089638D01*
X243000000Y-61150168D01*
X243614566Y-61089638D01*
X244205516Y-60910376D01*
X244750139Y-60619269D01*
X245227505Y-60227505D01*
X245619269Y-59750140D01*
X245910376Y-59205517D01*
X246089638Y-58614567D01*
X246135000Y-58154002D01*
X246135000Y-56353994D01*
X246150167Y-56199999D01*
X246135000Y-56046004D01*
X246135000Y-56045999D01*
X246093981Y-55629528D01*
X246089638Y-55585432D01*
X245948229Y-55119269D01*
X245910376Y-54994483D01*
X245619269Y-54449860D01*
X245227505Y-53972495D01*
X245107886Y-53874326D01*
X241625682Y-50392124D01*
X241527505Y-50272495D01*
X241050140Y-49880731D01*
X240505517Y-49589624D01*
X239914567Y-49410362D01*
X239454002Y-49365000D01*
X239453995Y-49365000D01*
X239300000Y-49349833D01*
X239146005Y-49365000D01*
X225845998Y-49365000D01*
X225385433Y-49410362D01*
X224794483Y-49589624D01*
X224249860Y-49880731D01*
X223772495Y-50272495D01*
X223380731Y-50749860D01*
X223089624Y-51294483D01*
X222910362Y-51885433D01*
X222849832Y-52500000D01*
X216433558Y-52500000D01*
X214325682Y-50392124D01*
X214227505Y-50272495D01*
X213750140Y-49880731D01*
X213205517Y-49589624D01*
X212614567Y-49410362D01*
X212154002Y-49365000D01*
X212153995Y-49365000D01*
X212000000Y-49349833D01*
X211846005Y-49365000D01*
X205845998Y-49365000D01*
X205385433Y-49410362D01*
X204794483Y-49589624D01*
X204249860Y-49880731D01*
X203772495Y-50272495D01*
X203380731Y-50749860D01*
X203089624Y-51294483D01*
X202910362Y-51885433D01*
X202849832Y-52500000D01*
X202100922Y-52500000D01*
X202089638Y-52385433D01*
X201910376Y-51794483D01*
X201619269Y-51249860D01*
X201227505Y-50772495D01*
X200750139Y-50380731D01*
X200205516Y-50089624D01*
X199614566Y-49910362D01*
X199000000Y-49849832D01*
X198385433Y-49910362D01*
X197794483Y-50089624D01*
X197249860Y-50380731D01*
X196772495Y-50772495D01*
X196380731Y-51249861D01*
X196089624Y-51794484D01*
X195910362Y-52385434D01*
X195865000Y-52845999D01*
X195865001Y-57501441D01*
X195474325Y-57892117D01*
X195180732Y-58249861D01*
X194889625Y-58794483D01*
X194710362Y-59385433D01*
X194649833Y-60000000D01*
X191127000Y-60000000D01*
X191127000Y-48127000D01*
X246873000Y-48127000D01*
X246873000Y-103873000D01*
%TD*%
M02*
