%TF.GenerationSoftware,KiCad,Pcbnew,(5.1.6)-1*%
%TF.CreationDate,2020-09-02T14:56:51+09:00*%
%TF.ProjectId,attiny1614_accsupervisor,61747469-6e79-4313-9631-345f61636373,r01*%
%TF.SameCoordinates,Original*%
%TF.FileFunction,Paste,Bot*%
%TF.FilePolarity,Positive*%
%FSLAX46Y46*%
G04 Gerber Fmt 4.6, Leading zero omitted, Abs format (unit mm)*
G04 Created by KiCad (PCBNEW (5.1.6)-1) date 2020-09-02 14:56:51*
%MOMM*%
%LPD*%
G01*
G04 APERTURE LIST*
%ADD10R,2.500000X1.800000*%
%ADD11R,0.800000X0.900000*%
%ADD12R,0.900000X0.800000*%
G04 APERTURE END LIST*
%TO.C,C3*%
G36*
G01*
X202200000Y-92375000D02*
X202200000Y-93625000D01*
G75*
G02*
X201950000Y-93875000I-250000J0D01*
G01*
X201025000Y-93875000D01*
G75*
G02*
X200775000Y-93625000I0J250000D01*
G01*
X200775000Y-92375000D01*
G75*
G02*
X201025000Y-92125000I250000J0D01*
G01*
X201950000Y-92125000D01*
G75*
G02*
X202200000Y-92375000I0J-250000D01*
G01*
G37*
G36*
G01*
X199225000Y-92375000D02*
X199225000Y-93625000D01*
G75*
G02*
X198975000Y-93875000I-250000J0D01*
G01*
X198050000Y-93875000D01*
G75*
G02*
X197800000Y-93625000I0J250000D01*
G01*
X197800000Y-92375000D01*
G75*
G02*
X198050000Y-92125000I250000J0D01*
G01*
X198975000Y-92125000D01*
G75*
G02*
X199225000Y-92375000I0J-250000D01*
G01*
G37*
%TD*%
D10*
%TO.C,D1*%
X207500000Y-64000000D03*
X203500000Y-64000000D03*
%TD*%
D11*
%TO.C,Q1*%
X200450000Y-68000000D03*
X198550000Y-68000000D03*
X199500000Y-66000000D03*
%TD*%
D12*
%TO.C,Q2*%
X223500000Y-78000000D03*
X221500000Y-77050000D03*
X221500000Y-78950000D03*
%TD*%
%TO.C,Q3*%
X221500000Y-92450000D03*
X221500000Y-90550000D03*
X223500000Y-91500000D03*
%TD*%
%TO.C,Q4*%
X221500000Y-74950000D03*
X221500000Y-73050000D03*
X223500000Y-74000000D03*
%TD*%
%TO.C,Q5*%
X223500000Y-87500000D03*
X221500000Y-86550000D03*
X221500000Y-88450000D03*
%TD*%
%TO.C,R1*%
G36*
G01*
X202375000Y-67300000D02*
X203625000Y-67300000D01*
G75*
G02*
X203875000Y-67550000I0J-250000D01*
G01*
X203875000Y-68475000D01*
G75*
G02*
X203625000Y-68725000I-250000J0D01*
G01*
X202375000Y-68725000D01*
G75*
G02*
X202125000Y-68475000I0J250000D01*
G01*
X202125000Y-67550000D01*
G75*
G02*
X202375000Y-67300000I250000J0D01*
G01*
G37*
G36*
G01*
X202375000Y-70275000D02*
X203625000Y-70275000D01*
G75*
G02*
X203875000Y-70525000I0J-250000D01*
G01*
X203875000Y-71450000D01*
G75*
G02*
X203625000Y-71700000I-250000J0D01*
G01*
X202375000Y-71700000D01*
G75*
G02*
X202125000Y-71450000I0J250000D01*
G01*
X202125000Y-70525000D01*
G75*
G02*
X202375000Y-70275000I250000J0D01*
G01*
G37*
%TD*%
%TO.C,R2*%
G36*
G01*
X213375000Y-80275000D02*
X214625000Y-80275000D01*
G75*
G02*
X214875000Y-80525000I0J-250000D01*
G01*
X214875000Y-81450000D01*
G75*
G02*
X214625000Y-81700000I-250000J0D01*
G01*
X213375000Y-81700000D01*
G75*
G02*
X213125000Y-81450000I0J250000D01*
G01*
X213125000Y-80525000D01*
G75*
G02*
X213375000Y-80275000I250000J0D01*
G01*
G37*
G36*
G01*
X213375000Y-77300000D02*
X214625000Y-77300000D01*
G75*
G02*
X214875000Y-77550000I0J-250000D01*
G01*
X214875000Y-78475000D01*
G75*
G02*
X214625000Y-78725000I-250000J0D01*
G01*
X213375000Y-78725000D01*
G75*
G02*
X213125000Y-78475000I0J250000D01*
G01*
X213125000Y-77550000D01*
G75*
G02*
X213375000Y-77300000I250000J0D01*
G01*
G37*
%TD*%
%TO.C,R3*%
G36*
G01*
X214625000Y-92200000D02*
X213375000Y-92200000D01*
G75*
G02*
X213125000Y-91950000I0J250000D01*
G01*
X213125000Y-91025000D01*
G75*
G02*
X213375000Y-90775000I250000J0D01*
G01*
X214625000Y-90775000D01*
G75*
G02*
X214875000Y-91025000I0J-250000D01*
G01*
X214875000Y-91950000D01*
G75*
G02*
X214625000Y-92200000I-250000J0D01*
G01*
G37*
G36*
G01*
X214625000Y-89225000D02*
X213375000Y-89225000D01*
G75*
G02*
X213125000Y-88975000I0J250000D01*
G01*
X213125000Y-88050000D01*
G75*
G02*
X213375000Y-87800000I250000J0D01*
G01*
X214625000Y-87800000D01*
G75*
G02*
X214875000Y-88050000I0J-250000D01*
G01*
X214875000Y-88975000D01*
G75*
G02*
X214625000Y-89225000I-250000J0D01*
G01*
G37*
%TD*%
%TO.C,R4*%
G36*
G01*
X226125000Y-78200000D02*
X224875000Y-78200000D01*
G75*
G02*
X224625000Y-77950000I0J250000D01*
G01*
X224625000Y-77025000D01*
G75*
G02*
X224875000Y-76775000I250000J0D01*
G01*
X226125000Y-76775000D01*
G75*
G02*
X226375000Y-77025000I0J-250000D01*
G01*
X226375000Y-77950000D01*
G75*
G02*
X226125000Y-78200000I-250000J0D01*
G01*
G37*
G36*
G01*
X226125000Y-75225000D02*
X224875000Y-75225000D01*
G75*
G02*
X224625000Y-74975000I0J250000D01*
G01*
X224625000Y-74050000D01*
G75*
G02*
X224875000Y-73800000I250000J0D01*
G01*
X226125000Y-73800000D01*
G75*
G02*
X226375000Y-74050000I0J-250000D01*
G01*
X226375000Y-74975000D01*
G75*
G02*
X226125000Y-75225000I-250000J0D01*
G01*
G37*
%TD*%
%TO.C,R5*%
G36*
G01*
X226125000Y-88725000D02*
X224875000Y-88725000D01*
G75*
G02*
X224625000Y-88475000I0J250000D01*
G01*
X224625000Y-87550000D01*
G75*
G02*
X224875000Y-87300000I250000J0D01*
G01*
X226125000Y-87300000D01*
G75*
G02*
X226375000Y-87550000I0J-250000D01*
G01*
X226375000Y-88475000D01*
G75*
G02*
X226125000Y-88725000I-250000J0D01*
G01*
G37*
G36*
G01*
X226125000Y-91700000D02*
X224875000Y-91700000D01*
G75*
G02*
X224625000Y-91450000I0J250000D01*
G01*
X224625000Y-90525000D01*
G75*
G02*
X224875000Y-90275000I250000J0D01*
G01*
X226125000Y-90275000D01*
G75*
G02*
X226375000Y-90525000I0J-250000D01*
G01*
X226375000Y-91450000D01*
G75*
G02*
X226125000Y-91700000I-250000J0D01*
G01*
G37*
%TD*%
%TO.C,R6*%
G36*
G01*
X220800000Y-71625000D02*
X220800000Y-70375000D01*
G75*
G02*
X221050000Y-70125000I250000J0D01*
G01*
X221975000Y-70125000D01*
G75*
G02*
X222225000Y-70375000I0J-250000D01*
G01*
X222225000Y-71625000D01*
G75*
G02*
X221975000Y-71875000I-250000J0D01*
G01*
X221050000Y-71875000D01*
G75*
G02*
X220800000Y-71625000I0J250000D01*
G01*
G37*
G36*
G01*
X223775000Y-71625000D02*
X223775000Y-70375000D01*
G75*
G02*
X224025000Y-70125000I250000J0D01*
G01*
X224950000Y-70125000D01*
G75*
G02*
X225200000Y-70375000I0J-250000D01*
G01*
X225200000Y-71625000D01*
G75*
G02*
X224950000Y-71875000I-250000J0D01*
G01*
X224025000Y-71875000D01*
G75*
G02*
X223775000Y-71625000I0J250000D01*
G01*
G37*
%TD*%
%TO.C,R7*%
G36*
G01*
X223775000Y-85125000D02*
X223775000Y-83875000D01*
G75*
G02*
X224025000Y-83625000I250000J0D01*
G01*
X224950000Y-83625000D01*
G75*
G02*
X225200000Y-83875000I0J-250000D01*
G01*
X225200000Y-85125000D01*
G75*
G02*
X224950000Y-85375000I-250000J0D01*
G01*
X224025000Y-85375000D01*
G75*
G02*
X223775000Y-85125000I0J250000D01*
G01*
G37*
G36*
G01*
X220800000Y-85125000D02*
X220800000Y-83875000D01*
G75*
G02*
X221050000Y-83625000I250000J0D01*
G01*
X221975000Y-83625000D01*
G75*
G02*
X222225000Y-83875000I0J-250000D01*
G01*
X222225000Y-85125000D01*
G75*
G02*
X221975000Y-85375000I-250000J0D01*
G01*
X221050000Y-85375000D01*
G75*
G02*
X220800000Y-85125000I0J250000D01*
G01*
G37*
%TD*%
%TO.C,R8*%
G36*
G01*
X219125000Y-74700000D02*
X217875000Y-74700000D01*
G75*
G02*
X217625000Y-74450000I0J250000D01*
G01*
X217625000Y-73525000D01*
G75*
G02*
X217875000Y-73275000I250000J0D01*
G01*
X219125000Y-73275000D01*
G75*
G02*
X219375000Y-73525000I0J-250000D01*
G01*
X219375000Y-74450000D01*
G75*
G02*
X219125000Y-74700000I-250000J0D01*
G01*
G37*
G36*
G01*
X219125000Y-71725000D02*
X217875000Y-71725000D01*
G75*
G02*
X217625000Y-71475000I0J250000D01*
G01*
X217625000Y-70550000D01*
G75*
G02*
X217875000Y-70300000I250000J0D01*
G01*
X219125000Y-70300000D01*
G75*
G02*
X219375000Y-70550000I0J-250000D01*
G01*
X219375000Y-71475000D01*
G75*
G02*
X219125000Y-71725000I-250000J0D01*
G01*
G37*
%TD*%
%TO.C,R9*%
G36*
G01*
X219125000Y-85225000D02*
X217875000Y-85225000D01*
G75*
G02*
X217625000Y-84975000I0J250000D01*
G01*
X217625000Y-84050000D01*
G75*
G02*
X217875000Y-83800000I250000J0D01*
G01*
X219125000Y-83800000D01*
G75*
G02*
X219375000Y-84050000I0J-250000D01*
G01*
X219375000Y-84975000D01*
G75*
G02*
X219125000Y-85225000I-250000J0D01*
G01*
G37*
G36*
G01*
X219125000Y-88200000D02*
X217875000Y-88200000D01*
G75*
G02*
X217625000Y-87950000I0J250000D01*
G01*
X217625000Y-87025000D01*
G75*
G02*
X217875000Y-86775000I250000J0D01*
G01*
X219125000Y-86775000D01*
G75*
G02*
X219375000Y-87025000I0J-250000D01*
G01*
X219375000Y-87950000D01*
G75*
G02*
X219125000Y-88200000I-250000J0D01*
G01*
G37*
%TD*%
%TO.C,R10*%
G36*
G01*
X219125000Y-77225000D02*
X217875000Y-77225000D01*
G75*
G02*
X217625000Y-76975000I0J250000D01*
G01*
X217625000Y-76050000D01*
G75*
G02*
X217875000Y-75800000I250000J0D01*
G01*
X219125000Y-75800000D01*
G75*
G02*
X219375000Y-76050000I0J-250000D01*
G01*
X219375000Y-76975000D01*
G75*
G02*
X219125000Y-77225000I-250000J0D01*
G01*
G37*
G36*
G01*
X219125000Y-80200000D02*
X217875000Y-80200000D01*
G75*
G02*
X217625000Y-79950000I0J250000D01*
G01*
X217625000Y-79025000D01*
G75*
G02*
X217875000Y-78775000I250000J0D01*
G01*
X219125000Y-78775000D01*
G75*
G02*
X219375000Y-79025000I0J-250000D01*
G01*
X219375000Y-79950000D01*
G75*
G02*
X219125000Y-80200000I-250000J0D01*
G01*
G37*
%TD*%
%TO.C,R11*%
G36*
G01*
X219125000Y-93700000D02*
X217875000Y-93700000D01*
G75*
G02*
X217625000Y-93450000I0J250000D01*
G01*
X217625000Y-92525000D01*
G75*
G02*
X217875000Y-92275000I250000J0D01*
G01*
X219125000Y-92275000D01*
G75*
G02*
X219375000Y-92525000I0J-250000D01*
G01*
X219375000Y-93450000D01*
G75*
G02*
X219125000Y-93700000I-250000J0D01*
G01*
G37*
G36*
G01*
X219125000Y-90725000D02*
X217875000Y-90725000D01*
G75*
G02*
X217625000Y-90475000I0J250000D01*
G01*
X217625000Y-89550000D01*
G75*
G02*
X217875000Y-89300000I250000J0D01*
G01*
X219125000Y-89300000D01*
G75*
G02*
X219375000Y-89550000I0J-250000D01*
G01*
X219375000Y-90475000D01*
G75*
G02*
X219125000Y-90725000I-250000J0D01*
G01*
G37*
%TD*%
%TO.C,R12*%
G36*
G01*
X207625000Y-94200000D02*
X206375000Y-94200000D01*
G75*
G02*
X206125000Y-93950000I0J250000D01*
G01*
X206125000Y-93025000D01*
G75*
G02*
X206375000Y-92775000I250000J0D01*
G01*
X207625000Y-92775000D01*
G75*
G02*
X207875000Y-93025000I0J-250000D01*
G01*
X207875000Y-93950000D01*
G75*
G02*
X207625000Y-94200000I-250000J0D01*
G01*
G37*
G36*
G01*
X207625000Y-91225000D02*
X206375000Y-91225000D01*
G75*
G02*
X206125000Y-90975000I0J250000D01*
G01*
X206125000Y-90050000D01*
G75*
G02*
X206375000Y-89800000I250000J0D01*
G01*
X207625000Y-89800000D01*
G75*
G02*
X207875000Y-90050000I0J-250000D01*
G01*
X207875000Y-90975000D01*
G75*
G02*
X207625000Y-91225000I-250000J0D01*
G01*
G37*
%TD*%
%TO.C,R13*%
G36*
G01*
X198275000Y-77625000D02*
X198275000Y-76375000D01*
G75*
G02*
X198525000Y-76125000I250000J0D01*
G01*
X199450000Y-76125000D01*
G75*
G02*
X199700000Y-76375000I0J-250000D01*
G01*
X199700000Y-77625000D01*
G75*
G02*
X199450000Y-77875000I-250000J0D01*
G01*
X198525000Y-77875000D01*
G75*
G02*
X198275000Y-77625000I0J250000D01*
G01*
G37*
G36*
G01*
X195300000Y-77625000D02*
X195300000Y-76375000D01*
G75*
G02*
X195550000Y-76125000I250000J0D01*
G01*
X196475000Y-76125000D01*
G75*
G02*
X196725000Y-76375000I0J-250000D01*
G01*
X196725000Y-77625000D01*
G75*
G02*
X196475000Y-77875000I-250000J0D01*
G01*
X195550000Y-77875000D01*
G75*
G02*
X195300000Y-77625000I0J250000D01*
G01*
G37*
%TD*%
%TO.C,R14*%
G36*
G01*
X195300000Y-80125000D02*
X195300000Y-78875000D01*
G75*
G02*
X195550000Y-78625000I250000J0D01*
G01*
X196475000Y-78625000D01*
G75*
G02*
X196725000Y-78875000I0J-250000D01*
G01*
X196725000Y-80125000D01*
G75*
G02*
X196475000Y-80375000I-250000J0D01*
G01*
X195550000Y-80375000D01*
G75*
G02*
X195300000Y-80125000I0J250000D01*
G01*
G37*
G36*
G01*
X198275000Y-80125000D02*
X198275000Y-78875000D01*
G75*
G02*
X198525000Y-78625000I250000J0D01*
G01*
X199450000Y-78625000D01*
G75*
G02*
X199700000Y-78875000I0J-250000D01*
G01*
X199700000Y-80125000D01*
G75*
G02*
X199450000Y-80375000I-250000J0D01*
G01*
X198525000Y-80375000D01*
G75*
G02*
X198275000Y-80125000I0J250000D01*
G01*
G37*
%TD*%
%TO.C,R15*%
G36*
G01*
X205125000Y-91225000D02*
X203875000Y-91225000D01*
G75*
G02*
X203625000Y-90975000I0J250000D01*
G01*
X203625000Y-90050000D01*
G75*
G02*
X203875000Y-89800000I250000J0D01*
G01*
X205125000Y-89800000D01*
G75*
G02*
X205375000Y-90050000I0J-250000D01*
G01*
X205375000Y-90975000D01*
G75*
G02*
X205125000Y-91225000I-250000J0D01*
G01*
G37*
G36*
G01*
X205125000Y-94200000D02*
X203875000Y-94200000D01*
G75*
G02*
X203625000Y-93950000I0J250000D01*
G01*
X203625000Y-93025000D01*
G75*
G02*
X203875000Y-92775000I250000J0D01*
G01*
X205125000Y-92775000D01*
G75*
G02*
X205375000Y-93025000I0J-250000D01*
G01*
X205375000Y-93950000D01*
G75*
G02*
X205125000Y-94200000I-250000J0D01*
G01*
G37*
%TD*%
%TO.C,U1*%
G36*
G01*
X201550000Y-85460000D02*
X201550000Y-85160000D01*
G75*
G02*
X201700000Y-85010000I150000J0D01*
G01*
X203350000Y-85010000D01*
G75*
G02*
X203500000Y-85160000I0J-150000D01*
G01*
X203500000Y-85460000D01*
G75*
G02*
X203350000Y-85610000I-150000J0D01*
G01*
X201700000Y-85610000D01*
G75*
G02*
X201550000Y-85460000I0J150000D01*
G01*
G37*
G36*
G01*
X201550000Y-84190000D02*
X201550000Y-83890000D01*
G75*
G02*
X201700000Y-83740000I150000J0D01*
G01*
X203350000Y-83740000D01*
G75*
G02*
X203500000Y-83890000I0J-150000D01*
G01*
X203500000Y-84190000D01*
G75*
G02*
X203350000Y-84340000I-150000J0D01*
G01*
X201700000Y-84340000D01*
G75*
G02*
X201550000Y-84190000I0J150000D01*
G01*
G37*
G36*
G01*
X201550000Y-82920000D02*
X201550000Y-82620000D01*
G75*
G02*
X201700000Y-82470000I150000J0D01*
G01*
X203350000Y-82470000D01*
G75*
G02*
X203500000Y-82620000I0J-150000D01*
G01*
X203500000Y-82920000D01*
G75*
G02*
X203350000Y-83070000I-150000J0D01*
G01*
X201700000Y-83070000D01*
G75*
G02*
X201550000Y-82920000I0J150000D01*
G01*
G37*
G36*
G01*
X201550000Y-81650000D02*
X201550000Y-81350000D01*
G75*
G02*
X201700000Y-81200000I150000J0D01*
G01*
X203350000Y-81200000D01*
G75*
G02*
X203500000Y-81350000I0J-150000D01*
G01*
X203500000Y-81650000D01*
G75*
G02*
X203350000Y-81800000I-150000J0D01*
G01*
X201700000Y-81800000D01*
G75*
G02*
X201550000Y-81650000I0J150000D01*
G01*
G37*
G36*
G01*
X201550000Y-80380000D02*
X201550000Y-80080000D01*
G75*
G02*
X201700000Y-79930000I150000J0D01*
G01*
X203350000Y-79930000D01*
G75*
G02*
X203500000Y-80080000I0J-150000D01*
G01*
X203500000Y-80380000D01*
G75*
G02*
X203350000Y-80530000I-150000J0D01*
G01*
X201700000Y-80530000D01*
G75*
G02*
X201550000Y-80380000I0J150000D01*
G01*
G37*
G36*
G01*
X201550000Y-79110000D02*
X201550000Y-78810000D01*
G75*
G02*
X201700000Y-78660000I150000J0D01*
G01*
X203350000Y-78660000D01*
G75*
G02*
X203500000Y-78810000I0J-150000D01*
G01*
X203500000Y-79110000D01*
G75*
G02*
X203350000Y-79260000I-150000J0D01*
G01*
X201700000Y-79260000D01*
G75*
G02*
X201550000Y-79110000I0J150000D01*
G01*
G37*
G36*
G01*
X201550000Y-77840000D02*
X201550000Y-77540000D01*
G75*
G02*
X201700000Y-77390000I150000J0D01*
G01*
X203350000Y-77390000D01*
G75*
G02*
X203500000Y-77540000I0J-150000D01*
G01*
X203500000Y-77840000D01*
G75*
G02*
X203350000Y-77990000I-150000J0D01*
G01*
X201700000Y-77990000D01*
G75*
G02*
X201550000Y-77840000I0J150000D01*
G01*
G37*
G36*
G01*
X206500000Y-77840000D02*
X206500000Y-77540000D01*
G75*
G02*
X206650000Y-77390000I150000J0D01*
G01*
X208300000Y-77390000D01*
G75*
G02*
X208450000Y-77540000I0J-150000D01*
G01*
X208450000Y-77840000D01*
G75*
G02*
X208300000Y-77990000I-150000J0D01*
G01*
X206650000Y-77990000D01*
G75*
G02*
X206500000Y-77840000I0J150000D01*
G01*
G37*
G36*
G01*
X206500000Y-79110000D02*
X206500000Y-78810000D01*
G75*
G02*
X206650000Y-78660000I150000J0D01*
G01*
X208300000Y-78660000D01*
G75*
G02*
X208450000Y-78810000I0J-150000D01*
G01*
X208450000Y-79110000D01*
G75*
G02*
X208300000Y-79260000I-150000J0D01*
G01*
X206650000Y-79260000D01*
G75*
G02*
X206500000Y-79110000I0J150000D01*
G01*
G37*
G36*
G01*
X206500000Y-80380000D02*
X206500000Y-80080000D01*
G75*
G02*
X206650000Y-79930000I150000J0D01*
G01*
X208300000Y-79930000D01*
G75*
G02*
X208450000Y-80080000I0J-150000D01*
G01*
X208450000Y-80380000D01*
G75*
G02*
X208300000Y-80530000I-150000J0D01*
G01*
X206650000Y-80530000D01*
G75*
G02*
X206500000Y-80380000I0J150000D01*
G01*
G37*
G36*
G01*
X206500000Y-81650000D02*
X206500000Y-81350000D01*
G75*
G02*
X206650000Y-81200000I150000J0D01*
G01*
X208300000Y-81200000D01*
G75*
G02*
X208450000Y-81350000I0J-150000D01*
G01*
X208450000Y-81650000D01*
G75*
G02*
X208300000Y-81800000I-150000J0D01*
G01*
X206650000Y-81800000D01*
G75*
G02*
X206500000Y-81650000I0J150000D01*
G01*
G37*
G36*
G01*
X206500000Y-82920000D02*
X206500000Y-82620000D01*
G75*
G02*
X206650000Y-82470000I150000J0D01*
G01*
X208300000Y-82470000D01*
G75*
G02*
X208450000Y-82620000I0J-150000D01*
G01*
X208450000Y-82920000D01*
G75*
G02*
X208300000Y-83070000I-150000J0D01*
G01*
X206650000Y-83070000D01*
G75*
G02*
X206500000Y-82920000I0J150000D01*
G01*
G37*
G36*
G01*
X206500000Y-84190000D02*
X206500000Y-83890000D01*
G75*
G02*
X206650000Y-83740000I150000J0D01*
G01*
X208300000Y-83740000D01*
G75*
G02*
X208450000Y-83890000I0J-150000D01*
G01*
X208450000Y-84190000D01*
G75*
G02*
X208300000Y-84340000I-150000J0D01*
G01*
X206650000Y-84340000D01*
G75*
G02*
X206500000Y-84190000I0J150000D01*
G01*
G37*
G36*
G01*
X206500000Y-85460000D02*
X206500000Y-85160000D01*
G75*
G02*
X206650000Y-85010000I150000J0D01*
G01*
X208300000Y-85010000D01*
G75*
G02*
X208450000Y-85160000I0J-150000D01*
G01*
X208450000Y-85460000D01*
G75*
G02*
X208300000Y-85610000I-150000J0D01*
G01*
X206650000Y-85610000D01*
G75*
G02*
X206500000Y-85460000I0J150000D01*
G01*
G37*
%TD*%
M02*
