%TF.GenerationSoftware,KiCad,Pcbnew,(5.1.6)-1*%
%TF.CreationDate,2020-09-02T15:00:01+09:00*%
%TF.ProjectId,attiny1614_accsupervisor,61747469-6e79-4313-9631-345f61636373,r01*%
%TF.SameCoordinates,Original*%
%TF.FileFunction,Copper,L2,Bot*%
%TF.FilePolarity,Positive*%
%FSLAX46Y46*%
G04 Gerber Fmt 4.6, Leading zero omitted, Abs format (unit mm)*
G04 Created by KiCad (PCBNEW (5.1.6)-1) date 2020-09-02 15:00:01*
%MOMM*%
%LPD*%
G01*
G04 APERTURE LIST*
%TA.AperFunction,SMDPad,CuDef*%
%ADD10R,2.500000X1.800000*%
%TD*%
%TA.AperFunction,ComponentPad*%
%ADD11C,3.000000*%
%TD*%
%TA.AperFunction,ComponentPad*%
%ADD12O,2.000000X3.600000*%
%TD*%
%TA.AperFunction,ComponentPad*%
%ADD13R,2.600000X2.600000*%
%TD*%
%TA.AperFunction,ComponentPad*%
%ADD14C,2.600000*%
%TD*%
%TA.AperFunction,ComponentPad*%
%ADD15R,1.700000X1.700000*%
%TD*%
%TA.AperFunction,ComponentPad*%
%ADD16O,1.700000X1.700000*%
%TD*%
%TA.AperFunction,ComponentPad*%
%ADD17R,2.500000X2.500000*%
%TD*%
%TA.AperFunction,ComponentPad*%
%ADD18O,2.500000X2.500000*%
%TD*%
%TA.AperFunction,SMDPad,CuDef*%
%ADD19R,0.800000X0.900000*%
%TD*%
%TA.AperFunction,SMDPad,CuDef*%
%ADD20R,0.900000X0.800000*%
%TD*%
%TA.AperFunction,ViaPad*%
%ADD21C,0.800000*%
%TD*%
%TA.AperFunction,Conductor*%
%ADD22C,0.500000*%
%TD*%
%TA.AperFunction,Conductor*%
%ADD23C,0.750000*%
%TD*%
%TA.AperFunction,Conductor*%
%ADD24C,1.000000*%
%TD*%
%TA.AperFunction,Conductor*%
%ADD25C,0.250000*%
%TD*%
%TA.AperFunction,Conductor*%
%ADD26C,0.254000*%
%TD*%
G04 APERTURE END LIST*
%TO.P,C3,1*%
%TO.N,/3V3*%
%TA.AperFunction,SMDPad,CuDef*%
G36*
G01*
X202200000Y-92375000D02*
X202200000Y-93625000D01*
G75*
G02*
X201950000Y-93875000I-250000J0D01*
G01*
X201025000Y-93875000D01*
G75*
G02*
X200775000Y-93625000I0J250000D01*
G01*
X200775000Y-92375000D01*
G75*
G02*
X201025000Y-92125000I250000J0D01*
G01*
X201950000Y-92125000D01*
G75*
G02*
X202200000Y-92375000I0J-250000D01*
G01*
G37*
%TD.AperFunction*%
%TO.P,C3,2*%
%TO.N,GND*%
%TA.AperFunction,SMDPad,CuDef*%
G36*
G01*
X199225000Y-92375000D02*
X199225000Y-93625000D01*
G75*
G02*
X198975000Y-93875000I-250000J0D01*
G01*
X198050000Y-93875000D01*
G75*
G02*
X197800000Y-93625000I0J250000D01*
G01*
X197800000Y-92375000D01*
G75*
G02*
X198050000Y-92125000I250000J0D01*
G01*
X198975000Y-92125000D01*
G75*
G02*
X199225000Y-92375000I0J-250000D01*
G01*
G37*
%TD.AperFunction*%
%TD*%
D10*
%TO.P,D1,1*%
%TO.N,/12V*%
X207500000Y-64000000D03*
%TO.P,D1,2*%
%TO.N,Net-(D1-Pad2)*%
X203500000Y-64000000D03*
%TD*%
D11*
%TO.P,F1,1*%
%TO.N,/12V_IN*%
X226000000Y-52500000D03*
%TO.P,F1,2*%
%TO.N,/12V*%
X206000000Y-52500000D03*
%TD*%
%TO.P,F2,2*%
%TO.N,/ACC*%
X242000000Y-84000000D03*
%TO.P,F2,1*%
%TO.N,/ACC_IN*%
X242000000Y-64000000D03*
%TD*%
%TO.P,J2,1*%
%TO.N,/12V_IN*%
%TA.AperFunction,ComponentPad*%
G36*
G01*
X244000000Y-56450000D02*
X244000000Y-59550000D01*
G75*
G02*
X243750000Y-59800000I-250000J0D01*
G01*
X242250000Y-59800000D01*
G75*
G02*
X242000000Y-59550000I0J250000D01*
G01*
X242000000Y-56450000D01*
G75*
G02*
X242250000Y-56200000I250000J0D01*
G01*
X243750000Y-56200000D01*
G75*
G02*
X244000000Y-56450000I0J-250000D01*
G01*
G37*
%TD.AperFunction*%
D12*
%TO.P,J2,2*%
%TO.N,/ACC_IN*%
X238000000Y-58000000D03*
%TO.P,J2,3*%
%TO.N,GND*%
X233000000Y-58000000D03*
%TD*%
D13*
%TO.P,J3,1*%
%TO.N,/JST_12V*%
X199000000Y-53000000D03*
D14*
%TO.P,J3,2*%
%TO.N,GND*%
X194000000Y-53000000D03*
%TD*%
D15*
%TO.P,J4,1*%
%TO.N,N/C*%
X194870000Y-99170000D03*
D16*
%TO.P,J4,2*%
X194870000Y-96630000D03*
%TO.P,J4,3*%
X197410000Y-99170000D03*
%TO.P,J4,4*%
X197410000Y-96630000D03*
%TO.P,J4,5*%
X199950000Y-99170000D03*
%TO.P,J4,6*%
%TO.N,GND*%
X199950000Y-96630000D03*
%TO.P,J4,7*%
%TO.N,N/C*%
X202490000Y-99170000D03*
%TO.P,J4,8*%
%TO.N,/JST_TX*%
X202490000Y-96630000D03*
%TO.P,J4,9*%
%TO.N,GND*%
X205030000Y-99170000D03*
%TO.P,J4,10*%
%TO.N,/JST_RX*%
X205030000Y-96630000D03*
%TO.P,J4,11*%
%TO.N,N/C*%
X207570000Y-99170000D03*
%TO.P,J4,12*%
X207570000Y-96630000D03*
%TO.P,J4,13*%
X210110000Y-99170000D03*
%TO.P,J4,14*%
%TO.N,GND*%
X210110000Y-96630000D03*
%TO.P,J4,15*%
%TO.N,N/C*%
X212650000Y-99170000D03*
%TO.P,J4,16*%
X212650000Y-96630000D03*
%TO.P,J4,17*%
X215190000Y-99170000D03*
%TO.P,J4,18*%
X215190000Y-96630000D03*
%TO.P,J4,19*%
X217730000Y-99170000D03*
%TO.P,J4,20*%
%TO.N,GND*%
X217730000Y-96630000D03*
%TO.P,J4,21*%
%TO.N,N/C*%
X220270000Y-99170000D03*
%TO.P,J4,22*%
X220270000Y-96630000D03*
%TO.P,J4,23*%
X222810000Y-99170000D03*
%TO.P,J4,24*%
X222810000Y-96630000D03*
%TO.P,J4,25*%
%TO.N,GND*%
X225350000Y-99170000D03*
%TO.P,J4,26*%
%TO.N,N/C*%
X225350000Y-96630000D03*
%TO.P,J4,27*%
X227890000Y-99170000D03*
%TO.P,J4,28*%
X227890000Y-96630000D03*
%TO.P,J4,29*%
X230430000Y-99170000D03*
%TO.P,J4,30*%
%TO.N,GND*%
X230430000Y-96630000D03*
%TO.P,J4,31*%
%TO.N,N/C*%
X232970000Y-99170000D03*
%TO.P,J4,32*%
X232970000Y-96630000D03*
%TO.P,J4,33*%
X235510000Y-99170000D03*
%TO.P,J4,34*%
%TO.N,GND*%
X235510000Y-96630000D03*
%TO.P,J4,35*%
%TO.N,N/C*%
X238050000Y-99170000D03*
%TO.P,J4,36*%
X238050000Y-96630000D03*
%TO.P,J4,37*%
X240590000Y-99170000D03*
%TO.P,J4,38*%
X240590000Y-96630000D03*
%TO.P,J4,39*%
%TO.N,GND*%
X243130000Y-99170000D03*
%TO.P,J4,40*%
%TO.N,N/C*%
X243130000Y-96630000D03*
%TD*%
D15*
%TO.P,J5,1*%
%TO.N,/UPDI_DATA*%
X199000000Y-87000000D03*
D16*
%TO.P,J5,2*%
%TO.N,/3V3*%
X199000000Y-89540000D03*
%TO.P,J5,3*%
%TO.N,N/C*%
X196460000Y-87000000D03*
%TO.P,J5,4*%
X196460000Y-89540000D03*
%TO.P,J5,5*%
X193920000Y-87000000D03*
%TO.P,J5,6*%
%TO.N,GND*%
X193920000Y-89540000D03*
%TD*%
D17*
%TO.P,K1,1*%
%TO.N,/12V*%
X212000000Y-66000000D03*
D18*
%TO.P,K1,2*%
%TO.N,Net-(D1-Pad2)*%
X210000000Y-60000000D03*
%TO.P,K1,3*%
%TO.N,/JST_12V*%
X197800000Y-60000000D03*
%TO.P,K1,4*%
%TO.N,N/C*%
X197800000Y-72000000D03*
%TO.P,K1,5*%
%TO.N,/12V*%
X210000000Y-72000000D03*
%TD*%
D19*
%TO.P,Q1,1*%
%TO.N,Net-(Q1-Pad1)*%
X200450000Y-68000000D03*
%TO.P,Q1,2*%
%TO.N,GND*%
X198550000Y-68000000D03*
%TO.P,Q1,3*%
%TO.N,Net-(D1-Pad2)*%
X199500000Y-66000000D03*
%TD*%
D20*
%TO.P,Q2,3*%
%TO.N,Net-(Q2-Pad3)*%
X223500000Y-78000000D03*
%TO.P,Q2,2*%
%TO.N,GND*%
X221500000Y-77050000D03*
%TO.P,Q2,1*%
%TO.N,Net-(Q2-Pad1)*%
X221500000Y-78950000D03*
%TD*%
%TO.P,Q3,1*%
%TO.N,Net-(Q3-Pad1)*%
X221500000Y-92450000D03*
%TO.P,Q3,2*%
%TO.N,GND*%
X221500000Y-90550000D03*
%TO.P,Q3,3*%
%TO.N,Net-(Q3-Pad3)*%
X223500000Y-91500000D03*
%TD*%
%TO.P,Q4,1*%
%TO.N,Net-(Q2-Pad3)*%
X221500000Y-74950000D03*
%TO.P,Q4,2*%
%TO.N,Net-(Q4-Pad2)*%
X221500000Y-73050000D03*
%TO.P,Q4,3*%
%TO.N,/12V*%
X223500000Y-74000000D03*
%TD*%
%TO.P,Q5,3*%
%TO.N,/ACC*%
X223500000Y-87500000D03*
%TO.P,Q5,2*%
%TO.N,Net-(Q5-Pad2)*%
X221500000Y-86550000D03*
%TO.P,Q5,1*%
%TO.N,Net-(Q3-Pad3)*%
X221500000Y-88450000D03*
%TD*%
%TO.P,R1,1*%
%TO.N,Net-(Q1-Pad1)*%
%TA.AperFunction,SMDPad,CuDef*%
G36*
G01*
X202375000Y-67300000D02*
X203625000Y-67300000D01*
G75*
G02*
X203875000Y-67550000I0J-250000D01*
G01*
X203875000Y-68475000D01*
G75*
G02*
X203625000Y-68725000I-250000J0D01*
G01*
X202375000Y-68725000D01*
G75*
G02*
X202125000Y-68475000I0J250000D01*
G01*
X202125000Y-67550000D01*
G75*
G02*
X202375000Y-67300000I250000J0D01*
G01*
G37*
%TD.AperFunction*%
%TO.P,R1,2*%
%TO.N,/RLY_ON*%
%TA.AperFunction,SMDPad,CuDef*%
G36*
G01*
X202375000Y-70275000D02*
X203625000Y-70275000D01*
G75*
G02*
X203875000Y-70525000I0J-250000D01*
G01*
X203875000Y-71450000D01*
G75*
G02*
X203625000Y-71700000I-250000J0D01*
G01*
X202375000Y-71700000D01*
G75*
G02*
X202125000Y-71450000I0J250000D01*
G01*
X202125000Y-70525000D01*
G75*
G02*
X202375000Y-70275000I250000J0D01*
G01*
G37*
%TD.AperFunction*%
%TD*%
%TO.P,R2,2*%
%TO.N,/ADC_ON*%
%TA.AperFunction,SMDPad,CuDef*%
G36*
G01*
X213375000Y-80275000D02*
X214625000Y-80275000D01*
G75*
G02*
X214875000Y-80525000I0J-250000D01*
G01*
X214875000Y-81450000D01*
G75*
G02*
X214625000Y-81700000I-250000J0D01*
G01*
X213375000Y-81700000D01*
G75*
G02*
X213125000Y-81450000I0J250000D01*
G01*
X213125000Y-80525000D01*
G75*
G02*
X213375000Y-80275000I250000J0D01*
G01*
G37*
%TD.AperFunction*%
%TO.P,R2,1*%
%TO.N,Net-(Q2-Pad1)*%
%TA.AperFunction,SMDPad,CuDef*%
G36*
G01*
X213375000Y-77300000D02*
X214625000Y-77300000D01*
G75*
G02*
X214875000Y-77550000I0J-250000D01*
G01*
X214875000Y-78475000D01*
G75*
G02*
X214625000Y-78725000I-250000J0D01*
G01*
X213375000Y-78725000D01*
G75*
G02*
X213125000Y-78475000I0J250000D01*
G01*
X213125000Y-77550000D01*
G75*
G02*
X213375000Y-77300000I250000J0D01*
G01*
G37*
%TD.AperFunction*%
%TD*%
%TO.P,R3,1*%
%TO.N,Net-(Q3-Pad1)*%
%TA.AperFunction,SMDPad,CuDef*%
G36*
G01*
X214625000Y-92200000D02*
X213375000Y-92200000D01*
G75*
G02*
X213125000Y-91950000I0J250000D01*
G01*
X213125000Y-91025000D01*
G75*
G02*
X213375000Y-90775000I250000J0D01*
G01*
X214625000Y-90775000D01*
G75*
G02*
X214875000Y-91025000I0J-250000D01*
G01*
X214875000Y-91950000D01*
G75*
G02*
X214625000Y-92200000I-250000J0D01*
G01*
G37*
%TD.AperFunction*%
%TO.P,R3,2*%
%TO.N,/ADC_ON*%
%TA.AperFunction,SMDPad,CuDef*%
G36*
G01*
X214625000Y-89225000D02*
X213375000Y-89225000D01*
G75*
G02*
X213125000Y-88975000I0J250000D01*
G01*
X213125000Y-88050000D01*
G75*
G02*
X213375000Y-87800000I250000J0D01*
G01*
X214625000Y-87800000D01*
G75*
G02*
X214875000Y-88050000I0J-250000D01*
G01*
X214875000Y-88975000D01*
G75*
G02*
X214625000Y-89225000I-250000J0D01*
G01*
G37*
%TD.AperFunction*%
%TD*%
%TO.P,R4,1*%
%TO.N,Net-(Q2-Pad3)*%
%TA.AperFunction,SMDPad,CuDef*%
G36*
G01*
X226125000Y-78200000D02*
X224875000Y-78200000D01*
G75*
G02*
X224625000Y-77950000I0J250000D01*
G01*
X224625000Y-77025000D01*
G75*
G02*
X224875000Y-76775000I250000J0D01*
G01*
X226125000Y-76775000D01*
G75*
G02*
X226375000Y-77025000I0J-250000D01*
G01*
X226375000Y-77950000D01*
G75*
G02*
X226125000Y-78200000I-250000J0D01*
G01*
G37*
%TD.AperFunction*%
%TO.P,R4,2*%
%TO.N,/12V*%
%TA.AperFunction,SMDPad,CuDef*%
G36*
G01*
X226125000Y-75225000D02*
X224875000Y-75225000D01*
G75*
G02*
X224625000Y-74975000I0J250000D01*
G01*
X224625000Y-74050000D01*
G75*
G02*
X224875000Y-73800000I250000J0D01*
G01*
X226125000Y-73800000D01*
G75*
G02*
X226375000Y-74050000I0J-250000D01*
G01*
X226375000Y-74975000D01*
G75*
G02*
X226125000Y-75225000I-250000J0D01*
G01*
G37*
%TD.AperFunction*%
%TD*%
%TO.P,R5,2*%
%TO.N,/ACC*%
%TA.AperFunction,SMDPad,CuDef*%
G36*
G01*
X226125000Y-88725000D02*
X224875000Y-88725000D01*
G75*
G02*
X224625000Y-88475000I0J250000D01*
G01*
X224625000Y-87550000D01*
G75*
G02*
X224875000Y-87300000I250000J0D01*
G01*
X226125000Y-87300000D01*
G75*
G02*
X226375000Y-87550000I0J-250000D01*
G01*
X226375000Y-88475000D01*
G75*
G02*
X226125000Y-88725000I-250000J0D01*
G01*
G37*
%TD.AperFunction*%
%TO.P,R5,1*%
%TO.N,Net-(Q3-Pad3)*%
%TA.AperFunction,SMDPad,CuDef*%
G36*
G01*
X226125000Y-91700000D02*
X224875000Y-91700000D01*
G75*
G02*
X224625000Y-91450000I0J250000D01*
G01*
X224625000Y-90525000D01*
G75*
G02*
X224875000Y-90275000I250000J0D01*
G01*
X226125000Y-90275000D01*
G75*
G02*
X226375000Y-90525000I0J-250000D01*
G01*
X226375000Y-91450000D01*
G75*
G02*
X226125000Y-91700000I-250000J0D01*
G01*
G37*
%TD.AperFunction*%
%TD*%
%TO.P,R6,1*%
%TO.N,Net-(Q4-Pad2)*%
%TA.AperFunction,SMDPad,CuDef*%
G36*
G01*
X220800000Y-71625000D02*
X220800000Y-70375000D01*
G75*
G02*
X221050000Y-70125000I250000J0D01*
G01*
X221975000Y-70125000D01*
G75*
G02*
X222225000Y-70375000I0J-250000D01*
G01*
X222225000Y-71625000D01*
G75*
G02*
X221975000Y-71875000I-250000J0D01*
G01*
X221050000Y-71875000D01*
G75*
G02*
X220800000Y-71625000I0J250000D01*
G01*
G37*
%TD.AperFunction*%
%TO.P,R6,2*%
%TO.N,/12V*%
%TA.AperFunction,SMDPad,CuDef*%
G36*
G01*
X223775000Y-71625000D02*
X223775000Y-70375000D01*
G75*
G02*
X224025000Y-70125000I250000J0D01*
G01*
X224950000Y-70125000D01*
G75*
G02*
X225200000Y-70375000I0J-250000D01*
G01*
X225200000Y-71625000D01*
G75*
G02*
X224950000Y-71875000I-250000J0D01*
G01*
X224025000Y-71875000D01*
G75*
G02*
X223775000Y-71625000I0J250000D01*
G01*
G37*
%TD.AperFunction*%
%TD*%
%TO.P,R7,2*%
%TO.N,/ACC*%
%TA.AperFunction,SMDPad,CuDef*%
G36*
G01*
X223775000Y-85125000D02*
X223775000Y-83875000D01*
G75*
G02*
X224025000Y-83625000I250000J0D01*
G01*
X224950000Y-83625000D01*
G75*
G02*
X225200000Y-83875000I0J-250000D01*
G01*
X225200000Y-85125000D01*
G75*
G02*
X224950000Y-85375000I-250000J0D01*
G01*
X224025000Y-85375000D01*
G75*
G02*
X223775000Y-85125000I0J250000D01*
G01*
G37*
%TD.AperFunction*%
%TO.P,R7,1*%
%TO.N,Net-(Q5-Pad2)*%
%TA.AperFunction,SMDPad,CuDef*%
G36*
G01*
X220800000Y-85125000D02*
X220800000Y-83875000D01*
G75*
G02*
X221050000Y-83625000I250000J0D01*
G01*
X221975000Y-83625000D01*
G75*
G02*
X222225000Y-83875000I0J-250000D01*
G01*
X222225000Y-85125000D01*
G75*
G02*
X221975000Y-85375000I-250000J0D01*
G01*
X221050000Y-85375000D01*
G75*
G02*
X220800000Y-85125000I0J250000D01*
G01*
G37*
%TD.AperFunction*%
%TD*%
%TO.P,R8,1*%
%TO.N,/ADC1_VIN*%
%TA.AperFunction,SMDPad,CuDef*%
G36*
G01*
X219125000Y-74700000D02*
X217875000Y-74700000D01*
G75*
G02*
X217625000Y-74450000I0J250000D01*
G01*
X217625000Y-73525000D01*
G75*
G02*
X217875000Y-73275000I250000J0D01*
G01*
X219125000Y-73275000D01*
G75*
G02*
X219375000Y-73525000I0J-250000D01*
G01*
X219375000Y-74450000D01*
G75*
G02*
X219125000Y-74700000I-250000J0D01*
G01*
G37*
%TD.AperFunction*%
%TO.P,R8,2*%
%TO.N,Net-(Q4-Pad2)*%
%TA.AperFunction,SMDPad,CuDef*%
G36*
G01*
X219125000Y-71725000D02*
X217875000Y-71725000D01*
G75*
G02*
X217625000Y-71475000I0J250000D01*
G01*
X217625000Y-70550000D01*
G75*
G02*
X217875000Y-70300000I250000J0D01*
G01*
X219125000Y-70300000D01*
G75*
G02*
X219375000Y-70550000I0J-250000D01*
G01*
X219375000Y-71475000D01*
G75*
G02*
X219125000Y-71725000I-250000J0D01*
G01*
G37*
%TD.AperFunction*%
%TD*%
%TO.P,R9,2*%
%TO.N,Net-(Q5-Pad2)*%
%TA.AperFunction,SMDPad,CuDef*%
G36*
G01*
X219125000Y-85225000D02*
X217875000Y-85225000D01*
G75*
G02*
X217625000Y-84975000I0J250000D01*
G01*
X217625000Y-84050000D01*
G75*
G02*
X217875000Y-83800000I250000J0D01*
G01*
X219125000Y-83800000D01*
G75*
G02*
X219375000Y-84050000I0J-250000D01*
G01*
X219375000Y-84975000D01*
G75*
G02*
X219125000Y-85225000I-250000J0D01*
G01*
G37*
%TD.AperFunction*%
%TO.P,R9,1*%
%TO.N,/ADC2_ACC*%
%TA.AperFunction,SMDPad,CuDef*%
G36*
G01*
X219125000Y-88200000D02*
X217875000Y-88200000D01*
G75*
G02*
X217625000Y-87950000I0J250000D01*
G01*
X217625000Y-87025000D01*
G75*
G02*
X217875000Y-86775000I250000J0D01*
G01*
X219125000Y-86775000D01*
G75*
G02*
X219375000Y-87025000I0J-250000D01*
G01*
X219375000Y-87950000D01*
G75*
G02*
X219125000Y-88200000I-250000J0D01*
G01*
G37*
%TD.AperFunction*%
%TD*%
%TO.P,R10,2*%
%TO.N,/ADC1_VIN*%
%TA.AperFunction,SMDPad,CuDef*%
G36*
G01*
X219125000Y-77225000D02*
X217875000Y-77225000D01*
G75*
G02*
X217625000Y-76975000I0J250000D01*
G01*
X217625000Y-76050000D01*
G75*
G02*
X217875000Y-75800000I250000J0D01*
G01*
X219125000Y-75800000D01*
G75*
G02*
X219375000Y-76050000I0J-250000D01*
G01*
X219375000Y-76975000D01*
G75*
G02*
X219125000Y-77225000I-250000J0D01*
G01*
G37*
%TD.AperFunction*%
%TO.P,R10,1*%
%TO.N,GND*%
%TA.AperFunction,SMDPad,CuDef*%
G36*
G01*
X219125000Y-80200000D02*
X217875000Y-80200000D01*
G75*
G02*
X217625000Y-79950000I0J250000D01*
G01*
X217625000Y-79025000D01*
G75*
G02*
X217875000Y-78775000I250000J0D01*
G01*
X219125000Y-78775000D01*
G75*
G02*
X219375000Y-79025000I0J-250000D01*
G01*
X219375000Y-79950000D01*
G75*
G02*
X219125000Y-80200000I-250000J0D01*
G01*
G37*
%TD.AperFunction*%
%TD*%
%TO.P,R11,1*%
%TO.N,GND*%
%TA.AperFunction,SMDPad,CuDef*%
G36*
G01*
X219125000Y-93700000D02*
X217875000Y-93700000D01*
G75*
G02*
X217625000Y-93450000I0J250000D01*
G01*
X217625000Y-92525000D01*
G75*
G02*
X217875000Y-92275000I250000J0D01*
G01*
X219125000Y-92275000D01*
G75*
G02*
X219375000Y-92525000I0J-250000D01*
G01*
X219375000Y-93450000D01*
G75*
G02*
X219125000Y-93700000I-250000J0D01*
G01*
G37*
%TD.AperFunction*%
%TO.P,R11,2*%
%TO.N,/ADC2_ACC*%
%TA.AperFunction,SMDPad,CuDef*%
G36*
G01*
X219125000Y-90725000D02*
X217875000Y-90725000D01*
G75*
G02*
X217625000Y-90475000I0J250000D01*
G01*
X217625000Y-89550000D01*
G75*
G02*
X217875000Y-89300000I250000J0D01*
G01*
X219125000Y-89300000D01*
G75*
G02*
X219375000Y-89550000I0J-250000D01*
G01*
X219375000Y-90475000D01*
G75*
G02*
X219125000Y-90725000I-250000J0D01*
G01*
G37*
%TD.AperFunction*%
%TD*%
%TO.P,R12,1*%
%TO.N,/JST_RX*%
%TA.AperFunction,SMDPad,CuDef*%
G36*
G01*
X207625000Y-94200000D02*
X206375000Y-94200000D01*
G75*
G02*
X206125000Y-93950000I0J250000D01*
G01*
X206125000Y-93025000D01*
G75*
G02*
X206375000Y-92775000I250000J0D01*
G01*
X207625000Y-92775000D01*
G75*
G02*
X207875000Y-93025000I0J-250000D01*
G01*
X207875000Y-93950000D01*
G75*
G02*
X207625000Y-94200000I-250000J0D01*
G01*
G37*
%TD.AperFunction*%
%TO.P,R12,2*%
%TO.N,/AVR_TX*%
%TA.AperFunction,SMDPad,CuDef*%
G36*
G01*
X207625000Y-91225000D02*
X206375000Y-91225000D01*
G75*
G02*
X206125000Y-90975000I0J250000D01*
G01*
X206125000Y-90050000D01*
G75*
G02*
X206375000Y-89800000I250000J0D01*
G01*
X207625000Y-89800000D01*
G75*
G02*
X207875000Y-90050000I0J-250000D01*
G01*
X207875000Y-90975000D01*
G75*
G02*
X207625000Y-91225000I-250000J0D01*
G01*
G37*
%TD.AperFunction*%
%TD*%
%TO.P,R13,2*%
%TO.N,/AVR_TX*%
%TA.AperFunction,SMDPad,CuDef*%
G36*
G01*
X198275000Y-77625000D02*
X198275000Y-76375000D01*
G75*
G02*
X198525000Y-76125000I250000J0D01*
G01*
X199450000Y-76125000D01*
G75*
G02*
X199700000Y-76375000I0J-250000D01*
G01*
X199700000Y-77625000D01*
G75*
G02*
X199450000Y-77875000I-250000J0D01*
G01*
X198525000Y-77875000D01*
G75*
G02*
X198275000Y-77625000I0J250000D01*
G01*
G37*
%TD.AperFunction*%
%TO.P,R13,1*%
%TO.N,/JST_TX*%
%TA.AperFunction,SMDPad,CuDef*%
G36*
G01*
X195300000Y-77625000D02*
X195300000Y-76375000D01*
G75*
G02*
X195550000Y-76125000I250000J0D01*
G01*
X196475000Y-76125000D01*
G75*
G02*
X196725000Y-76375000I0J-250000D01*
G01*
X196725000Y-77625000D01*
G75*
G02*
X196475000Y-77875000I-250000J0D01*
G01*
X195550000Y-77875000D01*
G75*
G02*
X195300000Y-77625000I0J250000D01*
G01*
G37*
%TD.AperFunction*%
%TD*%
%TO.P,R14,1*%
%TO.N,/JST_TX*%
%TA.AperFunction,SMDPad,CuDef*%
G36*
G01*
X195300000Y-80125000D02*
X195300000Y-78875000D01*
G75*
G02*
X195550000Y-78625000I250000J0D01*
G01*
X196475000Y-78625000D01*
G75*
G02*
X196725000Y-78875000I0J-250000D01*
G01*
X196725000Y-80125000D01*
G75*
G02*
X196475000Y-80375000I-250000J0D01*
G01*
X195550000Y-80375000D01*
G75*
G02*
X195300000Y-80125000I0J250000D01*
G01*
G37*
%TD.AperFunction*%
%TO.P,R14,2*%
%TO.N,/AVR_RX*%
%TA.AperFunction,SMDPad,CuDef*%
G36*
G01*
X198275000Y-80125000D02*
X198275000Y-78875000D01*
G75*
G02*
X198525000Y-78625000I250000J0D01*
G01*
X199450000Y-78625000D01*
G75*
G02*
X199700000Y-78875000I0J-250000D01*
G01*
X199700000Y-80125000D01*
G75*
G02*
X199450000Y-80375000I-250000J0D01*
G01*
X198525000Y-80375000D01*
G75*
G02*
X198275000Y-80125000I0J250000D01*
G01*
G37*
%TD.AperFunction*%
%TD*%
%TO.P,R15,2*%
%TO.N,/AVR_RX*%
%TA.AperFunction,SMDPad,CuDef*%
G36*
G01*
X205125000Y-91225000D02*
X203875000Y-91225000D01*
G75*
G02*
X203625000Y-90975000I0J250000D01*
G01*
X203625000Y-90050000D01*
G75*
G02*
X203875000Y-89800000I250000J0D01*
G01*
X205125000Y-89800000D01*
G75*
G02*
X205375000Y-90050000I0J-250000D01*
G01*
X205375000Y-90975000D01*
G75*
G02*
X205125000Y-91225000I-250000J0D01*
G01*
G37*
%TD.AperFunction*%
%TO.P,R15,1*%
%TO.N,/JST_RX*%
%TA.AperFunction,SMDPad,CuDef*%
G36*
G01*
X205125000Y-94200000D02*
X203875000Y-94200000D01*
G75*
G02*
X203625000Y-93950000I0J250000D01*
G01*
X203625000Y-93025000D01*
G75*
G02*
X203875000Y-92775000I250000J0D01*
G01*
X205125000Y-92775000D01*
G75*
G02*
X205375000Y-93025000I0J-250000D01*
G01*
X205375000Y-93950000D01*
G75*
G02*
X205125000Y-94200000I-250000J0D01*
G01*
G37*
%TD.AperFunction*%
%TD*%
%TO.P,U1,1*%
%TO.N,/3V3*%
%TA.AperFunction,SMDPad,CuDef*%
G36*
G01*
X201550000Y-85460000D02*
X201550000Y-85160000D01*
G75*
G02*
X201700000Y-85010000I150000J0D01*
G01*
X203350000Y-85010000D01*
G75*
G02*
X203500000Y-85160000I0J-150000D01*
G01*
X203500000Y-85460000D01*
G75*
G02*
X203350000Y-85610000I-150000J0D01*
G01*
X201700000Y-85610000D01*
G75*
G02*
X201550000Y-85460000I0J150000D01*
G01*
G37*
%TD.AperFunction*%
%TO.P,U1,2*%
%TO.N,N/C*%
%TA.AperFunction,SMDPad,CuDef*%
G36*
G01*
X201550000Y-84190000D02*
X201550000Y-83890000D01*
G75*
G02*
X201700000Y-83740000I150000J0D01*
G01*
X203350000Y-83740000D01*
G75*
G02*
X203500000Y-83890000I0J-150000D01*
G01*
X203500000Y-84190000D01*
G75*
G02*
X203350000Y-84340000I-150000J0D01*
G01*
X201700000Y-84340000D01*
G75*
G02*
X201550000Y-84190000I0J150000D01*
G01*
G37*
%TD.AperFunction*%
%TO.P,U1,3*%
%TA.AperFunction,SMDPad,CuDef*%
G36*
G01*
X201550000Y-82920000D02*
X201550000Y-82620000D01*
G75*
G02*
X201700000Y-82470000I150000J0D01*
G01*
X203350000Y-82470000D01*
G75*
G02*
X203500000Y-82620000I0J-150000D01*
G01*
X203500000Y-82920000D01*
G75*
G02*
X203350000Y-83070000I-150000J0D01*
G01*
X201700000Y-83070000D01*
G75*
G02*
X201550000Y-82920000I0J150000D01*
G01*
G37*
%TD.AperFunction*%
%TO.P,U1,4*%
%TA.AperFunction,SMDPad,CuDef*%
G36*
G01*
X201550000Y-81650000D02*
X201550000Y-81350000D01*
G75*
G02*
X201700000Y-81200000I150000J0D01*
G01*
X203350000Y-81200000D01*
G75*
G02*
X203500000Y-81350000I0J-150000D01*
G01*
X203500000Y-81650000D01*
G75*
G02*
X203350000Y-81800000I-150000J0D01*
G01*
X201700000Y-81800000D01*
G75*
G02*
X201550000Y-81650000I0J150000D01*
G01*
G37*
%TD.AperFunction*%
%TO.P,U1,5*%
%TA.AperFunction,SMDPad,CuDef*%
G36*
G01*
X201550000Y-80380000D02*
X201550000Y-80080000D01*
G75*
G02*
X201700000Y-79930000I150000J0D01*
G01*
X203350000Y-79930000D01*
G75*
G02*
X203500000Y-80080000I0J-150000D01*
G01*
X203500000Y-80380000D01*
G75*
G02*
X203350000Y-80530000I-150000J0D01*
G01*
X201700000Y-80530000D01*
G75*
G02*
X201550000Y-80380000I0J150000D01*
G01*
G37*
%TD.AperFunction*%
%TO.P,U1,6*%
%TO.N,/AVR_RX*%
%TA.AperFunction,SMDPad,CuDef*%
G36*
G01*
X201550000Y-79110000D02*
X201550000Y-78810000D01*
G75*
G02*
X201700000Y-78660000I150000J0D01*
G01*
X203350000Y-78660000D01*
G75*
G02*
X203500000Y-78810000I0J-150000D01*
G01*
X203500000Y-79110000D01*
G75*
G02*
X203350000Y-79260000I-150000J0D01*
G01*
X201700000Y-79260000D01*
G75*
G02*
X201550000Y-79110000I0J150000D01*
G01*
G37*
%TD.AperFunction*%
%TO.P,U1,7*%
%TO.N,/AVR_TX*%
%TA.AperFunction,SMDPad,CuDef*%
G36*
G01*
X201550000Y-77840000D02*
X201550000Y-77540000D01*
G75*
G02*
X201700000Y-77390000I150000J0D01*
G01*
X203350000Y-77390000D01*
G75*
G02*
X203500000Y-77540000I0J-150000D01*
G01*
X203500000Y-77840000D01*
G75*
G02*
X203350000Y-77990000I-150000J0D01*
G01*
X201700000Y-77990000D01*
G75*
G02*
X201550000Y-77840000I0J150000D01*
G01*
G37*
%TD.AperFunction*%
%TO.P,U1,8*%
%TO.N,/RLY_ON*%
%TA.AperFunction,SMDPad,CuDef*%
G36*
G01*
X206500000Y-77840000D02*
X206500000Y-77540000D01*
G75*
G02*
X206650000Y-77390000I150000J0D01*
G01*
X208300000Y-77390000D01*
G75*
G02*
X208450000Y-77540000I0J-150000D01*
G01*
X208450000Y-77840000D01*
G75*
G02*
X208300000Y-77990000I-150000J0D01*
G01*
X206650000Y-77990000D01*
G75*
G02*
X206500000Y-77840000I0J150000D01*
G01*
G37*
%TD.AperFunction*%
%TO.P,U1,9*%
%TO.N,N/C*%
%TA.AperFunction,SMDPad,CuDef*%
G36*
G01*
X206500000Y-79110000D02*
X206500000Y-78810000D01*
G75*
G02*
X206650000Y-78660000I150000J0D01*
G01*
X208300000Y-78660000D01*
G75*
G02*
X208450000Y-78810000I0J-150000D01*
G01*
X208450000Y-79110000D01*
G75*
G02*
X208300000Y-79260000I-150000J0D01*
G01*
X206650000Y-79260000D01*
G75*
G02*
X206500000Y-79110000I0J150000D01*
G01*
G37*
%TD.AperFunction*%
%TO.P,U1,10*%
%TO.N,/UPDI_DATA*%
%TA.AperFunction,SMDPad,CuDef*%
G36*
G01*
X206500000Y-80380000D02*
X206500000Y-80080000D01*
G75*
G02*
X206650000Y-79930000I150000J0D01*
G01*
X208300000Y-79930000D01*
G75*
G02*
X208450000Y-80080000I0J-150000D01*
G01*
X208450000Y-80380000D01*
G75*
G02*
X208300000Y-80530000I-150000J0D01*
G01*
X206650000Y-80530000D01*
G75*
G02*
X206500000Y-80380000I0J150000D01*
G01*
G37*
%TD.AperFunction*%
%TO.P,U1,11*%
%TO.N,/ADC1_VIN*%
%TA.AperFunction,SMDPad,CuDef*%
G36*
G01*
X206500000Y-81650000D02*
X206500000Y-81350000D01*
G75*
G02*
X206650000Y-81200000I150000J0D01*
G01*
X208300000Y-81200000D01*
G75*
G02*
X208450000Y-81350000I0J-150000D01*
G01*
X208450000Y-81650000D01*
G75*
G02*
X208300000Y-81800000I-150000J0D01*
G01*
X206650000Y-81800000D01*
G75*
G02*
X206500000Y-81650000I0J150000D01*
G01*
G37*
%TD.AperFunction*%
%TO.P,U1,12*%
%TO.N,/ADC2_ACC*%
%TA.AperFunction,SMDPad,CuDef*%
G36*
G01*
X206500000Y-82920000D02*
X206500000Y-82620000D01*
G75*
G02*
X206650000Y-82470000I150000J0D01*
G01*
X208300000Y-82470000D01*
G75*
G02*
X208450000Y-82620000I0J-150000D01*
G01*
X208450000Y-82920000D01*
G75*
G02*
X208300000Y-83070000I-150000J0D01*
G01*
X206650000Y-83070000D01*
G75*
G02*
X206500000Y-82920000I0J150000D01*
G01*
G37*
%TD.AperFunction*%
%TO.P,U1,13*%
%TO.N,/ADC_ON*%
%TA.AperFunction,SMDPad,CuDef*%
G36*
G01*
X206500000Y-84190000D02*
X206500000Y-83890000D01*
G75*
G02*
X206650000Y-83740000I150000J0D01*
G01*
X208300000Y-83740000D01*
G75*
G02*
X208450000Y-83890000I0J-150000D01*
G01*
X208450000Y-84190000D01*
G75*
G02*
X208300000Y-84340000I-150000J0D01*
G01*
X206650000Y-84340000D01*
G75*
G02*
X206500000Y-84190000I0J150000D01*
G01*
G37*
%TD.AperFunction*%
%TO.P,U1,14*%
%TO.N,GND*%
%TA.AperFunction,SMDPad,CuDef*%
G36*
G01*
X206500000Y-85460000D02*
X206500000Y-85160000D01*
G75*
G02*
X206650000Y-85010000I150000J0D01*
G01*
X208300000Y-85010000D01*
G75*
G02*
X208450000Y-85160000I0J-150000D01*
G01*
X208450000Y-85460000D01*
G75*
G02*
X208300000Y-85610000I-150000J0D01*
G01*
X206650000Y-85610000D01*
G75*
G02*
X206500000Y-85460000I0J150000D01*
G01*
G37*
%TD.AperFunction*%
%TD*%
D21*
%TO.N,GND*%
X234500000Y-69500000D03*
X235500000Y-69500000D03*
X236500000Y-69500000D03*
X237500000Y-69500000D03*
X238500000Y-69500000D03*
X235000000Y-70500000D03*
X236000000Y-70500000D03*
X237000000Y-70500000D03*
X238000000Y-70500000D03*
X239000000Y-70500000D03*
X234500000Y-71500000D03*
X235500000Y-71500000D03*
X236500000Y-71500000D03*
X237500000Y-71500000D03*
X238500000Y-71500000D03*
X235000000Y-72500000D03*
X236000000Y-72500000D03*
X237000000Y-72500000D03*
X238000000Y-72500000D03*
X239000000Y-72500000D03*
X234500000Y-73500000D03*
X235500000Y-73500000D03*
X236500000Y-73500000D03*
X237500000Y-73500000D03*
X238500000Y-73500000D03*
X218500000Y-51000000D03*
X219500000Y-51000000D03*
X220500000Y-51000000D03*
X219000000Y-52000000D03*
X220000000Y-52000000D03*
X219500000Y-53000000D03*
X220500000Y-53000000D03*
X221000000Y-52000000D03*
X221500000Y-53000000D03*
X232500000Y-86500000D03*
X233500000Y-86500000D03*
X234500000Y-86500000D03*
X235500000Y-86500000D03*
X236500000Y-86500000D03*
X233000000Y-87500000D03*
X234000000Y-87500000D03*
X235000000Y-87500000D03*
X236000000Y-87500000D03*
X237000000Y-87500000D03*
X237500000Y-86500000D03*
X238000000Y-87500000D03*
X238500000Y-86500000D03*
X239000000Y-87500000D03*
X194500000Y-93000000D03*
X194500000Y-92000000D03*
X195500000Y-92000000D03*
X195500000Y-93000000D03*
X195500000Y-94000000D03*
X196500000Y-92000000D03*
X196500000Y-93000000D03*
X196500000Y-94000000D03*
X193500000Y-82000000D03*
X194500000Y-82000000D03*
X195500000Y-82000000D03*
X195500000Y-83000000D03*
X194500000Y-83000000D03*
X193500000Y-83000000D03*
X193500000Y-84000000D03*
X194500000Y-84000000D03*
X195500000Y-84000000D03*
X193500000Y-63500000D03*
X194500000Y-63500000D03*
X195500000Y-63500000D03*
X195500000Y-64500000D03*
X194500000Y-64500000D03*
X193500000Y-64500000D03*
X193500000Y-65500000D03*
X194500000Y-65500000D03*
X195500000Y-65500000D03*
X213500000Y-71500000D03*
X214500000Y-71500000D03*
X215500000Y-71500000D03*
X215500000Y-72500000D03*
X214500000Y-72500000D03*
X213500000Y-72500000D03*
X213500000Y-73500000D03*
X214500000Y-73500000D03*
X215500000Y-73500000D03*
X205500000Y-66500000D03*
X206500000Y-66500000D03*
X207500000Y-66500000D03*
X207500000Y-67500000D03*
X206500000Y-67500000D03*
X205500000Y-67500000D03*
X205500000Y-68500000D03*
X206500000Y-68500000D03*
X207500000Y-68500000D03*
X199000000Y-82000000D03*
X200000000Y-82000000D03*
X199500000Y-83000000D03*
X200500000Y-83000000D03*
X199000000Y-84000000D03*
X200000000Y-84000000D03*
X220000000Y-86000000D03*
X220400000Y-90200000D03*
X222400000Y-90700000D03*
X220100000Y-88700000D03*
X212000000Y-94000000D03*
X214000000Y-94000000D03*
X216000000Y-94000000D03*
X224000000Y-94000000D03*
X226000000Y-94000000D03*
X228000000Y-94000000D03*
X235000000Y-94000000D03*
X237000000Y-94000000D03*
X239000000Y-94000000D03*
%TD*%
D22*
%TO.N,/12V*%
X225487500Y-72000000D02*
X224487500Y-71000000D01*
X225500000Y-72000000D02*
X225487500Y-72000000D01*
X225500000Y-72000000D02*
X225500000Y-74512500D01*
D23*
X209500000Y-66000000D02*
X207500000Y-64000000D01*
X212000000Y-66000000D02*
X209500000Y-66000000D01*
D24*
X212000000Y-66000000D02*
X212000000Y-68000000D01*
X212000000Y-68000000D02*
X212500000Y-68500000D01*
X221987500Y-68500000D02*
X224487500Y-71000000D01*
X212500000Y-68500000D02*
X221987500Y-68500000D01*
D23*
X224012500Y-74512500D02*
X223500000Y-74000000D01*
X225500000Y-74512500D02*
X224012500Y-74512500D01*
%TO.N,/3V3*%
X199000000Y-89540000D02*
X201040000Y-89540000D01*
X201040000Y-89540000D02*
X201487500Y-89987500D01*
X199000000Y-89540000D02*
X201460000Y-89540000D01*
X202525000Y-88475000D02*
X202525000Y-85310000D01*
X201460000Y-89540000D02*
X202525000Y-88475000D01*
X201487500Y-90512500D02*
X201487500Y-89567500D01*
X201487500Y-90512500D02*
X201487500Y-93000000D01*
X201487500Y-89567500D02*
X201460000Y-89540000D01*
X201487500Y-89987500D02*
X201487500Y-90512500D01*
D24*
%TO.N,Net-(D1-Pad2)*%
X199500000Y-66000000D02*
X199500000Y-64500000D01*
X200000000Y-64000000D02*
X203500000Y-64000000D01*
X199500000Y-64500000D02*
X200000000Y-64000000D01*
X210000000Y-60000000D02*
X204000000Y-60000000D01*
X203500000Y-60500000D02*
X203500000Y-64000000D01*
X204000000Y-60000000D02*
X203500000Y-60500000D01*
D22*
%TO.N,/ACC*%
X224987500Y-84000000D02*
X224487500Y-84500000D01*
X224987500Y-87500000D02*
X225500000Y-88012500D01*
X224487500Y-87487500D02*
X224500000Y-87500000D01*
X224487500Y-84500000D02*
X224487500Y-87487500D01*
X223500000Y-87500000D02*
X224500000Y-87500000D01*
X224500000Y-87500000D02*
X224987500Y-87500000D01*
D24*
X229512500Y-84000000D02*
X225500000Y-88012500D01*
X242000000Y-84000000D02*
X229512500Y-84000000D01*
D25*
%TO.N,/JST_TX*%
X194495997Y-97994999D02*
X191000000Y-94499002D01*
X202490000Y-96630000D02*
X201125001Y-97994999D01*
X201125001Y-97994999D02*
X194495997Y-97994999D01*
X191000000Y-94499002D02*
X191000000Y-81000000D01*
X192500000Y-79500000D02*
X196012500Y-79500000D01*
X191000000Y-81000000D02*
X192500000Y-79500000D01*
X196012500Y-77000000D02*
X196012500Y-79500000D01*
%TO.N,/JST_RX*%
X204500000Y-93487500D02*
X207000000Y-93487500D01*
X205030000Y-96630000D02*
X205030000Y-95530000D01*
X204500000Y-95000000D02*
X204500000Y-93487500D01*
X205030000Y-95530000D02*
X204500000Y-95000000D01*
%TO.N,/UPDI_DATA*%
X204299990Y-76789953D02*
X204299990Y-75799990D01*
X204299990Y-75799990D02*
X204000000Y-75500000D01*
X204000000Y-75500000D02*
X198000000Y-75500000D01*
X197824999Y-75675001D02*
X197824999Y-85824999D01*
X197824999Y-85824999D02*
X199000000Y-87000000D01*
X198000000Y-75500000D02*
X197824999Y-75675001D01*
X204299990Y-77431758D02*
X204299990Y-76789953D01*
X207098232Y-80230000D02*
X204299990Y-77431758D01*
X207475000Y-80230000D02*
X207098232Y-80230000D01*
D24*
%TO.N,Net-(Q1-Pad1)*%
X202987500Y-68000000D02*
X203000000Y-68012500D01*
X200450000Y-68000000D02*
X202987500Y-68000000D01*
D25*
%TO.N,Net-(Q2-Pad3)*%
X223500000Y-76950000D02*
X223500000Y-78000000D01*
X221500000Y-74950000D02*
X223500000Y-76950000D01*
X224987500Y-78000000D02*
X225500000Y-77487500D01*
X223500000Y-78000000D02*
X224987500Y-78000000D01*
D22*
%TO.N,Net-(Q2-Pad1)*%
X220562500Y-78012500D02*
X221500000Y-78950000D01*
X214000000Y-78012500D02*
X220562500Y-78012500D01*
%TO.N,Net-(Q3-Pad1)*%
X220537500Y-91487500D02*
X221500000Y-92450000D01*
X214000000Y-91487500D02*
X220537500Y-91487500D01*
D25*
%TO.N,Net-(Q3-Pad3)*%
X224987500Y-91500000D02*
X225500000Y-90987500D01*
X223500000Y-91500000D02*
X224987500Y-91500000D01*
X223500000Y-90450000D02*
X223500000Y-91500000D01*
X221500000Y-88450000D02*
X223500000Y-90450000D01*
D22*
%TO.N,Net-(Q4-Pad2)*%
X218512500Y-71000000D02*
X218500000Y-71012500D01*
X221512500Y-71000000D02*
X218512500Y-71000000D01*
X221512500Y-73037500D02*
X221500000Y-73050000D01*
X221512500Y-71000000D02*
X221512500Y-73037500D01*
D25*
%TO.N,Net-(Q5-Pad2)*%
X221500000Y-84512500D02*
X221512500Y-84500000D01*
D22*
X218512500Y-84500000D02*
X218500000Y-84512500D01*
X221512500Y-84500000D02*
X218512500Y-84500000D01*
X221512500Y-86537500D02*
X221500000Y-86550000D01*
X221512500Y-84500000D02*
X221512500Y-86537500D01*
D23*
%TO.N,/RLY_ON*%
X207475000Y-77690000D02*
X206190000Y-77690000D01*
X206190000Y-77690000D02*
X205000000Y-76500000D01*
X205000000Y-76500000D02*
X205000000Y-72000000D01*
X203987500Y-70987500D02*
X203000000Y-70987500D01*
X205000000Y-72000000D02*
X203987500Y-70987500D01*
D22*
%TO.N,/ADC_ON*%
X213960000Y-84040000D02*
X214000000Y-84000000D01*
X207475000Y-84040000D02*
X213540000Y-84040000D01*
X213540000Y-84040000D02*
X213960000Y-84040000D01*
X213540000Y-83960000D02*
X214000000Y-83500000D01*
X214000000Y-80987500D02*
X214000000Y-83500000D01*
X214000000Y-83500000D02*
X214000000Y-84000000D01*
X213540000Y-84040000D02*
X214000000Y-84500000D01*
X213540000Y-83960000D02*
X213540000Y-84040000D01*
X214000000Y-84000000D02*
X214000000Y-84500000D01*
X214000000Y-84500000D02*
X214000000Y-88512500D01*
D25*
%TO.N,/ADC1_VIN*%
X218500000Y-73987500D02*
X218500000Y-76512500D01*
X218500000Y-76512500D02*
X211987500Y-76512500D01*
X211987500Y-76512500D02*
X211500000Y-77000000D01*
X211500000Y-77000000D02*
X211500000Y-81000000D01*
X211000000Y-81500000D02*
X207475000Y-81500000D01*
X211500000Y-81000000D02*
X211000000Y-81500000D01*
%TO.N,/ADC2_ACC*%
X218500000Y-87487500D02*
X218500000Y-90012500D01*
X210366410Y-82770000D02*
X212000000Y-81136410D01*
X207475000Y-82770000D02*
X210366410Y-82770000D01*
X212000000Y-81136410D02*
X212000000Y-80000000D01*
X212000000Y-80000000D02*
X212500000Y-79500000D01*
X212500000Y-79500000D02*
X216000000Y-79500000D01*
X216000000Y-79500000D02*
X216500000Y-80000000D01*
X216500000Y-80000000D02*
X216500000Y-87000000D01*
X216987500Y-87487500D02*
X218500000Y-87487500D01*
X216500000Y-87000000D02*
X216987500Y-87487500D01*
%TO.N,/AVR_TX*%
X198987500Y-77000000D02*
X200000000Y-77000000D01*
X200690000Y-77690000D02*
X202525000Y-77690000D01*
X200000000Y-77000000D02*
X200690000Y-77690000D01*
X205000000Y-88512500D02*
X207000000Y-90512500D01*
X205000000Y-79190000D02*
X205000000Y-88512500D01*
X203500000Y-77690000D02*
X205000000Y-79190000D01*
X202525000Y-77690000D02*
X203500000Y-77690000D01*
%TO.N,/AVR_RX*%
X198987500Y-79500000D02*
X200000000Y-79500000D01*
X200540000Y-78960000D02*
X202525000Y-78960000D01*
X200000000Y-79500000D02*
X200540000Y-78960000D01*
X204500000Y-79960000D02*
X203500000Y-78960000D01*
X203500000Y-78960000D02*
X202525000Y-78960000D01*
X204500000Y-90512500D02*
X204500000Y-79960000D01*
%TD*%
D26*
%TO.N,GND*%
G36*
X247340001Y-104340000D02*
G01*
X190660000Y-104340000D01*
X190660000Y-95233803D01*
X193455410Y-98029214D01*
X193430498Y-98075820D01*
X193394188Y-98195518D01*
X193381928Y-98320000D01*
X193381928Y-100020000D01*
X193394188Y-100144482D01*
X193430498Y-100264180D01*
X193489463Y-100374494D01*
X193568815Y-100471185D01*
X193665506Y-100550537D01*
X193775820Y-100609502D01*
X193895518Y-100645812D01*
X194020000Y-100658072D01*
X195720000Y-100658072D01*
X195844482Y-100645812D01*
X195964180Y-100609502D01*
X196074494Y-100550537D01*
X196171185Y-100471185D01*
X196250537Y-100374494D01*
X196309502Y-100264180D01*
X196331513Y-100191620D01*
X196463368Y-100323475D01*
X196706589Y-100485990D01*
X196976842Y-100597932D01*
X197263740Y-100655000D01*
X197556260Y-100655000D01*
X197843158Y-100597932D01*
X198113411Y-100485990D01*
X198356632Y-100323475D01*
X198563475Y-100116632D01*
X198680000Y-99942240D01*
X198796525Y-100116632D01*
X199003368Y-100323475D01*
X199246589Y-100485990D01*
X199516842Y-100597932D01*
X199803740Y-100655000D01*
X200096260Y-100655000D01*
X200383158Y-100597932D01*
X200653411Y-100485990D01*
X200896632Y-100323475D01*
X201103475Y-100116632D01*
X201220000Y-99942240D01*
X201336525Y-100116632D01*
X201543368Y-100323475D01*
X201786589Y-100485990D01*
X202056842Y-100597932D01*
X202343740Y-100655000D01*
X202636260Y-100655000D01*
X202923158Y-100597932D01*
X203193411Y-100485990D01*
X203436632Y-100323475D01*
X203643475Y-100116632D01*
X203805990Y-99873411D01*
X203917932Y-99603158D01*
X203975000Y-99316260D01*
X203975000Y-99023740D01*
X203917932Y-98736842D01*
X203805990Y-98466589D01*
X203643475Y-98223368D01*
X203436632Y-98016525D01*
X203262240Y-97900000D01*
X203436632Y-97783475D01*
X203643475Y-97576632D01*
X203760000Y-97402240D01*
X203876525Y-97576632D01*
X204083368Y-97783475D01*
X204326589Y-97945990D01*
X204596842Y-98057932D01*
X204883740Y-98115000D01*
X205176260Y-98115000D01*
X205463158Y-98057932D01*
X205733411Y-97945990D01*
X205976632Y-97783475D01*
X206183475Y-97576632D01*
X206300000Y-97402240D01*
X206416525Y-97576632D01*
X206623368Y-97783475D01*
X206797760Y-97900000D01*
X206623368Y-98016525D01*
X206416525Y-98223368D01*
X206254010Y-98466589D01*
X206142068Y-98736842D01*
X206085000Y-99023740D01*
X206085000Y-99316260D01*
X206142068Y-99603158D01*
X206254010Y-99873411D01*
X206416525Y-100116632D01*
X206623368Y-100323475D01*
X206866589Y-100485990D01*
X207136842Y-100597932D01*
X207423740Y-100655000D01*
X207716260Y-100655000D01*
X208003158Y-100597932D01*
X208273411Y-100485990D01*
X208516632Y-100323475D01*
X208723475Y-100116632D01*
X208840000Y-99942240D01*
X208956525Y-100116632D01*
X209163368Y-100323475D01*
X209406589Y-100485990D01*
X209676842Y-100597932D01*
X209963740Y-100655000D01*
X210256260Y-100655000D01*
X210543158Y-100597932D01*
X210813411Y-100485990D01*
X211056632Y-100323475D01*
X211263475Y-100116632D01*
X211380000Y-99942240D01*
X211496525Y-100116632D01*
X211703368Y-100323475D01*
X211946589Y-100485990D01*
X212216842Y-100597932D01*
X212503740Y-100655000D01*
X212796260Y-100655000D01*
X213083158Y-100597932D01*
X213353411Y-100485990D01*
X213596632Y-100323475D01*
X213803475Y-100116632D01*
X213920000Y-99942240D01*
X214036525Y-100116632D01*
X214243368Y-100323475D01*
X214486589Y-100485990D01*
X214756842Y-100597932D01*
X215043740Y-100655000D01*
X215336260Y-100655000D01*
X215623158Y-100597932D01*
X215893411Y-100485990D01*
X216136632Y-100323475D01*
X216343475Y-100116632D01*
X216460000Y-99942240D01*
X216576525Y-100116632D01*
X216783368Y-100323475D01*
X217026589Y-100485990D01*
X217296842Y-100597932D01*
X217583740Y-100655000D01*
X217876260Y-100655000D01*
X218163158Y-100597932D01*
X218433411Y-100485990D01*
X218676632Y-100323475D01*
X218883475Y-100116632D01*
X219000000Y-99942240D01*
X219116525Y-100116632D01*
X219323368Y-100323475D01*
X219566589Y-100485990D01*
X219836842Y-100597932D01*
X220123740Y-100655000D01*
X220416260Y-100655000D01*
X220703158Y-100597932D01*
X220973411Y-100485990D01*
X221216632Y-100323475D01*
X221423475Y-100116632D01*
X221540000Y-99942240D01*
X221656525Y-100116632D01*
X221863368Y-100323475D01*
X222106589Y-100485990D01*
X222376842Y-100597932D01*
X222663740Y-100655000D01*
X222956260Y-100655000D01*
X223243158Y-100597932D01*
X223513411Y-100485990D01*
X223756632Y-100323475D01*
X223963475Y-100116632D01*
X224125990Y-99873411D01*
X224237932Y-99603158D01*
X224295000Y-99316260D01*
X224295000Y-99023740D01*
X224237932Y-98736842D01*
X224125990Y-98466589D01*
X223963475Y-98223368D01*
X223756632Y-98016525D01*
X223582240Y-97900000D01*
X223756632Y-97783475D01*
X223963475Y-97576632D01*
X224080000Y-97402240D01*
X224196525Y-97576632D01*
X224403368Y-97783475D01*
X224646589Y-97945990D01*
X224916842Y-98057932D01*
X225203740Y-98115000D01*
X225496260Y-98115000D01*
X225783158Y-98057932D01*
X226053411Y-97945990D01*
X226296632Y-97783475D01*
X226503475Y-97576632D01*
X226620000Y-97402240D01*
X226736525Y-97576632D01*
X226943368Y-97783475D01*
X227117760Y-97900000D01*
X226943368Y-98016525D01*
X226736525Y-98223368D01*
X226574010Y-98466589D01*
X226462068Y-98736842D01*
X226405000Y-99023740D01*
X226405000Y-99316260D01*
X226462068Y-99603158D01*
X226574010Y-99873411D01*
X226736525Y-100116632D01*
X226943368Y-100323475D01*
X227186589Y-100485990D01*
X227456842Y-100597932D01*
X227743740Y-100655000D01*
X228036260Y-100655000D01*
X228323158Y-100597932D01*
X228593411Y-100485990D01*
X228836632Y-100323475D01*
X229043475Y-100116632D01*
X229160000Y-99942240D01*
X229276525Y-100116632D01*
X229483368Y-100323475D01*
X229726589Y-100485990D01*
X229996842Y-100597932D01*
X230283740Y-100655000D01*
X230576260Y-100655000D01*
X230863158Y-100597932D01*
X231133411Y-100485990D01*
X231376632Y-100323475D01*
X231583475Y-100116632D01*
X231700000Y-99942240D01*
X231816525Y-100116632D01*
X232023368Y-100323475D01*
X232266589Y-100485990D01*
X232536842Y-100597932D01*
X232823740Y-100655000D01*
X233116260Y-100655000D01*
X233403158Y-100597932D01*
X233673411Y-100485990D01*
X233916632Y-100323475D01*
X234123475Y-100116632D01*
X234240000Y-99942240D01*
X234356525Y-100116632D01*
X234563368Y-100323475D01*
X234806589Y-100485990D01*
X235076842Y-100597932D01*
X235363740Y-100655000D01*
X235656260Y-100655000D01*
X235943158Y-100597932D01*
X236213411Y-100485990D01*
X236456632Y-100323475D01*
X236663475Y-100116632D01*
X236780000Y-99942240D01*
X236896525Y-100116632D01*
X237103368Y-100323475D01*
X237346589Y-100485990D01*
X237616842Y-100597932D01*
X237903740Y-100655000D01*
X238196260Y-100655000D01*
X238483158Y-100597932D01*
X238753411Y-100485990D01*
X238996632Y-100323475D01*
X239203475Y-100116632D01*
X239320000Y-99942240D01*
X239436525Y-100116632D01*
X239643368Y-100323475D01*
X239886589Y-100485990D01*
X240156842Y-100597932D01*
X240443740Y-100655000D01*
X240736260Y-100655000D01*
X241023158Y-100597932D01*
X241293411Y-100485990D01*
X241536632Y-100323475D01*
X241743475Y-100116632D01*
X241905990Y-99873411D01*
X242017932Y-99603158D01*
X242075000Y-99316260D01*
X242075000Y-99023740D01*
X242017932Y-98736842D01*
X241905990Y-98466589D01*
X241743475Y-98223368D01*
X241536632Y-98016525D01*
X241362240Y-97900000D01*
X241536632Y-97783475D01*
X241743475Y-97576632D01*
X241860000Y-97402240D01*
X241976525Y-97576632D01*
X242183368Y-97783475D01*
X242426589Y-97945990D01*
X242696842Y-98057932D01*
X242983740Y-98115000D01*
X243276260Y-98115000D01*
X243563158Y-98057932D01*
X243833411Y-97945990D01*
X244076632Y-97783475D01*
X244283475Y-97576632D01*
X244445990Y-97333411D01*
X244557932Y-97063158D01*
X244615000Y-96776260D01*
X244615000Y-96483740D01*
X244557932Y-96196842D01*
X244445990Y-95926589D01*
X244283475Y-95683368D01*
X244076632Y-95476525D01*
X243833411Y-95314010D01*
X243563158Y-95202068D01*
X243276260Y-95145000D01*
X242983740Y-95145000D01*
X242696842Y-95202068D01*
X242426589Y-95314010D01*
X242183368Y-95476525D01*
X241976525Y-95683368D01*
X241860000Y-95857760D01*
X241743475Y-95683368D01*
X241536632Y-95476525D01*
X241293411Y-95314010D01*
X241023158Y-95202068D01*
X240736260Y-95145000D01*
X240443740Y-95145000D01*
X240156842Y-95202068D01*
X239886589Y-95314010D01*
X239643368Y-95476525D01*
X239436525Y-95683368D01*
X239320000Y-95857760D01*
X239203475Y-95683368D01*
X238996632Y-95476525D01*
X238753411Y-95314010D01*
X238483158Y-95202068D01*
X238196260Y-95145000D01*
X237903740Y-95145000D01*
X237616842Y-95202068D01*
X237346589Y-95314010D01*
X237103368Y-95476525D01*
X236896525Y-95683368D01*
X236734010Y-95926589D01*
X236622068Y-96196842D01*
X236565000Y-96483740D01*
X236565000Y-96776260D01*
X236622068Y-97063158D01*
X236734010Y-97333411D01*
X236896525Y-97576632D01*
X237103368Y-97783475D01*
X237277760Y-97900000D01*
X237103368Y-98016525D01*
X236896525Y-98223368D01*
X236780000Y-98397760D01*
X236663475Y-98223368D01*
X236456632Y-98016525D01*
X236213411Y-97854010D01*
X235943158Y-97742068D01*
X235656260Y-97685000D01*
X235363740Y-97685000D01*
X235076842Y-97742068D01*
X234806589Y-97854010D01*
X234563368Y-98016525D01*
X234356525Y-98223368D01*
X234240000Y-98397760D01*
X234123475Y-98223368D01*
X233916632Y-98016525D01*
X233742240Y-97900000D01*
X233916632Y-97783475D01*
X234123475Y-97576632D01*
X234285990Y-97333411D01*
X234397932Y-97063158D01*
X234455000Y-96776260D01*
X234455000Y-96483740D01*
X234397932Y-96196842D01*
X234285990Y-95926589D01*
X234123475Y-95683368D01*
X233916632Y-95476525D01*
X233673411Y-95314010D01*
X233403158Y-95202068D01*
X233116260Y-95145000D01*
X232823740Y-95145000D01*
X232536842Y-95202068D01*
X232266589Y-95314010D01*
X232023368Y-95476525D01*
X231816525Y-95683368D01*
X231654010Y-95926589D01*
X231542068Y-96196842D01*
X231485000Y-96483740D01*
X231485000Y-96776260D01*
X231542068Y-97063158D01*
X231654010Y-97333411D01*
X231816525Y-97576632D01*
X232023368Y-97783475D01*
X232197760Y-97900000D01*
X232023368Y-98016525D01*
X231816525Y-98223368D01*
X231700000Y-98397760D01*
X231583475Y-98223368D01*
X231376632Y-98016525D01*
X231133411Y-97854010D01*
X230863158Y-97742068D01*
X230576260Y-97685000D01*
X230283740Y-97685000D01*
X229996842Y-97742068D01*
X229726589Y-97854010D01*
X229483368Y-98016525D01*
X229276525Y-98223368D01*
X229160000Y-98397760D01*
X229043475Y-98223368D01*
X228836632Y-98016525D01*
X228662240Y-97900000D01*
X228836632Y-97783475D01*
X229043475Y-97576632D01*
X229205990Y-97333411D01*
X229317932Y-97063158D01*
X229375000Y-96776260D01*
X229375000Y-96483740D01*
X229317932Y-96196842D01*
X229205990Y-95926589D01*
X229043475Y-95683368D01*
X228836632Y-95476525D01*
X228593411Y-95314010D01*
X228323158Y-95202068D01*
X228036260Y-95145000D01*
X227743740Y-95145000D01*
X227456842Y-95202068D01*
X227186589Y-95314010D01*
X226943368Y-95476525D01*
X226736525Y-95683368D01*
X226620000Y-95857760D01*
X226503475Y-95683368D01*
X226296632Y-95476525D01*
X226053411Y-95314010D01*
X225783158Y-95202068D01*
X225496260Y-95145000D01*
X225203740Y-95145000D01*
X224916842Y-95202068D01*
X224646589Y-95314010D01*
X224403368Y-95476525D01*
X224196525Y-95683368D01*
X224080000Y-95857760D01*
X223963475Y-95683368D01*
X223756632Y-95476525D01*
X223513411Y-95314010D01*
X223243158Y-95202068D01*
X222956260Y-95145000D01*
X222663740Y-95145000D01*
X222376842Y-95202068D01*
X222106589Y-95314010D01*
X221863368Y-95476525D01*
X221656525Y-95683368D01*
X221540000Y-95857760D01*
X221423475Y-95683368D01*
X221216632Y-95476525D01*
X220973411Y-95314010D01*
X220703158Y-95202068D01*
X220416260Y-95145000D01*
X220123740Y-95145000D01*
X219836842Y-95202068D01*
X219566589Y-95314010D01*
X219323368Y-95476525D01*
X219116525Y-95683368D01*
X218954010Y-95926589D01*
X218842068Y-96196842D01*
X218785000Y-96483740D01*
X218785000Y-96776260D01*
X218842068Y-97063158D01*
X218954010Y-97333411D01*
X219116525Y-97576632D01*
X219323368Y-97783475D01*
X219497760Y-97900000D01*
X219323368Y-98016525D01*
X219116525Y-98223368D01*
X219000000Y-98397760D01*
X218883475Y-98223368D01*
X218676632Y-98016525D01*
X218433411Y-97854010D01*
X218163158Y-97742068D01*
X217876260Y-97685000D01*
X217583740Y-97685000D01*
X217296842Y-97742068D01*
X217026589Y-97854010D01*
X216783368Y-98016525D01*
X216576525Y-98223368D01*
X216460000Y-98397760D01*
X216343475Y-98223368D01*
X216136632Y-98016525D01*
X215962240Y-97900000D01*
X216136632Y-97783475D01*
X216343475Y-97576632D01*
X216505990Y-97333411D01*
X216617932Y-97063158D01*
X216675000Y-96776260D01*
X216675000Y-96483740D01*
X216617932Y-96196842D01*
X216505990Y-95926589D01*
X216343475Y-95683368D01*
X216136632Y-95476525D01*
X215893411Y-95314010D01*
X215623158Y-95202068D01*
X215336260Y-95145000D01*
X215043740Y-95145000D01*
X214756842Y-95202068D01*
X214486589Y-95314010D01*
X214243368Y-95476525D01*
X214036525Y-95683368D01*
X213920000Y-95857760D01*
X213803475Y-95683368D01*
X213596632Y-95476525D01*
X213353411Y-95314010D01*
X213083158Y-95202068D01*
X212796260Y-95145000D01*
X212503740Y-95145000D01*
X212216842Y-95202068D01*
X211946589Y-95314010D01*
X211703368Y-95476525D01*
X211496525Y-95683368D01*
X211334010Y-95926589D01*
X211222068Y-96196842D01*
X211165000Y-96483740D01*
X211165000Y-96776260D01*
X211222068Y-97063158D01*
X211334010Y-97333411D01*
X211496525Y-97576632D01*
X211703368Y-97783475D01*
X211877760Y-97900000D01*
X211703368Y-98016525D01*
X211496525Y-98223368D01*
X211380000Y-98397760D01*
X211263475Y-98223368D01*
X211056632Y-98016525D01*
X210813411Y-97854010D01*
X210543158Y-97742068D01*
X210256260Y-97685000D01*
X209963740Y-97685000D01*
X209676842Y-97742068D01*
X209406589Y-97854010D01*
X209163368Y-98016525D01*
X208956525Y-98223368D01*
X208840000Y-98397760D01*
X208723475Y-98223368D01*
X208516632Y-98016525D01*
X208342240Y-97900000D01*
X208516632Y-97783475D01*
X208723475Y-97576632D01*
X208885990Y-97333411D01*
X208997932Y-97063158D01*
X209055000Y-96776260D01*
X209055000Y-96483740D01*
X208997932Y-96196842D01*
X208885990Y-95926589D01*
X208723475Y-95683368D01*
X208516632Y-95476525D01*
X208273411Y-95314010D01*
X208003158Y-95202068D01*
X207716260Y-95145000D01*
X207423740Y-95145000D01*
X207136842Y-95202068D01*
X206866589Y-95314010D01*
X206623368Y-95476525D01*
X206416525Y-95683368D01*
X206300000Y-95857760D01*
X206183475Y-95683368D01*
X205976632Y-95476525D01*
X205765101Y-95335185D01*
X205735546Y-95237753D01*
X205664974Y-95105724D01*
X205570001Y-94989999D01*
X205541002Y-94966200D01*
X205373104Y-94798303D01*
X205464850Y-94770472D01*
X205618386Y-94688405D01*
X205750000Y-94580393D01*
X205881614Y-94688405D01*
X206035150Y-94770472D01*
X206201746Y-94821008D01*
X206375000Y-94838072D01*
X207625000Y-94838072D01*
X207798254Y-94821008D01*
X207964850Y-94770472D01*
X208118386Y-94688405D01*
X208252962Y-94577962D01*
X208363405Y-94443386D01*
X208445472Y-94289850D01*
X208496008Y-94123254D01*
X208513072Y-93950000D01*
X208513072Y-93025000D01*
X208496008Y-92851746D01*
X208445472Y-92685150D01*
X208363405Y-92531614D01*
X208252962Y-92397038D01*
X208118386Y-92286595D01*
X207964850Y-92204528D01*
X207798254Y-92153992D01*
X207625000Y-92136928D01*
X206375000Y-92136928D01*
X206201746Y-92153992D01*
X206035150Y-92204528D01*
X205881614Y-92286595D01*
X205750000Y-92394607D01*
X205618386Y-92286595D01*
X205464850Y-92204528D01*
X205298254Y-92153992D01*
X205125000Y-92136928D01*
X203875000Y-92136928D01*
X203701746Y-92153992D01*
X203535150Y-92204528D01*
X203381614Y-92286595D01*
X203247038Y-92397038D01*
X203136595Y-92531614D01*
X203054528Y-92685150D01*
X203003992Y-92851746D01*
X202986928Y-93025000D01*
X202986928Y-93950000D01*
X203003992Y-94123254D01*
X203054528Y-94289850D01*
X203136595Y-94443386D01*
X203247038Y-94577962D01*
X203381614Y-94688405D01*
X203535150Y-94770472D01*
X203701746Y-94821008D01*
X203740000Y-94824776D01*
X203740000Y-94962677D01*
X203736324Y-95000000D01*
X203740000Y-95037322D01*
X203740000Y-95037332D01*
X203750997Y-95148985D01*
X203767852Y-95204548D01*
X203794454Y-95292246D01*
X203865026Y-95424276D01*
X203904871Y-95472826D01*
X203959999Y-95540001D01*
X203989002Y-95563803D01*
X203992546Y-95567347D01*
X203876525Y-95683368D01*
X203760000Y-95857760D01*
X203643475Y-95683368D01*
X203436632Y-95476525D01*
X203193411Y-95314010D01*
X202923158Y-95202068D01*
X202636260Y-95145000D01*
X202343740Y-95145000D01*
X202056842Y-95202068D01*
X201786589Y-95314010D01*
X201543368Y-95476525D01*
X201336525Y-95683368D01*
X201174010Y-95926589D01*
X201062068Y-96196842D01*
X201005000Y-96483740D01*
X201005000Y-96776260D01*
X201048791Y-96996408D01*
X200810200Y-97234999D01*
X198766753Y-97234999D01*
X198837932Y-97063158D01*
X198895000Y-96776260D01*
X198895000Y-96483740D01*
X198837932Y-96196842D01*
X198725990Y-95926589D01*
X198563475Y-95683368D01*
X198356632Y-95476525D01*
X198113411Y-95314010D01*
X197843158Y-95202068D01*
X197556260Y-95145000D01*
X197263740Y-95145000D01*
X196976842Y-95202068D01*
X196706589Y-95314010D01*
X196463368Y-95476525D01*
X196256525Y-95683368D01*
X196140000Y-95857760D01*
X196023475Y-95683368D01*
X195816632Y-95476525D01*
X195573411Y-95314010D01*
X195303158Y-95202068D01*
X195016260Y-95145000D01*
X194723740Y-95145000D01*
X194436842Y-95202068D01*
X194166589Y-95314010D01*
X193923368Y-95476525D01*
X193716525Y-95683368D01*
X193554010Y-95926589D01*
X193538890Y-95963091D01*
X191760000Y-94184201D01*
X191760000Y-81314801D01*
X192814802Y-80260000D01*
X194675224Y-80260000D01*
X194678992Y-80298254D01*
X194729528Y-80464850D01*
X194811595Y-80618386D01*
X194922038Y-80752962D01*
X195056614Y-80863405D01*
X195210150Y-80945472D01*
X195376746Y-80996008D01*
X195550000Y-81013072D01*
X196475000Y-81013072D01*
X196648254Y-80996008D01*
X196814850Y-80945472D01*
X196968386Y-80863405D01*
X197065000Y-80784117D01*
X197065000Y-85643247D01*
X196893158Y-85572068D01*
X196606260Y-85515000D01*
X196313740Y-85515000D01*
X196026842Y-85572068D01*
X195756589Y-85684010D01*
X195513368Y-85846525D01*
X195306525Y-86053368D01*
X195190000Y-86227760D01*
X195073475Y-86053368D01*
X194866632Y-85846525D01*
X194623411Y-85684010D01*
X194353158Y-85572068D01*
X194066260Y-85515000D01*
X193773740Y-85515000D01*
X193486842Y-85572068D01*
X193216589Y-85684010D01*
X192973368Y-85846525D01*
X192766525Y-86053368D01*
X192604010Y-86296589D01*
X192492068Y-86566842D01*
X192435000Y-86853740D01*
X192435000Y-87146260D01*
X192492068Y-87433158D01*
X192604010Y-87703411D01*
X192766525Y-87946632D01*
X192973368Y-88153475D01*
X193216589Y-88315990D01*
X193486842Y-88427932D01*
X193773740Y-88485000D01*
X194066260Y-88485000D01*
X194353158Y-88427932D01*
X194623411Y-88315990D01*
X194866632Y-88153475D01*
X195073475Y-87946632D01*
X195190000Y-87772240D01*
X195306525Y-87946632D01*
X195513368Y-88153475D01*
X195687760Y-88270000D01*
X195513368Y-88386525D01*
X195306525Y-88593368D01*
X195144010Y-88836589D01*
X195032068Y-89106842D01*
X194975000Y-89393740D01*
X194975000Y-89686260D01*
X195032068Y-89973158D01*
X195144010Y-90243411D01*
X195306525Y-90486632D01*
X195513368Y-90693475D01*
X195756589Y-90855990D01*
X196026842Y-90967932D01*
X196313740Y-91025000D01*
X196606260Y-91025000D01*
X196893158Y-90967932D01*
X197163411Y-90855990D01*
X197406632Y-90693475D01*
X197613475Y-90486632D01*
X197730000Y-90312240D01*
X197846525Y-90486632D01*
X198053368Y-90693475D01*
X198296589Y-90855990D01*
X198566842Y-90967932D01*
X198853740Y-91025000D01*
X199146260Y-91025000D01*
X199433158Y-90967932D01*
X199703411Y-90855990D01*
X199946632Y-90693475D01*
X200090107Y-90550000D01*
X200477500Y-90550000D01*
X200477500Y-91681005D01*
X200397038Y-91747038D01*
X200286595Y-91881614D01*
X200204528Y-92035150D01*
X200153992Y-92201746D01*
X200136928Y-92375000D01*
X200136928Y-93625000D01*
X200153992Y-93798254D01*
X200204528Y-93964850D01*
X200286595Y-94118386D01*
X200397038Y-94252962D01*
X200531614Y-94363405D01*
X200685150Y-94445472D01*
X200851746Y-94496008D01*
X201025000Y-94513072D01*
X201950000Y-94513072D01*
X202123254Y-94496008D01*
X202289850Y-94445472D01*
X202443386Y-94363405D01*
X202577962Y-94252962D01*
X202688405Y-94118386D01*
X202770472Y-93964850D01*
X202821008Y-93798254D01*
X202838072Y-93625000D01*
X202838072Y-92375000D01*
X202821008Y-92201746D01*
X202770472Y-92035150D01*
X202688405Y-91881614D01*
X202577962Y-91747038D01*
X202497500Y-91681005D01*
X202497500Y-90037108D01*
X202502386Y-89987500D01*
X202497500Y-89937892D01*
X202497500Y-89930855D01*
X203204099Y-89224257D01*
X203242633Y-89192633D01*
X203368847Y-89038840D01*
X203462632Y-88863380D01*
X203520385Y-88672994D01*
X203535000Y-88524608D01*
X203535000Y-88524606D01*
X203539886Y-88475001D01*
X203535000Y-88425396D01*
X203535000Y-86223448D01*
X203651582Y-86188084D01*
X203740000Y-86140823D01*
X203740000Y-89175224D01*
X203701746Y-89178992D01*
X203535150Y-89229528D01*
X203381614Y-89311595D01*
X203247038Y-89422038D01*
X203136595Y-89556614D01*
X203054528Y-89710150D01*
X203003992Y-89876746D01*
X202986928Y-90050000D01*
X202986928Y-90975000D01*
X203003992Y-91148254D01*
X203054528Y-91314850D01*
X203136595Y-91468386D01*
X203247038Y-91602962D01*
X203381614Y-91713405D01*
X203535150Y-91795472D01*
X203701746Y-91846008D01*
X203875000Y-91863072D01*
X205125000Y-91863072D01*
X205298254Y-91846008D01*
X205464850Y-91795472D01*
X205618386Y-91713405D01*
X205750000Y-91605393D01*
X205881614Y-91713405D01*
X206035150Y-91795472D01*
X206201746Y-91846008D01*
X206375000Y-91863072D01*
X207625000Y-91863072D01*
X207798254Y-91846008D01*
X207964850Y-91795472D01*
X208118386Y-91713405D01*
X208252962Y-91602962D01*
X208363405Y-91468386D01*
X208445472Y-91314850D01*
X208496008Y-91148254D01*
X208513072Y-90975000D01*
X208513072Y-90050000D01*
X208496008Y-89876746D01*
X208445472Y-89710150D01*
X208363405Y-89556614D01*
X208252962Y-89422038D01*
X208118386Y-89311595D01*
X207964850Y-89229528D01*
X207798254Y-89178992D01*
X207625000Y-89161928D01*
X206724230Y-89161928D01*
X205760000Y-88197699D01*
X205760000Y-79966570D01*
X205862959Y-80069529D01*
X205861928Y-80080000D01*
X205861928Y-80380000D01*
X205877071Y-80533745D01*
X205921916Y-80681582D01*
X205994742Y-80817829D01*
X206033454Y-80865000D01*
X205994742Y-80912171D01*
X205921916Y-81048418D01*
X205877071Y-81196255D01*
X205861928Y-81350000D01*
X205861928Y-81650000D01*
X205877071Y-81803745D01*
X205921916Y-81951582D01*
X205994742Y-82087829D01*
X206033454Y-82135000D01*
X205994742Y-82182171D01*
X205921916Y-82318418D01*
X205877071Y-82466255D01*
X205861928Y-82620000D01*
X205861928Y-82920000D01*
X205877071Y-83073745D01*
X205921916Y-83221582D01*
X205994742Y-83357829D01*
X206033454Y-83405000D01*
X205994742Y-83452171D01*
X205921916Y-83588418D01*
X205877071Y-83736255D01*
X205861928Y-83890000D01*
X205861928Y-84190000D01*
X205877071Y-84343745D01*
X205921916Y-84491582D01*
X205994742Y-84627829D01*
X206092749Y-84747251D01*
X206212171Y-84845258D01*
X206348418Y-84918084D01*
X206496255Y-84962929D01*
X206650000Y-84978072D01*
X208300000Y-84978072D01*
X208453745Y-84962929D01*
X208578783Y-84925000D01*
X213115000Y-84925000D01*
X213115001Y-87205306D01*
X213035150Y-87229528D01*
X212881614Y-87311595D01*
X212747038Y-87422038D01*
X212636595Y-87556614D01*
X212554528Y-87710150D01*
X212503992Y-87876746D01*
X212486928Y-88050000D01*
X212486928Y-88975000D01*
X212503992Y-89148254D01*
X212554528Y-89314850D01*
X212636595Y-89468386D01*
X212747038Y-89602962D01*
X212881614Y-89713405D01*
X213035150Y-89795472D01*
X213201746Y-89846008D01*
X213375000Y-89863072D01*
X214625000Y-89863072D01*
X214798254Y-89846008D01*
X214964850Y-89795472D01*
X215118386Y-89713405D01*
X215252962Y-89602962D01*
X215363405Y-89468386D01*
X215445472Y-89314850D01*
X215496008Y-89148254D01*
X215513072Y-88975000D01*
X215513072Y-88050000D01*
X215496008Y-87876746D01*
X215445472Y-87710150D01*
X215363405Y-87556614D01*
X215252962Y-87422038D01*
X215118386Y-87311595D01*
X214964850Y-87229528D01*
X214885000Y-87205306D01*
X214885000Y-84543465D01*
X214889281Y-84499999D01*
X214885000Y-84456533D01*
X214885000Y-84043469D01*
X214889281Y-84000000D01*
X214885000Y-83956531D01*
X214885000Y-83543467D01*
X214889281Y-83500001D01*
X214885000Y-83456535D01*
X214885000Y-82294694D01*
X214964850Y-82270472D01*
X215118386Y-82188405D01*
X215252962Y-82077962D01*
X215363405Y-81943386D01*
X215445472Y-81789850D01*
X215496008Y-81623254D01*
X215513072Y-81450000D01*
X215513072Y-80525000D01*
X215496008Y-80351746D01*
X215468177Y-80260000D01*
X215685199Y-80260000D01*
X215740000Y-80314801D01*
X215740001Y-86962668D01*
X215736324Y-87000000D01*
X215740001Y-87037333D01*
X215740664Y-87044059D01*
X215750998Y-87148985D01*
X215794454Y-87292246D01*
X215865026Y-87424276D01*
X215927172Y-87500000D01*
X215960000Y-87540001D01*
X215988998Y-87563799D01*
X216423696Y-87998497D01*
X216447499Y-88027501D01*
X216514572Y-88082546D01*
X216563223Y-88122474D01*
X216626941Y-88156532D01*
X216695253Y-88193046D01*
X216838514Y-88236503D01*
X216950167Y-88247500D01*
X216950176Y-88247500D01*
X216987499Y-88251176D01*
X217024822Y-88247500D01*
X217041681Y-88247500D01*
X217054528Y-88289850D01*
X217136595Y-88443386D01*
X217247038Y-88577962D01*
X217381614Y-88688405D01*
X217496850Y-88750000D01*
X217381614Y-88811595D01*
X217247038Y-88922038D01*
X217136595Y-89056614D01*
X217054528Y-89210150D01*
X217003992Y-89376746D01*
X216986928Y-89550000D01*
X216986928Y-90475000D01*
X216999486Y-90602500D01*
X215401294Y-90602500D01*
X215363405Y-90531614D01*
X215252962Y-90397038D01*
X215118386Y-90286595D01*
X214964850Y-90204528D01*
X214798254Y-90153992D01*
X214625000Y-90136928D01*
X213375000Y-90136928D01*
X213201746Y-90153992D01*
X213035150Y-90204528D01*
X212881614Y-90286595D01*
X212747038Y-90397038D01*
X212636595Y-90531614D01*
X212554528Y-90685150D01*
X212503992Y-90851746D01*
X212486928Y-91025000D01*
X212486928Y-91950000D01*
X212503992Y-92123254D01*
X212554528Y-92289850D01*
X212636595Y-92443386D01*
X212747038Y-92577962D01*
X212881614Y-92688405D01*
X213035150Y-92770472D01*
X213201746Y-92821008D01*
X213375000Y-92838072D01*
X214625000Y-92838072D01*
X214798254Y-92821008D01*
X214964850Y-92770472D01*
X215118386Y-92688405D01*
X215252962Y-92577962D01*
X215363405Y-92443386D01*
X215401294Y-92372500D01*
X220170922Y-92372500D01*
X220411928Y-92613507D01*
X220411928Y-92850000D01*
X220424188Y-92974482D01*
X220460498Y-93094180D01*
X220519463Y-93204494D01*
X220598815Y-93301185D01*
X220695506Y-93380537D01*
X220805820Y-93439502D01*
X220925518Y-93475812D01*
X221050000Y-93488072D01*
X221950000Y-93488072D01*
X222074482Y-93475812D01*
X222194180Y-93439502D01*
X222304494Y-93380537D01*
X222401185Y-93301185D01*
X222480537Y-93204494D01*
X222539502Y-93094180D01*
X222575812Y-92974482D01*
X222588072Y-92850000D01*
X222588072Y-92338095D01*
X222598815Y-92351185D01*
X222695506Y-92430537D01*
X222805820Y-92489502D01*
X222925518Y-92525812D01*
X223050000Y-92538072D01*
X223950000Y-92538072D01*
X224074482Y-92525812D01*
X224194180Y-92489502D01*
X224304494Y-92430537D01*
X224401185Y-92351185D01*
X224476018Y-92260000D01*
X224515558Y-92260000D01*
X224535150Y-92270472D01*
X224701746Y-92321008D01*
X224875000Y-92338072D01*
X226125000Y-92338072D01*
X226298254Y-92321008D01*
X226464850Y-92270472D01*
X226618386Y-92188405D01*
X226752962Y-92077962D01*
X226863405Y-91943386D01*
X226945472Y-91789850D01*
X226996008Y-91623254D01*
X227013072Y-91450000D01*
X227013072Y-90525000D01*
X226996008Y-90351746D01*
X226945472Y-90185150D01*
X226863405Y-90031614D01*
X226752962Y-89897038D01*
X226618386Y-89786595D01*
X226464850Y-89704528D01*
X226298254Y-89653992D01*
X226125000Y-89636928D01*
X224875000Y-89636928D01*
X224701746Y-89653992D01*
X224535150Y-89704528D01*
X224381614Y-89786595D01*
X224247038Y-89897038D01*
X224137520Y-90030487D01*
X224134974Y-90025723D01*
X224063799Y-89938997D01*
X224040001Y-89909999D01*
X224011004Y-89886202D01*
X222588072Y-88463271D01*
X222588072Y-88338095D01*
X222598815Y-88351185D01*
X222695506Y-88430537D01*
X222805820Y-88489502D01*
X222925518Y-88525812D01*
X223050000Y-88538072D01*
X223950000Y-88538072D01*
X223992726Y-88533864D01*
X224003992Y-88648254D01*
X224054528Y-88814850D01*
X224136595Y-88968386D01*
X224247038Y-89102962D01*
X224381614Y-89213405D01*
X224535150Y-89295472D01*
X224701746Y-89346008D01*
X224875000Y-89363072D01*
X226125000Y-89363072D01*
X226298254Y-89346008D01*
X226464850Y-89295472D01*
X226618386Y-89213405D01*
X226752962Y-89102962D01*
X226863405Y-88968386D01*
X226945472Y-88814850D01*
X226996008Y-88648254D01*
X227013072Y-88475000D01*
X227013072Y-88104559D01*
X229982632Y-85135000D01*
X240190640Y-85135000D01*
X240341637Y-85360983D01*
X240639017Y-85658363D01*
X240988698Y-85892012D01*
X241377244Y-86052953D01*
X241789721Y-86135000D01*
X242210279Y-86135000D01*
X242622756Y-86052953D01*
X243011302Y-85892012D01*
X243360983Y-85658363D01*
X243658363Y-85360983D01*
X243892012Y-85011302D01*
X244052953Y-84622756D01*
X244135000Y-84210279D01*
X244135000Y-83789721D01*
X244052953Y-83377244D01*
X243892012Y-82988698D01*
X243658363Y-82639017D01*
X243360983Y-82341637D01*
X243011302Y-82107988D01*
X242622756Y-81947047D01*
X242210279Y-81865000D01*
X241789721Y-81865000D01*
X241377244Y-81947047D01*
X240988698Y-82107988D01*
X240639017Y-82341637D01*
X240341637Y-82639017D01*
X240190640Y-82865000D01*
X229568251Y-82865000D01*
X229512500Y-82859509D01*
X229456748Y-82865000D01*
X229290001Y-82881423D01*
X229076053Y-82946324D01*
X228878877Y-83051716D01*
X228706051Y-83193551D01*
X228670509Y-83236859D01*
X225372500Y-86534869D01*
X225372500Y-85901294D01*
X225443386Y-85863405D01*
X225577962Y-85752962D01*
X225688405Y-85618386D01*
X225770472Y-85464850D01*
X225821008Y-85298254D01*
X225838072Y-85125000D01*
X225838072Y-84244769D01*
X225859695Y-84173490D01*
X225876781Y-84000000D01*
X225859695Y-83826510D01*
X225809088Y-83659687D01*
X225807149Y-83656060D01*
X225770472Y-83535150D01*
X225688405Y-83381614D01*
X225577962Y-83247038D01*
X225443386Y-83136595D01*
X225289850Y-83054528D01*
X225123254Y-83003992D01*
X224950000Y-82986928D01*
X224025000Y-82986928D01*
X223851746Y-83003992D01*
X223685150Y-83054528D01*
X223531614Y-83136595D01*
X223397038Y-83247038D01*
X223286595Y-83381614D01*
X223204528Y-83535150D01*
X223153992Y-83701746D01*
X223136928Y-83875000D01*
X223136928Y-85125000D01*
X223153992Y-85298254D01*
X223204528Y-85464850D01*
X223286595Y-85618386D01*
X223397038Y-85752962D01*
X223531614Y-85863405D01*
X223602500Y-85901295D01*
X223602501Y-86461928D01*
X223050000Y-86461928D01*
X222925518Y-86474188D01*
X222805820Y-86510498D01*
X222695506Y-86569463D01*
X222598815Y-86648815D01*
X222588072Y-86661905D01*
X222588072Y-86150000D01*
X222575812Y-86025518D01*
X222539502Y-85905820D01*
X222502059Y-85835770D01*
X222602962Y-85752962D01*
X222713405Y-85618386D01*
X222795472Y-85464850D01*
X222846008Y-85298254D01*
X222863072Y-85125000D01*
X222863072Y-83875000D01*
X222846008Y-83701746D01*
X222795472Y-83535150D01*
X222713405Y-83381614D01*
X222602962Y-83247038D01*
X222468386Y-83136595D01*
X222314850Y-83054528D01*
X222148254Y-83003992D01*
X221975000Y-82986928D01*
X221050000Y-82986928D01*
X220876746Y-83003992D01*
X220710150Y-83054528D01*
X220556614Y-83136595D01*
X220422038Y-83247038D01*
X220311595Y-83381614D01*
X220229528Y-83535150D01*
X220205306Y-83615000D01*
X219894613Y-83615000D01*
X219863405Y-83556614D01*
X219752962Y-83422038D01*
X219618386Y-83311595D01*
X219464850Y-83229528D01*
X219298254Y-83178992D01*
X219125000Y-83161928D01*
X217875000Y-83161928D01*
X217701746Y-83178992D01*
X217535150Y-83229528D01*
X217381614Y-83311595D01*
X217260000Y-83411400D01*
X217260000Y-80037325D01*
X217263676Y-80000000D01*
X217260000Y-79962675D01*
X217260000Y-79962667D01*
X217249003Y-79851014D01*
X217205546Y-79707753D01*
X217134974Y-79575724D01*
X217040001Y-79459999D01*
X217010998Y-79436197D01*
X216563804Y-78989003D01*
X216540001Y-78959999D01*
X216463846Y-78897500D01*
X220195922Y-78897500D01*
X220411928Y-79113507D01*
X220411928Y-79350000D01*
X220424188Y-79474482D01*
X220460498Y-79594180D01*
X220519463Y-79704494D01*
X220598815Y-79801185D01*
X220695506Y-79880537D01*
X220805820Y-79939502D01*
X220925518Y-79975812D01*
X221050000Y-79988072D01*
X221950000Y-79988072D01*
X222074482Y-79975812D01*
X222194180Y-79939502D01*
X222304494Y-79880537D01*
X222401185Y-79801185D01*
X222480537Y-79704494D01*
X222539502Y-79594180D01*
X222575812Y-79474482D01*
X222588072Y-79350000D01*
X222588072Y-78838095D01*
X222598815Y-78851185D01*
X222695506Y-78930537D01*
X222805820Y-78989502D01*
X222925518Y-79025812D01*
X223050000Y-79038072D01*
X223950000Y-79038072D01*
X224074482Y-79025812D01*
X224194180Y-78989502D01*
X224304494Y-78930537D01*
X224401185Y-78851185D01*
X224476018Y-78760000D01*
X224515558Y-78760000D01*
X224535150Y-78770472D01*
X224701746Y-78821008D01*
X224875000Y-78838072D01*
X226125000Y-78838072D01*
X226298254Y-78821008D01*
X226464850Y-78770472D01*
X226618386Y-78688405D01*
X226752962Y-78577962D01*
X226863405Y-78443386D01*
X226945472Y-78289850D01*
X226996008Y-78123254D01*
X227013072Y-77950000D01*
X227013072Y-77025000D01*
X226996008Y-76851746D01*
X226945472Y-76685150D01*
X226863405Y-76531614D01*
X226752962Y-76397038D01*
X226618386Y-76286595D01*
X226464850Y-76204528D01*
X226298254Y-76153992D01*
X226125000Y-76136928D01*
X224875000Y-76136928D01*
X224701746Y-76153992D01*
X224535150Y-76204528D01*
X224381614Y-76286595D01*
X224247038Y-76397038D01*
X224137520Y-76530487D01*
X224134974Y-76525723D01*
X224063799Y-76438997D01*
X224040001Y-76409999D01*
X224011004Y-76386202D01*
X222588072Y-74963271D01*
X222588072Y-74838095D01*
X222598815Y-74851185D01*
X222695506Y-74930537D01*
X222805820Y-74989502D01*
X222925518Y-75025812D01*
X223050000Y-75038072D01*
X223109717Y-75038072D01*
X223263239Y-75191594D01*
X223294867Y-75230133D01*
X223448660Y-75356347D01*
X223624120Y-75450132D01*
X223814506Y-75507885D01*
X223962892Y-75522500D01*
X223962894Y-75522500D01*
X224012499Y-75527386D01*
X224062104Y-75522500D01*
X224181005Y-75522500D01*
X224247038Y-75602962D01*
X224381614Y-75713405D01*
X224535150Y-75795472D01*
X224701746Y-75846008D01*
X224875000Y-75863072D01*
X226125000Y-75863072D01*
X226298254Y-75846008D01*
X226464850Y-75795472D01*
X226618386Y-75713405D01*
X226752962Y-75602962D01*
X226863405Y-75468386D01*
X226945472Y-75314850D01*
X226996008Y-75148254D01*
X227013072Y-74975000D01*
X227013072Y-74050000D01*
X226996008Y-73876746D01*
X226945472Y-73710150D01*
X226863405Y-73556614D01*
X226752962Y-73422038D01*
X226618386Y-73311595D01*
X226464850Y-73229528D01*
X226385000Y-73205306D01*
X226385000Y-72043477D01*
X226389282Y-72000000D01*
X226372195Y-71826510D01*
X226321589Y-71659687D01*
X226239411Y-71505941D01*
X226128817Y-71371183D01*
X226025339Y-71286260D01*
X225838072Y-71098993D01*
X225838072Y-70375000D01*
X225821008Y-70201746D01*
X225770472Y-70035150D01*
X225688405Y-69881614D01*
X225577962Y-69747038D01*
X225443386Y-69636595D01*
X225289850Y-69554528D01*
X225123254Y-69503992D01*
X224950000Y-69486928D01*
X224579560Y-69486928D01*
X222829496Y-67736865D01*
X222793949Y-67693551D01*
X222621123Y-67551716D01*
X222423947Y-67446324D01*
X222209999Y-67381423D01*
X222043252Y-67365000D01*
X222043251Y-67365000D01*
X221987500Y-67359509D01*
X221931749Y-67365000D01*
X213876746Y-67365000D01*
X213888072Y-67250000D01*
X213888072Y-64750000D01*
X213875812Y-64625518D01*
X213839502Y-64505820D01*
X213780537Y-64395506D01*
X213701185Y-64298815D01*
X213604494Y-64219463D01*
X213494180Y-64160498D01*
X213374482Y-64124188D01*
X213250000Y-64111928D01*
X210750000Y-64111928D01*
X210625518Y-64124188D01*
X210505820Y-64160498D01*
X210395506Y-64219463D01*
X210298815Y-64298815D01*
X210219463Y-64395506D01*
X210160498Y-64505820D01*
X210124188Y-64625518D01*
X210111928Y-64750000D01*
X210111928Y-64990000D01*
X209918355Y-64990000D01*
X209388072Y-64459717D01*
X209388072Y-63379872D01*
X219265000Y-63379872D01*
X219265000Y-63820128D01*
X219350890Y-64251925D01*
X219519369Y-64658669D01*
X219763962Y-65024729D01*
X220075271Y-65336038D01*
X220441331Y-65580631D01*
X220848075Y-65749110D01*
X221279872Y-65835000D01*
X221720128Y-65835000D01*
X222151925Y-65749110D01*
X222558669Y-65580631D01*
X222924729Y-65336038D01*
X223236038Y-65024729D01*
X223480631Y-64658669D01*
X223649110Y-64251925D01*
X223735000Y-63820128D01*
X223735000Y-63789721D01*
X239865000Y-63789721D01*
X239865000Y-64210279D01*
X239947047Y-64622756D01*
X240107988Y-65011302D01*
X240341637Y-65360983D01*
X240639017Y-65658363D01*
X240988698Y-65892012D01*
X241377244Y-66052953D01*
X241789721Y-66135000D01*
X242210279Y-66135000D01*
X242622756Y-66052953D01*
X243011302Y-65892012D01*
X243360983Y-65658363D01*
X243658363Y-65360983D01*
X243892012Y-65011302D01*
X244052953Y-64622756D01*
X244135000Y-64210279D01*
X244135000Y-63789721D01*
X244052953Y-63377244D01*
X243892012Y-62988698D01*
X243658363Y-62639017D01*
X243360983Y-62341637D01*
X243011302Y-62107988D01*
X242622756Y-61947047D01*
X242210279Y-61865000D01*
X241789721Y-61865000D01*
X241377244Y-61947047D01*
X240988698Y-62107988D01*
X240639017Y-62341637D01*
X240341637Y-62639017D01*
X240107988Y-62988698D01*
X239947047Y-63377244D01*
X239865000Y-63789721D01*
X223735000Y-63789721D01*
X223735000Y-63379872D01*
X223649110Y-62948075D01*
X223480631Y-62541331D01*
X223236038Y-62175271D01*
X222924729Y-61863962D01*
X222558669Y-61619369D01*
X222151925Y-61450890D01*
X221720128Y-61365000D01*
X221279872Y-61365000D01*
X220848075Y-61450890D01*
X220441331Y-61619369D01*
X220075271Y-61863962D01*
X219763962Y-62175271D01*
X219519369Y-62541331D01*
X219350890Y-62948075D01*
X219265000Y-63379872D01*
X209388072Y-63379872D01*
X209388072Y-63100000D01*
X209375812Y-62975518D01*
X209339502Y-62855820D01*
X209280537Y-62745506D01*
X209201185Y-62648815D01*
X209104494Y-62569463D01*
X208994180Y-62510498D01*
X208874482Y-62474188D01*
X208750000Y-62461928D01*
X206250000Y-62461928D01*
X206125518Y-62474188D01*
X206005820Y-62510498D01*
X205895506Y-62569463D01*
X205798815Y-62648815D01*
X205719463Y-62745506D01*
X205660498Y-62855820D01*
X205624188Y-62975518D01*
X205611928Y-63100000D01*
X205611928Y-64900000D01*
X205624188Y-65024482D01*
X205660498Y-65144180D01*
X205719463Y-65254494D01*
X205798815Y-65351185D01*
X205895506Y-65430537D01*
X206005820Y-65489502D01*
X206125518Y-65525812D01*
X206250000Y-65538072D01*
X207609717Y-65538072D01*
X208750739Y-66679094D01*
X208782367Y-66717633D01*
X208936160Y-66843847D01*
X209111620Y-66937632D01*
X209302006Y-66995385D01*
X209450392Y-67010000D01*
X209450394Y-67010000D01*
X209499999Y-67014886D01*
X209549604Y-67010000D01*
X210111928Y-67010000D01*
X210111928Y-67250000D01*
X210124188Y-67374482D01*
X210160498Y-67494180D01*
X210219463Y-67604494D01*
X210298815Y-67701185D01*
X210395506Y-67780537D01*
X210505820Y-67839502D01*
X210625518Y-67875812D01*
X210750000Y-67888072D01*
X210865001Y-67888072D01*
X210865001Y-67944239D01*
X210859509Y-68000000D01*
X210881423Y-68222498D01*
X210946324Y-68436446D01*
X210995384Y-68528230D01*
X211051717Y-68633623D01*
X211193552Y-68806449D01*
X211236860Y-68841991D01*
X211658004Y-69263135D01*
X211693551Y-69306449D01*
X211866377Y-69448284D01*
X212063553Y-69553676D01*
X212277501Y-69618577D01*
X212500000Y-69640491D01*
X212555752Y-69635000D01*
X220559598Y-69635000D01*
X220556614Y-69636595D01*
X220422038Y-69747038D01*
X220311595Y-69881614D01*
X220229528Y-70035150D01*
X220205306Y-70115000D01*
X219894613Y-70115000D01*
X219863405Y-70056614D01*
X219752962Y-69922038D01*
X219618386Y-69811595D01*
X219464850Y-69729528D01*
X219298254Y-69678992D01*
X219125000Y-69661928D01*
X217875000Y-69661928D01*
X217701746Y-69678992D01*
X217535150Y-69729528D01*
X217381614Y-69811595D01*
X217247038Y-69922038D01*
X217136595Y-70056614D01*
X217054528Y-70210150D01*
X217003992Y-70376746D01*
X216986928Y-70550000D01*
X216986928Y-71475000D01*
X217003992Y-71648254D01*
X217054528Y-71814850D01*
X217136595Y-71968386D01*
X217247038Y-72102962D01*
X217381614Y-72213405D01*
X217535150Y-72295472D01*
X217701746Y-72346008D01*
X217875000Y-72363072D01*
X219125000Y-72363072D01*
X219298254Y-72346008D01*
X219464850Y-72295472D01*
X219618386Y-72213405D01*
X219752962Y-72102962D01*
X219863405Y-71968386D01*
X219907976Y-71885000D01*
X220205306Y-71885000D01*
X220229528Y-71964850D01*
X220311595Y-72118386D01*
X220422038Y-72252962D01*
X220505564Y-72321509D01*
X220460498Y-72405820D01*
X220424188Y-72525518D01*
X220411928Y-72650000D01*
X220411928Y-73450000D01*
X220424188Y-73574482D01*
X220460498Y-73694180D01*
X220519463Y-73804494D01*
X220598815Y-73901185D01*
X220695506Y-73980537D01*
X220731918Y-74000000D01*
X220695506Y-74019463D01*
X220598815Y-74098815D01*
X220519463Y-74195506D01*
X220460498Y-74305820D01*
X220424188Y-74425518D01*
X220411928Y-74550000D01*
X220411928Y-75350000D01*
X220424188Y-75474482D01*
X220460498Y-75594180D01*
X220519463Y-75704494D01*
X220598815Y-75801185D01*
X220695506Y-75880537D01*
X220805820Y-75939502D01*
X220925518Y-75975812D01*
X221050000Y-75988072D01*
X221463271Y-75988072D01*
X222612655Y-77137457D01*
X222598815Y-77148815D01*
X222519463Y-77245506D01*
X222460498Y-77355820D01*
X222424188Y-77475518D01*
X222411928Y-77600000D01*
X222411928Y-78111905D01*
X222401185Y-78098815D01*
X222304494Y-78019463D01*
X222194180Y-77960498D01*
X222074482Y-77924188D01*
X221950000Y-77911928D01*
X221713507Y-77911928D01*
X221219034Y-77417456D01*
X221191317Y-77383683D01*
X221056559Y-77273089D01*
X220902813Y-77190911D01*
X220735990Y-77140305D01*
X220605977Y-77127500D01*
X220605969Y-77127500D01*
X220562500Y-77123219D01*
X220519031Y-77127500D01*
X219998052Y-77127500D01*
X220013072Y-76975000D01*
X220013072Y-76050000D01*
X219996008Y-75876746D01*
X219945472Y-75710150D01*
X219863405Y-75556614D01*
X219752962Y-75422038D01*
X219618386Y-75311595D01*
X219503150Y-75250000D01*
X219618386Y-75188405D01*
X219752962Y-75077962D01*
X219863405Y-74943386D01*
X219945472Y-74789850D01*
X219996008Y-74623254D01*
X220013072Y-74450000D01*
X220013072Y-73525000D01*
X219996008Y-73351746D01*
X219945472Y-73185150D01*
X219863405Y-73031614D01*
X219752962Y-72897038D01*
X219618386Y-72786595D01*
X219464850Y-72704528D01*
X219298254Y-72653992D01*
X219125000Y-72636928D01*
X217875000Y-72636928D01*
X217701746Y-72653992D01*
X217535150Y-72704528D01*
X217381614Y-72786595D01*
X217247038Y-72897038D01*
X217136595Y-73031614D01*
X217054528Y-73185150D01*
X217003992Y-73351746D01*
X216986928Y-73525000D01*
X216986928Y-74450000D01*
X217003992Y-74623254D01*
X217054528Y-74789850D01*
X217136595Y-74943386D01*
X217247038Y-75077962D01*
X217381614Y-75188405D01*
X217496850Y-75250000D01*
X217381614Y-75311595D01*
X217247038Y-75422038D01*
X217136595Y-75556614D01*
X217054528Y-75710150D01*
X217041681Y-75752500D01*
X212024822Y-75752500D01*
X211987499Y-75748824D01*
X211950176Y-75752500D01*
X211950167Y-75752500D01*
X211838514Y-75763497D01*
X211733105Y-75795472D01*
X211695253Y-75806954D01*
X211563223Y-75877526D01*
X211520646Y-75912469D01*
X211447499Y-75972499D01*
X211423696Y-76001503D01*
X210989003Y-76436196D01*
X210959999Y-76459999D01*
X210922628Y-76505536D01*
X210865026Y-76575724D01*
X210818949Y-76661928D01*
X210794454Y-76707754D01*
X210750997Y-76851015D01*
X210740000Y-76962668D01*
X210740000Y-76962678D01*
X210736324Y-77000000D01*
X210740000Y-77037323D01*
X210740001Y-80685198D01*
X210685199Y-80740000D01*
X208996859Y-80740000D01*
X209028084Y-80681582D01*
X209072929Y-80533745D01*
X209088072Y-80380000D01*
X209088072Y-80080000D01*
X209072929Y-79926255D01*
X209028084Y-79778418D01*
X208955258Y-79642171D01*
X208916546Y-79595000D01*
X208955258Y-79547829D01*
X209028084Y-79411582D01*
X209072929Y-79263745D01*
X209088072Y-79110000D01*
X209088072Y-78810000D01*
X209072929Y-78656255D01*
X209028084Y-78508418D01*
X208955258Y-78372171D01*
X208916546Y-78325000D01*
X208955258Y-78277829D01*
X209028084Y-78141582D01*
X209072929Y-77993745D01*
X209088072Y-77840000D01*
X209088072Y-77540000D01*
X209072929Y-77386255D01*
X209028084Y-77238418D01*
X208955258Y-77102171D01*
X208857251Y-76982749D01*
X208737829Y-76884742D01*
X208601582Y-76811916D01*
X208453745Y-76767071D01*
X208300000Y-76751928D01*
X207861930Y-76751928D01*
X207672994Y-76694615D01*
X207524608Y-76680000D01*
X206608355Y-76680000D01*
X206010000Y-76081645D01*
X206010000Y-72049604D01*
X206014886Y-71999999D01*
X206002298Y-71872195D01*
X205996601Y-71814344D01*
X208115000Y-71814344D01*
X208115000Y-72185656D01*
X208187439Y-72549834D01*
X208329534Y-72892882D01*
X208535825Y-73201618D01*
X208798382Y-73464175D01*
X209107118Y-73670466D01*
X209450166Y-73812561D01*
X209814344Y-73885000D01*
X210185656Y-73885000D01*
X210549834Y-73812561D01*
X210892882Y-73670466D01*
X211201618Y-73464175D01*
X211464175Y-73201618D01*
X211670466Y-72892882D01*
X211812561Y-72549834D01*
X211885000Y-72185656D01*
X211885000Y-71814344D01*
X211812561Y-71450166D01*
X211670466Y-71107118D01*
X211464175Y-70798382D01*
X211201618Y-70535825D01*
X210892882Y-70329534D01*
X210549834Y-70187439D01*
X210185656Y-70115000D01*
X209814344Y-70115000D01*
X209450166Y-70187439D01*
X209107118Y-70329534D01*
X208798382Y-70535825D01*
X208535825Y-70798382D01*
X208329534Y-71107118D01*
X208187439Y-71450166D01*
X208115000Y-71814344D01*
X205996601Y-71814344D01*
X205995385Y-71802006D01*
X205937632Y-71611620D01*
X205843847Y-71436160D01*
X205717633Y-71282367D01*
X205679094Y-71250739D01*
X204736761Y-70308406D01*
X204705133Y-70269867D01*
X204551340Y-70143653D01*
X204375880Y-70049868D01*
X204372636Y-70048884D01*
X204363405Y-70031614D01*
X204252962Y-69897038D01*
X204118386Y-69786595D01*
X203964850Y-69704528D01*
X203798254Y-69653992D01*
X203625000Y-69636928D01*
X202375000Y-69636928D01*
X202201746Y-69653992D01*
X202035150Y-69704528D01*
X201881614Y-69786595D01*
X201747038Y-69897038D01*
X201636595Y-70031614D01*
X201554528Y-70185150D01*
X201503992Y-70351746D01*
X201486928Y-70525000D01*
X201486928Y-71450000D01*
X201503992Y-71623254D01*
X201554528Y-71789850D01*
X201636595Y-71943386D01*
X201747038Y-72077962D01*
X201881614Y-72188405D01*
X202035150Y-72270472D01*
X202201746Y-72321008D01*
X202375000Y-72338072D01*
X203625000Y-72338072D01*
X203798254Y-72321008D01*
X203870682Y-72299037D01*
X203990001Y-72418356D01*
X203990000Y-74737309D01*
X203962678Y-74740000D01*
X198037325Y-74740000D01*
X198000000Y-74736324D01*
X197962675Y-74740000D01*
X197962667Y-74740000D01*
X197851014Y-74750997D01*
X197707753Y-74794454D01*
X197575724Y-74865026D01*
X197459999Y-74959999D01*
X197436196Y-74989003D01*
X197314002Y-75111197D01*
X197284998Y-75135000D01*
X197260365Y-75165016D01*
X197190025Y-75250725D01*
X197123985Y-75374276D01*
X197119453Y-75382755D01*
X197075996Y-75526016D01*
X197064999Y-75637669D01*
X197064999Y-75637679D01*
X197061323Y-75675001D01*
X197064999Y-75712323D01*
X197064999Y-75715883D01*
X196968386Y-75636595D01*
X196814850Y-75554528D01*
X196648254Y-75503992D01*
X196475000Y-75486928D01*
X195550000Y-75486928D01*
X195376746Y-75503992D01*
X195210150Y-75554528D01*
X195056614Y-75636595D01*
X194922038Y-75747038D01*
X194811595Y-75881614D01*
X194729528Y-76035150D01*
X194678992Y-76201746D01*
X194661928Y-76375000D01*
X194661928Y-77625000D01*
X194678992Y-77798254D01*
X194729528Y-77964850D01*
X194811595Y-78118386D01*
X194919607Y-78250000D01*
X194811595Y-78381614D01*
X194729528Y-78535150D01*
X194678992Y-78701746D01*
X194675224Y-78740000D01*
X192537322Y-78740000D01*
X192499999Y-78736324D01*
X192462676Y-78740000D01*
X192462667Y-78740000D01*
X192351014Y-78750997D01*
X192207753Y-78794454D01*
X192075724Y-78865026D01*
X191959999Y-78959999D01*
X191936201Y-78988997D01*
X190660000Y-80265199D01*
X190660000Y-71814344D01*
X195915000Y-71814344D01*
X195915000Y-72185656D01*
X195987439Y-72549834D01*
X196129534Y-72892882D01*
X196335825Y-73201618D01*
X196598382Y-73464175D01*
X196907118Y-73670466D01*
X197250166Y-73812561D01*
X197614344Y-73885000D01*
X197985656Y-73885000D01*
X198349834Y-73812561D01*
X198692882Y-73670466D01*
X199001618Y-73464175D01*
X199264175Y-73201618D01*
X199470466Y-72892882D01*
X199612561Y-72549834D01*
X199685000Y-72185656D01*
X199685000Y-71814344D01*
X199612561Y-71450166D01*
X199470466Y-71107118D01*
X199264175Y-70798382D01*
X199001618Y-70535825D01*
X198692882Y-70329534D01*
X198349834Y-70187439D01*
X197985656Y-70115000D01*
X197614344Y-70115000D01*
X197250166Y-70187439D01*
X196907118Y-70329534D01*
X196598382Y-70535825D01*
X196335825Y-70798382D01*
X196129534Y-71107118D01*
X195987439Y-71450166D01*
X195915000Y-71814344D01*
X190660000Y-71814344D01*
X190660000Y-64500000D01*
X198359509Y-64500000D01*
X198365000Y-64555751D01*
X198365000Y-66055751D01*
X198381423Y-66222498D01*
X198446324Y-66436446D01*
X198463816Y-66469172D01*
X198474188Y-66574482D01*
X198510498Y-66694180D01*
X198569463Y-66804494D01*
X198648815Y-66901185D01*
X198745506Y-66980537D01*
X198855820Y-67039502D01*
X198975518Y-67075812D01*
X199100000Y-67088072D01*
X199176940Y-67088072D01*
X199277501Y-67118577D01*
X199500000Y-67140491D01*
X199570294Y-67133568D01*
X199519463Y-67195506D01*
X199460498Y-67305820D01*
X199424188Y-67425518D01*
X199413816Y-67530827D01*
X199396324Y-67563553D01*
X199331423Y-67777501D01*
X199309509Y-68000000D01*
X199331423Y-68222499D01*
X199396324Y-68436447D01*
X199413816Y-68469173D01*
X199424188Y-68574482D01*
X199460498Y-68694180D01*
X199519463Y-68804494D01*
X199598815Y-68901185D01*
X199695506Y-68980537D01*
X199805820Y-69039502D01*
X199925518Y-69075812D01*
X200050000Y-69088072D01*
X200126940Y-69088072D01*
X200227501Y-69118577D01*
X200394248Y-69135000D01*
X201786077Y-69135000D01*
X201881614Y-69213405D01*
X202035150Y-69295472D01*
X202201746Y-69346008D01*
X202375000Y-69363072D01*
X203625000Y-69363072D01*
X203798254Y-69346008D01*
X203964850Y-69295472D01*
X204118386Y-69213405D01*
X204252962Y-69102962D01*
X204363405Y-68968386D01*
X204445472Y-68814850D01*
X204496008Y-68648254D01*
X204513072Y-68475000D01*
X204513072Y-67550000D01*
X204496008Y-67376746D01*
X204445472Y-67210150D01*
X204363405Y-67056614D01*
X204252962Y-66922038D01*
X204118386Y-66811595D01*
X203964850Y-66729528D01*
X203798254Y-66678992D01*
X203625000Y-66661928D01*
X202375000Y-66661928D01*
X202201746Y-66678992D01*
X202035150Y-66729528D01*
X201881614Y-66811595D01*
X201816539Y-66865000D01*
X200394248Y-66865000D01*
X200379706Y-66866432D01*
X200430537Y-66804494D01*
X200489502Y-66694180D01*
X200525812Y-66574482D01*
X200536184Y-66469173D01*
X200553676Y-66436447D01*
X200618577Y-66222499D01*
X200635000Y-66055752D01*
X200635000Y-65135000D01*
X201657713Y-65135000D01*
X201660498Y-65144180D01*
X201719463Y-65254494D01*
X201798815Y-65351185D01*
X201895506Y-65430537D01*
X202005820Y-65489502D01*
X202125518Y-65525812D01*
X202250000Y-65538072D01*
X204750000Y-65538072D01*
X204874482Y-65525812D01*
X204994180Y-65489502D01*
X205104494Y-65430537D01*
X205201185Y-65351185D01*
X205280537Y-65254494D01*
X205339502Y-65144180D01*
X205375812Y-65024482D01*
X205388072Y-64900000D01*
X205388072Y-63100000D01*
X205375812Y-62975518D01*
X205339502Y-62855820D01*
X205280537Y-62745506D01*
X205201185Y-62648815D01*
X205104494Y-62569463D01*
X204994180Y-62510498D01*
X204874482Y-62474188D01*
X204750000Y-62461928D01*
X204635000Y-62461928D01*
X204635000Y-61135000D01*
X208491312Y-61135000D01*
X208535825Y-61201618D01*
X208798382Y-61464175D01*
X209107118Y-61670466D01*
X209450166Y-61812561D01*
X209814344Y-61885000D01*
X210185656Y-61885000D01*
X210549834Y-61812561D01*
X210892882Y-61670466D01*
X211201618Y-61464175D01*
X211464175Y-61201618D01*
X211670466Y-60892882D01*
X211812561Y-60549834D01*
X211885000Y-60185656D01*
X211885000Y-59814344D01*
X211812561Y-59450166D01*
X211670466Y-59107118D01*
X211464175Y-58798382D01*
X211201618Y-58535825D01*
X210892882Y-58329534D01*
X210549834Y-58187439D01*
X210185656Y-58115000D01*
X209814344Y-58115000D01*
X209450166Y-58187439D01*
X209107118Y-58329534D01*
X208798382Y-58535825D01*
X208535825Y-58798382D01*
X208491312Y-58865000D01*
X204055752Y-58865000D01*
X204000000Y-58859509D01*
X203944248Y-58865000D01*
X203777501Y-58881423D01*
X203563553Y-58946324D01*
X203366377Y-59051716D01*
X203193551Y-59193551D01*
X203158004Y-59236865D01*
X202736865Y-59658004D01*
X202693551Y-59693551D01*
X202551716Y-59866377D01*
X202480294Y-60000000D01*
X202446324Y-60063554D01*
X202381423Y-60277502D01*
X202359509Y-60500000D01*
X202365000Y-60555752D01*
X202365001Y-62461928D01*
X202250000Y-62461928D01*
X202125518Y-62474188D01*
X202005820Y-62510498D01*
X201895506Y-62569463D01*
X201798815Y-62648815D01*
X201719463Y-62745506D01*
X201660498Y-62855820D01*
X201657713Y-62865000D01*
X200055752Y-62865000D01*
X200000000Y-62859509D01*
X199944248Y-62865000D01*
X199777501Y-62881423D01*
X199563553Y-62946324D01*
X199366377Y-63051716D01*
X199193551Y-63193551D01*
X199158004Y-63236865D01*
X198736860Y-63658009D01*
X198693552Y-63693551D01*
X198551717Y-63866377D01*
X198495384Y-63971770D01*
X198446324Y-64063554D01*
X198381423Y-64277502D01*
X198359509Y-64500000D01*
X190660000Y-64500000D01*
X190660000Y-59814344D01*
X195915000Y-59814344D01*
X195915000Y-60185656D01*
X195987439Y-60549834D01*
X196129534Y-60892882D01*
X196335825Y-61201618D01*
X196598382Y-61464175D01*
X196907118Y-61670466D01*
X197250166Y-61812561D01*
X197614344Y-61885000D01*
X197985656Y-61885000D01*
X198349834Y-61812561D01*
X198692882Y-61670466D01*
X199001618Y-61464175D01*
X199264175Y-61201618D01*
X199470466Y-60892882D01*
X199612561Y-60549834D01*
X199685000Y-60185656D01*
X199685000Y-59814344D01*
X199612561Y-59450166D01*
X199470466Y-59107118D01*
X199264175Y-58798382D01*
X199001618Y-58535825D01*
X198692882Y-58329534D01*
X198349834Y-58187439D01*
X197985656Y-58115000D01*
X197614344Y-58115000D01*
X197250166Y-58187439D01*
X196907118Y-58329534D01*
X196598382Y-58535825D01*
X196335825Y-58798382D01*
X196129534Y-59107118D01*
X195987439Y-59450166D01*
X195915000Y-59814344D01*
X190660000Y-59814344D01*
X190660000Y-57119678D01*
X236365000Y-57119678D01*
X236365000Y-58880321D01*
X236388657Y-59120515D01*
X236482148Y-59428714D01*
X236633969Y-59712751D01*
X236838286Y-59961714D01*
X237087248Y-60166031D01*
X237371285Y-60317852D01*
X237679484Y-60411343D01*
X238000000Y-60442911D01*
X238320515Y-60411343D01*
X238628714Y-60317852D01*
X238912751Y-60166031D01*
X239161714Y-59961714D01*
X239366031Y-59712752D01*
X239517852Y-59428715D01*
X239611343Y-59120516D01*
X239635000Y-58880322D01*
X239635000Y-57119678D01*
X239611343Y-56879484D01*
X239517852Y-56571285D01*
X239453024Y-56450000D01*
X241361928Y-56450000D01*
X241361928Y-59550000D01*
X241378992Y-59723254D01*
X241429528Y-59889850D01*
X241511595Y-60043386D01*
X241622038Y-60177962D01*
X241756614Y-60288405D01*
X241910150Y-60370472D01*
X242076746Y-60421008D01*
X242250000Y-60438072D01*
X243750000Y-60438072D01*
X243923254Y-60421008D01*
X244089850Y-60370472D01*
X244243386Y-60288405D01*
X244377962Y-60177962D01*
X244488405Y-60043386D01*
X244570472Y-59889850D01*
X244621008Y-59723254D01*
X244638072Y-59550000D01*
X244638072Y-56450000D01*
X244621008Y-56276746D01*
X244570472Y-56110150D01*
X244488405Y-55956614D01*
X244377962Y-55822038D01*
X244243386Y-55711595D01*
X244089850Y-55629528D01*
X243923254Y-55578992D01*
X243750000Y-55561928D01*
X242250000Y-55561928D01*
X242076746Y-55578992D01*
X241910150Y-55629528D01*
X241756614Y-55711595D01*
X241622038Y-55822038D01*
X241511595Y-55956614D01*
X241429528Y-56110150D01*
X241378992Y-56276746D01*
X241361928Y-56450000D01*
X239453024Y-56450000D01*
X239366031Y-56287248D01*
X239161714Y-56038286D01*
X238912752Y-55833969D01*
X238628715Y-55682148D01*
X238320516Y-55588657D01*
X238000000Y-55557089D01*
X237679485Y-55588657D01*
X237371286Y-55682148D01*
X237087249Y-55833969D01*
X236838287Y-56038286D01*
X236633970Y-56287248D01*
X236482149Y-56571285D01*
X236388658Y-56879484D01*
X236365000Y-57119678D01*
X190660000Y-57119678D01*
X190660000Y-51700000D01*
X197061928Y-51700000D01*
X197061928Y-54300000D01*
X197074188Y-54424482D01*
X197110498Y-54544180D01*
X197169463Y-54654494D01*
X197248815Y-54751185D01*
X197345506Y-54830537D01*
X197455820Y-54889502D01*
X197575518Y-54925812D01*
X197700000Y-54938072D01*
X200300000Y-54938072D01*
X200424482Y-54925812D01*
X200544180Y-54889502D01*
X200654494Y-54830537D01*
X200751185Y-54751185D01*
X200830537Y-54654494D01*
X200889502Y-54544180D01*
X200925812Y-54424482D01*
X200938072Y-54300000D01*
X200938072Y-52289721D01*
X203865000Y-52289721D01*
X203865000Y-52710279D01*
X203947047Y-53122756D01*
X204107988Y-53511302D01*
X204341637Y-53860983D01*
X204639017Y-54158363D01*
X204988698Y-54392012D01*
X205377244Y-54552953D01*
X205789721Y-54635000D01*
X206210279Y-54635000D01*
X206622756Y-54552953D01*
X207011302Y-54392012D01*
X207360983Y-54158363D01*
X207658363Y-53860983D01*
X207892012Y-53511302D01*
X208052953Y-53122756D01*
X208135000Y-52710279D01*
X208135000Y-52289721D01*
X223865000Y-52289721D01*
X223865000Y-52710279D01*
X223947047Y-53122756D01*
X224107988Y-53511302D01*
X224341637Y-53860983D01*
X224639017Y-54158363D01*
X224988698Y-54392012D01*
X225377244Y-54552953D01*
X225789721Y-54635000D01*
X226210279Y-54635000D01*
X226622756Y-54552953D01*
X227011302Y-54392012D01*
X227360983Y-54158363D01*
X227658363Y-53860983D01*
X227892012Y-53511302D01*
X228052953Y-53122756D01*
X228135000Y-52710279D01*
X228135000Y-52289721D01*
X228052953Y-51877244D01*
X227892012Y-51488698D01*
X227658363Y-51139017D01*
X227360983Y-50841637D01*
X227011302Y-50607988D01*
X226622756Y-50447047D01*
X226210279Y-50365000D01*
X225789721Y-50365000D01*
X225377244Y-50447047D01*
X224988698Y-50607988D01*
X224639017Y-50841637D01*
X224341637Y-51139017D01*
X224107988Y-51488698D01*
X223947047Y-51877244D01*
X223865000Y-52289721D01*
X208135000Y-52289721D01*
X208052953Y-51877244D01*
X207892012Y-51488698D01*
X207658363Y-51139017D01*
X207360983Y-50841637D01*
X207011302Y-50607988D01*
X206622756Y-50447047D01*
X206210279Y-50365000D01*
X205789721Y-50365000D01*
X205377244Y-50447047D01*
X204988698Y-50607988D01*
X204639017Y-50841637D01*
X204341637Y-51139017D01*
X204107988Y-51488698D01*
X203947047Y-51877244D01*
X203865000Y-52289721D01*
X200938072Y-52289721D01*
X200938072Y-51700000D01*
X200925812Y-51575518D01*
X200889502Y-51455820D01*
X200830537Y-51345506D01*
X200751185Y-51248815D01*
X200654494Y-51169463D01*
X200544180Y-51110498D01*
X200424482Y-51074188D01*
X200300000Y-51061928D01*
X197700000Y-51061928D01*
X197575518Y-51074188D01*
X197455820Y-51110498D01*
X197345506Y-51169463D01*
X197248815Y-51248815D01*
X197169463Y-51345506D01*
X197110498Y-51455820D01*
X197074188Y-51575518D01*
X197061928Y-51700000D01*
X190660000Y-51700000D01*
X190660000Y-47660000D01*
X247340000Y-47660000D01*
X247340001Y-104340000D01*
G37*
X247340001Y-104340000D02*
X190660000Y-104340000D01*
X190660000Y-95233803D01*
X193455410Y-98029214D01*
X193430498Y-98075820D01*
X193394188Y-98195518D01*
X193381928Y-98320000D01*
X193381928Y-100020000D01*
X193394188Y-100144482D01*
X193430498Y-100264180D01*
X193489463Y-100374494D01*
X193568815Y-100471185D01*
X193665506Y-100550537D01*
X193775820Y-100609502D01*
X193895518Y-100645812D01*
X194020000Y-100658072D01*
X195720000Y-100658072D01*
X195844482Y-100645812D01*
X195964180Y-100609502D01*
X196074494Y-100550537D01*
X196171185Y-100471185D01*
X196250537Y-100374494D01*
X196309502Y-100264180D01*
X196331513Y-100191620D01*
X196463368Y-100323475D01*
X196706589Y-100485990D01*
X196976842Y-100597932D01*
X197263740Y-100655000D01*
X197556260Y-100655000D01*
X197843158Y-100597932D01*
X198113411Y-100485990D01*
X198356632Y-100323475D01*
X198563475Y-100116632D01*
X198680000Y-99942240D01*
X198796525Y-100116632D01*
X199003368Y-100323475D01*
X199246589Y-100485990D01*
X199516842Y-100597932D01*
X199803740Y-100655000D01*
X200096260Y-100655000D01*
X200383158Y-100597932D01*
X200653411Y-100485990D01*
X200896632Y-100323475D01*
X201103475Y-100116632D01*
X201220000Y-99942240D01*
X201336525Y-100116632D01*
X201543368Y-100323475D01*
X201786589Y-100485990D01*
X202056842Y-100597932D01*
X202343740Y-100655000D01*
X202636260Y-100655000D01*
X202923158Y-100597932D01*
X203193411Y-100485990D01*
X203436632Y-100323475D01*
X203643475Y-100116632D01*
X203805990Y-99873411D01*
X203917932Y-99603158D01*
X203975000Y-99316260D01*
X203975000Y-99023740D01*
X203917932Y-98736842D01*
X203805990Y-98466589D01*
X203643475Y-98223368D01*
X203436632Y-98016525D01*
X203262240Y-97900000D01*
X203436632Y-97783475D01*
X203643475Y-97576632D01*
X203760000Y-97402240D01*
X203876525Y-97576632D01*
X204083368Y-97783475D01*
X204326589Y-97945990D01*
X204596842Y-98057932D01*
X204883740Y-98115000D01*
X205176260Y-98115000D01*
X205463158Y-98057932D01*
X205733411Y-97945990D01*
X205976632Y-97783475D01*
X206183475Y-97576632D01*
X206300000Y-97402240D01*
X206416525Y-97576632D01*
X206623368Y-97783475D01*
X206797760Y-97900000D01*
X206623368Y-98016525D01*
X206416525Y-98223368D01*
X206254010Y-98466589D01*
X206142068Y-98736842D01*
X206085000Y-99023740D01*
X206085000Y-99316260D01*
X206142068Y-99603158D01*
X206254010Y-99873411D01*
X206416525Y-100116632D01*
X206623368Y-100323475D01*
X206866589Y-100485990D01*
X207136842Y-100597932D01*
X207423740Y-100655000D01*
X207716260Y-100655000D01*
X208003158Y-100597932D01*
X208273411Y-100485990D01*
X208516632Y-100323475D01*
X208723475Y-100116632D01*
X208840000Y-99942240D01*
X208956525Y-100116632D01*
X209163368Y-100323475D01*
X209406589Y-100485990D01*
X209676842Y-100597932D01*
X209963740Y-100655000D01*
X210256260Y-100655000D01*
X210543158Y-100597932D01*
X210813411Y-100485990D01*
X211056632Y-100323475D01*
X211263475Y-100116632D01*
X211380000Y-99942240D01*
X211496525Y-100116632D01*
X211703368Y-100323475D01*
X211946589Y-100485990D01*
X212216842Y-100597932D01*
X212503740Y-100655000D01*
X212796260Y-100655000D01*
X213083158Y-100597932D01*
X213353411Y-100485990D01*
X213596632Y-100323475D01*
X213803475Y-100116632D01*
X213920000Y-99942240D01*
X214036525Y-100116632D01*
X214243368Y-100323475D01*
X214486589Y-100485990D01*
X214756842Y-100597932D01*
X215043740Y-100655000D01*
X215336260Y-100655000D01*
X215623158Y-100597932D01*
X215893411Y-100485990D01*
X216136632Y-100323475D01*
X216343475Y-100116632D01*
X216460000Y-99942240D01*
X216576525Y-100116632D01*
X216783368Y-100323475D01*
X217026589Y-100485990D01*
X217296842Y-100597932D01*
X217583740Y-100655000D01*
X217876260Y-100655000D01*
X218163158Y-100597932D01*
X218433411Y-100485990D01*
X218676632Y-100323475D01*
X218883475Y-100116632D01*
X219000000Y-99942240D01*
X219116525Y-100116632D01*
X219323368Y-100323475D01*
X219566589Y-100485990D01*
X219836842Y-100597932D01*
X220123740Y-100655000D01*
X220416260Y-100655000D01*
X220703158Y-100597932D01*
X220973411Y-100485990D01*
X221216632Y-100323475D01*
X221423475Y-100116632D01*
X221540000Y-99942240D01*
X221656525Y-100116632D01*
X221863368Y-100323475D01*
X222106589Y-100485990D01*
X222376842Y-100597932D01*
X222663740Y-100655000D01*
X222956260Y-100655000D01*
X223243158Y-100597932D01*
X223513411Y-100485990D01*
X223756632Y-100323475D01*
X223963475Y-100116632D01*
X224125990Y-99873411D01*
X224237932Y-99603158D01*
X224295000Y-99316260D01*
X224295000Y-99023740D01*
X224237932Y-98736842D01*
X224125990Y-98466589D01*
X223963475Y-98223368D01*
X223756632Y-98016525D01*
X223582240Y-97900000D01*
X223756632Y-97783475D01*
X223963475Y-97576632D01*
X224080000Y-97402240D01*
X224196525Y-97576632D01*
X224403368Y-97783475D01*
X224646589Y-97945990D01*
X224916842Y-98057932D01*
X225203740Y-98115000D01*
X225496260Y-98115000D01*
X225783158Y-98057932D01*
X226053411Y-97945990D01*
X226296632Y-97783475D01*
X226503475Y-97576632D01*
X226620000Y-97402240D01*
X226736525Y-97576632D01*
X226943368Y-97783475D01*
X227117760Y-97900000D01*
X226943368Y-98016525D01*
X226736525Y-98223368D01*
X226574010Y-98466589D01*
X226462068Y-98736842D01*
X226405000Y-99023740D01*
X226405000Y-99316260D01*
X226462068Y-99603158D01*
X226574010Y-99873411D01*
X226736525Y-100116632D01*
X226943368Y-100323475D01*
X227186589Y-100485990D01*
X227456842Y-100597932D01*
X227743740Y-100655000D01*
X228036260Y-100655000D01*
X228323158Y-100597932D01*
X228593411Y-100485990D01*
X228836632Y-100323475D01*
X229043475Y-100116632D01*
X229160000Y-99942240D01*
X229276525Y-100116632D01*
X229483368Y-100323475D01*
X229726589Y-100485990D01*
X229996842Y-100597932D01*
X230283740Y-100655000D01*
X230576260Y-100655000D01*
X230863158Y-100597932D01*
X231133411Y-100485990D01*
X231376632Y-100323475D01*
X231583475Y-100116632D01*
X231700000Y-99942240D01*
X231816525Y-100116632D01*
X232023368Y-100323475D01*
X232266589Y-100485990D01*
X232536842Y-100597932D01*
X232823740Y-100655000D01*
X233116260Y-100655000D01*
X233403158Y-100597932D01*
X233673411Y-100485990D01*
X233916632Y-100323475D01*
X234123475Y-100116632D01*
X234240000Y-99942240D01*
X234356525Y-100116632D01*
X234563368Y-100323475D01*
X234806589Y-100485990D01*
X235076842Y-100597932D01*
X235363740Y-100655000D01*
X235656260Y-100655000D01*
X235943158Y-100597932D01*
X236213411Y-100485990D01*
X236456632Y-100323475D01*
X236663475Y-100116632D01*
X236780000Y-99942240D01*
X236896525Y-100116632D01*
X237103368Y-100323475D01*
X237346589Y-100485990D01*
X237616842Y-100597932D01*
X237903740Y-100655000D01*
X238196260Y-100655000D01*
X238483158Y-100597932D01*
X238753411Y-100485990D01*
X238996632Y-100323475D01*
X239203475Y-100116632D01*
X239320000Y-99942240D01*
X239436525Y-100116632D01*
X239643368Y-100323475D01*
X239886589Y-100485990D01*
X240156842Y-100597932D01*
X240443740Y-100655000D01*
X240736260Y-100655000D01*
X241023158Y-100597932D01*
X241293411Y-100485990D01*
X241536632Y-100323475D01*
X241743475Y-100116632D01*
X241905990Y-99873411D01*
X242017932Y-99603158D01*
X242075000Y-99316260D01*
X242075000Y-99023740D01*
X242017932Y-98736842D01*
X241905990Y-98466589D01*
X241743475Y-98223368D01*
X241536632Y-98016525D01*
X241362240Y-97900000D01*
X241536632Y-97783475D01*
X241743475Y-97576632D01*
X241860000Y-97402240D01*
X241976525Y-97576632D01*
X242183368Y-97783475D01*
X242426589Y-97945990D01*
X242696842Y-98057932D01*
X242983740Y-98115000D01*
X243276260Y-98115000D01*
X243563158Y-98057932D01*
X243833411Y-97945990D01*
X244076632Y-97783475D01*
X244283475Y-97576632D01*
X244445990Y-97333411D01*
X244557932Y-97063158D01*
X244615000Y-96776260D01*
X244615000Y-96483740D01*
X244557932Y-96196842D01*
X244445990Y-95926589D01*
X244283475Y-95683368D01*
X244076632Y-95476525D01*
X243833411Y-95314010D01*
X243563158Y-95202068D01*
X243276260Y-95145000D01*
X242983740Y-95145000D01*
X242696842Y-95202068D01*
X242426589Y-95314010D01*
X242183368Y-95476525D01*
X241976525Y-95683368D01*
X241860000Y-95857760D01*
X241743475Y-95683368D01*
X241536632Y-95476525D01*
X241293411Y-95314010D01*
X241023158Y-95202068D01*
X240736260Y-95145000D01*
X240443740Y-95145000D01*
X240156842Y-95202068D01*
X239886589Y-95314010D01*
X239643368Y-95476525D01*
X239436525Y-95683368D01*
X239320000Y-95857760D01*
X239203475Y-95683368D01*
X238996632Y-95476525D01*
X238753411Y-95314010D01*
X238483158Y-95202068D01*
X238196260Y-95145000D01*
X237903740Y-95145000D01*
X237616842Y-95202068D01*
X237346589Y-95314010D01*
X237103368Y-95476525D01*
X236896525Y-95683368D01*
X236734010Y-95926589D01*
X236622068Y-96196842D01*
X236565000Y-96483740D01*
X236565000Y-96776260D01*
X236622068Y-97063158D01*
X236734010Y-97333411D01*
X236896525Y-97576632D01*
X237103368Y-97783475D01*
X237277760Y-97900000D01*
X237103368Y-98016525D01*
X236896525Y-98223368D01*
X236780000Y-98397760D01*
X236663475Y-98223368D01*
X236456632Y-98016525D01*
X236213411Y-97854010D01*
X235943158Y-97742068D01*
X235656260Y-97685000D01*
X235363740Y-97685000D01*
X235076842Y-97742068D01*
X234806589Y-97854010D01*
X234563368Y-98016525D01*
X234356525Y-98223368D01*
X234240000Y-98397760D01*
X234123475Y-98223368D01*
X233916632Y-98016525D01*
X233742240Y-97900000D01*
X233916632Y-97783475D01*
X234123475Y-97576632D01*
X234285990Y-97333411D01*
X234397932Y-97063158D01*
X234455000Y-96776260D01*
X234455000Y-96483740D01*
X234397932Y-96196842D01*
X234285990Y-95926589D01*
X234123475Y-95683368D01*
X233916632Y-95476525D01*
X233673411Y-95314010D01*
X233403158Y-95202068D01*
X233116260Y-95145000D01*
X232823740Y-95145000D01*
X232536842Y-95202068D01*
X232266589Y-95314010D01*
X232023368Y-95476525D01*
X231816525Y-95683368D01*
X231654010Y-95926589D01*
X231542068Y-96196842D01*
X231485000Y-96483740D01*
X231485000Y-96776260D01*
X231542068Y-97063158D01*
X231654010Y-97333411D01*
X231816525Y-97576632D01*
X232023368Y-97783475D01*
X232197760Y-97900000D01*
X232023368Y-98016525D01*
X231816525Y-98223368D01*
X231700000Y-98397760D01*
X231583475Y-98223368D01*
X231376632Y-98016525D01*
X231133411Y-97854010D01*
X230863158Y-97742068D01*
X230576260Y-97685000D01*
X230283740Y-97685000D01*
X229996842Y-97742068D01*
X229726589Y-97854010D01*
X229483368Y-98016525D01*
X229276525Y-98223368D01*
X229160000Y-98397760D01*
X229043475Y-98223368D01*
X228836632Y-98016525D01*
X228662240Y-97900000D01*
X228836632Y-97783475D01*
X229043475Y-97576632D01*
X229205990Y-97333411D01*
X229317932Y-97063158D01*
X229375000Y-96776260D01*
X229375000Y-96483740D01*
X229317932Y-96196842D01*
X229205990Y-95926589D01*
X229043475Y-95683368D01*
X228836632Y-95476525D01*
X228593411Y-95314010D01*
X228323158Y-95202068D01*
X228036260Y-95145000D01*
X227743740Y-95145000D01*
X227456842Y-95202068D01*
X227186589Y-95314010D01*
X226943368Y-95476525D01*
X226736525Y-95683368D01*
X226620000Y-95857760D01*
X226503475Y-95683368D01*
X226296632Y-95476525D01*
X226053411Y-95314010D01*
X225783158Y-95202068D01*
X225496260Y-95145000D01*
X225203740Y-95145000D01*
X224916842Y-95202068D01*
X224646589Y-95314010D01*
X224403368Y-95476525D01*
X224196525Y-95683368D01*
X224080000Y-95857760D01*
X223963475Y-95683368D01*
X223756632Y-95476525D01*
X223513411Y-95314010D01*
X223243158Y-95202068D01*
X222956260Y-95145000D01*
X222663740Y-95145000D01*
X222376842Y-95202068D01*
X222106589Y-95314010D01*
X221863368Y-95476525D01*
X221656525Y-95683368D01*
X221540000Y-95857760D01*
X221423475Y-95683368D01*
X221216632Y-95476525D01*
X220973411Y-95314010D01*
X220703158Y-95202068D01*
X220416260Y-95145000D01*
X220123740Y-95145000D01*
X219836842Y-95202068D01*
X219566589Y-95314010D01*
X219323368Y-95476525D01*
X219116525Y-95683368D01*
X218954010Y-95926589D01*
X218842068Y-96196842D01*
X218785000Y-96483740D01*
X218785000Y-96776260D01*
X218842068Y-97063158D01*
X218954010Y-97333411D01*
X219116525Y-97576632D01*
X219323368Y-97783475D01*
X219497760Y-97900000D01*
X219323368Y-98016525D01*
X219116525Y-98223368D01*
X219000000Y-98397760D01*
X218883475Y-98223368D01*
X218676632Y-98016525D01*
X218433411Y-97854010D01*
X218163158Y-97742068D01*
X217876260Y-97685000D01*
X217583740Y-97685000D01*
X217296842Y-97742068D01*
X217026589Y-97854010D01*
X216783368Y-98016525D01*
X216576525Y-98223368D01*
X216460000Y-98397760D01*
X216343475Y-98223368D01*
X216136632Y-98016525D01*
X215962240Y-97900000D01*
X216136632Y-97783475D01*
X216343475Y-97576632D01*
X216505990Y-97333411D01*
X216617932Y-97063158D01*
X216675000Y-96776260D01*
X216675000Y-96483740D01*
X216617932Y-96196842D01*
X216505990Y-95926589D01*
X216343475Y-95683368D01*
X216136632Y-95476525D01*
X215893411Y-95314010D01*
X215623158Y-95202068D01*
X215336260Y-95145000D01*
X215043740Y-95145000D01*
X214756842Y-95202068D01*
X214486589Y-95314010D01*
X214243368Y-95476525D01*
X214036525Y-95683368D01*
X213920000Y-95857760D01*
X213803475Y-95683368D01*
X213596632Y-95476525D01*
X213353411Y-95314010D01*
X213083158Y-95202068D01*
X212796260Y-95145000D01*
X212503740Y-95145000D01*
X212216842Y-95202068D01*
X211946589Y-95314010D01*
X211703368Y-95476525D01*
X211496525Y-95683368D01*
X211334010Y-95926589D01*
X211222068Y-96196842D01*
X211165000Y-96483740D01*
X211165000Y-96776260D01*
X211222068Y-97063158D01*
X211334010Y-97333411D01*
X211496525Y-97576632D01*
X211703368Y-97783475D01*
X211877760Y-97900000D01*
X211703368Y-98016525D01*
X211496525Y-98223368D01*
X211380000Y-98397760D01*
X211263475Y-98223368D01*
X211056632Y-98016525D01*
X210813411Y-97854010D01*
X210543158Y-97742068D01*
X210256260Y-97685000D01*
X209963740Y-97685000D01*
X209676842Y-97742068D01*
X209406589Y-97854010D01*
X209163368Y-98016525D01*
X208956525Y-98223368D01*
X208840000Y-98397760D01*
X208723475Y-98223368D01*
X208516632Y-98016525D01*
X208342240Y-97900000D01*
X208516632Y-97783475D01*
X208723475Y-97576632D01*
X208885990Y-97333411D01*
X208997932Y-97063158D01*
X209055000Y-96776260D01*
X209055000Y-96483740D01*
X208997932Y-96196842D01*
X208885990Y-95926589D01*
X208723475Y-95683368D01*
X208516632Y-95476525D01*
X208273411Y-95314010D01*
X208003158Y-95202068D01*
X207716260Y-95145000D01*
X207423740Y-95145000D01*
X207136842Y-95202068D01*
X206866589Y-95314010D01*
X206623368Y-95476525D01*
X206416525Y-95683368D01*
X206300000Y-95857760D01*
X206183475Y-95683368D01*
X205976632Y-95476525D01*
X205765101Y-95335185D01*
X205735546Y-95237753D01*
X205664974Y-95105724D01*
X205570001Y-94989999D01*
X205541002Y-94966200D01*
X205373104Y-94798303D01*
X205464850Y-94770472D01*
X205618386Y-94688405D01*
X205750000Y-94580393D01*
X205881614Y-94688405D01*
X206035150Y-94770472D01*
X206201746Y-94821008D01*
X206375000Y-94838072D01*
X207625000Y-94838072D01*
X207798254Y-94821008D01*
X207964850Y-94770472D01*
X208118386Y-94688405D01*
X208252962Y-94577962D01*
X208363405Y-94443386D01*
X208445472Y-94289850D01*
X208496008Y-94123254D01*
X208513072Y-93950000D01*
X208513072Y-93025000D01*
X208496008Y-92851746D01*
X208445472Y-92685150D01*
X208363405Y-92531614D01*
X208252962Y-92397038D01*
X208118386Y-92286595D01*
X207964850Y-92204528D01*
X207798254Y-92153992D01*
X207625000Y-92136928D01*
X206375000Y-92136928D01*
X206201746Y-92153992D01*
X206035150Y-92204528D01*
X205881614Y-92286595D01*
X205750000Y-92394607D01*
X205618386Y-92286595D01*
X205464850Y-92204528D01*
X205298254Y-92153992D01*
X205125000Y-92136928D01*
X203875000Y-92136928D01*
X203701746Y-92153992D01*
X203535150Y-92204528D01*
X203381614Y-92286595D01*
X203247038Y-92397038D01*
X203136595Y-92531614D01*
X203054528Y-92685150D01*
X203003992Y-92851746D01*
X202986928Y-93025000D01*
X202986928Y-93950000D01*
X203003992Y-94123254D01*
X203054528Y-94289850D01*
X203136595Y-94443386D01*
X203247038Y-94577962D01*
X203381614Y-94688405D01*
X203535150Y-94770472D01*
X203701746Y-94821008D01*
X203740000Y-94824776D01*
X203740000Y-94962677D01*
X203736324Y-95000000D01*
X203740000Y-95037322D01*
X203740000Y-95037332D01*
X203750997Y-95148985D01*
X203767852Y-95204548D01*
X203794454Y-95292246D01*
X203865026Y-95424276D01*
X203904871Y-95472826D01*
X203959999Y-95540001D01*
X203989002Y-95563803D01*
X203992546Y-95567347D01*
X203876525Y-95683368D01*
X203760000Y-95857760D01*
X203643475Y-95683368D01*
X203436632Y-95476525D01*
X203193411Y-95314010D01*
X202923158Y-95202068D01*
X202636260Y-95145000D01*
X202343740Y-95145000D01*
X202056842Y-95202068D01*
X201786589Y-95314010D01*
X201543368Y-95476525D01*
X201336525Y-95683368D01*
X201174010Y-95926589D01*
X201062068Y-96196842D01*
X201005000Y-96483740D01*
X201005000Y-96776260D01*
X201048791Y-96996408D01*
X200810200Y-97234999D01*
X198766753Y-97234999D01*
X198837932Y-97063158D01*
X198895000Y-96776260D01*
X198895000Y-96483740D01*
X198837932Y-96196842D01*
X198725990Y-95926589D01*
X198563475Y-95683368D01*
X198356632Y-95476525D01*
X198113411Y-95314010D01*
X197843158Y-95202068D01*
X197556260Y-95145000D01*
X197263740Y-95145000D01*
X196976842Y-95202068D01*
X196706589Y-95314010D01*
X196463368Y-95476525D01*
X196256525Y-95683368D01*
X196140000Y-95857760D01*
X196023475Y-95683368D01*
X195816632Y-95476525D01*
X195573411Y-95314010D01*
X195303158Y-95202068D01*
X195016260Y-95145000D01*
X194723740Y-95145000D01*
X194436842Y-95202068D01*
X194166589Y-95314010D01*
X193923368Y-95476525D01*
X193716525Y-95683368D01*
X193554010Y-95926589D01*
X193538890Y-95963091D01*
X191760000Y-94184201D01*
X191760000Y-81314801D01*
X192814802Y-80260000D01*
X194675224Y-80260000D01*
X194678992Y-80298254D01*
X194729528Y-80464850D01*
X194811595Y-80618386D01*
X194922038Y-80752962D01*
X195056614Y-80863405D01*
X195210150Y-80945472D01*
X195376746Y-80996008D01*
X195550000Y-81013072D01*
X196475000Y-81013072D01*
X196648254Y-80996008D01*
X196814850Y-80945472D01*
X196968386Y-80863405D01*
X197065000Y-80784117D01*
X197065000Y-85643247D01*
X196893158Y-85572068D01*
X196606260Y-85515000D01*
X196313740Y-85515000D01*
X196026842Y-85572068D01*
X195756589Y-85684010D01*
X195513368Y-85846525D01*
X195306525Y-86053368D01*
X195190000Y-86227760D01*
X195073475Y-86053368D01*
X194866632Y-85846525D01*
X194623411Y-85684010D01*
X194353158Y-85572068D01*
X194066260Y-85515000D01*
X193773740Y-85515000D01*
X193486842Y-85572068D01*
X193216589Y-85684010D01*
X192973368Y-85846525D01*
X192766525Y-86053368D01*
X192604010Y-86296589D01*
X192492068Y-86566842D01*
X192435000Y-86853740D01*
X192435000Y-87146260D01*
X192492068Y-87433158D01*
X192604010Y-87703411D01*
X192766525Y-87946632D01*
X192973368Y-88153475D01*
X193216589Y-88315990D01*
X193486842Y-88427932D01*
X193773740Y-88485000D01*
X194066260Y-88485000D01*
X194353158Y-88427932D01*
X194623411Y-88315990D01*
X194866632Y-88153475D01*
X195073475Y-87946632D01*
X195190000Y-87772240D01*
X195306525Y-87946632D01*
X195513368Y-88153475D01*
X195687760Y-88270000D01*
X195513368Y-88386525D01*
X195306525Y-88593368D01*
X195144010Y-88836589D01*
X195032068Y-89106842D01*
X194975000Y-89393740D01*
X194975000Y-89686260D01*
X195032068Y-89973158D01*
X195144010Y-90243411D01*
X195306525Y-90486632D01*
X195513368Y-90693475D01*
X195756589Y-90855990D01*
X196026842Y-90967932D01*
X196313740Y-91025000D01*
X196606260Y-91025000D01*
X196893158Y-90967932D01*
X197163411Y-90855990D01*
X197406632Y-90693475D01*
X197613475Y-90486632D01*
X197730000Y-90312240D01*
X197846525Y-90486632D01*
X198053368Y-90693475D01*
X198296589Y-90855990D01*
X198566842Y-90967932D01*
X198853740Y-91025000D01*
X199146260Y-91025000D01*
X199433158Y-90967932D01*
X199703411Y-90855990D01*
X199946632Y-90693475D01*
X200090107Y-90550000D01*
X200477500Y-90550000D01*
X200477500Y-91681005D01*
X200397038Y-91747038D01*
X200286595Y-91881614D01*
X200204528Y-92035150D01*
X200153992Y-92201746D01*
X200136928Y-92375000D01*
X200136928Y-93625000D01*
X200153992Y-93798254D01*
X200204528Y-93964850D01*
X200286595Y-94118386D01*
X200397038Y-94252962D01*
X200531614Y-94363405D01*
X200685150Y-94445472D01*
X200851746Y-94496008D01*
X201025000Y-94513072D01*
X201950000Y-94513072D01*
X202123254Y-94496008D01*
X202289850Y-94445472D01*
X202443386Y-94363405D01*
X202577962Y-94252962D01*
X202688405Y-94118386D01*
X202770472Y-93964850D01*
X202821008Y-93798254D01*
X202838072Y-93625000D01*
X202838072Y-92375000D01*
X202821008Y-92201746D01*
X202770472Y-92035150D01*
X202688405Y-91881614D01*
X202577962Y-91747038D01*
X202497500Y-91681005D01*
X202497500Y-90037108D01*
X202502386Y-89987500D01*
X202497500Y-89937892D01*
X202497500Y-89930855D01*
X203204099Y-89224257D01*
X203242633Y-89192633D01*
X203368847Y-89038840D01*
X203462632Y-88863380D01*
X203520385Y-88672994D01*
X203535000Y-88524608D01*
X203535000Y-88524606D01*
X203539886Y-88475001D01*
X203535000Y-88425396D01*
X203535000Y-86223448D01*
X203651582Y-86188084D01*
X203740000Y-86140823D01*
X203740000Y-89175224D01*
X203701746Y-89178992D01*
X203535150Y-89229528D01*
X203381614Y-89311595D01*
X203247038Y-89422038D01*
X203136595Y-89556614D01*
X203054528Y-89710150D01*
X203003992Y-89876746D01*
X202986928Y-90050000D01*
X202986928Y-90975000D01*
X203003992Y-91148254D01*
X203054528Y-91314850D01*
X203136595Y-91468386D01*
X203247038Y-91602962D01*
X203381614Y-91713405D01*
X203535150Y-91795472D01*
X203701746Y-91846008D01*
X203875000Y-91863072D01*
X205125000Y-91863072D01*
X205298254Y-91846008D01*
X205464850Y-91795472D01*
X205618386Y-91713405D01*
X205750000Y-91605393D01*
X205881614Y-91713405D01*
X206035150Y-91795472D01*
X206201746Y-91846008D01*
X206375000Y-91863072D01*
X207625000Y-91863072D01*
X207798254Y-91846008D01*
X207964850Y-91795472D01*
X208118386Y-91713405D01*
X208252962Y-91602962D01*
X208363405Y-91468386D01*
X208445472Y-91314850D01*
X208496008Y-91148254D01*
X208513072Y-90975000D01*
X208513072Y-90050000D01*
X208496008Y-89876746D01*
X208445472Y-89710150D01*
X208363405Y-89556614D01*
X208252962Y-89422038D01*
X208118386Y-89311595D01*
X207964850Y-89229528D01*
X207798254Y-89178992D01*
X207625000Y-89161928D01*
X206724230Y-89161928D01*
X205760000Y-88197699D01*
X205760000Y-79966570D01*
X205862959Y-80069529D01*
X205861928Y-80080000D01*
X205861928Y-80380000D01*
X205877071Y-80533745D01*
X205921916Y-80681582D01*
X205994742Y-80817829D01*
X206033454Y-80865000D01*
X205994742Y-80912171D01*
X205921916Y-81048418D01*
X205877071Y-81196255D01*
X205861928Y-81350000D01*
X205861928Y-81650000D01*
X205877071Y-81803745D01*
X205921916Y-81951582D01*
X205994742Y-82087829D01*
X206033454Y-82135000D01*
X205994742Y-82182171D01*
X205921916Y-82318418D01*
X205877071Y-82466255D01*
X205861928Y-82620000D01*
X205861928Y-82920000D01*
X205877071Y-83073745D01*
X205921916Y-83221582D01*
X205994742Y-83357829D01*
X206033454Y-83405000D01*
X205994742Y-83452171D01*
X205921916Y-83588418D01*
X205877071Y-83736255D01*
X205861928Y-83890000D01*
X205861928Y-84190000D01*
X205877071Y-84343745D01*
X205921916Y-84491582D01*
X205994742Y-84627829D01*
X206092749Y-84747251D01*
X206212171Y-84845258D01*
X206348418Y-84918084D01*
X206496255Y-84962929D01*
X206650000Y-84978072D01*
X208300000Y-84978072D01*
X208453745Y-84962929D01*
X208578783Y-84925000D01*
X213115000Y-84925000D01*
X213115001Y-87205306D01*
X213035150Y-87229528D01*
X212881614Y-87311595D01*
X212747038Y-87422038D01*
X212636595Y-87556614D01*
X212554528Y-87710150D01*
X212503992Y-87876746D01*
X212486928Y-88050000D01*
X212486928Y-88975000D01*
X212503992Y-89148254D01*
X212554528Y-89314850D01*
X212636595Y-89468386D01*
X212747038Y-89602962D01*
X212881614Y-89713405D01*
X213035150Y-89795472D01*
X213201746Y-89846008D01*
X213375000Y-89863072D01*
X214625000Y-89863072D01*
X214798254Y-89846008D01*
X214964850Y-89795472D01*
X215118386Y-89713405D01*
X215252962Y-89602962D01*
X215363405Y-89468386D01*
X215445472Y-89314850D01*
X215496008Y-89148254D01*
X215513072Y-88975000D01*
X215513072Y-88050000D01*
X215496008Y-87876746D01*
X215445472Y-87710150D01*
X215363405Y-87556614D01*
X215252962Y-87422038D01*
X215118386Y-87311595D01*
X214964850Y-87229528D01*
X214885000Y-87205306D01*
X214885000Y-84543465D01*
X214889281Y-84499999D01*
X214885000Y-84456533D01*
X214885000Y-84043469D01*
X214889281Y-84000000D01*
X214885000Y-83956531D01*
X214885000Y-83543467D01*
X214889281Y-83500001D01*
X214885000Y-83456535D01*
X214885000Y-82294694D01*
X214964850Y-82270472D01*
X215118386Y-82188405D01*
X215252962Y-82077962D01*
X215363405Y-81943386D01*
X215445472Y-81789850D01*
X215496008Y-81623254D01*
X215513072Y-81450000D01*
X215513072Y-80525000D01*
X215496008Y-80351746D01*
X215468177Y-80260000D01*
X215685199Y-80260000D01*
X215740000Y-80314801D01*
X215740001Y-86962668D01*
X215736324Y-87000000D01*
X215740001Y-87037333D01*
X215740664Y-87044059D01*
X215750998Y-87148985D01*
X215794454Y-87292246D01*
X215865026Y-87424276D01*
X215927172Y-87500000D01*
X215960000Y-87540001D01*
X215988998Y-87563799D01*
X216423696Y-87998497D01*
X216447499Y-88027501D01*
X216514572Y-88082546D01*
X216563223Y-88122474D01*
X216626941Y-88156532D01*
X216695253Y-88193046D01*
X216838514Y-88236503D01*
X216950167Y-88247500D01*
X216950176Y-88247500D01*
X216987499Y-88251176D01*
X217024822Y-88247500D01*
X217041681Y-88247500D01*
X217054528Y-88289850D01*
X217136595Y-88443386D01*
X217247038Y-88577962D01*
X217381614Y-88688405D01*
X217496850Y-88750000D01*
X217381614Y-88811595D01*
X217247038Y-88922038D01*
X217136595Y-89056614D01*
X217054528Y-89210150D01*
X217003992Y-89376746D01*
X216986928Y-89550000D01*
X216986928Y-90475000D01*
X216999486Y-90602500D01*
X215401294Y-90602500D01*
X215363405Y-90531614D01*
X215252962Y-90397038D01*
X215118386Y-90286595D01*
X214964850Y-90204528D01*
X214798254Y-90153992D01*
X214625000Y-90136928D01*
X213375000Y-90136928D01*
X213201746Y-90153992D01*
X213035150Y-90204528D01*
X212881614Y-90286595D01*
X212747038Y-90397038D01*
X212636595Y-90531614D01*
X212554528Y-90685150D01*
X212503992Y-90851746D01*
X212486928Y-91025000D01*
X212486928Y-91950000D01*
X212503992Y-92123254D01*
X212554528Y-92289850D01*
X212636595Y-92443386D01*
X212747038Y-92577962D01*
X212881614Y-92688405D01*
X213035150Y-92770472D01*
X213201746Y-92821008D01*
X213375000Y-92838072D01*
X214625000Y-92838072D01*
X214798254Y-92821008D01*
X214964850Y-92770472D01*
X215118386Y-92688405D01*
X215252962Y-92577962D01*
X215363405Y-92443386D01*
X215401294Y-92372500D01*
X220170922Y-92372500D01*
X220411928Y-92613507D01*
X220411928Y-92850000D01*
X220424188Y-92974482D01*
X220460498Y-93094180D01*
X220519463Y-93204494D01*
X220598815Y-93301185D01*
X220695506Y-93380537D01*
X220805820Y-93439502D01*
X220925518Y-93475812D01*
X221050000Y-93488072D01*
X221950000Y-93488072D01*
X222074482Y-93475812D01*
X222194180Y-93439502D01*
X222304494Y-93380537D01*
X222401185Y-93301185D01*
X222480537Y-93204494D01*
X222539502Y-93094180D01*
X222575812Y-92974482D01*
X222588072Y-92850000D01*
X222588072Y-92338095D01*
X222598815Y-92351185D01*
X222695506Y-92430537D01*
X222805820Y-92489502D01*
X222925518Y-92525812D01*
X223050000Y-92538072D01*
X223950000Y-92538072D01*
X224074482Y-92525812D01*
X224194180Y-92489502D01*
X224304494Y-92430537D01*
X224401185Y-92351185D01*
X224476018Y-92260000D01*
X224515558Y-92260000D01*
X224535150Y-92270472D01*
X224701746Y-92321008D01*
X224875000Y-92338072D01*
X226125000Y-92338072D01*
X226298254Y-92321008D01*
X226464850Y-92270472D01*
X226618386Y-92188405D01*
X226752962Y-92077962D01*
X226863405Y-91943386D01*
X226945472Y-91789850D01*
X226996008Y-91623254D01*
X227013072Y-91450000D01*
X227013072Y-90525000D01*
X226996008Y-90351746D01*
X226945472Y-90185150D01*
X226863405Y-90031614D01*
X226752962Y-89897038D01*
X226618386Y-89786595D01*
X226464850Y-89704528D01*
X226298254Y-89653992D01*
X226125000Y-89636928D01*
X224875000Y-89636928D01*
X224701746Y-89653992D01*
X224535150Y-89704528D01*
X224381614Y-89786595D01*
X224247038Y-89897038D01*
X224137520Y-90030487D01*
X224134974Y-90025723D01*
X224063799Y-89938997D01*
X224040001Y-89909999D01*
X224011004Y-89886202D01*
X222588072Y-88463271D01*
X222588072Y-88338095D01*
X222598815Y-88351185D01*
X222695506Y-88430537D01*
X222805820Y-88489502D01*
X222925518Y-88525812D01*
X223050000Y-88538072D01*
X223950000Y-88538072D01*
X223992726Y-88533864D01*
X224003992Y-88648254D01*
X224054528Y-88814850D01*
X224136595Y-88968386D01*
X224247038Y-89102962D01*
X224381614Y-89213405D01*
X224535150Y-89295472D01*
X224701746Y-89346008D01*
X224875000Y-89363072D01*
X226125000Y-89363072D01*
X226298254Y-89346008D01*
X226464850Y-89295472D01*
X226618386Y-89213405D01*
X226752962Y-89102962D01*
X226863405Y-88968386D01*
X226945472Y-88814850D01*
X226996008Y-88648254D01*
X227013072Y-88475000D01*
X227013072Y-88104559D01*
X229982632Y-85135000D01*
X240190640Y-85135000D01*
X240341637Y-85360983D01*
X240639017Y-85658363D01*
X240988698Y-85892012D01*
X241377244Y-86052953D01*
X241789721Y-86135000D01*
X242210279Y-86135000D01*
X242622756Y-86052953D01*
X243011302Y-85892012D01*
X243360983Y-85658363D01*
X243658363Y-85360983D01*
X243892012Y-85011302D01*
X244052953Y-84622756D01*
X244135000Y-84210279D01*
X244135000Y-83789721D01*
X244052953Y-83377244D01*
X243892012Y-82988698D01*
X243658363Y-82639017D01*
X243360983Y-82341637D01*
X243011302Y-82107988D01*
X242622756Y-81947047D01*
X242210279Y-81865000D01*
X241789721Y-81865000D01*
X241377244Y-81947047D01*
X240988698Y-82107988D01*
X240639017Y-82341637D01*
X240341637Y-82639017D01*
X240190640Y-82865000D01*
X229568251Y-82865000D01*
X229512500Y-82859509D01*
X229456748Y-82865000D01*
X229290001Y-82881423D01*
X229076053Y-82946324D01*
X228878877Y-83051716D01*
X228706051Y-83193551D01*
X228670509Y-83236859D01*
X225372500Y-86534869D01*
X225372500Y-85901294D01*
X225443386Y-85863405D01*
X225577962Y-85752962D01*
X225688405Y-85618386D01*
X225770472Y-85464850D01*
X225821008Y-85298254D01*
X225838072Y-85125000D01*
X225838072Y-84244769D01*
X225859695Y-84173490D01*
X225876781Y-84000000D01*
X225859695Y-83826510D01*
X225809088Y-83659687D01*
X225807149Y-83656060D01*
X225770472Y-83535150D01*
X225688405Y-83381614D01*
X225577962Y-83247038D01*
X225443386Y-83136595D01*
X225289850Y-83054528D01*
X225123254Y-83003992D01*
X224950000Y-82986928D01*
X224025000Y-82986928D01*
X223851746Y-83003992D01*
X223685150Y-83054528D01*
X223531614Y-83136595D01*
X223397038Y-83247038D01*
X223286595Y-83381614D01*
X223204528Y-83535150D01*
X223153992Y-83701746D01*
X223136928Y-83875000D01*
X223136928Y-85125000D01*
X223153992Y-85298254D01*
X223204528Y-85464850D01*
X223286595Y-85618386D01*
X223397038Y-85752962D01*
X223531614Y-85863405D01*
X223602500Y-85901295D01*
X223602501Y-86461928D01*
X223050000Y-86461928D01*
X222925518Y-86474188D01*
X222805820Y-86510498D01*
X222695506Y-86569463D01*
X222598815Y-86648815D01*
X222588072Y-86661905D01*
X222588072Y-86150000D01*
X222575812Y-86025518D01*
X222539502Y-85905820D01*
X222502059Y-85835770D01*
X222602962Y-85752962D01*
X222713405Y-85618386D01*
X222795472Y-85464850D01*
X222846008Y-85298254D01*
X222863072Y-85125000D01*
X222863072Y-83875000D01*
X222846008Y-83701746D01*
X222795472Y-83535150D01*
X222713405Y-83381614D01*
X222602962Y-83247038D01*
X222468386Y-83136595D01*
X222314850Y-83054528D01*
X222148254Y-83003992D01*
X221975000Y-82986928D01*
X221050000Y-82986928D01*
X220876746Y-83003992D01*
X220710150Y-83054528D01*
X220556614Y-83136595D01*
X220422038Y-83247038D01*
X220311595Y-83381614D01*
X220229528Y-83535150D01*
X220205306Y-83615000D01*
X219894613Y-83615000D01*
X219863405Y-83556614D01*
X219752962Y-83422038D01*
X219618386Y-83311595D01*
X219464850Y-83229528D01*
X219298254Y-83178992D01*
X219125000Y-83161928D01*
X217875000Y-83161928D01*
X217701746Y-83178992D01*
X217535150Y-83229528D01*
X217381614Y-83311595D01*
X217260000Y-83411400D01*
X217260000Y-80037325D01*
X217263676Y-80000000D01*
X217260000Y-79962675D01*
X217260000Y-79962667D01*
X217249003Y-79851014D01*
X217205546Y-79707753D01*
X217134974Y-79575724D01*
X217040001Y-79459999D01*
X217010998Y-79436197D01*
X216563804Y-78989003D01*
X216540001Y-78959999D01*
X216463846Y-78897500D01*
X220195922Y-78897500D01*
X220411928Y-79113507D01*
X220411928Y-79350000D01*
X220424188Y-79474482D01*
X220460498Y-79594180D01*
X220519463Y-79704494D01*
X220598815Y-79801185D01*
X220695506Y-79880537D01*
X220805820Y-79939502D01*
X220925518Y-79975812D01*
X221050000Y-79988072D01*
X221950000Y-79988072D01*
X222074482Y-79975812D01*
X222194180Y-79939502D01*
X222304494Y-79880537D01*
X222401185Y-79801185D01*
X222480537Y-79704494D01*
X222539502Y-79594180D01*
X222575812Y-79474482D01*
X222588072Y-79350000D01*
X222588072Y-78838095D01*
X222598815Y-78851185D01*
X222695506Y-78930537D01*
X222805820Y-78989502D01*
X222925518Y-79025812D01*
X223050000Y-79038072D01*
X223950000Y-79038072D01*
X224074482Y-79025812D01*
X224194180Y-78989502D01*
X224304494Y-78930537D01*
X224401185Y-78851185D01*
X224476018Y-78760000D01*
X224515558Y-78760000D01*
X224535150Y-78770472D01*
X224701746Y-78821008D01*
X224875000Y-78838072D01*
X226125000Y-78838072D01*
X226298254Y-78821008D01*
X226464850Y-78770472D01*
X226618386Y-78688405D01*
X226752962Y-78577962D01*
X226863405Y-78443386D01*
X226945472Y-78289850D01*
X226996008Y-78123254D01*
X227013072Y-77950000D01*
X227013072Y-77025000D01*
X226996008Y-76851746D01*
X226945472Y-76685150D01*
X226863405Y-76531614D01*
X226752962Y-76397038D01*
X226618386Y-76286595D01*
X226464850Y-76204528D01*
X226298254Y-76153992D01*
X226125000Y-76136928D01*
X224875000Y-76136928D01*
X224701746Y-76153992D01*
X224535150Y-76204528D01*
X224381614Y-76286595D01*
X224247038Y-76397038D01*
X224137520Y-76530487D01*
X224134974Y-76525723D01*
X224063799Y-76438997D01*
X224040001Y-76409999D01*
X224011004Y-76386202D01*
X222588072Y-74963271D01*
X222588072Y-74838095D01*
X222598815Y-74851185D01*
X222695506Y-74930537D01*
X222805820Y-74989502D01*
X222925518Y-75025812D01*
X223050000Y-75038072D01*
X223109717Y-75038072D01*
X223263239Y-75191594D01*
X223294867Y-75230133D01*
X223448660Y-75356347D01*
X223624120Y-75450132D01*
X223814506Y-75507885D01*
X223962892Y-75522500D01*
X223962894Y-75522500D01*
X224012499Y-75527386D01*
X224062104Y-75522500D01*
X224181005Y-75522500D01*
X224247038Y-75602962D01*
X224381614Y-75713405D01*
X224535150Y-75795472D01*
X224701746Y-75846008D01*
X224875000Y-75863072D01*
X226125000Y-75863072D01*
X226298254Y-75846008D01*
X226464850Y-75795472D01*
X226618386Y-75713405D01*
X226752962Y-75602962D01*
X226863405Y-75468386D01*
X226945472Y-75314850D01*
X226996008Y-75148254D01*
X227013072Y-74975000D01*
X227013072Y-74050000D01*
X226996008Y-73876746D01*
X226945472Y-73710150D01*
X226863405Y-73556614D01*
X226752962Y-73422038D01*
X226618386Y-73311595D01*
X226464850Y-73229528D01*
X226385000Y-73205306D01*
X226385000Y-72043477D01*
X226389282Y-72000000D01*
X226372195Y-71826510D01*
X226321589Y-71659687D01*
X226239411Y-71505941D01*
X226128817Y-71371183D01*
X226025339Y-71286260D01*
X225838072Y-71098993D01*
X225838072Y-70375000D01*
X225821008Y-70201746D01*
X225770472Y-70035150D01*
X225688405Y-69881614D01*
X225577962Y-69747038D01*
X225443386Y-69636595D01*
X225289850Y-69554528D01*
X225123254Y-69503992D01*
X224950000Y-69486928D01*
X224579560Y-69486928D01*
X222829496Y-67736865D01*
X222793949Y-67693551D01*
X222621123Y-67551716D01*
X222423947Y-67446324D01*
X222209999Y-67381423D01*
X222043252Y-67365000D01*
X222043251Y-67365000D01*
X221987500Y-67359509D01*
X221931749Y-67365000D01*
X213876746Y-67365000D01*
X213888072Y-67250000D01*
X213888072Y-64750000D01*
X213875812Y-64625518D01*
X213839502Y-64505820D01*
X213780537Y-64395506D01*
X213701185Y-64298815D01*
X213604494Y-64219463D01*
X213494180Y-64160498D01*
X213374482Y-64124188D01*
X213250000Y-64111928D01*
X210750000Y-64111928D01*
X210625518Y-64124188D01*
X210505820Y-64160498D01*
X210395506Y-64219463D01*
X210298815Y-64298815D01*
X210219463Y-64395506D01*
X210160498Y-64505820D01*
X210124188Y-64625518D01*
X210111928Y-64750000D01*
X210111928Y-64990000D01*
X209918355Y-64990000D01*
X209388072Y-64459717D01*
X209388072Y-63379872D01*
X219265000Y-63379872D01*
X219265000Y-63820128D01*
X219350890Y-64251925D01*
X219519369Y-64658669D01*
X219763962Y-65024729D01*
X220075271Y-65336038D01*
X220441331Y-65580631D01*
X220848075Y-65749110D01*
X221279872Y-65835000D01*
X221720128Y-65835000D01*
X222151925Y-65749110D01*
X222558669Y-65580631D01*
X222924729Y-65336038D01*
X223236038Y-65024729D01*
X223480631Y-64658669D01*
X223649110Y-64251925D01*
X223735000Y-63820128D01*
X223735000Y-63789721D01*
X239865000Y-63789721D01*
X239865000Y-64210279D01*
X239947047Y-64622756D01*
X240107988Y-65011302D01*
X240341637Y-65360983D01*
X240639017Y-65658363D01*
X240988698Y-65892012D01*
X241377244Y-66052953D01*
X241789721Y-66135000D01*
X242210279Y-66135000D01*
X242622756Y-66052953D01*
X243011302Y-65892012D01*
X243360983Y-65658363D01*
X243658363Y-65360983D01*
X243892012Y-65011302D01*
X244052953Y-64622756D01*
X244135000Y-64210279D01*
X244135000Y-63789721D01*
X244052953Y-63377244D01*
X243892012Y-62988698D01*
X243658363Y-62639017D01*
X243360983Y-62341637D01*
X243011302Y-62107988D01*
X242622756Y-61947047D01*
X242210279Y-61865000D01*
X241789721Y-61865000D01*
X241377244Y-61947047D01*
X240988698Y-62107988D01*
X240639017Y-62341637D01*
X240341637Y-62639017D01*
X240107988Y-62988698D01*
X239947047Y-63377244D01*
X239865000Y-63789721D01*
X223735000Y-63789721D01*
X223735000Y-63379872D01*
X223649110Y-62948075D01*
X223480631Y-62541331D01*
X223236038Y-62175271D01*
X222924729Y-61863962D01*
X222558669Y-61619369D01*
X222151925Y-61450890D01*
X221720128Y-61365000D01*
X221279872Y-61365000D01*
X220848075Y-61450890D01*
X220441331Y-61619369D01*
X220075271Y-61863962D01*
X219763962Y-62175271D01*
X219519369Y-62541331D01*
X219350890Y-62948075D01*
X219265000Y-63379872D01*
X209388072Y-63379872D01*
X209388072Y-63100000D01*
X209375812Y-62975518D01*
X209339502Y-62855820D01*
X209280537Y-62745506D01*
X209201185Y-62648815D01*
X209104494Y-62569463D01*
X208994180Y-62510498D01*
X208874482Y-62474188D01*
X208750000Y-62461928D01*
X206250000Y-62461928D01*
X206125518Y-62474188D01*
X206005820Y-62510498D01*
X205895506Y-62569463D01*
X205798815Y-62648815D01*
X205719463Y-62745506D01*
X205660498Y-62855820D01*
X205624188Y-62975518D01*
X205611928Y-63100000D01*
X205611928Y-64900000D01*
X205624188Y-65024482D01*
X205660498Y-65144180D01*
X205719463Y-65254494D01*
X205798815Y-65351185D01*
X205895506Y-65430537D01*
X206005820Y-65489502D01*
X206125518Y-65525812D01*
X206250000Y-65538072D01*
X207609717Y-65538072D01*
X208750739Y-66679094D01*
X208782367Y-66717633D01*
X208936160Y-66843847D01*
X209111620Y-66937632D01*
X209302006Y-66995385D01*
X209450392Y-67010000D01*
X209450394Y-67010000D01*
X209499999Y-67014886D01*
X209549604Y-67010000D01*
X210111928Y-67010000D01*
X210111928Y-67250000D01*
X210124188Y-67374482D01*
X210160498Y-67494180D01*
X210219463Y-67604494D01*
X210298815Y-67701185D01*
X210395506Y-67780537D01*
X210505820Y-67839502D01*
X210625518Y-67875812D01*
X210750000Y-67888072D01*
X210865001Y-67888072D01*
X210865001Y-67944239D01*
X210859509Y-68000000D01*
X210881423Y-68222498D01*
X210946324Y-68436446D01*
X210995384Y-68528230D01*
X211051717Y-68633623D01*
X211193552Y-68806449D01*
X211236860Y-68841991D01*
X211658004Y-69263135D01*
X211693551Y-69306449D01*
X211866377Y-69448284D01*
X212063553Y-69553676D01*
X212277501Y-69618577D01*
X212500000Y-69640491D01*
X212555752Y-69635000D01*
X220559598Y-69635000D01*
X220556614Y-69636595D01*
X220422038Y-69747038D01*
X220311595Y-69881614D01*
X220229528Y-70035150D01*
X220205306Y-70115000D01*
X219894613Y-70115000D01*
X219863405Y-70056614D01*
X219752962Y-69922038D01*
X219618386Y-69811595D01*
X219464850Y-69729528D01*
X219298254Y-69678992D01*
X219125000Y-69661928D01*
X217875000Y-69661928D01*
X217701746Y-69678992D01*
X217535150Y-69729528D01*
X217381614Y-69811595D01*
X217247038Y-69922038D01*
X217136595Y-70056614D01*
X217054528Y-70210150D01*
X217003992Y-70376746D01*
X216986928Y-70550000D01*
X216986928Y-71475000D01*
X217003992Y-71648254D01*
X217054528Y-71814850D01*
X217136595Y-71968386D01*
X217247038Y-72102962D01*
X217381614Y-72213405D01*
X217535150Y-72295472D01*
X217701746Y-72346008D01*
X217875000Y-72363072D01*
X219125000Y-72363072D01*
X219298254Y-72346008D01*
X219464850Y-72295472D01*
X219618386Y-72213405D01*
X219752962Y-72102962D01*
X219863405Y-71968386D01*
X219907976Y-71885000D01*
X220205306Y-71885000D01*
X220229528Y-71964850D01*
X220311595Y-72118386D01*
X220422038Y-72252962D01*
X220505564Y-72321509D01*
X220460498Y-72405820D01*
X220424188Y-72525518D01*
X220411928Y-72650000D01*
X220411928Y-73450000D01*
X220424188Y-73574482D01*
X220460498Y-73694180D01*
X220519463Y-73804494D01*
X220598815Y-73901185D01*
X220695506Y-73980537D01*
X220731918Y-74000000D01*
X220695506Y-74019463D01*
X220598815Y-74098815D01*
X220519463Y-74195506D01*
X220460498Y-74305820D01*
X220424188Y-74425518D01*
X220411928Y-74550000D01*
X220411928Y-75350000D01*
X220424188Y-75474482D01*
X220460498Y-75594180D01*
X220519463Y-75704494D01*
X220598815Y-75801185D01*
X220695506Y-75880537D01*
X220805820Y-75939502D01*
X220925518Y-75975812D01*
X221050000Y-75988072D01*
X221463271Y-75988072D01*
X222612655Y-77137457D01*
X222598815Y-77148815D01*
X222519463Y-77245506D01*
X222460498Y-77355820D01*
X222424188Y-77475518D01*
X222411928Y-77600000D01*
X222411928Y-78111905D01*
X222401185Y-78098815D01*
X222304494Y-78019463D01*
X222194180Y-77960498D01*
X222074482Y-77924188D01*
X221950000Y-77911928D01*
X221713507Y-77911928D01*
X221219034Y-77417456D01*
X221191317Y-77383683D01*
X221056559Y-77273089D01*
X220902813Y-77190911D01*
X220735990Y-77140305D01*
X220605977Y-77127500D01*
X220605969Y-77127500D01*
X220562500Y-77123219D01*
X220519031Y-77127500D01*
X219998052Y-77127500D01*
X220013072Y-76975000D01*
X220013072Y-76050000D01*
X219996008Y-75876746D01*
X219945472Y-75710150D01*
X219863405Y-75556614D01*
X219752962Y-75422038D01*
X219618386Y-75311595D01*
X219503150Y-75250000D01*
X219618386Y-75188405D01*
X219752962Y-75077962D01*
X219863405Y-74943386D01*
X219945472Y-74789850D01*
X219996008Y-74623254D01*
X220013072Y-74450000D01*
X220013072Y-73525000D01*
X219996008Y-73351746D01*
X219945472Y-73185150D01*
X219863405Y-73031614D01*
X219752962Y-72897038D01*
X219618386Y-72786595D01*
X219464850Y-72704528D01*
X219298254Y-72653992D01*
X219125000Y-72636928D01*
X217875000Y-72636928D01*
X217701746Y-72653992D01*
X217535150Y-72704528D01*
X217381614Y-72786595D01*
X217247038Y-72897038D01*
X217136595Y-73031614D01*
X217054528Y-73185150D01*
X217003992Y-73351746D01*
X216986928Y-73525000D01*
X216986928Y-74450000D01*
X217003992Y-74623254D01*
X217054528Y-74789850D01*
X217136595Y-74943386D01*
X217247038Y-75077962D01*
X217381614Y-75188405D01*
X217496850Y-75250000D01*
X217381614Y-75311595D01*
X217247038Y-75422038D01*
X217136595Y-75556614D01*
X217054528Y-75710150D01*
X217041681Y-75752500D01*
X212024822Y-75752500D01*
X211987499Y-75748824D01*
X211950176Y-75752500D01*
X211950167Y-75752500D01*
X211838514Y-75763497D01*
X211733105Y-75795472D01*
X211695253Y-75806954D01*
X211563223Y-75877526D01*
X211520646Y-75912469D01*
X211447499Y-75972499D01*
X211423696Y-76001503D01*
X210989003Y-76436196D01*
X210959999Y-76459999D01*
X210922628Y-76505536D01*
X210865026Y-76575724D01*
X210818949Y-76661928D01*
X210794454Y-76707754D01*
X210750997Y-76851015D01*
X210740000Y-76962668D01*
X210740000Y-76962678D01*
X210736324Y-77000000D01*
X210740000Y-77037323D01*
X210740001Y-80685198D01*
X210685199Y-80740000D01*
X208996859Y-80740000D01*
X209028084Y-80681582D01*
X209072929Y-80533745D01*
X209088072Y-80380000D01*
X209088072Y-80080000D01*
X209072929Y-79926255D01*
X209028084Y-79778418D01*
X208955258Y-79642171D01*
X208916546Y-79595000D01*
X208955258Y-79547829D01*
X209028084Y-79411582D01*
X209072929Y-79263745D01*
X209088072Y-79110000D01*
X209088072Y-78810000D01*
X209072929Y-78656255D01*
X209028084Y-78508418D01*
X208955258Y-78372171D01*
X208916546Y-78325000D01*
X208955258Y-78277829D01*
X209028084Y-78141582D01*
X209072929Y-77993745D01*
X209088072Y-77840000D01*
X209088072Y-77540000D01*
X209072929Y-77386255D01*
X209028084Y-77238418D01*
X208955258Y-77102171D01*
X208857251Y-76982749D01*
X208737829Y-76884742D01*
X208601582Y-76811916D01*
X208453745Y-76767071D01*
X208300000Y-76751928D01*
X207861930Y-76751928D01*
X207672994Y-76694615D01*
X207524608Y-76680000D01*
X206608355Y-76680000D01*
X206010000Y-76081645D01*
X206010000Y-72049604D01*
X206014886Y-71999999D01*
X206002298Y-71872195D01*
X205996601Y-71814344D01*
X208115000Y-71814344D01*
X208115000Y-72185656D01*
X208187439Y-72549834D01*
X208329534Y-72892882D01*
X208535825Y-73201618D01*
X208798382Y-73464175D01*
X209107118Y-73670466D01*
X209450166Y-73812561D01*
X209814344Y-73885000D01*
X210185656Y-73885000D01*
X210549834Y-73812561D01*
X210892882Y-73670466D01*
X211201618Y-73464175D01*
X211464175Y-73201618D01*
X211670466Y-72892882D01*
X211812561Y-72549834D01*
X211885000Y-72185656D01*
X211885000Y-71814344D01*
X211812561Y-71450166D01*
X211670466Y-71107118D01*
X211464175Y-70798382D01*
X211201618Y-70535825D01*
X210892882Y-70329534D01*
X210549834Y-70187439D01*
X210185656Y-70115000D01*
X209814344Y-70115000D01*
X209450166Y-70187439D01*
X209107118Y-70329534D01*
X208798382Y-70535825D01*
X208535825Y-70798382D01*
X208329534Y-71107118D01*
X208187439Y-71450166D01*
X208115000Y-71814344D01*
X205996601Y-71814344D01*
X205995385Y-71802006D01*
X205937632Y-71611620D01*
X205843847Y-71436160D01*
X205717633Y-71282367D01*
X205679094Y-71250739D01*
X204736761Y-70308406D01*
X204705133Y-70269867D01*
X204551340Y-70143653D01*
X204375880Y-70049868D01*
X204372636Y-70048884D01*
X204363405Y-70031614D01*
X204252962Y-69897038D01*
X204118386Y-69786595D01*
X203964850Y-69704528D01*
X203798254Y-69653992D01*
X203625000Y-69636928D01*
X202375000Y-69636928D01*
X202201746Y-69653992D01*
X202035150Y-69704528D01*
X201881614Y-69786595D01*
X201747038Y-69897038D01*
X201636595Y-70031614D01*
X201554528Y-70185150D01*
X201503992Y-70351746D01*
X201486928Y-70525000D01*
X201486928Y-71450000D01*
X201503992Y-71623254D01*
X201554528Y-71789850D01*
X201636595Y-71943386D01*
X201747038Y-72077962D01*
X201881614Y-72188405D01*
X202035150Y-72270472D01*
X202201746Y-72321008D01*
X202375000Y-72338072D01*
X203625000Y-72338072D01*
X203798254Y-72321008D01*
X203870682Y-72299037D01*
X203990001Y-72418356D01*
X203990000Y-74737309D01*
X203962678Y-74740000D01*
X198037325Y-74740000D01*
X198000000Y-74736324D01*
X197962675Y-74740000D01*
X197962667Y-74740000D01*
X197851014Y-74750997D01*
X197707753Y-74794454D01*
X197575724Y-74865026D01*
X197459999Y-74959999D01*
X197436196Y-74989003D01*
X197314002Y-75111197D01*
X197284998Y-75135000D01*
X197260365Y-75165016D01*
X197190025Y-75250725D01*
X197123985Y-75374276D01*
X197119453Y-75382755D01*
X197075996Y-75526016D01*
X197064999Y-75637669D01*
X197064999Y-75637679D01*
X197061323Y-75675001D01*
X197064999Y-75712323D01*
X197064999Y-75715883D01*
X196968386Y-75636595D01*
X196814850Y-75554528D01*
X196648254Y-75503992D01*
X196475000Y-75486928D01*
X195550000Y-75486928D01*
X195376746Y-75503992D01*
X195210150Y-75554528D01*
X195056614Y-75636595D01*
X194922038Y-75747038D01*
X194811595Y-75881614D01*
X194729528Y-76035150D01*
X194678992Y-76201746D01*
X194661928Y-76375000D01*
X194661928Y-77625000D01*
X194678992Y-77798254D01*
X194729528Y-77964850D01*
X194811595Y-78118386D01*
X194919607Y-78250000D01*
X194811595Y-78381614D01*
X194729528Y-78535150D01*
X194678992Y-78701746D01*
X194675224Y-78740000D01*
X192537322Y-78740000D01*
X192499999Y-78736324D01*
X192462676Y-78740000D01*
X192462667Y-78740000D01*
X192351014Y-78750997D01*
X192207753Y-78794454D01*
X192075724Y-78865026D01*
X191959999Y-78959999D01*
X191936201Y-78988997D01*
X190660000Y-80265199D01*
X190660000Y-71814344D01*
X195915000Y-71814344D01*
X195915000Y-72185656D01*
X195987439Y-72549834D01*
X196129534Y-72892882D01*
X196335825Y-73201618D01*
X196598382Y-73464175D01*
X196907118Y-73670466D01*
X197250166Y-73812561D01*
X197614344Y-73885000D01*
X197985656Y-73885000D01*
X198349834Y-73812561D01*
X198692882Y-73670466D01*
X199001618Y-73464175D01*
X199264175Y-73201618D01*
X199470466Y-72892882D01*
X199612561Y-72549834D01*
X199685000Y-72185656D01*
X199685000Y-71814344D01*
X199612561Y-71450166D01*
X199470466Y-71107118D01*
X199264175Y-70798382D01*
X199001618Y-70535825D01*
X198692882Y-70329534D01*
X198349834Y-70187439D01*
X197985656Y-70115000D01*
X197614344Y-70115000D01*
X197250166Y-70187439D01*
X196907118Y-70329534D01*
X196598382Y-70535825D01*
X196335825Y-70798382D01*
X196129534Y-71107118D01*
X195987439Y-71450166D01*
X195915000Y-71814344D01*
X190660000Y-71814344D01*
X190660000Y-64500000D01*
X198359509Y-64500000D01*
X198365000Y-64555751D01*
X198365000Y-66055751D01*
X198381423Y-66222498D01*
X198446324Y-66436446D01*
X198463816Y-66469172D01*
X198474188Y-66574482D01*
X198510498Y-66694180D01*
X198569463Y-66804494D01*
X198648815Y-66901185D01*
X198745506Y-66980537D01*
X198855820Y-67039502D01*
X198975518Y-67075812D01*
X199100000Y-67088072D01*
X199176940Y-67088072D01*
X199277501Y-67118577D01*
X199500000Y-67140491D01*
X199570294Y-67133568D01*
X199519463Y-67195506D01*
X199460498Y-67305820D01*
X199424188Y-67425518D01*
X199413816Y-67530827D01*
X199396324Y-67563553D01*
X199331423Y-67777501D01*
X199309509Y-68000000D01*
X199331423Y-68222499D01*
X199396324Y-68436447D01*
X199413816Y-68469173D01*
X199424188Y-68574482D01*
X199460498Y-68694180D01*
X199519463Y-68804494D01*
X199598815Y-68901185D01*
X199695506Y-68980537D01*
X199805820Y-69039502D01*
X199925518Y-69075812D01*
X200050000Y-69088072D01*
X200126940Y-69088072D01*
X200227501Y-69118577D01*
X200394248Y-69135000D01*
X201786077Y-69135000D01*
X201881614Y-69213405D01*
X202035150Y-69295472D01*
X202201746Y-69346008D01*
X202375000Y-69363072D01*
X203625000Y-69363072D01*
X203798254Y-69346008D01*
X203964850Y-69295472D01*
X204118386Y-69213405D01*
X204252962Y-69102962D01*
X204363405Y-68968386D01*
X204445472Y-68814850D01*
X204496008Y-68648254D01*
X204513072Y-68475000D01*
X204513072Y-67550000D01*
X204496008Y-67376746D01*
X204445472Y-67210150D01*
X204363405Y-67056614D01*
X204252962Y-66922038D01*
X204118386Y-66811595D01*
X203964850Y-66729528D01*
X203798254Y-66678992D01*
X203625000Y-66661928D01*
X202375000Y-66661928D01*
X202201746Y-66678992D01*
X202035150Y-66729528D01*
X201881614Y-66811595D01*
X201816539Y-66865000D01*
X200394248Y-66865000D01*
X200379706Y-66866432D01*
X200430537Y-66804494D01*
X200489502Y-66694180D01*
X200525812Y-66574482D01*
X200536184Y-66469173D01*
X200553676Y-66436447D01*
X200618577Y-66222499D01*
X200635000Y-66055752D01*
X200635000Y-65135000D01*
X201657713Y-65135000D01*
X201660498Y-65144180D01*
X201719463Y-65254494D01*
X201798815Y-65351185D01*
X201895506Y-65430537D01*
X202005820Y-65489502D01*
X202125518Y-65525812D01*
X202250000Y-65538072D01*
X204750000Y-65538072D01*
X204874482Y-65525812D01*
X204994180Y-65489502D01*
X205104494Y-65430537D01*
X205201185Y-65351185D01*
X205280537Y-65254494D01*
X205339502Y-65144180D01*
X205375812Y-65024482D01*
X205388072Y-64900000D01*
X205388072Y-63100000D01*
X205375812Y-62975518D01*
X205339502Y-62855820D01*
X205280537Y-62745506D01*
X205201185Y-62648815D01*
X205104494Y-62569463D01*
X204994180Y-62510498D01*
X204874482Y-62474188D01*
X204750000Y-62461928D01*
X204635000Y-62461928D01*
X204635000Y-61135000D01*
X208491312Y-61135000D01*
X208535825Y-61201618D01*
X208798382Y-61464175D01*
X209107118Y-61670466D01*
X209450166Y-61812561D01*
X209814344Y-61885000D01*
X210185656Y-61885000D01*
X210549834Y-61812561D01*
X210892882Y-61670466D01*
X211201618Y-61464175D01*
X211464175Y-61201618D01*
X211670466Y-60892882D01*
X211812561Y-60549834D01*
X211885000Y-60185656D01*
X211885000Y-59814344D01*
X211812561Y-59450166D01*
X211670466Y-59107118D01*
X211464175Y-58798382D01*
X211201618Y-58535825D01*
X210892882Y-58329534D01*
X210549834Y-58187439D01*
X210185656Y-58115000D01*
X209814344Y-58115000D01*
X209450166Y-58187439D01*
X209107118Y-58329534D01*
X208798382Y-58535825D01*
X208535825Y-58798382D01*
X208491312Y-58865000D01*
X204055752Y-58865000D01*
X204000000Y-58859509D01*
X203944248Y-58865000D01*
X203777501Y-58881423D01*
X203563553Y-58946324D01*
X203366377Y-59051716D01*
X203193551Y-59193551D01*
X203158004Y-59236865D01*
X202736865Y-59658004D01*
X202693551Y-59693551D01*
X202551716Y-59866377D01*
X202480294Y-60000000D01*
X202446324Y-60063554D01*
X202381423Y-60277502D01*
X202359509Y-60500000D01*
X202365000Y-60555752D01*
X202365001Y-62461928D01*
X202250000Y-62461928D01*
X202125518Y-62474188D01*
X202005820Y-62510498D01*
X201895506Y-62569463D01*
X201798815Y-62648815D01*
X201719463Y-62745506D01*
X201660498Y-62855820D01*
X201657713Y-62865000D01*
X200055752Y-62865000D01*
X200000000Y-62859509D01*
X199944248Y-62865000D01*
X199777501Y-62881423D01*
X199563553Y-62946324D01*
X199366377Y-63051716D01*
X199193551Y-63193551D01*
X199158004Y-63236865D01*
X198736860Y-63658009D01*
X198693552Y-63693551D01*
X198551717Y-63866377D01*
X198495384Y-63971770D01*
X198446324Y-64063554D01*
X198381423Y-64277502D01*
X198359509Y-64500000D01*
X190660000Y-64500000D01*
X190660000Y-59814344D01*
X195915000Y-59814344D01*
X195915000Y-60185656D01*
X195987439Y-60549834D01*
X196129534Y-60892882D01*
X196335825Y-61201618D01*
X196598382Y-61464175D01*
X196907118Y-61670466D01*
X197250166Y-61812561D01*
X197614344Y-61885000D01*
X197985656Y-61885000D01*
X198349834Y-61812561D01*
X198692882Y-61670466D01*
X199001618Y-61464175D01*
X199264175Y-61201618D01*
X199470466Y-60892882D01*
X199612561Y-60549834D01*
X199685000Y-60185656D01*
X199685000Y-59814344D01*
X199612561Y-59450166D01*
X199470466Y-59107118D01*
X199264175Y-58798382D01*
X199001618Y-58535825D01*
X198692882Y-58329534D01*
X198349834Y-58187439D01*
X197985656Y-58115000D01*
X197614344Y-58115000D01*
X197250166Y-58187439D01*
X196907118Y-58329534D01*
X196598382Y-58535825D01*
X196335825Y-58798382D01*
X196129534Y-59107118D01*
X195987439Y-59450166D01*
X195915000Y-59814344D01*
X190660000Y-59814344D01*
X190660000Y-57119678D01*
X236365000Y-57119678D01*
X236365000Y-58880321D01*
X236388657Y-59120515D01*
X236482148Y-59428714D01*
X236633969Y-59712751D01*
X236838286Y-59961714D01*
X237087248Y-60166031D01*
X237371285Y-60317852D01*
X237679484Y-60411343D01*
X238000000Y-60442911D01*
X238320515Y-60411343D01*
X238628714Y-60317852D01*
X238912751Y-60166031D01*
X239161714Y-59961714D01*
X239366031Y-59712752D01*
X239517852Y-59428715D01*
X239611343Y-59120516D01*
X239635000Y-58880322D01*
X239635000Y-57119678D01*
X239611343Y-56879484D01*
X239517852Y-56571285D01*
X239453024Y-56450000D01*
X241361928Y-56450000D01*
X241361928Y-59550000D01*
X241378992Y-59723254D01*
X241429528Y-59889850D01*
X241511595Y-60043386D01*
X241622038Y-60177962D01*
X241756614Y-60288405D01*
X241910150Y-60370472D01*
X242076746Y-60421008D01*
X242250000Y-60438072D01*
X243750000Y-60438072D01*
X243923254Y-60421008D01*
X244089850Y-60370472D01*
X244243386Y-60288405D01*
X244377962Y-60177962D01*
X244488405Y-60043386D01*
X244570472Y-59889850D01*
X244621008Y-59723254D01*
X244638072Y-59550000D01*
X244638072Y-56450000D01*
X244621008Y-56276746D01*
X244570472Y-56110150D01*
X244488405Y-55956614D01*
X244377962Y-55822038D01*
X244243386Y-55711595D01*
X244089850Y-55629528D01*
X243923254Y-55578992D01*
X243750000Y-55561928D01*
X242250000Y-55561928D01*
X242076746Y-55578992D01*
X241910150Y-55629528D01*
X241756614Y-55711595D01*
X241622038Y-55822038D01*
X241511595Y-55956614D01*
X241429528Y-56110150D01*
X241378992Y-56276746D01*
X241361928Y-56450000D01*
X239453024Y-56450000D01*
X239366031Y-56287248D01*
X239161714Y-56038286D01*
X238912752Y-55833969D01*
X238628715Y-55682148D01*
X238320516Y-55588657D01*
X238000000Y-55557089D01*
X237679485Y-55588657D01*
X237371286Y-55682148D01*
X237087249Y-55833969D01*
X236838287Y-56038286D01*
X236633970Y-56287248D01*
X236482149Y-56571285D01*
X236388658Y-56879484D01*
X236365000Y-57119678D01*
X190660000Y-57119678D01*
X190660000Y-51700000D01*
X197061928Y-51700000D01*
X197061928Y-54300000D01*
X197074188Y-54424482D01*
X197110498Y-54544180D01*
X197169463Y-54654494D01*
X197248815Y-54751185D01*
X197345506Y-54830537D01*
X197455820Y-54889502D01*
X197575518Y-54925812D01*
X197700000Y-54938072D01*
X200300000Y-54938072D01*
X200424482Y-54925812D01*
X200544180Y-54889502D01*
X200654494Y-54830537D01*
X200751185Y-54751185D01*
X200830537Y-54654494D01*
X200889502Y-54544180D01*
X200925812Y-54424482D01*
X200938072Y-54300000D01*
X200938072Y-52289721D01*
X203865000Y-52289721D01*
X203865000Y-52710279D01*
X203947047Y-53122756D01*
X204107988Y-53511302D01*
X204341637Y-53860983D01*
X204639017Y-54158363D01*
X204988698Y-54392012D01*
X205377244Y-54552953D01*
X205789721Y-54635000D01*
X206210279Y-54635000D01*
X206622756Y-54552953D01*
X207011302Y-54392012D01*
X207360983Y-54158363D01*
X207658363Y-53860983D01*
X207892012Y-53511302D01*
X208052953Y-53122756D01*
X208135000Y-52710279D01*
X208135000Y-52289721D01*
X223865000Y-52289721D01*
X223865000Y-52710279D01*
X223947047Y-53122756D01*
X224107988Y-53511302D01*
X224341637Y-53860983D01*
X224639017Y-54158363D01*
X224988698Y-54392012D01*
X225377244Y-54552953D01*
X225789721Y-54635000D01*
X226210279Y-54635000D01*
X226622756Y-54552953D01*
X227011302Y-54392012D01*
X227360983Y-54158363D01*
X227658363Y-53860983D01*
X227892012Y-53511302D01*
X228052953Y-53122756D01*
X228135000Y-52710279D01*
X228135000Y-52289721D01*
X228052953Y-51877244D01*
X227892012Y-51488698D01*
X227658363Y-51139017D01*
X227360983Y-50841637D01*
X227011302Y-50607988D01*
X226622756Y-50447047D01*
X226210279Y-50365000D01*
X225789721Y-50365000D01*
X225377244Y-50447047D01*
X224988698Y-50607988D01*
X224639017Y-50841637D01*
X224341637Y-51139017D01*
X224107988Y-51488698D01*
X223947047Y-51877244D01*
X223865000Y-52289721D01*
X208135000Y-52289721D01*
X208052953Y-51877244D01*
X207892012Y-51488698D01*
X207658363Y-51139017D01*
X207360983Y-50841637D01*
X207011302Y-50607988D01*
X206622756Y-50447047D01*
X206210279Y-50365000D01*
X205789721Y-50365000D01*
X205377244Y-50447047D01*
X204988698Y-50607988D01*
X204639017Y-50841637D01*
X204341637Y-51139017D01*
X204107988Y-51488698D01*
X203947047Y-51877244D01*
X203865000Y-52289721D01*
X200938072Y-52289721D01*
X200938072Y-51700000D01*
X200925812Y-51575518D01*
X200889502Y-51455820D01*
X200830537Y-51345506D01*
X200751185Y-51248815D01*
X200654494Y-51169463D01*
X200544180Y-51110498D01*
X200424482Y-51074188D01*
X200300000Y-51061928D01*
X197700000Y-51061928D01*
X197575518Y-51074188D01*
X197455820Y-51110498D01*
X197345506Y-51169463D01*
X197248815Y-51248815D01*
X197169463Y-51345506D01*
X197110498Y-51455820D01*
X197074188Y-51575518D01*
X197061928Y-51700000D01*
X190660000Y-51700000D01*
X190660000Y-47660000D01*
X247340000Y-47660000D01*
X247340001Y-104340000D01*
G36*
X220229528Y-85464850D02*
G01*
X220311595Y-85618386D01*
X220422038Y-85752962D01*
X220505564Y-85821509D01*
X220460498Y-85905820D01*
X220424188Y-86025518D01*
X220411928Y-86150000D01*
X220411928Y-86950000D01*
X220424188Y-87074482D01*
X220460498Y-87194180D01*
X220519463Y-87304494D01*
X220598815Y-87401185D01*
X220695506Y-87480537D01*
X220731918Y-87500000D01*
X220695506Y-87519463D01*
X220598815Y-87598815D01*
X220519463Y-87695506D01*
X220460498Y-87805820D01*
X220424188Y-87925518D01*
X220411928Y-88050000D01*
X220411928Y-88850000D01*
X220424188Y-88974482D01*
X220460498Y-89094180D01*
X220519463Y-89204494D01*
X220598815Y-89301185D01*
X220695506Y-89380537D01*
X220805820Y-89439502D01*
X220925518Y-89475812D01*
X221050000Y-89488072D01*
X221463271Y-89488072D01*
X222612655Y-90637457D01*
X222598815Y-90648815D01*
X222519463Y-90745506D01*
X222460498Y-90855820D01*
X222424188Y-90975518D01*
X222411928Y-91100000D01*
X222411928Y-91611905D01*
X222401185Y-91598815D01*
X222304494Y-91519463D01*
X222194180Y-91460498D01*
X222074482Y-91424188D01*
X221950000Y-91411928D01*
X221713507Y-91411928D01*
X221194034Y-90892456D01*
X221166317Y-90858683D01*
X221031559Y-90748089D01*
X220877813Y-90665911D01*
X220710990Y-90615305D01*
X220580977Y-90602500D01*
X220580969Y-90602500D01*
X220537500Y-90598219D01*
X220494031Y-90602500D01*
X220000514Y-90602500D01*
X220013072Y-90475000D01*
X220013072Y-89550000D01*
X219996008Y-89376746D01*
X219945472Y-89210150D01*
X219863405Y-89056614D01*
X219752962Y-88922038D01*
X219618386Y-88811595D01*
X219503150Y-88750000D01*
X219618386Y-88688405D01*
X219752962Y-88577962D01*
X219863405Y-88443386D01*
X219945472Y-88289850D01*
X219996008Y-88123254D01*
X220013072Y-87950000D01*
X220013072Y-87025000D01*
X219996008Y-86851746D01*
X219945472Y-86685150D01*
X219863405Y-86531614D01*
X219752962Y-86397038D01*
X219618386Y-86286595D01*
X219464850Y-86204528D01*
X219298254Y-86153992D01*
X219125000Y-86136928D01*
X217875000Y-86136928D01*
X217701746Y-86153992D01*
X217535150Y-86204528D01*
X217381614Y-86286595D01*
X217260000Y-86386400D01*
X217260000Y-85613600D01*
X217381614Y-85713405D01*
X217535150Y-85795472D01*
X217701746Y-85846008D01*
X217875000Y-85863072D01*
X219125000Y-85863072D01*
X219298254Y-85846008D01*
X219464850Y-85795472D01*
X219618386Y-85713405D01*
X219752962Y-85602962D01*
X219863405Y-85468386D01*
X219907976Y-85385000D01*
X220205306Y-85385000D01*
X220229528Y-85464850D01*
G37*
X220229528Y-85464850D02*
X220311595Y-85618386D01*
X220422038Y-85752962D01*
X220505564Y-85821509D01*
X220460498Y-85905820D01*
X220424188Y-86025518D01*
X220411928Y-86150000D01*
X220411928Y-86950000D01*
X220424188Y-87074482D01*
X220460498Y-87194180D01*
X220519463Y-87304494D01*
X220598815Y-87401185D01*
X220695506Y-87480537D01*
X220731918Y-87500000D01*
X220695506Y-87519463D01*
X220598815Y-87598815D01*
X220519463Y-87695506D01*
X220460498Y-87805820D01*
X220424188Y-87925518D01*
X220411928Y-88050000D01*
X220411928Y-88850000D01*
X220424188Y-88974482D01*
X220460498Y-89094180D01*
X220519463Y-89204494D01*
X220598815Y-89301185D01*
X220695506Y-89380537D01*
X220805820Y-89439502D01*
X220925518Y-89475812D01*
X221050000Y-89488072D01*
X221463271Y-89488072D01*
X222612655Y-90637457D01*
X222598815Y-90648815D01*
X222519463Y-90745506D01*
X222460498Y-90855820D01*
X222424188Y-90975518D01*
X222411928Y-91100000D01*
X222411928Y-91611905D01*
X222401185Y-91598815D01*
X222304494Y-91519463D01*
X222194180Y-91460498D01*
X222074482Y-91424188D01*
X221950000Y-91411928D01*
X221713507Y-91411928D01*
X221194034Y-90892456D01*
X221166317Y-90858683D01*
X221031559Y-90748089D01*
X220877813Y-90665911D01*
X220710990Y-90615305D01*
X220580977Y-90602500D01*
X220580969Y-90602500D01*
X220537500Y-90598219D01*
X220494031Y-90602500D01*
X220000514Y-90602500D01*
X220013072Y-90475000D01*
X220013072Y-89550000D01*
X219996008Y-89376746D01*
X219945472Y-89210150D01*
X219863405Y-89056614D01*
X219752962Y-88922038D01*
X219618386Y-88811595D01*
X219503150Y-88750000D01*
X219618386Y-88688405D01*
X219752962Y-88577962D01*
X219863405Y-88443386D01*
X219945472Y-88289850D01*
X219996008Y-88123254D01*
X220013072Y-87950000D01*
X220013072Y-87025000D01*
X219996008Y-86851746D01*
X219945472Y-86685150D01*
X219863405Y-86531614D01*
X219752962Y-86397038D01*
X219618386Y-86286595D01*
X219464850Y-86204528D01*
X219298254Y-86153992D01*
X219125000Y-86136928D01*
X217875000Y-86136928D01*
X217701746Y-86153992D01*
X217535150Y-86204528D01*
X217381614Y-86286595D01*
X217260000Y-86386400D01*
X217260000Y-85613600D01*
X217381614Y-85713405D01*
X217535150Y-85795472D01*
X217701746Y-85846008D01*
X217875000Y-85863072D01*
X219125000Y-85863072D01*
X219298254Y-85846008D01*
X219464850Y-85795472D01*
X219618386Y-85713405D01*
X219752962Y-85602962D01*
X219863405Y-85468386D01*
X219907976Y-85385000D01*
X220205306Y-85385000D01*
X220229528Y-85464850D01*
G36*
X200971916Y-79778418D02*
G01*
X200927071Y-79926255D01*
X200911928Y-80080000D01*
X200911928Y-80380000D01*
X200927071Y-80533745D01*
X200971916Y-80681582D01*
X201044742Y-80817829D01*
X201083454Y-80865000D01*
X201044742Y-80912171D01*
X200971916Y-81048418D01*
X200927071Y-81196255D01*
X200911928Y-81350000D01*
X200911928Y-81650000D01*
X200927071Y-81803745D01*
X200971916Y-81951582D01*
X201044742Y-82087829D01*
X201083454Y-82135000D01*
X201044742Y-82182171D01*
X200971916Y-82318418D01*
X200927071Y-82466255D01*
X200911928Y-82620000D01*
X200911928Y-82920000D01*
X200927071Y-83073745D01*
X200971916Y-83221582D01*
X201044742Y-83357829D01*
X201083454Y-83405000D01*
X201044742Y-83452171D01*
X200971916Y-83588418D01*
X200927071Y-83736255D01*
X200911928Y-83890000D01*
X200911928Y-84190000D01*
X200927071Y-84343745D01*
X200971916Y-84491582D01*
X201044742Y-84627829D01*
X201083454Y-84675000D01*
X201044742Y-84722171D01*
X200971916Y-84858418D01*
X200927071Y-85006255D01*
X200911928Y-85160000D01*
X200911928Y-85460000D01*
X200927071Y-85613745D01*
X200971916Y-85761582D01*
X201044742Y-85897829D01*
X201142749Y-86017251D01*
X201262171Y-86115258D01*
X201398418Y-86188084D01*
X201515001Y-86223448D01*
X201515000Y-88056644D01*
X201045945Y-88525700D01*
X201040000Y-88525114D01*
X200990392Y-88530000D01*
X200090107Y-88530000D01*
X200021620Y-88461513D01*
X200094180Y-88439502D01*
X200204494Y-88380537D01*
X200301185Y-88301185D01*
X200380537Y-88204494D01*
X200439502Y-88094180D01*
X200475812Y-87974482D01*
X200488072Y-87850000D01*
X200488072Y-86150000D01*
X200475812Y-86025518D01*
X200439502Y-85905820D01*
X200380537Y-85795506D01*
X200301185Y-85698815D01*
X200204494Y-85619463D01*
X200094180Y-85560498D01*
X199974482Y-85524188D01*
X199850000Y-85511928D01*
X198586729Y-85511928D01*
X198584999Y-85510198D01*
X198584999Y-81013072D01*
X199450000Y-81013072D01*
X199623254Y-80996008D01*
X199789850Y-80945472D01*
X199943386Y-80863405D01*
X200077962Y-80752962D01*
X200188405Y-80618386D01*
X200270472Y-80464850D01*
X200321008Y-80298254D01*
X200332245Y-80184167D01*
X200424276Y-80134974D01*
X200540001Y-80040001D01*
X200563803Y-80010998D01*
X200854802Y-79720000D01*
X201003141Y-79720000D01*
X200971916Y-79778418D01*
G37*
X200971916Y-79778418D02*
X200927071Y-79926255D01*
X200911928Y-80080000D01*
X200911928Y-80380000D01*
X200927071Y-80533745D01*
X200971916Y-80681582D01*
X201044742Y-80817829D01*
X201083454Y-80865000D01*
X201044742Y-80912171D01*
X200971916Y-81048418D01*
X200927071Y-81196255D01*
X200911928Y-81350000D01*
X200911928Y-81650000D01*
X200927071Y-81803745D01*
X200971916Y-81951582D01*
X201044742Y-82087829D01*
X201083454Y-82135000D01*
X201044742Y-82182171D01*
X200971916Y-82318418D01*
X200927071Y-82466255D01*
X200911928Y-82620000D01*
X200911928Y-82920000D01*
X200927071Y-83073745D01*
X200971916Y-83221582D01*
X201044742Y-83357829D01*
X201083454Y-83405000D01*
X201044742Y-83452171D01*
X200971916Y-83588418D01*
X200927071Y-83736255D01*
X200911928Y-83890000D01*
X200911928Y-84190000D01*
X200927071Y-84343745D01*
X200971916Y-84491582D01*
X201044742Y-84627829D01*
X201083454Y-84675000D01*
X201044742Y-84722171D01*
X200971916Y-84858418D01*
X200927071Y-85006255D01*
X200911928Y-85160000D01*
X200911928Y-85460000D01*
X200927071Y-85613745D01*
X200971916Y-85761582D01*
X201044742Y-85897829D01*
X201142749Y-86017251D01*
X201262171Y-86115258D01*
X201398418Y-86188084D01*
X201515001Y-86223448D01*
X201515000Y-88056644D01*
X201045945Y-88525700D01*
X201040000Y-88525114D01*
X200990392Y-88530000D01*
X200090107Y-88530000D01*
X200021620Y-88461513D01*
X200094180Y-88439502D01*
X200204494Y-88380537D01*
X200301185Y-88301185D01*
X200380537Y-88204494D01*
X200439502Y-88094180D01*
X200475812Y-87974482D01*
X200488072Y-87850000D01*
X200488072Y-86150000D01*
X200475812Y-86025518D01*
X200439502Y-85905820D01*
X200380537Y-85795506D01*
X200301185Y-85698815D01*
X200204494Y-85619463D01*
X200094180Y-85560498D01*
X199974482Y-85524188D01*
X199850000Y-85511928D01*
X198586729Y-85511928D01*
X198584999Y-85510198D01*
X198584999Y-81013072D01*
X199450000Y-81013072D01*
X199623254Y-80996008D01*
X199789850Y-80945472D01*
X199943386Y-80863405D01*
X200077962Y-80752962D01*
X200188405Y-80618386D01*
X200270472Y-80464850D01*
X200321008Y-80298254D01*
X200332245Y-80184167D01*
X200424276Y-80134974D01*
X200540001Y-80040001D01*
X200563803Y-80010998D01*
X200854802Y-79720000D01*
X201003141Y-79720000D01*
X200971916Y-79778418D01*
%TD*%
M02*
