%TF.GenerationSoftware,KiCad,Pcbnew,(5.1.6)-1*%
%TF.CreationDate,2020-09-02T10:45:19+09:00*%
%TF.ProjectId,attiny1614_accsupervisor,61747469-6e79-4313-9631-345f61636373,r01*%
%TF.SameCoordinates,Original*%
%TF.FileFunction,Paste,Top*%
%TF.FilePolarity,Positive*%
%FSLAX46Y46*%
G04 Gerber Fmt 4.6, Leading zero omitted, Abs format (unit mm)*
G04 Created by KiCad (PCBNEW (5.1.6)-1) date 2020-09-02 10:45:19*
%MOMM*%
%LPD*%
G01*
G04 APERTURE LIST*
%ADD10R,2.500000X2.500000*%
G04 APERTURE END LIST*
%TO.C,C1*%
G36*
G01*
X223712500Y-72875000D02*
X223712500Y-74125000D01*
G75*
G02*
X223462500Y-74375000I-250000J0D01*
G01*
X222537500Y-74375000D01*
G75*
G02*
X222287500Y-74125000I0J250000D01*
G01*
X222287500Y-72875000D01*
G75*
G02*
X222537500Y-72625000I250000J0D01*
G01*
X223462500Y-72625000D01*
G75*
G02*
X223712500Y-72875000I0J-250000D01*
G01*
G37*
G36*
G01*
X220737500Y-72875000D02*
X220737500Y-74125000D01*
G75*
G02*
X220487500Y-74375000I-250000J0D01*
G01*
X219562500Y-74375000D01*
G75*
G02*
X219312500Y-74125000I0J250000D01*
G01*
X219312500Y-72875000D01*
G75*
G02*
X219562500Y-72625000I250000J0D01*
G01*
X220487500Y-72625000D01*
G75*
G02*
X220737500Y-72875000I0J-250000D01*
G01*
G37*
%TD*%
%TO.C,C2*%
G36*
G01*
X213275000Y-93125000D02*
X213275000Y-91875000D01*
G75*
G02*
X213525000Y-91625000I250000J0D01*
G01*
X214450000Y-91625000D01*
G75*
G02*
X214700000Y-91875000I0J-250000D01*
G01*
X214700000Y-93125000D01*
G75*
G02*
X214450000Y-93375000I-250000J0D01*
G01*
X213525000Y-93375000D01*
G75*
G02*
X213275000Y-93125000I0J250000D01*
G01*
G37*
G36*
G01*
X210300000Y-93125000D02*
X210300000Y-91875000D01*
G75*
G02*
X210550000Y-91625000I250000J0D01*
G01*
X211475000Y-91625000D01*
G75*
G02*
X211725000Y-91875000I0J-250000D01*
G01*
X211725000Y-93125000D01*
G75*
G02*
X211475000Y-93375000I-250000J0D01*
G01*
X210550000Y-93375000D01*
G75*
G02*
X210300000Y-93125000I0J250000D01*
G01*
G37*
%TD*%
D10*
%TO.C,J1*%
X223000000Y-78000000D03*
X223000000Y-89000000D03*
X211000000Y-89000000D03*
X211000000Y-78000000D03*
%TD*%
M02*
