M48
; DRILL file {KiCad (5.1.6)-1} date 09/02/20 10:45:35
; FORMAT={-:-/ absolute / inch / decimal}
; #@! TF.CreationDate,2020-09-02T10:45:35+09:00
; #@! TF.GenerationSoftware,Kicad,Pcbnew,(5.1.6)-1
; #@! TF.FileFunction,Plated,1,2,PTH
FMAT,2
INCH
T1C0.0157
T2C0.0394
T3C0.0512
T4C0.0551
T5C0.0591
%
G90
G05
T1
X7.6378Y-3.0512
X7.6378Y-3.1299
X7.6378Y-3.2087
X7.6575Y-3.0906
X7.6575Y-3.1693
X7.6772Y-3.0512
X7.6772Y-3.1299
X7.6772Y-3.2087
X7.6969Y-3.0906
X7.6969Y-3.1693
X7.7165Y-3.0512
X7.7165Y-3.1299
X7.7165Y-3.2087
X7.7362Y-3.0906
X7.7362Y-3.1693
X7.7559Y-3.0512
X7.7559Y-3.1299
X7.7559Y-3.2087
X7.7756Y-3.0906
X7.7756Y-3.1693
X7.7953Y-3.0512
X7.7953Y-3.1299
X7.7953Y-3.2087
X7.815Y-3.0906
X7.815Y-3.1693
X7.9134Y-3.3465
X7.9331Y-3.3858
X7.9331Y-3.4252
X7.9528Y-3.3465
X8.1299Y-3.3661
X8.1299Y-3.4055
X8.2087Y-3.3071
X8.248Y-3.3071
X8.3858Y-3.2677
X8.3858Y-3.3071
X8.3858Y-3.3465
X8.3858Y-3.3858
X8.4843Y-3.6614
X8.5039Y-3.6417
X8.5236Y-3.6614
X8.5433Y-3.6417
X8.563Y-3.6614
X8.6024Y-2.0079
X8.622Y-2.0472
X8.6417Y-2.0079
X8.6417Y-2.0866
X8.6614Y-2.0472
X8.6811Y-2.0079
X8.6811Y-2.0866
X8.7008Y-2.0472
X8.7205Y-2.0866
X9.1535Y-3.4055
X9.1732Y-3.4449
X9.1929Y-3.4055
X9.2126Y-3.4449
X9.2323Y-2.7362
X9.2323Y-2.815
X9.2323Y-2.8937
X9.2323Y-3.4055
X9.252Y-2.7756
X9.252Y-2.8543
X9.252Y-3.4449
X9.2717Y-2.7362
X9.2717Y-2.815
X9.2717Y-2.8937
X9.2717Y-3.4055
X9.2913Y-2.7756
X9.2913Y-2.8543
X9.2913Y-3.4449
X9.311Y-2.7362
X9.311Y-2.815
X9.311Y-2.8937
X9.311Y-3.4055
X9.3307Y-2.7756
X9.3307Y-2.8543
X9.3307Y-3.4449
X9.3504Y-2.7362
X9.3504Y-2.815
X9.3504Y-2.8937
X9.3504Y-3.4055
X9.3701Y-2.7756
X9.3701Y-2.8543
X9.3701Y-3.4449
X9.3898Y-2.7362
X9.3898Y-2.815
X9.3898Y-2.8937
X9.3898Y-3.4055
X9.4094Y-2.7756
X9.4094Y-2.8543
X9.4094Y-3.4449
T2
X7.672Y-3.8043
X7.672Y-3.9043
X7.772Y-3.8043
X7.772Y-3.9043
X7.872Y-3.8043
X7.872Y-3.9043
X7.972Y-3.8043
X7.972Y-3.9043
X8.072Y-3.8043
X8.072Y-3.9043
X8.172Y-3.8043
X8.172Y-3.9043
X8.272Y-3.8043
X8.272Y-3.9043
X8.372Y-3.8043
X8.372Y-3.9043
X8.472Y-3.8043
X8.472Y-3.9043
X8.572Y-3.8043
X8.572Y-3.9043
X8.672Y-3.8043
X8.672Y-3.9043
X8.772Y-3.8043
X8.772Y-3.9043
X8.872Y-3.8043
X8.872Y-3.9043
X8.972Y-3.8043
X8.972Y-3.9043
X9.072Y-3.8043
X9.072Y-3.9043
X9.172Y-3.8043
X9.172Y-3.9043
X9.272Y-3.8043
X9.272Y-3.9043
X9.372Y-3.8043
X9.372Y-3.9043
X9.472Y-3.8043
X9.472Y-3.9043
X9.572Y-3.8043
X9.572Y-3.9043
X7.6346Y-3.4252
X7.6346Y-3.5252
X7.7346Y-3.4252
X7.7346Y-3.5252
X7.8346Y-3.4252
X7.8346Y-3.5252
T3
X7.7874Y-2.3622
X7.7874Y-2.8346
X8.2677Y-2.3622
X8.2677Y-2.8346
X8.3465Y-2.5984
X7.6378Y-2.0866
X7.8346Y-2.0866
T4
X9.1732Y-2.2835
X9.3701Y-2.2835
X9.5669Y-2.2835
T5
X9.5276Y-2.5197
X9.5276Y-3.3071
X8.1102Y-2.0669
X8.8976Y-2.0669
T0
M30
